<svg width="24" height="24" viewBox="0 0 24 24" fill="none" xmlns="http://www.w3.org/2000/svg">
<path d="M5.00008 10.9999H16.1701L11.2901 6.11991C10.9001 5.72991 10.9001 5.08991 11.2901 4.69991C11.3826 4.60721 11.4925 4.53366 11.6135 4.48348C11.7344 4.4333 11.8641 4.40747 11.9951 4.40747C12.126 4.40747 12.2557 4.4333 12.3767 4.48348C12.4977 4.53366 12.6076 4.60721 12.7001 4.69991L19.2901 11.2899C19.3828 11.3824 19.4563 11.4923 19.5065 11.6133C19.5567 11.7343 19.5825 11.8639 19.5825 11.9949C19.5825 12.1259 19.5567 12.2556 19.5065 12.3765C19.4563 12.4975 19.3828 12.6074 19.2901 12.6999L12.7001 19.2899C12.6075 19.3825 12.4976 19.4559 12.3766 19.506C12.2557 19.5561 12.126 19.5819 11.9951 19.5819C11.8641 19.5819 11.7345 19.5561 11.6135 19.506C11.4926 19.4559 11.3827 19.3825 11.2901 19.2899C11.1975 19.1973 11.1241 19.0874 11.0739 18.9665C11.0238 18.8455 10.9981 18.7158 10.9981 18.5849C10.9981 18.454 11.0238 18.3243 11.0739 18.2034C11.1241 18.0824 11.1975 17.9725 11.2901 17.8799L16.1701 12.9999H5.00008C4.45008 12.9999 4.00008 12.5499 4.00008 11.9999C4.00008 11.4499 4.45008 10.9999 5.00008 10.9999Z" fill="white"/>
</svg>
