<svg width="42" height="40" viewBox="0 0 42 40" fill="none" xmlns="http://www.w3.org/2000/svg">
<path d="M38.4437 22.6606L36.0384 31.9027C35.6527 33.3846 34.1357 34.2751 32.6539 33.8894L31.1418 33.4959L30.0163 37.8205C29.9502 38.0745 29.7347 38.2573 29.4753 38.2868C29.2201 38.3107 28.9678 38.1754 28.854 37.9442L25.9764 32.1515L16.6556 29.7257C15.1737 29.34 14.2833 27.823 14.669 26.3411L15.6528 22.5608L28.9959 26.0334C31.3972 26.6584 33.8593 25.2132 34.4827 22.8179L35.4712 19.0196L36.4571 19.2762C37.939 19.6617 38.8294 21.1787 38.4437 22.6606Z" fill="#7B68EE"/>
<path d="M20.5047 12.2773C20.0496 12.1588 19.5832 12.4329 19.4647 12.888C19.3463 13.3429 19.6201 13.8093 20.0752 13.9277C20.5303 14.0461 20.9967 13.7724 21.1151 13.3175C21.2334 12.8624 20.9598 12.3957 20.5047 12.2773Z" fill="#7B68EE"/>
<path d="M26.2245 13.766C25.7693 13.6476 25.3029 13.9217 25.1844 14.3768C25.0661 14.8317 25.3398 15.298 25.7949 15.4165C26.25 15.5349 26.7164 15.2612 26.8348 14.8063C26.9532 14.3512 26.6796 13.8845 26.2245 13.766Z" fill="#7B68EE"/>
<path d="M33.8805 7.26501L11.2712 1.38081C9.5352 0.929015 7.75922 1.97148 7.30742 3.70745L4.3732 14.9818C3.92297 16.7118 4.96556 18.4878 6.7014 18.9396L8.67326 19.4528L7.26596 24.8601C7.19985 25.1142 7.29894 25.3787 7.51105 25.5311C7.72047 25.6755 8.00698 25.682 8.22052 25.5348L14.7822 21.0427L29.3107 24.8239C31.0467 25.2757 32.8227 24.2332 33.2729 22.5033L36.2071 11.2289C36.6589 9.49279 35.6164 7.71678 33.8805 7.26501ZM14.0402 13.6488C12.9182 13.3568 12.2431 12.2067 12.5351 11.0848C12.8271 9.96257 13.9774 9.28702 15.0993 9.57901C16.2213 9.87101 16.8967 11.0214 16.6046 12.1439C16.3126 13.2658 15.1621 13.9408 14.0402 13.6488ZM19.7603 15.1375C18.6383 14.8455 17.9629 13.6953 18.2549 12.5734C18.547 11.4512 19.6974 10.7757 20.8195 11.0677C21.9415 11.3597 22.6168 12.5101 22.3247 13.6326C22.0326 14.7545 20.8823 15.4295 19.7603 15.1375ZM25.4801 16.6261C24.3582 16.3341 23.6827 15.1839 23.9747 14.062C24.2668 12.9398 25.4172 12.2643 26.5393 12.5563C27.6613 12.8483 28.3367 13.9988 28.0445 15.1212C27.7524 16.2431 26.602 16.9181 25.4801 16.6261Z" fill="#7B68EE"/>
<path d="M14.7845 10.7887C14.3297 10.6703 13.8632 10.9444 13.7448 11.3995C13.6264 11.8544 13.9001 12.3207 14.355 12.4391C14.8101 12.5576 15.2765 12.2838 15.3949 11.8289C15.5133 11.3738 15.2396 10.9071 14.7845 10.7887Z" fill="#7B68EE"/>
</svg>
