<svg width="16" height="17" viewBox="0 0 16 17" fill="none" xmlns="http://www.w3.org/2000/svg">
<g clip-path="url(#clip0_142_231)">
<path d="M8 2C11.6 2 14.5 4.9 14.5 8.5C14.5 12.1 11.6 15 8 15C4.4 15 1.5 12.1 1.5 8.5C1.5 4.9 4.4 2 8 2ZM8 0.5C3.6 0.5 0 4.1 0 8.5C0 12.9 3.6 16.5 8 16.5C12.4 16.5 16 12.9 16 8.5C16 4.1 12.4 0.5 8 0.5Z" fill="#9C9C9C"/>
<path d="M9.9 10.8C9.4 11.2 8.7 11.5 8 11.5C6.3 11.5 5 10.2 5 8.5C5 6.8 6.3 5.5 8 5.5C8.8 5.5 9.6 5.8 10.1 6.4L11.2 5.3C10.4 4.5 9.2 4 8 4C5.5 4 3.5 6 3.5 8.5C3.5 11 5.5 13 8 13C9.1 13 10 12.6 10.8 12L9.9 10.8Z" fill="#9C9C9C"/>
</g>
<defs>
<clipPath id="clip0_142_231">
<rect width="16" height="16" fill="white" transform="translate(0 0.5)"/>
</clipPath>
</defs>
</svg>
