<svg width="40" height="40" viewBox="0 0 40 40" fill="none" xmlns="http://www.w3.org/2000/svg">
<path fill-rule="evenodd" clip-rule="evenodd" d="M10.3271 25.2787C10.3271 22.3632 16.9601 19.9977 25.1451 19.9977C33.3279 19.9977 39.9608 22.3633 39.9608 25.2787V30.1324C39.9608 33.0479 33.3279 35.4134 25.1451 35.4134C16.9601 35.4134 10.3271 33.0478 10.3271 30.1324C10.3271 28.5145 10.3271 26.8966 10.3271 25.2787Z" fill="#FE9923"/>
<path fill-rule="evenodd" clip-rule="evenodd" d="M25.1451 19.9977C33.3279 19.9977 39.9608 22.3633 39.9608 25.2787C39.9608 28.1963 33.3279 30.5596 25.1451 30.5596C16.9601 30.5596 10.3271 28.1964 10.3271 25.2787C10.3271 22.3632 16.9601 19.9977 25.1451 19.9977Z" fill="#FECD3D"/>
<path fill-rule="evenodd" clip-rule="evenodd" d="M25.1452 22.4655C31.6555 22.4655 36.9319 23.7266 36.9319 25.2787C36.9319 26.833 31.6555 28.0918 25.1452 28.0918C18.6349 28.0918 13.3562 26.8329 13.3562 25.2787C13.3562 23.7266 18.6349 22.4655 25.1452 22.4655Z" fill="#FEA832"/>
<path d="M17.6443 32.4616L18.91 32.4638V34.9225C18.476 34.852 18.0556 34.7725 17.6443 34.6862V32.4616ZM35.9548 31.1595V33.7432C36.4115 33.5682 36.8342 33.3842 37.2228 33.191V31.1573L35.9548 31.1595ZM22.2207 35.3088C22.6389 35.3406 23.0615 35.3634 23.4887 35.3793V33.0297L22.2207 33.032V35.3088ZM13.0654 33.191C13.454 33.3842 13.8767 33.5682 14.3334 33.7432V31.1573L13.0654 31.1595V33.191ZM26.7995 35.3793C27.2289 35.3634 27.6493 35.3384 28.0652 35.3088V33.032L26.7995 33.0297V35.3793ZM31.3783 34.9225C31.8123 34.852 32.235 34.7725 32.644 34.6862V32.4638L31.3783 32.4616V34.9225Z" fill="#C85929"/>
<path d="M4.38958 31.1459V32.7184H5.95981V33.8409H4.38958V35.4134H3.26708V33.8409H1.69458V32.7184H3.26708V31.1459H4.38958Z" fill="#FEA832"/>
<path d="M33.1166 13.9238V15.4962H34.689V16.6165H33.1166V18.1889H31.994V16.6165H30.4238V15.4962H31.994V13.9238H33.1166Z" fill="#FEA832"/>
<path d="M5.14397 4.58664V6.15914H6.71421V7.27937H5.14397V8.85187H4.0214V7.27937H2.44897V6.15914H4.0214V4.58664H5.14397Z" fill="#FEA832"/>
<path fill-rule="evenodd" clip-rule="evenodd" d="M0.310694 22.5337C-1.14813 20.0068 3.41476 14.6418 10.5022 10.5516C17.5897 6.45906 24.5158 5.19109 25.9746 7.71562C26.7836 9.11765 27.5925 10.5174 28.4015 11.9172C29.8603 14.4441 25.2974 19.8091 18.21 23.8993C11.1226 27.9918 4.1964 29.262 2.73757 26.7352C1.92858 25.3355 1.11968 23.9334 0.310694 22.5337Z" fill="#FE9923"/>
<path fill-rule="evenodd" clip-rule="evenodd" d="M10.5022 10.5516C17.5897 6.45906 24.5158 5.19109 25.9746 7.71562C27.4334 10.2425 22.8705 15.6075 15.7831 19.6977C8.69796 23.7902 1.76952 25.0582 0.310694 22.5336C-1.14813 20.0068 3.41476 14.6418 10.5022 10.5516Z" fill="#FECD3D"/>
<path fill-rule="evenodd" clip-rule="evenodd" d="M11.7362 12.6876C17.3739 9.43359 22.5753 7.88609 23.3525 9.23132C24.1296 10.5766 20.1871 14.3055 14.5494 17.5618C8.91167 20.8158 3.71253 22.3633 2.93542 21.018C2.15831 19.6728 6.09847 15.9438 11.7362 12.6876Z" fill="#FEA832"/>
<path d="M15.5856 22.6655L16.7604 24.6992C16.381 24.8992 16.0037 25.0901 15.6265 25.2718L14.4881 23.2994L15.5856 22.6655ZM5.62354 26.2558L6.63932 28.0145C7.07104 27.9895 7.5301 27.9373 8.01182 27.86L6.72111 25.6218L5.62354 26.2558ZM10.2387 25.0946L11.3521 27.0216C11.7498 26.892 12.1542 26.7488 12.5656 26.5944L11.3362 24.4629L10.2387 25.0946ZM18.4532 21.0089L19.6281 23.0427C19.9894 22.8155 20.3438 22.5837 20.6892 22.3496L19.5508 20.3794L18.4532 21.0089ZM26.5428 14.1759L25.4453 14.8122L26.7382 17.0482C27.045 16.671 27.3199 16.2983 27.5585 15.9369L26.5428 14.1759ZM22.1345 18.2276L23.3638 20.3591C23.7047 20.0818 24.0296 19.8023 24.341 19.5228L23.2298 17.5981L22.1345 18.2276Z" fill="#C85929"/>
</svg>
