<svg width="660" height="662" viewBox="0 0 660 662" fill="none" xmlns="http://www.w3.org/2000/svg">
<g clip-path="url(#clip0_405_341)">
<path d="M299.363 657.608L219.361 640.038L95.0045 563.172L39.6842 484.624L7.165 394.66L4.39404 288.867L22.6032 208.934C22.5946 208.895 22.5946 208.854 22.6032 208.815L54.0734 153.673L106.662 91.2305L181.874 39.1949L226.803 21.6452C226.891 21.6075 226.989 21.6028 227.08 21.6319C227.171 21.661 227.249 21.7219 227.298 21.8035C227.354 21.8737 227.385 21.9609 227.385 22.0508C227.385 22.1407 227.354 22.228 227.298 22.2982L208.733 39.3136L243.409 39.4917L255.76 12.4648C255.788 12.4034 255.832 12.3508 255.888 12.3125C255.944 12.2742 256.009 12.2516 256.076 12.2472L313.317 4.49129H313.475L400.285 25.0681L406.52 13.5332C406.566 13.4481 406.642 13.383 406.733 13.3502C406.825 13.3174 406.925 13.3191 407.015 13.3552L490.143 46.3968L566.187 104.645L616.202 173.894L646.327 249.751C646.359 249.842 646.358 249.94 646.326 250.03C646.293 250.12 646.231 250.197 646.149 250.246L633.303 257.151L639.102 285.365L653.749 290.034C653.829 290.059 653.899 290.11 653.949 290.177C653.999 290.245 654.026 290.326 654.026 290.41L654.857 362.132V362.231L641.715 428.967C641.707 429.031 641.683 429.092 641.645 429.144C641.607 429.196 641.556 429.238 641.497 429.264C641.441 429.289 641.381 429.302 641.319 429.302C641.258 429.302 641.197 429.289 641.141 429.264L635.718 426L617.707 485.93L563.02 560.719L481.356 621.519C481.295 621.563 481.222 621.586 481.148 621.586C481.073 621.586 481.001 621.563 480.94 621.519C480.873 621.484 480.818 621.429 480.783 621.362C480.747 621.295 480.733 621.218 480.742 621.143L481.217 606.383L402.047 650.663C402.001 650.687 401.95 650.7 401.898 650.7C401.847 650.7 401.796 650.687 401.75 650.663L242.974 604.246L299.62 656.876C299.687 656.933 299.733 657.01 299.751 657.096C299.769 657.182 299.758 657.272 299.719 657.35C299.69 657.422 299.641 657.485 299.578 657.53C299.515 657.576 299.44 657.602 299.363 657.608ZM219.698 639.326L297.958 656.52L241.272 603.752L222.31 598.489L219.698 639.326ZM243.449 603.554L401.235 649.891L384.887 584.6L243.449 603.554ZM385.678 584.54L401.968 649.575L459.683 574.667L385.678 584.54ZM460.89 574.509L403.373 649.179L481.336 605.651L482.464 571.66L460.89 574.509ZM180.35 586.855L219.045 638.535L221.519 598.271L180.35 586.855ZM97.7556 563.884L217.718 638.198L179.103 586.519L97.7556 563.884ZM481.93 606.027L481.455 620.431L557.597 563.884L481.93 606.027ZM483.078 571.462L481.969 605.097L560.684 561.094L483.078 571.462ZM222.686 592.316L241.41 602.901L292.772 550.885L225.101 553.141L222.686 592.316ZM293.94 550.766L242.558 602.861L384.629 583.867L375.683 548.056L293.94 550.766ZM222.37 597.599L238.501 602.07L222.667 593.107L222.37 597.599ZM179.598 585.727L221.677 597.519L221.954 592.81L157.49 556.306L179.598 585.727ZM157.45 555.377L221.914 591.881L224.309 553.16L157.45 555.377ZM97.1816 562.974L178.331 585.47L155.847 555.456L97.1816 562.974ZM376.495 548.056L385.421 583.67L460.277 573.777L482.781 544.574L376.495 548.056ZM483.157 545.306L461.385 573.559L482.306 570.77L483.157 545.306ZM483.988 544.574L483.117 570.671L560.308 560.343L483.988 544.574ZM86.8697 513.392L95.5191 562.381L154.897 554.783L86.8697 513.392ZM41.3468 485.692L93.9159 560.402L76.2807 506.981L41.3468 485.692ZM484.918 544.099L562.466 560.105L584.495 500.907L484.918 544.099ZM585.484 500.571L564.089 557.949L616.48 486.919L585.484 500.571ZM77.3891 507.614L93.8367 557.494L85.9197 512.838L77.3891 507.614ZM229.139 474.85L156.955 554.605L224.349 552.369L229.139 474.85ZM150.127 478.609L156.361 554.09L228.664 474.138L150.127 478.609ZM81.8622 482.447L155.55 553.992L149.335 478.609L81.8622 482.447ZM86.6718 512.442L153.234 552.963L81.5455 483.18L86.6718 512.442ZM229.97 474.217L225.141 552.448L293.583 550.034L359.018 483.773L229.97 474.217ZM359.691 484.347L294.731 550.034L375.485 547.344L359.691 484.347ZM360.482 484.347L376.316 547.462L482.029 543.941L360.482 484.347ZM361.135 483.773L483.137 543.624L475.022 461.218L361.135 483.773ZM523.949 451.74L484.364 543.525L584.851 499.997L608.998 435.061L523.949 451.74ZM475.833 461L483.849 542.516L522.999 451.701L475.833 461ZM76.9932 506.506L85.7811 511.849L80.5955 482.527L69.2939 483.18L76.9932 506.506ZM41.3666 484.743L76.0432 505.854L68.4824 483.16L41.3666 484.743ZM609.532 435.952L585.86 499.364L617.192 485.752L609.532 435.952ZM606.326 408.351L610.086 434.329L617.825 484.248L635.342 425.762L606.326 408.351ZM8.74841 396.48L40.4165 483.971L68.3637 482.368L60.2685 457.854L8.74841 396.48ZM230.029 473.326L359.018 483.001L241.074 352.18L217.877 367.356L230.029 473.326ZM465.126 359.481L360.997 482.863L475.022 460.426L465.126 359.481ZM330.14 294.545L360.225 482.507L464.789 358.571L330.14 294.545ZM61.4956 459.496L69.0366 482.329L80.1204 481.696L61.4956 459.496ZM241.727 351.765L359.295 482.21L329.25 294.526L241.727 351.765ZM144.169 415.79L81.9018 481.597L149.197 477.818L144.169 415.79ZM60.8425 457.458L80.9517 481.458L143.674 415.177L41.8812 400.021L60.8425 457.458ZM144.961 415.691L150.067 477.758L228.426 473.366L144.961 415.691ZM145.198 414.9L229.099 472.871L217.224 367.85L145.198 414.9ZM465.838 359.006L475.734 460.288L523.355 450.909L555.024 377.703L465.838 359.006ZM8.5109 395.075L59.3778 455.816L40.9311 399.903L8.5109 395.075ZM555.697 377.901L524.325 450.712L609.176 434.033L605.376 407.797L555.697 377.901ZM636.233 425.386L641.359 428.433L652.799 370.205L636.233 425.386ZM606.108 407.283L635.54 424.951L654.204 362.805L600.764 370.917L606.108 407.283ZM41.5645 399.19L143.417 414.346L96.5087 362.251L36.6757 384.233L41.5645 399.19ZM97.2608 361.954L144.13 413.931L149.414 342.703L97.2608 361.954ZM150.246 342.485L144.981 413.515L210.949 320.207L150.246 342.485ZM211.781 320.524L145.99 413.515L217.026 367.059L211.781 320.524ZM556.726 377.703L605.277 406.867L600.111 371.135L556.726 377.703ZM9.12447 394.363L40.7926 399.052L35.983 384.51L9.12447 394.363ZM24.2658 349.173L8.19422 393.848L35.6267 383.837L24.2658 349.173ZM5.26492 291.578L7.87754 392.483L23.8501 348.025L5.26492 291.578ZM24.7012 347.946L36.4184 383.56L95.9347 361.796L41.5645 301.213L24.7012 347.946ZM587.365 283.367L556.172 376.912L600.012 370.264L587.365 283.367ZM466.392 358.314L554.845 376.853L528.996 318.941L466.392 358.314ZM529.729 318.506L555.459 376.318L586.791 282.595L529.729 318.506ZM588.097 282.931L600.725 370.086L654.006 362.073L588.097 282.931ZM212.533 320.524L217.718 366.485L240.46 351.607L212.533 320.524ZM41.9999 300.58L96.7264 361.321L149.533 341.912L156.916 242.767L41.9999 300.58ZM588.137 281.784L654.046 360.925L638.707 286.196L601.873 274.443L588.137 281.784ZM639.597 286.433L654.343 358.215L653.551 290.944L639.597 286.433ZM330.536 293.932L465.126 357.938L493.508 240.116L330.536 293.932ZM494.062 240.749L465.878 357.641L528.6 318.209L494.062 240.749ZM212.751 319.613L241.192 351.27L327.547 294.803L212.751 319.613ZM5.40346 289.5L24.2856 346.739L40.8322 300.738L5.40346 289.5ZM157.668 243.222L150.424 341.615L211.464 319.178L157.668 243.222ZM158.341 242.807L212.177 318.921L327.963 293.813L158.341 242.807ZM494.815 240.314L529.353 317.773L586.751 281.724L494.815 240.314ZM5.26492 288.63L40.8916 299.887L23.0782 210.853L5.26492 288.63ZM49.2836 215.839L41.802 299.789L156.223 242.233L49.2836 215.839ZM23.5533 209.488L41.228 297.691L48.5117 215.661L23.5533 209.488ZM347.479 195.974L330.101 293.279L492.756 239.542L347.479 195.974ZM158.341 241.976L328.28 293.061L235.136 194.134L158.341 241.976ZM235.829 193.64L329.329 293.022L346.707 195.737L269.516 172.608L235.829 193.64ZM602.882 273.87L638.509 285.286L632.848 257.725L602.882 273.87ZM500.535 242.015L587.028 280.953L585.603 269.082L500.535 242.015ZM590.809 270.862L588.137 280.953L600.824 274.127L590.809 270.862ZM586.434 269.457L587.662 279.588L590.056 270.625L586.434 269.457ZM591.006 270.091L601.793 273.533L632.709 256.914L616.084 175.971L591.006 270.091ZM586.335 268.607L590.294 269.853L615.549 175.022L577.468 195.361L586.335 268.607ZM495.032 239.403L585.504 268.31L576.716 195.737L495.032 239.403ZM617.529 178.563L633.363 256.538L645.674 249.91L617.529 178.563ZM80.8924 165.327L157.213 241.382L193.017 149.914L80.8924 165.327ZM49.3628 215.048L156.065 241.382L80.0215 165.564L51.8369 187.328L49.3628 215.048ZM193.849 150.151L158.222 241.164L234.542 193.482L193.849 150.151ZM347.637 195.183L492.598 238.711L361.967 115.567L347.637 195.183ZM362.956 115.468L493.587 238.592L491.608 145.601L362.956 115.468ZM538.952 156.602L495.052 238.572L576.677 194.926L572.995 164.555L538.952 156.602ZM492.558 145.759L494.537 237.999L538.239 156.404L492.558 145.759ZM23.8897 208.756L48.5909 214.85L50.9858 187.961L23.8897 208.756ZM53.8557 155.652L24.6023 206.955L51.4608 182.303L53.8557 155.652ZM51.4608 183.47L30.1442 203.018L51.1639 186.834L51.4608 183.47ZM270.426 172.133L346.806 195.045L360.997 115.626L270.426 172.133ZM573.747 164.812L577.369 194.491L614.975 174.369L573.747 164.812ZM194.937 150.231L235.235 193.066L268.506 172.311L194.937 150.231ZM52.2525 182.679L51.9358 186.181L79.2892 165.129L73.9254 162.814L52.2525 182.679ZM54.7662 154.465L52.3515 181.511L73.2326 162.458L54.7662 154.465ZM573.648 163.902L615.213 173.617L566.721 106.347L573.648 163.902ZM195.254 149.499L269.397 171.737L359.453 115.586L195.254 149.499ZM107.058 132.444L80.9913 164.516L192.562 149.182L132.61 109.077L107.058 132.444ZM74.5785 162.24L79.8236 164.535L83.7821 153.832L74.5785 162.24ZM539.288 155.889L572.837 163.803L565.87 106.426L539.288 155.889ZM85.1082 152.664L81.1497 162.953L102.921 136.104L85.1082 152.664ZM55.162 153.733L73.866 161.884L84.4352 152.209L105.831 93.4663L55.162 153.733ZM492.578 144.928L538.576 155.691L565.533 105.357L491.727 108.82L492.578 144.928ZM107.157 92.1011L85.603 151.042L106.484 131.89L127.682 105.812L107.157 92.1011ZM234.146 61.7107L194.324 148.885L360.225 114.617L234.146 61.7107ZM133.204 108.523L193.156 148.628L184.071 61.8492L133.204 108.523ZM184.803 61.1963L193.967 147.955L233.553 61.4139L199.905 47.3465L184.803 61.1963ZM364.401 115.013L491.687 144.691L490.856 108.938L364.401 115.013ZM128.335 106.267L110.522 128.229L131.878 108.622L128.335 106.267ZM456.635 64.8368L363.293 114.3L490.856 108.147L490.223 77.2818L456.635 64.8368ZM234.463 60.9984L360.779 114.004L328.695 40.659L243.963 40.204L234.463 60.9984ZM392.566 41.213L362.343 113.885L455.625 64.4213L392.566 41.213ZM329.566 40.7579L361.531 113.825L391.735 41.1141L329.566 40.7579ZM491.094 77.6775L491.707 108.206L564.089 104.625L491.094 77.6775ZM128.85 105.634L132.472 108.068L184.071 60.8797L181.835 40.4414L128.85 105.634ZM107.672 91.4877L128.177 105.199L180.113 41.3713L107.672 91.4877ZM491.074 76.7278L563.792 103.656L490.46 47.485L491.074 76.7278ZM457.565 64.3422L490.262 76.4508L489.668 47.3267L457.565 64.3422ZM395.001 41.1734L456.575 63.9662L488.619 46.9903L395.001 41.1734ZM200.538 46.7529L233.731 60.6027L243.093 40.105L207.921 39.927L200.538 46.7529ZM182.587 40.0852L184.704 60.207L199.094 47.0101L182.587 40.0852ZM184.111 39.8676L199.747 46.4166L206.753 39.9863L184.111 39.8676ZM392.982 40.2633L485.472 46.0011L400.74 25.8991L392.982 40.2633ZM401.116 25.1868L484.859 44.9722L407.094 14.1466L401.116 25.1868ZM329.21 39.8676L390.567 40.204L314.207 5.57948L329.21 39.8676ZM317.334 6.11369L392.21 40.105L399.929 25.721L317.334 6.11369ZM244.32 39.4125L328.339 39.8676L313.178 5.22335L256.433 12.9001L244.32 39.4125ZM184.19 39.0762L207.604 39.1949L225.24 23.05L184.19 39.0762Z" fill="#27A6E5"/>
<path d="M182.131 44.2402C184.776 44.2402 186.921 42.0965 186.921 39.4521C186.921 36.8077 184.776 34.664 182.131 34.664C179.486 34.664 177.341 36.8077 177.341 39.4521C177.341 42.0965 179.486 44.2402 182.131 44.2402Z" fill="#27A6E5"/>
<path d="M227.08 25.543C229.092 25.543 230.722 23.913 230.722 21.9024C230.722 19.8918 229.092 18.2619 227.08 18.2619C225.069 18.2619 223.438 19.8918 223.438 21.9024C223.438 23.913 225.069 25.543 227.08 25.543Z" fill="#27A6E5"/>
<path d="M27.7095 208.954C27.7095 209.901 27.4286 210.826 26.9023 211.614C26.376 212.401 25.6279 213.015 24.7527 213.377C23.8774 213.74 22.9144 213.835 21.9852 213.65C21.0561 213.465 20.2027 213.009 19.5328 212.339C18.8629 211.67 18.4067 210.817 18.2219 209.888C18.0371 208.959 18.132 207.996 18.4945 207.121C18.857 206.246 19.4709 205.499 20.2586 204.973C21.0463 204.446 21.9724 204.166 22.9197 204.166C24.19 204.166 25.4083 204.67 26.3066 205.568C27.2049 206.466 27.7095 207.684 27.7095 208.954Z" fill="#27A6E5"/>
<path d="M9.57961 288.867C9.57961 289.814 9.29869 290.74 8.77238 291.527C8.24607 292.314 7.49801 292.928 6.62279 293.291C5.74756 293.653 4.78449 293.748 3.85536 293.563C2.92623 293.378 2.07277 292.922 1.4029 292.253C0.733037 291.583 0.276853 290.73 0.0920369 289.801C-0.0927788 288.872 0.00207535 287.91 0.364604 287.035C0.727133 286.16 1.34105 285.412 2.12873 284.886C2.91641 284.36 3.84247 284.079 4.78981 284.079C6.06014 284.079 7.27845 284.583 8.17671 285.481C9.07497 286.379 9.57961 287.597 9.57961 288.867Z" fill="#27A6E5"/>
<path d="M99.9722 562.836C99.9722 563.783 99.6913 564.708 99.165 565.496C98.6387 566.283 97.8906 566.897 97.0154 567.259C96.1401 567.621 95.1771 567.716 94.2479 567.532C93.3188 567.347 92.4654 566.891 91.7955 566.221C91.1256 565.552 90.6694 564.698 90.4846 563.77C90.2998 562.841 90.3947 561.878 90.7572 561.003C91.1197 560.128 91.7336 559.381 92.5213 558.854C93.309 558.328 94.2351 558.047 95.1824 558.047C96.4527 558.047 97.671 558.552 98.5693 559.45C99.4675 560.348 99.9722 561.566 99.9722 562.836Z" fill="#27A6E5"/>
<path d="M246.259 603.455C246.259 604.402 245.978 605.328 245.452 606.115C244.926 606.902 244.178 607.516 243.302 607.879C242.427 608.241 241.464 608.336 240.535 608.151C239.606 607.966 238.752 607.51 238.083 606.841C237.413 606.171 236.957 605.318 236.772 604.389C236.587 603.46 236.682 602.498 237.044 601.623C237.407 600.748 238.021 600 238.808 599.474C239.596 598.948 240.522 598.667 241.469 598.667C242.098 598.667 242.721 598.791 243.302 599.031C243.884 599.272 244.412 599.625 244.856 600.069C245.301 600.514 245.654 601.042 245.895 601.623C246.135 602.204 246.259 602.826 246.259 603.455Z" fill="#27A6E5"/>
<path d="M156.045 559.828C158.69 559.828 160.834 557.684 160.834 555.04C160.834 552.396 158.69 550.252 156.045 550.252C153.399 550.252 151.255 552.396 151.255 555.04C151.255 557.684 153.399 559.828 156.045 559.828Z" fill="#27A6E5"/>
<path d="M483.612 548.946C486.257 548.946 488.402 546.802 488.402 544.158C488.402 541.514 486.257 539.37 483.612 539.37C480.967 539.37 478.822 541.514 478.822 544.158C478.822 546.802 480.967 548.946 483.612 548.946Z" fill="#27A6E5"/>
<path d="M560.308 377.407C560.308 378.354 560.027 379.279 559.501 380.067C558.975 380.854 558.227 381.468 557.351 381.83C556.476 382.193 555.513 382.288 554.584 382.103C553.655 381.918 552.801 381.462 552.131 380.792C551.462 380.123 551.005 379.27 550.821 378.341C550.636 377.412 550.731 376.449 551.093 375.574C551.456 374.699 552.07 373.952 552.857 373.426C553.645 372.899 554.571 372.619 555.518 372.619C556.789 372.619 558.007 373.123 558.905 374.021C559.803 374.919 560.308 376.137 560.308 377.407Z" fill="#27A6E5"/>
<path d="M470.133 358.492C470.133 359.439 469.852 360.365 469.326 361.152C468.8 361.939 468.052 362.553 467.176 362.915C466.301 363.278 465.338 363.373 464.409 363.188C463.48 363.003 462.626 362.547 461.957 361.878C461.287 361.208 460.831 360.355 460.646 359.426C460.461 358.497 460.556 357.534 460.918 356.66C461.281 355.785 461.895 355.037 462.682 354.511C463.47 353.985 464.396 353.704 465.344 353.704C466.614 353.704 467.832 354.208 468.73 355.106C469.629 356.004 470.133 357.222 470.133 358.492Z" fill="#27A6E5"/>
<path d="M483.612 548.946C486.257 548.946 488.402 546.802 488.402 544.158C488.402 541.514 486.257 539.37 483.612 539.37C480.967 539.37 478.822 541.514 478.822 544.158C478.822 546.802 480.967 548.946 483.612 548.946Z" fill="#27A6E5"/>
<path d="M364.678 483.476C364.678 484.424 364.397 485.351 363.87 486.138C363.342 486.926 362.593 487.54 361.717 487.902C360.84 488.264 359.876 488.357 358.947 488.171C358.017 487.984 357.164 487.526 356.495 486.855C355.825 486.183 355.371 485.328 355.188 484.398C355.006 483.468 355.103 482.505 355.469 481.63C355.834 480.756 356.452 480.009 357.242 479.486C358.032 478.962 358.96 478.684 359.908 478.688C360.536 478.688 361.158 478.812 361.738 479.053C362.318 479.294 362.845 479.647 363.288 480.092C363.731 480.537 364.082 481.065 364.321 481.645C364.559 482.226 364.681 482.848 364.678 483.476Z" fill="#27A6E5"/>
<path d="M614.401 434.349C614.401 435.296 614.12 436.222 613.594 437.009C613.068 437.797 612.32 438.41 611.445 438.773C610.569 439.135 609.606 439.23 608.677 439.045C607.748 438.86 606.895 438.404 606.225 437.735C605.555 437.065 605.099 436.212 604.914 435.283C604.729 434.354 604.824 433.392 605.186 432.517C605.549 431.642 606.163 430.894 606.951 430.368C607.738 429.842 608.664 429.561 609.612 429.561C610.882 429.561 612.1 430.065 612.999 430.963C613.897 431.861 614.401 433.079 614.401 434.349Z" fill="#27A6E5"/>
<path d="M592.293 281.665C592.293 282.613 592.012 283.539 591.484 284.327C590.957 285.115 590.208 285.729 589.332 286.091C588.455 286.452 587.491 286.546 586.561 286.36C585.632 286.173 584.778 285.715 584.109 285.044C583.44 284.372 582.986 283.517 582.803 282.587C582.62 281.657 582.718 280.694 583.084 279.819C583.449 278.944 584.066 278.198 584.857 277.674C585.647 277.151 586.575 276.873 587.523 276.877C588.151 276.877 588.773 277.001 589.353 277.242C589.933 277.483 590.46 277.836 590.903 278.281C591.346 278.725 591.697 279.253 591.936 279.834C592.174 280.415 592.296 281.037 592.293 281.665Z" fill="#27A6E5"/>
<path d="M654.759 367.138C657.404 367.138 659.548 364.994 659.548 362.35C659.548 359.706 657.404 357.562 654.759 357.562C652.113 357.562 649.969 359.706 649.969 362.35C649.969 364.994 652.113 367.138 654.759 367.138Z" fill="#27A6E5"/>
<path d="M560.308 377.407C560.308 378.354 560.027 379.279 559.501 380.067C558.975 380.854 558.227 381.468 557.351 381.83C556.476 382.193 555.513 382.288 554.584 382.103C553.655 381.918 552.801 381.462 552.131 380.792C551.462 380.123 551.005 379.27 550.821 378.341C550.636 377.412 550.731 376.449 551.093 375.574C551.456 374.699 552.07 373.952 552.857 373.426C553.645 372.899 554.571 372.619 555.518 372.619C556.789 372.619 558.007 373.123 558.905 374.021C559.803 374.919 560.308 376.137 560.308 377.407Z" fill="#27A6E5"/>
<path d="M645.238 429.086C645.242 429.808 645.031 430.514 644.633 431.116C644.234 431.718 643.665 432.188 642.999 432.466C642.333 432.744 641.599 432.817 640.891 432.677C640.182 432.538 639.532 432.19 639.021 431.68C638.511 431.17 638.163 430.519 638.024 429.811C637.884 429.103 637.958 428.37 638.236 427.704C638.514 427.038 638.984 426.469 639.585 426.071C640.187 425.672 640.894 425.462 641.616 425.465C642.577 425.465 643.498 425.847 644.177 426.526C644.857 427.205 645.238 428.126 645.238 429.086Z" fill="#27A6E5"/>
<path d="M654.759 367.138C657.404 367.138 659.548 364.994 659.548 362.35C659.548 359.706 657.404 357.562 654.759 357.562C652.113 357.562 649.969 359.706 649.969 362.35C649.969 364.994 652.113 367.138 654.759 367.138Z" fill="#27A6E5"/>
<path d="M617.628 490.797C620.273 490.797 622.417 488.653 622.417 486.009C622.417 483.364 620.273 481.221 617.628 481.221C614.982 481.221 612.838 483.364 612.838 486.009C612.838 488.653 614.982 490.797 617.628 490.797Z" fill="#27A6E5"/>
<path d="M614.401 434.349C614.401 435.296 614.12 436.222 613.594 437.009C613.068 437.797 612.32 438.41 611.445 438.773C610.569 439.135 609.606 439.23 608.677 439.045C607.748 438.86 606.895 438.404 606.225 437.735C605.555 437.065 605.099 436.212 604.914 435.283C604.729 434.354 604.824 433.392 605.186 432.517C605.549 431.642 606.163 430.894 606.951 430.368C607.738 429.842 608.664 429.561 609.612 429.561C610.882 429.561 612.1 430.065 612.999 430.963C613.897 431.861 614.401 433.079 614.401 434.349Z" fill="#27A6E5"/>
<path d="M567.473 560.481C567.477 561.429 567.199 562.357 566.676 563.147C566.152 563.937 565.405 564.553 564.53 564.919C563.655 565.284 562.691 565.382 561.761 565.199C560.831 565.017 559.975 564.562 559.303 563.894C558.632 563.225 558.173 562.372 557.987 561.442C557.801 560.513 557.894 559.549 558.256 558.673C558.618 557.797 559.232 557.048 560.02 556.521C560.808 555.994 561.735 555.713 562.683 555.713C563.95 555.713 565.166 556.214 566.063 557.108C566.961 558.002 567.468 559.215 567.473 560.481Z" fill="#27A6E5"/>
<path d="M617.628 491.351C620.579 491.351 622.972 488.959 622.972 486.009C622.972 483.058 620.579 480.667 617.628 480.667C614.676 480.667 612.284 483.058 612.284 486.009C612.284 488.959 614.676 491.351 617.628 491.351Z" fill="#27A6E5"/>
<path d="M483.612 548.946C486.257 548.946 488.402 546.802 488.402 544.158C488.402 541.514 486.257 539.37 483.612 539.37C480.967 539.37 478.822 541.514 478.822 544.158C478.822 546.802 480.967 548.946 483.612 548.946Z" fill="#27A6E5"/>
<path d="M567.473 560.481C567.477 561.429 567.199 562.357 566.676 563.147C566.152 563.937 565.405 564.553 564.53 564.919C563.655 565.284 562.691 565.382 561.761 565.199C560.831 565.017 559.975 564.562 559.303 563.894C558.632 563.225 558.173 562.372 557.987 561.442C557.801 560.513 557.894 559.549 558.256 558.673C558.618 557.797 559.232 557.048 560.02 556.521C560.808 555.994 561.735 555.713 562.683 555.713C563.95 555.713 565.166 556.214 566.063 557.108C566.961 558.002 567.468 559.215 567.473 560.481Z" fill="#27A6E5"/>
<path d="M486.759 621.262C486.759 622.397 486.422 623.508 485.79 624.452C485.159 625.396 484.261 626.131 483.211 626.565C482.161 626.998 481.006 627.111 479.892 626.888C478.778 626.665 477.755 626.116 476.953 625.312C476.152 624.508 475.606 623.483 475.387 622.369C475.168 621.255 475.284 620.1 475.722 619.052C476.159 618.004 476.898 617.109 477.845 616.481C478.791 615.853 479.903 615.52 481.039 615.524C481.792 615.524 482.537 615.673 483.232 615.961C483.928 616.25 484.559 616.673 485.091 617.206C485.622 617.739 486.043 618.371 486.329 619.067C486.616 619.764 486.762 620.509 486.759 621.262Z" fill="#27A6E5"/>
<path d="M483.612 551.439C487.634 551.439 490.895 548.179 490.895 544.158C490.895 540.137 487.634 536.877 483.612 536.877C479.589 536.877 476.328 540.137 476.328 544.158C476.328 548.179 479.589 551.439 483.612 551.439Z" fill="#27A6E5"/>
<path d="M406.48 650.465C406.48 651.412 406.199 652.338 405.673 653.125C405.146 653.913 404.398 654.526 403.523 654.889C402.648 655.251 401.685 655.346 400.756 655.161C399.827 654.976 398.973 654.52 398.303 653.851C397.633 653.181 397.177 652.328 396.992 651.399C396.808 650.47 396.902 649.508 397.265 648.633C397.628 647.758 398.241 647.01 399.029 646.484C399.817 645.958 400.743 645.677 401.69 645.677C402.961 645.677 404.179 646.181 405.077 647.079C405.975 647.977 406.48 649.195 406.48 650.465Z" fill="#27A6E5"/>
<path d="M567.473 560.481C567.477 561.429 567.199 562.357 566.676 563.147C566.152 563.937 565.405 564.553 564.53 564.919C563.655 565.284 562.691 565.382 561.761 565.199C560.831 565.017 559.975 564.562 559.303 563.894C558.632 563.225 558.173 562.372 557.987 561.442C557.801 560.513 557.894 559.549 558.256 558.673C558.618 557.797 559.232 557.048 560.02 556.521C560.808 555.994 561.735 555.713 562.683 555.713C563.95 555.713 565.166 556.214 566.063 557.108C566.961 558.002 567.468 559.215 567.473 560.481Z" fill="#27A6E5"/>
<path d="M246.259 603.455C246.259 604.402 245.978 605.328 245.452 606.115C244.926 606.902 244.178 607.516 243.302 607.879C242.427 608.241 241.464 608.336 240.535 608.151C239.606 607.966 238.752 607.51 238.083 606.841C237.413 606.171 236.957 605.318 236.772 604.389C236.587 603.46 236.682 602.498 237.044 601.623C237.407 600.748 238.021 600 238.808 599.474C239.596 598.948 240.522 598.667 241.469 598.667C242.098 598.667 242.721 598.791 243.302 599.031C243.884 599.272 244.412 599.625 244.856 600.069C245.301 600.514 245.654 601.042 245.895 601.623C246.135 602.204 246.259 602.826 246.259 603.455Z" fill="#27A6E5"/>
<path d="M364.678 483.476C364.678 484.424 364.397 485.351 363.87 486.138C363.342 486.926 362.593 487.54 361.717 487.902C360.84 488.264 359.876 488.357 358.947 488.171C358.017 487.984 357.164 487.526 356.495 486.855C355.825 486.183 355.371 485.328 355.188 484.398C355.006 483.468 355.103 482.505 355.469 481.63C355.834 480.756 356.452 480.009 357.242 479.486C358.032 478.962 358.96 478.684 359.908 478.688C360.536 478.688 361.158 478.812 361.738 479.053C362.318 479.294 362.845 479.647 363.288 480.092C363.731 480.537 364.082 481.065 364.321 481.645C364.559 482.226 364.681 482.848 364.678 483.476Z" fill="#27A6E5"/>
<path d="M406.48 650.465C406.48 651.412 406.199 652.338 405.673 653.125C405.146 653.913 404.398 654.526 403.523 654.889C402.648 655.251 401.685 655.346 400.756 655.161C399.827 654.976 398.973 654.52 398.303 653.851C397.633 653.181 397.177 652.328 396.992 651.399C396.808 650.47 396.902 649.508 397.265 648.633C397.628 647.758 398.241 647.01 399.029 646.484C399.817 645.958 400.743 645.677 401.69 645.677C402.961 645.677 404.179 646.181 405.077 647.079C405.975 647.977 406.48 649.195 406.48 650.465Z" fill="#27A6E5"/>
<path d="M249.565 603.455C249.565 605.055 249.09 606.62 248.201 607.951C247.311 609.282 246.047 610.319 244.568 610.931C243.088 611.544 241.461 611.704 239.89 611.392C238.32 611.079 236.878 610.309 235.746 609.177C234.613 608.045 233.842 606.603 233.53 605.034C233.218 603.464 233.378 601.837 233.991 600.358C234.603 598.88 235.641 597.616 236.972 596.727C238.303 595.837 239.869 595.363 241.47 595.363C243.617 595.363 245.676 596.215 247.194 597.733C248.712 599.25 249.565 601.309 249.565 603.455Z" fill="#27A6E5"/>
<path d="M304.152 657.212C304.152 658.159 303.871 659.085 303.345 659.872C302.819 660.659 302.071 661.273 301.196 661.636C300.32 661.998 299.357 662.093 298.428 661.908C297.499 661.723 296.646 661.267 295.976 660.598C295.306 659.928 294.85 659.075 294.665 658.146C294.48 657.217 294.575 656.255 294.937 655.38C295.3 654.505 295.914 653.757 296.701 653.231C297.489 652.705 298.415 652.424 299.363 652.424C300.633 652.424 301.851 652.928 302.749 653.826C303.648 654.724 304.152 655.942 304.152 657.212Z" fill="#27A6E5"/>
<path d="M224.151 639.623C224.151 640.57 223.87 641.495 223.344 642.283C222.817 643.07 222.069 643.684 221.194 644.046C220.319 644.409 219.356 644.504 218.427 644.319C217.498 644.134 216.644 643.678 215.974 643.008C215.304 642.339 214.848 641.486 214.663 640.557C214.479 639.628 214.573 638.665 214.936 637.79C215.298 636.915 215.912 636.168 216.7 635.642C217.488 635.115 218.414 634.835 219.361 634.835C220.631 634.835 221.85 635.339 222.748 636.237C223.646 637.135 224.151 638.353 224.151 639.623Z" fill="#27A6E5"/>
<path d="M234.384 473.702C234.384 474.649 234.103 475.575 233.577 476.362C233.05 477.15 232.302 477.763 231.427 478.126C230.552 478.488 229.589 478.583 228.66 478.398C227.73 478.214 226.877 477.758 226.207 477.088C225.537 476.418 225.081 475.565 224.896 474.636C224.711 473.708 224.806 472.745 225.169 471.87C225.531 470.995 226.145 470.247 226.933 469.721C227.721 469.195 228.647 468.914 229.594 468.914C230.864 468.914 232.083 469.419 232.981 470.317C233.879 471.215 234.384 472.432 234.384 473.702Z" fill="#27A6E5"/>
<path d="M364.678 483.476C364.678 484.424 364.397 485.351 363.87 486.138C363.342 486.926 362.593 487.54 361.717 487.902C360.84 488.264 359.876 488.357 358.947 488.171C358.017 487.984 357.164 487.526 356.495 486.855C355.825 486.183 355.371 485.328 355.188 484.398C355.006 483.468 355.103 482.505 355.469 481.63C355.834 480.756 356.452 480.009 357.242 479.486C358.032 478.962 358.96 478.684 359.908 478.688C360.536 478.688 361.158 478.812 361.738 479.053C362.318 479.294 362.845 479.647 363.288 480.092C363.731 480.537 364.082 481.065 364.321 481.645C364.559 482.226 364.681 482.848 364.678 483.476Z" fill="#27A6E5"/>
<path d="M470.133 358.492C470.133 359.439 469.852 360.365 469.326 361.152C468.8 361.939 468.052 362.553 467.176 362.915C466.301 363.278 465.338 363.373 464.409 363.188C463.48 363.003 462.626 362.547 461.957 361.878C461.287 361.208 460.831 360.355 460.646 359.426C460.461 358.497 460.556 357.534 460.918 356.66C461.281 355.785 461.895 355.037 462.682 354.511C463.47 353.985 464.396 353.704 465.344 353.704C466.614 353.704 467.832 354.208 468.73 355.106C469.629 356.004 470.133 357.222 470.133 358.492Z" fill="#27A6E5"/>
<path d="M592.293 281.665C592.293 282.613 592.012 283.539 591.484 284.327C590.957 285.115 590.208 285.729 589.332 286.091C588.455 286.452 587.491 286.546 586.561 286.36C585.632 286.173 584.778 285.715 584.109 285.044C583.44 284.372 582.986 283.517 582.803 282.587C582.62 281.657 582.718 280.694 583.084 279.819C583.449 278.944 584.066 278.198 584.857 277.674C585.647 277.151 586.575 276.873 587.523 276.877C588.151 276.877 588.773 277.001 589.353 277.242C589.933 277.483 590.46 277.836 590.903 278.281C591.346 278.725 591.697 279.253 591.936 279.834C592.174 280.415 592.296 281.037 592.293 281.665Z" fill="#27A6E5"/>
<path d="M561.951 377.407C561.951 378.683 561.572 379.931 560.862 380.992C560.152 382.053 559.143 382.88 557.963 383.368C556.783 383.855 555.484 383.982 554.232 383.731C552.98 383.481 551.83 382.865 550.929 381.961C550.027 381.056 549.414 379.905 549.167 378.653C548.921 377.4 549.051 376.103 549.543 374.925C550.034 373.746 550.864 372.74 551.928 372.034C552.992 371.328 554.241 370.953 555.518 370.957C556.365 370.954 557.204 371.119 557.987 371.443C558.77 371.766 559.481 372.241 560.079 372.841C560.678 373.441 561.151 374.153 561.472 374.937C561.793 375.72 561.956 376.56 561.951 377.407Z" fill="#27A6E5"/>
<path d="M498.773 239.522C498.773 240.469 498.492 241.395 497.966 242.182C497.439 242.97 496.691 243.583 495.816 243.946C494.941 244.308 493.978 244.403 493.049 244.218C492.12 244.033 491.266 243.577 490.596 242.908C489.926 242.238 489.47 241.385 489.285 240.456C489.101 239.527 489.195 238.565 489.558 237.69C489.92 236.815 490.534 236.067 491.322 235.541C492.11 235.015 493.036 234.734 493.983 234.734C495.254 234.734 496.472 235.239 497.37 236.136C498.268 237.034 498.773 238.252 498.773 239.522Z" fill="#27A6E5"/>
<path d="M473.043 358.492C473.046 360.003 472.602 361.482 471.765 362.74C470.928 363.999 469.736 364.981 468.34 365.562C466.944 366.143 465.408 366.297 463.924 366.004C462.441 365.712 461.078 364.986 460.007 363.919C458.937 362.852 458.207 361.491 457.911 360.009C457.615 358.527 457.765 356.99 458.342 355.594C458.92 354.197 459.899 353.003 461.156 352.163C462.413 351.323 463.891 350.874 465.403 350.874C467.425 350.874 469.366 351.676 470.798 353.104C472.23 354.532 473.037 356.47 473.043 358.492Z" fill="#27A6E5"/>
<path d="M334.336 293.873C334.336 294.82 334.056 295.745 333.529 296.533C333.003 297.32 332.255 297.934 331.38 298.296C330.504 298.659 329.541 298.753 328.612 298.569C327.683 298.384 326.83 297.928 326.16 297.258C325.49 296.589 325.034 295.736 324.849 294.807C324.664 293.878 324.759 292.915 325.121 292.04C325.484 291.165 326.098 290.418 326.886 289.892C327.673 289.365 328.599 289.085 329.547 289.085C330.817 289.085 332.035 289.589 332.934 290.487C333.832 291.385 334.336 292.603 334.336 293.873Z" fill="#27A6E5"/>
<path d="M367.43 483.476C367.434 484.969 366.994 486.429 366.167 487.672C365.34 488.914 364.162 489.884 362.784 490.457C361.405 491.03 359.887 491.181 358.422 490.89C356.958 490.6 355.612 489.882 354.556 488.826C353.501 487.771 352.782 486.426 352.492 484.962C352.201 483.498 352.352 481.98 352.925 480.602C353.499 479.224 354.468 478.047 355.711 477.22C356.955 476.393 358.415 475.954 359.908 475.958C361.903 475.958 363.816 476.75 365.227 478.16C366.637 479.57 367.43 481.482 367.43 483.476Z" fill="#27A6E5"/>
<path d="M211.998 324.164C214.644 324.164 216.788 322.02 216.788 319.376C216.788 316.732 214.644 314.588 211.998 314.588C209.353 314.588 207.208 316.732 207.208 319.376C207.208 322.02 209.353 324.164 211.998 324.164Z" fill="#27A6E5"/>
<path d="M234.384 473.702C234.384 474.649 234.103 475.575 233.577 476.362C233.05 477.15 232.302 477.763 231.427 478.126C230.552 478.488 229.589 478.583 228.66 478.398C227.73 478.214 226.877 477.758 226.207 477.088C225.537 476.418 225.081 475.565 224.896 474.636C224.711 473.708 224.806 472.745 225.169 471.87C225.531 470.995 226.145 470.247 226.933 469.721C227.721 469.195 228.647 468.914 229.594 468.914C230.864 468.914 232.083 469.419 232.981 470.317C233.879 471.215 234.384 472.432 234.384 473.702Z" fill="#27A6E5"/>
<path d="M156.045 559.828C158.69 559.828 160.834 557.684 160.834 555.04C160.834 552.396 158.69 550.252 156.045 550.252C153.399 550.252 151.255 552.396 151.255 555.04C151.255 557.684 153.399 559.828 156.045 559.828Z" fill="#27A6E5"/>
<path d="M225.239 639.623C225.239 640.797 224.891 641.944 224.239 642.92C223.586 643.896 222.659 644.657 221.574 645.106C220.489 645.556 219.295 645.673 218.143 645.444C216.991 645.215 215.933 644.65 215.103 643.82C214.272 642.99 213.707 641.932 213.478 640.781C213.249 639.629 213.366 638.436 213.816 637.351C214.265 636.267 215.026 635.34 216.003 634.687C216.979 634.035 218.127 633.687 219.302 633.687C220.876 633.687 222.387 634.312 223.5 635.426C224.614 636.539 225.239 638.048 225.239 639.623Z" fill="#27A6E5"/>
<path d="M99.9722 562.836C99.9722 563.783 99.6913 564.708 99.165 565.496C98.6387 566.283 97.8906 566.897 97.0154 567.259C96.1401 567.621 95.1771 567.716 94.2479 567.532C93.3188 567.347 92.4654 566.891 91.7955 566.221C91.1256 565.552 90.6694 564.698 90.4846 563.77C90.2998 562.841 90.3947 561.878 90.7572 561.003C91.1197 560.128 91.7336 559.381 92.5213 558.854C93.309 558.328 94.2351 558.047 95.1824 558.047C96.4527 558.047 97.671 558.552 98.5693 559.45C99.4675 560.348 99.9722 561.566 99.9722 562.836Z" fill="#27A6E5"/>
<path d="M156.045 559.828C158.69 559.828 160.834 557.684 160.834 555.04C160.834 552.396 158.69 550.252 156.045 550.252C153.399 550.252 151.255 552.396 151.255 555.04C151.255 557.684 153.399 559.828 156.045 559.828Z" fill="#27A6E5"/>
<path d="M149.276 414.88C149.276 415.827 148.995 416.753 148.469 417.54C147.942 418.328 147.194 418.941 146.319 419.304C145.444 419.666 144.481 419.761 143.552 419.576C142.623 419.392 141.769 418.936 141.099 418.266C140.429 417.596 139.973 416.743 139.788 415.814C139.604 414.886 139.698 413.923 140.061 413.048C140.423 412.173 141.037 411.425 141.825 410.899C142.613 410.373 143.539 410.092 144.486 410.092C145.756 410.092 146.975 410.597 147.873 411.495C148.771 412.392 149.276 413.61 149.276 414.88Z" fill="#27A6E5"/>
<path d="M234.384 473.702C234.384 474.649 234.103 475.575 233.577 476.362C233.05 477.15 232.302 477.763 231.427 478.126C230.552 478.488 229.589 478.583 228.66 478.398C227.73 478.214 226.877 477.758 226.207 477.088C225.537 476.418 225.081 475.565 224.896 474.636C224.711 473.708 224.806 472.745 225.169 471.87C225.531 470.995 226.145 470.247 226.933 469.721C227.721 469.195 228.647 468.914 229.594 468.914C230.864 468.914 232.083 469.419 232.981 470.317C233.879 471.215 234.384 472.432 234.384 473.702Z" fill="#27A6E5"/>
<path d="M85.7217 482.052C85.7217 482.999 85.4408 483.924 84.9145 484.712C84.3882 485.499 83.6401 486.113 82.7649 486.475C81.8897 486.838 80.9266 486.933 79.9975 486.748C79.0683 486.563 78.2149 486.107 77.545 485.437C76.8751 484.768 76.4189 483.915 76.2341 482.986C76.0493 482.057 76.1442 481.094 76.5067 480.219C76.8692 479.345 77.4831 478.597 78.2708 478.071C79.0585 477.544 79.9846 477.264 80.9319 477.264C82.2022 477.264 83.4205 477.768 84.3188 478.666C85.2171 479.564 85.7217 480.782 85.7217 482.052Z" fill="#27A6E5"/>
<path d="M156.045 559.828C158.69 559.828 160.834 557.684 160.834 555.04C160.834 552.396 158.69 550.252 156.045 550.252C153.399 550.252 151.255 552.396 151.255 555.04C151.255 557.684 153.399 559.828 156.045 559.828Z" fill="#27A6E5"/>
<path d="M44.7905 484.386C44.7905 485.333 44.5096 486.259 43.9833 487.046C43.457 487.834 42.7089 488.448 41.8337 488.81C40.9585 489.172 39.9954 489.267 39.0663 489.082C38.1372 488.898 37.2837 488.442 36.6138 487.772C35.944 487.102 35.4878 486.249 35.303 485.32C35.1182 484.392 35.213 483.429 35.5755 482.554C35.9381 481.679 36.552 480.931 37.3397 480.405C38.1274 479.879 39.0534 479.598 40.0007 479.598C41.2695 479.604 42.4848 480.11 43.3819 481.006C44.279 481.903 44.7853 483.118 44.7905 484.386Z" fill="#27A6E5"/>
<path d="M99.9722 562.836C99.9722 563.783 99.6913 564.708 99.165 565.496C98.6387 566.283 97.8906 566.897 97.0154 567.259C96.1401 567.621 95.1771 567.716 94.2479 567.532C93.3188 567.347 92.4654 566.891 91.7955 566.221C91.1256 565.552 90.6694 564.698 90.4846 563.77C90.2998 562.841 90.3947 561.878 90.7572 561.003C91.1197 560.128 91.7336 559.381 92.5213 558.854C93.309 558.328 94.2351 558.047 95.1824 558.047C96.4527 558.047 97.671 558.552 98.5693 559.45C99.4675 560.348 99.9722 561.566 99.9722 562.836Z" fill="#27A6E5"/>
<path d="M85.7217 482.052C85.7217 482.999 85.4408 483.924 84.9145 484.712C84.3882 485.499 83.6401 486.113 82.7649 486.475C81.8897 486.838 80.9266 486.933 79.9975 486.748C79.0683 486.563 78.2149 486.107 77.545 485.437C76.8751 484.768 76.4189 483.915 76.2341 482.986C76.0493 482.057 76.1442 481.094 76.5067 480.219C76.8692 479.345 77.4831 478.597 78.2708 478.071C79.0585 477.544 79.9846 477.264 80.9319 477.264C82.2022 477.264 83.4205 477.768 84.3188 478.666C85.2171 479.564 85.7217 480.782 85.7217 482.052Z" fill="#27A6E5"/>
<path d="M44.7905 484.386C44.7905 485.333 44.5096 486.259 43.9833 487.046C43.457 487.834 42.7089 488.448 41.8337 488.81C40.9585 489.172 39.9954 489.267 39.0663 489.082C38.1372 488.898 37.2837 488.442 36.6138 487.772C35.944 487.102 35.4878 486.249 35.303 485.32C35.1182 484.392 35.213 483.429 35.5755 482.554C35.9381 481.679 36.552 480.931 37.3397 480.405C38.1274 479.879 39.0534 479.598 40.0007 479.598C41.2695 479.604 42.4848 480.11 43.3819 481.006C44.279 481.903 44.7853 483.118 44.7905 484.386Z" fill="#27A6E5"/>
<path d="M12.3307 394.521C12.3385 395.47 12.0643 396.399 11.5428 397.192C11.0212 397.984 10.2759 398.604 9.40144 398.973C8.52694 399.341 7.56264 399.442 6.63092 399.261C5.6992 399.081 4.84204 398.628 4.16821 397.96C3.49437 397.292 3.03424 396.439 2.8462 395.509C2.65815 394.579 2.75066 393.615 3.112 392.738C3.47334 391.86 4.08721 391.11 4.87572 390.582C5.66424 390.054 6.59185 389.773 7.54086 389.773C8.80437 389.772 10.0167 390.272 10.9138 391.161C11.811 392.05 12.3202 393.258 12.3307 394.521Z" fill="#27A6E5"/>
<path d="M87.2062 482.052C87.2062 483.292 86.8382 484.505 86.1488 485.536C85.4594 486.568 84.4795 487.372 83.333 487.846C82.1865 488.321 80.925 488.445 79.7079 488.203C78.4908 487.961 77.3729 487.364 76.4954 486.487C75.6179 485.61 75.0204 484.492 74.7783 483.275C74.5362 482.059 74.6604 480.798 75.1353 479.652C75.6102 478.505 76.4144 477.526 77.4462 476.837C78.478 476.148 79.691 475.78 80.932 475.78C81.7559 475.78 82.5718 475.942 83.333 476.257C84.0942 476.572 84.7859 477.034 85.3685 477.617C85.9511 478.199 86.4133 478.891 86.7286 479.652C87.0439 480.412 87.2062 481.228 87.2062 482.052Z" fill="#27A6E5"/>
<path d="M149.276 414.88C149.276 415.827 148.995 416.753 148.469 417.54C147.942 418.328 147.194 418.941 146.319 419.304C145.444 419.666 144.481 419.761 143.552 419.576C142.623 419.392 141.769 418.936 141.099 418.266C140.429 417.596 139.973 416.743 139.788 415.814C139.604 414.886 139.698 413.923 140.061 413.048C140.423 412.173 141.037 411.425 141.825 410.899C142.613 410.373 143.539 410.092 144.486 410.092C145.756 410.092 146.975 410.597 147.873 411.495C148.771 412.392 149.276 413.61 149.276 414.88Z" fill="#27A6E5"/>
<path d="M334.336 293.873C334.336 294.82 334.056 295.745 333.529 296.533C333.003 297.32 332.255 297.934 331.38 298.296C330.504 298.659 329.541 298.753 328.612 298.569C327.683 298.384 326.83 297.928 326.16 297.258C325.49 296.589 325.034 295.736 324.849 294.807C324.664 293.878 324.759 292.915 325.121 292.04C325.484 291.165 326.098 290.418 326.886 289.892C327.673 289.365 328.599 289.085 329.547 289.085C330.817 289.085 332.035 289.589 332.934 290.487C333.832 291.385 334.336 292.603 334.336 293.873Z" fill="#27A6E5"/>
<path d="M498.773 239.522C498.773 240.469 498.492 241.395 497.966 242.182C497.439 242.97 496.691 243.583 495.816 243.946C494.941 244.308 493.978 244.403 493.049 244.218C492.12 244.033 491.266 243.577 490.596 242.908C489.926 242.238 489.47 241.385 489.285 240.456C489.101 239.527 489.195 238.565 489.558 237.69C489.92 236.815 490.534 236.067 491.322 235.541C492.11 235.015 493.036 234.734 493.983 234.734C495.254 234.734 496.472 235.239 497.37 236.136C498.268 237.034 498.773 238.252 498.773 239.522Z" fill="#27A6E5"/>
<path d="M656.857 290.608C656.857 291.187 656.685 291.753 656.363 292.235C656.041 292.716 655.584 293.092 655.048 293.313C654.513 293.535 653.924 293.593 653.356 293.48C652.788 293.367 652.266 293.088 651.856 292.679C651.446 292.269 651.167 291.747 651.054 291.179C650.941 290.611 650.999 290.023 651.221 289.488C651.443 288.952 651.818 288.495 652.3 288.173C652.782 287.852 653.348 287.68 653.927 287.68C654.704 287.68 655.449 287.988 655.999 288.538C656.548 289.087 656.857 289.831 656.857 290.608Z" fill="#27A6E5"/>
<path d="M654.759 367.138C657.404 367.138 659.548 364.994 659.548 362.35C659.548 359.706 657.404 357.562 654.759 357.562C652.113 357.562 649.969 359.706 649.969 362.35C649.969 364.994 652.113 367.138 654.759 367.138Z" fill="#27A6E5"/>
<path d="M620.933 174.23C620.933 175.177 620.652 176.103 620.125 176.89C619.599 177.678 618.851 178.292 617.976 178.654C617.101 179.016 616.138 179.111 615.208 178.926C614.279 178.742 613.426 178.286 612.756 177.616C612.086 176.946 611.63 176.093 611.445 175.164C611.26 174.236 611.355 173.273 611.718 172.398C612.08 171.523 612.694 170.775 613.482 170.249C614.269 169.723 615.195 169.442 616.143 169.442C617.413 169.442 618.631 169.947 619.53 170.845C620.428 171.743 620.933 172.96 620.933 174.23Z" fill="#27A6E5"/>
<path d="M498.773 239.522C498.773 240.469 498.492 241.395 497.966 242.182C497.439 242.97 496.691 243.583 495.816 243.946C494.941 244.308 493.978 244.403 493.049 244.218C492.12 244.033 491.266 243.577 490.596 242.908C489.926 242.238 489.47 241.385 489.285 240.456C489.101 239.527 489.195 238.565 489.558 237.69C489.92 236.815 490.534 236.067 491.322 235.541C492.11 235.015 493.036 234.734 493.983 234.734C495.254 234.734 496.472 235.239 497.37 236.136C498.268 237.034 498.773 238.252 498.773 239.522Z" fill="#27A6E5"/>
<path d="M592.293 281.665C592.293 282.613 592.012 283.539 591.484 284.327C590.957 285.115 590.208 285.729 589.332 286.091C588.455 286.452 587.491 286.546 586.561 286.36C585.632 286.173 584.778 285.715 584.109 285.044C583.44 284.372 582.986 283.517 582.803 282.587C582.62 281.657 582.718 280.694 583.084 279.819C583.449 278.944 584.066 278.198 584.857 277.674C585.647 277.151 586.575 276.873 587.523 276.877C588.151 276.877 588.773 277.001 589.353 277.242C589.933 277.483 590.46 277.836 590.903 278.281C591.346 278.725 591.697 279.253 591.936 279.834C592.174 280.415 592.296 281.037 592.293 281.665Z" fill="#27A6E5"/>
<path d="M651.037 250.088C651.037 251.035 650.756 251.96 650.23 252.748C649.704 253.535 648.956 254.149 648.08 254.511C647.205 254.874 646.242 254.968 645.313 254.784C644.384 254.599 643.53 254.143 642.86 253.473C642.191 252.804 641.734 251.95 641.55 251.022C641.365 250.093 641.46 249.13 641.822 248.255C642.185 247.38 642.799 246.633 643.586 246.106C644.374 245.58 645.3 245.299 646.247 245.299C646.876 245.299 647.499 245.423 648.08 245.664C648.661 245.905 649.189 246.257 649.634 246.702C650.079 247.147 650.432 247.674 650.673 248.255C650.913 248.836 651.037 249.459 651.037 250.088Z" fill="#27A6E5"/>
<path d="M620.933 174.23C620.933 175.177 620.652 176.103 620.125 176.89C619.599 177.678 618.851 178.292 617.976 178.654C617.101 179.016 616.138 179.111 615.208 178.926C614.279 178.742 613.426 178.286 612.756 177.616C612.086 176.946 611.63 176.093 611.445 175.164C611.26 174.236 611.355 173.273 611.718 172.398C612.08 171.523 612.694 170.775 613.482 170.249C614.269 169.723 615.195 169.442 616.143 169.442C617.413 169.442 618.631 169.947 619.53 170.845C620.428 171.743 620.933 172.96 620.933 174.23Z" fill="#27A6E5"/>
<path d="M592.293 281.665C592.293 282.613 592.012 283.539 591.484 284.327C590.957 285.115 590.208 285.729 589.332 286.091C588.455 286.452 587.491 286.546 586.561 286.36C585.632 286.173 584.778 285.715 584.109 285.044C583.44 284.372 582.986 283.517 582.803 282.587C582.62 281.657 582.718 280.694 583.084 279.819C583.449 278.944 584.066 278.198 584.857 277.674C585.647 277.151 586.575 276.873 587.523 276.877C588.151 276.877 588.773 277.001 589.353 277.242C589.933 277.483 590.46 277.836 590.903 278.281C591.346 278.725 591.697 279.253 591.936 279.834C592.174 280.415 592.296 281.037 592.293 281.665Z" fill="#27A6E5"/>
<path d="M366.341 114.755C366.341 115.702 366.06 116.628 365.534 117.415C365.007 118.203 364.259 118.817 363.384 119.179C362.509 119.541 361.546 119.636 360.617 119.451C359.687 119.267 358.834 118.811 358.164 118.141C357.494 117.471 357.038 116.618 356.853 115.689C356.668 114.761 356.763 113.798 357.126 112.923C357.488 112.048 358.102 111.3 358.89 110.774C359.678 110.248 360.604 109.967 361.551 109.967C362.821 109.967 364.04 110.472 364.938 111.37C365.836 112.268 366.341 113.485 366.341 114.755Z" fill="#27A6E5"/>
<path d="M620.933 174.23C620.933 175.177 620.652 176.103 620.125 176.89C619.599 177.678 618.851 178.292 617.976 178.654C617.101 179.016 616.138 179.111 615.208 178.926C614.279 178.742 613.426 178.286 612.756 177.616C612.086 176.946 611.63 176.093 611.445 175.164C611.26 174.236 611.355 173.273 611.718 172.398C612.08 171.523 612.694 170.775 613.482 170.249C614.269 169.723 615.195 169.442 616.143 169.442C617.413 169.442 618.631 169.947 619.53 170.845C620.428 171.743 620.933 172.96 620.933 174.23Z" fill="#27A6E5"/>
<path d="M498.773 239.522C498.773 240.469 498.492 241.395 497.966 242.182C497.439 242.97 496.691 243.583 495.816 243.946C494.941 244.308 493.978 244.403 493.049 244.218C492.12 244.033 491.266 243.577 490.596 242.908C489.926 242.238 489.47 241.385 489.285 240.456C489.101 239.527 489.195 238.565 489.558 237.69C489.92 236.815 490.534 236.067 491.322 235.541C492.11 235.015 493.036 234.734 493.983 234.734C495.254 234.734 496.472 235.239 497.37 236.136C498.268 237.034 498.773 238.252 498.773 239.522Z" fill="#27A6E5"/>
<path d="M494.814 46.6738C494.814 47.6208 494.534 48.5465 494.007 49.3339C493.481 50.1213 492.733 50.735 491.858 51.0974C490.982 51.4598 490.019 51.5546 489.09 51.3698C488.161 51.1851 487.308 50.7291 486.638 50.0595C485.968 49.3898 485.512 48.5367 485.327 47.6079C485.142 46.6791 485.237 45.7164 485.599 44.8415C485.962 43.9666 486.576 43.2188 487.364 42.6926C488.151 42.1665 489.077 41.8857 490.025 41.8857C491.295 41.8857 492.513 42.3902 493.412 43.2881C494.31 44.186 494.814 45.4039 494.814 46.6738Z" fill="#27A6E5"/>
<path d="M569.908 104.863C569.923 105.615 569.715 106.356 569.309 106.99C568.902 107.624 568.317 108.123 567.626 108.424C566.936 108.725 566.171 108.814 565.43 108.679C564.689 108.545 564.005 108.194 563.464 107.67C562.923 107.146 562.55 106.473 562.392 105.736C562.235 105 562.299 104.234 562.579 103.534C562.858 102.835 563.338 102.234 563.96 101.808C564.581 101.383 565.315 101.151 566.068 101.143C567.069 101.132 568.034 101.517 568.753 102.214C569.472 102.91 569.887 103.862 569.908 104.863Z" fill="#27A6E5"/>
<path d="M392.328 45.4075C394.974 45.4075 397.118 43.2638 397.118 40.6194C397.118 37.9751 394.974 35.8314 392.328 35.8314C389.683 35.8314 387.539 37.9751 387.539 40.6194C387.539 43.2638 389.683 45.4075 392.328 45.4075Z" fill="#27A6E5"/>
<path d="M411.686 13.6321C411.689 14.58 411.412 15.5076 410.888 16.2976C410.364 17.0876 409.617 17.7044 408.742 18.0698C407.868 18.4353 406.904 18.5329 405.973 18.3504C405.043 18.1679 404.188 17.7134 403.516 17.0446C402.844 16.3758 402.386 15.5227 402.199 14.5933C402.013 13.664 402.107 12.7003 402.469 11.8242C402.831 10.9482 403.444 10.1992 404.233 9.67219C405.021 9.14519 405.948 8.86387 406.896 8.86386C408.163 8.86385 409.378 9.36559 410.276 10.2593C411.173 11.1529 411.68 12.3657 411.686 13.6321Z" fill="#27A6E5"/>
<path d="M456.694 67.31C458.29 67.31 459.584 66.0167 459.584 64.4213C459.584 62.8259 458.29 61.5326 456.694 61.5326C455.098 61.5326 453.804 62.8259 453.804 64.4213C453.804 66.0167 455.098 67.31 456.694 67.31Z" fill="#27A6E5"/>
<path d="M493.568 77.1631C493.572 77.7157 493.411 78.257 493.107 78.7183C492.803 79.1797 492.368 79.5404 491.859 79.7545C491.349 79.9687 490.787 80.0268 490.245 79.9214C489.702 79.816 489.203 79.5519 488.811 79.1625C488.418 78.7732 488.151 78.2761 488.041 77.7345C487.932 77.1928 487.986 76.6308 488.197 76.1199C488.407 75.609 488.765 75.1721 489.225 74.8647C489.684 74.5573 490.224 74.3931 490.777 74.3931C491.514 74.3931 492.221 74.6843 492.743 75.2032C493.266 75.7221 493.563 76.4266 493.568 77.1631Z" fill="#27A6E5"/>
<path d="M491.667 147.896C493.198 147.896 494.438 146.656 494.438 145.126C494.438 143.596 493.198 142.356 491.667 142.356C490.137 142.356 488.896 143.596 488.896 145.126C488.896 146.656 490.137 147.896 491.667 147.896Z" fill="#27A6E5"/>
<path d="M491.41 111.016C492.94 111.016 494.181 109.776 494.181 108.246C494.181 106.716 492.94 105.476 491.41 105.476C489.88 105.476 488.639 106.716 488.639 108.246C488.639 109.776 489.88 111.016 491.41 111.016Z" fill="#27A6E5"/>
<path d="M538.378 158.976C539.908 158.976 541.149 157.736 541.149 156.206C541.149 154.676 539.908 153.436 538.378 153.436C536.848 153.436 535.607 154.676 535.607 156.206C535.607 157.736 536.848 158.976 538.378 158.976Z" fill="#27A6E5"/>
<path d="M573.114 166.751C574.644 166.751 575.885 165.511 575.885 163.981C575.885 162.452 574.644 161.212 573.114 161.212C571.583 161.212 570.343 162.452 570.343 163.981C570.343 165.511 571.583 166.751 573.114 166.751Z" fill="#27A6E5"/>
<path d="M580.081 195.124C580.081 195.675 579.917 196.215 579.611 196.674C579.304 197.132 578.868 197.49 578.358 197.701C577.848 197.912 577.287 197.967 576.746 197.86C576.204 197.752 575.707 197.487 575.317 197.096C574.927 196.706 574.661 196.209 574.553 195.668C574.445 195.127 574.501 194.566 574.712 194.056C574.923 193.546 575.281 193.111 575.74 192.804C576.199 192.498 576.738 192.334 577.29 192.334C577.657 192.334 578.02 192.406 578.358 192.546C578.697 192.687 579.005 192.892 579.264 193.151C579.523 193.41 579.728 193.718 579.869 194.056C580.009 194.395 580.081 194.757 580.081 195.124Z" fill="#27A6E5"/>
<path d="M585.86 271.238C587.391 271.238 588.631 269.998 588.631 268.468C588.631 266.938 587.391 265.698 585.86 265.698C584.33 265.698 583.089 266.938 583.089 268.468C583.089 269.998 584.33 271.238 585.86 271.238Z" fill="#27A6E5"/>
<path d="M604.802 274.087C604.802 274.64 604.638 275.18 604.33 275.639C604.022 276.098 603.585 276.456 603.074 276.667C602.563 276.877 602.001 276.931 601.459 276.822C600.917 276.713 600.42 276.445 600.031 276.053C599.641 275.661 599.377 275.162 599.271 274.619C599.166 274.077 599.224 273.515 599.438 273.006C599.653 272.496 600.013 272.062 600.475 271.758C600.936 271.454 601.478 271.294 602.031 271.298C602.396 271.298 602.758 271.37 603.096 271.51C603.433 271.651 603.74 271.857 603.997 272.116C604.255 272.375 604.458 272.683 604.596 273.021C604.735 273.36 604.804 273.722 604.802 274.087Z" fill="#27A6E5"/>
<path d="M529.452 320.702C530.982 320.702 532.223 319.462 532.223 317.932C532.223 316.402 530.982 315.162 529.452 315.162C527.921 315.162 526.681 316.402 526.681 317.932C526.681 319.462 527.921 320.702 529.452 320.702Z" fill="#27A6E5"/>
<path d="M600.388 373.469C601.918 373.469 603.159 372.229 603.159 370.699C603.159 369.17 601.918 367.93 600.388 367.93C598.858 367.93 597.617 369.17 597.617 370.699C597.617 372.229 598.858 373.469 600.388 373.469Z" fill="#27A6E5"/>
<path d="M608.444 407.579C608.444 408.131 608.28 408.671 607.973 409.129C607.667 409.588 607.231 409.946 606.721 410.157C606.211 410.368 605.65 410.423 605.109 410.316C604.567 410.208 604.07 409.942 603.68 409.552C603.289 409.162 603.024 408.665 602.916 408.124C602.808 407.583 602.864 407.022 603.075 406.512C603.286 406.002 603.644 405.566 604.103 405.26C604.562 404.953 605.101 404.79 605.653 404.79C606.393 404.79 607.103 405.084 607.626 405.607C608.15 406.13 608.444 406.84 608.444 407.579Z" fill="#27A6E5"/>
<path d="M524.187 453.6C525.717 453.6 526.958 452.36 526.958 450.83C526.958 449.301 525.717 448.06 524.187 448.06C522.657 448.06 521.416 449.301 521.416 450.83C521.416 452.36 522.657 453.6 524.187 453.6Z" fill="#27A6E5"/>
<path d="M475.695 464.146C477.225 464.146 478.466 462.906 478.466 461.376C478.466 459.846 477.225 458.606 475.695 458.606C474.164 458.606 472.924 459.846 472.924 461.376C472.924 462.906 474.164 464.146 475.695 464.146Z" fill="#27A6E5"/>
<path d="M385.302 587.488C386.833 587.488 388.073 586.248 388.073 584.718C388.073 583.188 386.833 581.948 385.302 581.948C383.772 581.948 382.531 583.188 382.531 584.718C382.531 586.248 383.772 587.488 385.302 587.488Z" fill="#27A6E5"/>
<path d="M375.742 550.549C377.273 550.549 378.513 549.309 378.513 547.779C378.513 546.249 377.273 545.009 375.742 545.009C374.212 545.009 372.971 546.249 372.971 547.779C372.971 549.309 374.212 550.549 375.742 550.549Z" fill="#27A6E5"/>
<path d="M293.603 553.517C295.133 553.517 296.374 552.276 296.374 550.747C296.374 549.217 295.133 547.977 293.603 547.977C292.073 547.977 290.832 549.217 290.832 550.747C290.832 552.276 292.073 553.517 293.603 553.517Z" fill="#27A6E5"/>
<path d="M224.467 598.232C224.487 598.787 224.34 599.336 224.046 599.808C223.752 600.279 223.323 600.652 222.815 600.878C222.307 601.105 221.743 601.174 221.195 601.078C220.648 600.982 220.141 600.724 219.741 600.339C219.341 599.953 219.065 599.456 218.949 598.912C218.833 598.369 218.882 597.803 219.09 597.287C219.298 596.772 219.656 596.33 220.116 596.019C220.577 595.708 221.121 595.541 221.677 595.541C222.4 595.54 223.095 595.821 223.616 596.323C224.136 596.825 224.442 597.509 224.467 598.232Z" fill="#27A6E5"/>
<path d="M179.459 589.13C180.99 589.13 182.23 587.89 182.23 586.36C182.23 584.831 180.99 583.59 179.459 583.59C177.929 583.59 176.688 584.831 176.688 586.36C176.688 587.89 177.929 589.13 179.459 589.13Z" fill="#27A6E5"/>
<path d="M224.982 555.832C226.513 555.832 227.753 554.591 227.753 553.062C227.753 551.532 226.513 550.292 224.982 550.292C223.452 550.292 222.211 551.532 222.211 553.062C222.211 554.591 223.452 555.832 224.982 555.832Z" fill="#27A6E5"/>
<path d="M87.4238 514.935C88.9541 514.935 90.1948 513.695 90.1948 512.165C90.1948 510.635 88.9541 509.395 87.4238 509.395C85.8934 509.395 84.6528 510.635 84.6528 512.165C84.6528 513.695 85.8934 514.935 87.4238 514.935Z" fill="#27A6E5"/>
<path d="M76.538 509.652C78.0684 509.652 79.309 508.412 79.309 506.882C79.309 505.353 78.0684 504.112 76.538 504.112C75.0077 504.112 73.7671 505.353 73.7671 506.882C73.7671 508.412 75.0077 509.652 76.538 509.652Z" fill="#27A6E5"/>
<path d="M68.6211 485.593C70.1514 485.593 71.392 484.353 71.392 482.823C71.392 481.294 70.1514 480.053 68.6211 480.053C67.0907 480.053 65.8501 481.294 65.8501 482.823C65.8501 484.353 67.0907 485.593 68.6211 485.593Z" fill="#27A6E5"/>
<path d="M63.1581 458.408C63.162 458.961 63.0017 459.502 62.6974 459.963C62.3932 460.425 61.9587 460.785 61.4491 461C60.9395 461.214 60.3778 461.272 59.8351 461.166C59.2925 461.061 58.7934 460.797 58.4011 460.408C58.0088 460.018 57.741 459.521 57.6318 458.98C57.5225 458.438 57.5766 457.876 57.7872 457.365C57.9978 456.854 58.3555 456.417 58.8148 456.11C59.2742 455.802 59.8145 455.638 60.3673 455.638C61.1041 455.638 61.8109 455.929 62.3337 456.448C62.8565 456.967 63.1529 457.672 63.1581 458.408Z" fill="#27A6E5"/>
<path d="M41.2475 402.495C42.7779 402.495 44.0185 401.254 44.0185 399.725C44.0185 398.195 42.7779 396.955 41.2475 396.955C39.7172 396.955 38.4766 398.195 38.4766 399.725C38.4766 401.254 39.7172 402.495 41.2475 402.495Z" fill="#27A6E5"/>
<path d="M36.2998 386.33C37.8301 386.33 39.0707 385.09 39.0707 383.56C39.0707 382.03 37.8301 380.79 36.2998 380.79C34.7694 380.79 33.5288 382.03 33.5288 383.56C33.5288 385.09 34.7694 386.33 36.2998 386.33Z" fill="#27A6E5"/>
<path d="M152.225 478.194C152.228 478.746 152.068 479.287 151.764 479.749C151.46 480.21 151.025 480.571 150.516 480.785C150.006 480.999 149.444 481.057 148.902 480.952C148.359 480.846 147.86 480.582 147.467 480.193C147.075 479.804 146.807 479.307 146.698 478.765C146.589 478.223 146.643 477.661 146.854 477.15C147.064 476.639 147.422 476.203 147.881 475.895C148.341 475.588 148.881 475.424 149.434 475.424C150.17 475.424 150.877 475.715 151.4 476.234C151.923 476.753 152.219 477.457 152.225 478.194Z" fill="#27A6E5"/>
<path d="M96.667 364.566C98.1973 364.566 99.4379 363.326 99.4379 361.796C99.4379 360.266 98.1973 359.026 96.667 359.026C95.1366 359.026 93.896 360.266 93.896 361.796C93.896 363.326 95.1366 364.566 96.667 364.566Z" fill="#27A6E5"/>
<path d="M27.5317 347.293C27.5317 347.845 27.368 348.384 27.0614 348.843C26.7547 349.302 26.3189 349.66 25.8089 349.871C25.299 350.082 24.7379 350.137 24.1965 350.029C23.6551 349.922 23.1579 349.656 22.7676 349.266C22.3773 348.876 22.1115 348.379 22.0038 347.838C21.8961 347.296 21.9514 346.735 22.1626 346.226C22.3739 345.716 22.7316 345.28 23.1905 344.974C23.6494 344.667 24.189 344.504 24.7409 344.504C25.4811 344.504 26.1909 344.797 26.7143 345.321C27.2377 345.844 27.5317 346.553 27.5317 347.293Z" fill="#27A6E5"/>
<path d="M49.4419 218.569C50.9722 218.569 52.2128 217.329 52.2128 215.799C52.2128 214.27 50.9722 213.029 49.4419 213.029C47.9115 213.029 46.6709 214.27 46.6709 215.799C46.6709 217.329 47.9115 218.569 49.4419 218.569Z" fill="#27A6E5"/>
<path d="M107.553 134.402C109.083 134.402 110.324 133.162 110.324 131.632C110.324 130.103 109.083 128.862 107.553 128.862C106.022 128.862 104.782 130.103 104.782 131.632C104.782 133.162 106.022 134.402 107.553 134.402Z" fill="#27A6E5"/>
<path d="M54.5683 182.402C54.5722 182.955 54.4113 183.497 54.1062 183.959C53.801 184.421 53.3654 184.781 52.8547 184.995C52.3439 185.209 51.7812 185.266 51.238 185.158C50.6948 185.051 50.1957 184.785 49.8042 184.394C49.4127 184.003 49.1465 183.504 49.0395 182.961C48.9324 182.418 48.9894 181.855 49.203 181.345C49.4167 180.834 49.7775 180.399 50.2394 180.094C50.7014 179.789 51.2437 179.628 51.7973 179.632C52.5306 179.637 53.2324 179.93 53.7509 180.449C54.2695 180.967 54.5631 181.669 54.5683 182.402Z" fill="#27A6E5"/>
<path d="M132.293 111.649C133.824 111.649 135.064 110.409 135.064 108.879C135.064 107.349 133.824 106.109 132.293 106.109C130.763 106.109 129.522 107.349 129.522 108.879C129.522 110.409 130.763 111.649 132.293 111.649Z" fill="#27A6E5"/>
<path d="M87.5624 152.724C87.5663 153.277 87.4055 153.819 87.1003 154.281C86.7952 154.743 86.3595 155.103 85.8488 155.317C85.338 155.53 84.7753 155.587 84.2321 155.48C83.6889 155.373 83.1898 155.107 82.7984 154.716C82.4069 154.325 82.1407 153.826 82.0336 153.283C81.9266 152.74 81.9835 152.177 82.1972 151.667C82.4109 151.156 82.7716 150.721 83.2336 150.416C83.6955 150.111 84.2378 149.95 84.7914 149.954C85.5247 149.959 86.2265 150.252 86.7451 150.771C87.2636 151.289 87.5572 151.991 87.5624 152.724Z" fill="#27A6E5"/>
<path d="M236.66 61.1963C236.664 61.7497 236.503 62.2918 236.198 62.7536C235.893 63.2154 235.457 63.576 234.946 63.7896C234.436 64.0032 233.873 64.0601 233.33 63.9531C232.787 63.8461 232.287 63.58 231.896 63.1886C231.505 62.7973 231.238 62.2984 231.131 61.7554C231.024 61.2124 231.081 60.6499 231.295 60.1393C231.509 59.6287 231.869 59.1932 232.331 58.8882C232.793 58.5832 233.335 58.4224 233.889 58.4263C234.622 58.4315 235.324 58.725 235.843 59.2433C236.361 59.7617 236.655 60.4632 236.66 61.1963Z" fill="#27A6E5"/>
<path d="M246.556 39.5708C246.556 40.1234 246.392 40.6636 246.084 41.1227C245.777 41.5819 245.34 41.9395 244.829 42.15C244.318 42.3606 243.755 42.4147 243.214 42.3054C242.672 42.1962 242.174 41.9285 241.785 41.5364C241.395 41.1442 241.131 40.6453 241.026 40.1028C240.92 39.5604 240.979 38.9988 241.193 38.4894C241.407 37.98 241.768 37.5457 242.229 37.2416C242.691 36.9374 243.232 36.7772 243.785 36.7811C244.151 36.7811 244.513 36.8534 244.85 36.9938C245.188 37.1342 245.494 37.34 245.752 37.5994C246.009 37.8587 246.213 38.1664 246.351 38.5047C246.489 38.8431 246.559 39.2054 246.556 39.5708Z" fill="#27A6E5"/>
<path d="M199.905 50.3143C201.436 50.3143 202.676 49.0741 202.676 47.5443C202.676 46.0145 201.436 44.7744 199.905 44.7744C198.375 44.7744 197.134 46.0145 197.134 47.5443C197.134 49.0741 198.375 50.3143 199.905 50.3143Z" fill="#27A6E5"/>
<path d="M184.744 64.1641C186.274 64.1641 187.515 62.9239 187.515 61.3941C187.515 59.8643 186.274 58.6242 184.744 58.6242C183.214 58.6242 181.973 59.8643 181.973 61.3941C181.973 62.9239 183.214 64.1641 184.744 64.1641Z" fill="#27A6E5"/>
<path d="M208.495 42.0638C210.025 42.0638 211.266 40.8236 211.266 39.2938C211.266 37.764 210.025 36.5239 208.495 36.5239C206.965 36.5239 205.724 37.764 205.724 39.2938C205.724 40.8236 206.965 42.0638 208.495 42.0638Z" fill="#27A6E5"/>
<path d="M331.664 39.9467C331.668 40.5002 331.508 41.0422 331.202 41.504C330.897 41.9658 330.462 42.3265 329.951 42.5401C329.44 42.7537 328.877 42.8106 328.334 42.7036C327.791 42.5965 327.292 42.3304 326.9 41.9391C326.509 41.5478 326.243 41.0489 326.136 40.5059C326.029 39.9629 326.086 39.4003 326.299 38.8898C326.513 38.3792 326.874 37.9437 327.336 37.6387C327.798 37.3337 328.34 37.1729 328.893 37.1768C329.627 37.182 330.329 37.4755 330.847 37.9938C331.366 38.5122 331.659 39.2137 331.664 39.9467Z" fill="#27A6E5"/>
<path d="M271.97 172.509C271.974 173.062 271.814 173.603 271.509 174.064C271.205 174.526 270.771 174.886 270.261 175.1C269.752 175.315 269.19 175.373 268.647 175.267C268.104 175.162 267.605 174.898 267.213 174.508C266.821 174.119 266.553 173.622 266.444 173.08C266.334 172.539 266.389 171.977 266.599 171.466C266.81 170.955 267.168 170.518 267.627 170.211C268.086 169.903 268.627 169.739 269.179 169.739C269.916 169.739 270.623 170.03 271.146 170.549C271.669 171.068 271.965 171.773 271.97 172.509Z" fill="#27A6E5"/>
<path d="M235.215 196.39C236.745 196.39 237.986 195.15 237.986 193.62C237.986 192.09 236.745 190.85 235.215 190.85C233.684 190.85 232.444 192.09 232.444 193.62C232.444 195.15 233.684 196.39 235.215 196.39Z" fill="#27A6E5"/>
<path d="M349.814 195.262C349.818 195.816 349.657 196.358 349.352 196.82C349.047 197.281 348.611 197.642 348.1 197.856C347.59 198.069 347.027 198.126 346.484 198.019C345.94 197.912 345.441 197.646 345.05 197.255C344.658 196.863 344.392 196.364 344.285 195.821C344.178 195.278 344.235 194.716 344.449 194.205C344.662 193.695 345.023 193.259 345.485 192.954C345.947 192.649 346.489 192.488 347.043 192.492C347.776 192.497 348.478 192.791 348.997 193.309C349.515 193.828 349.809 194.529 349.814 195.262Z" fill="#27A6E5"/>
<path d="M400.483 28.214C402.013 28.214 403.254 26.9738 403.254 25.444C403.254 23.9142 402.013 22.6741 400.483 22.6741C398.953 22.6741 397.712 23.9142 397.712 25.444C397.712 26.9738 398.953 28.214 400.483 28.214Z" fill="#27A6E5"/>
<path d="M494.814 46.6738C494.814 47.6208 494.534 48.5465 494.007 49.3339C493.481 50.1213 492.733 50.735 491.858 51.0974C490.982 51.4598 490.019 51.5546 489.09 51.3698C488.161 51.1851 487.308 50.7291 486.638 50.0595C485.968 49.3898 485.512 48.5367 485.327 47.6079C485.142 46.6791 485.237 45.7164 485.599 44.8415C485.962 43.9666 486.576 43.2188 487.364 42.6926C488.151 42.1665 489.077 41.8857 490.025 41.8857C491.295 41.8857 492.513 42.3902 493.412 43.2881C494.31 44.186 494.814 45.4039 494.814 46.6738Z" fill="#27A6E5"/>
<path d="M318.206 4.78807C318.206 5.73506 317.925 6.66078 317.398 7.44818C316.872 8.23557 316.124 8.84927 315.249 9.21167C314.374 9.57407 313.41 9.66889 312.481 9.48414C311.552 9.29939 310.699 8.84337 310.029 8.17375C309.359 7.50412 308.903 6.65097 308.718 5.72218C308.533 4.79338 308.628 3.83066 308.991 2.95575C309.353 2.08085 309.967 1.33305 310.755 0.806935C311.542 0.280815 312.468 0 313.416 0C314.686 0 315.904 0.504456 316.803 1.40239C317.701 2.30033 318.206 3.51819 318.206 4.78807Z" fill="#27A6E5"/>
<path d="M392.328 45.4075C394.974 45.4075 397.118 43.2638 397.118 40.6194C397.118 37.9751 394.974 35.8314 392.328 35.8314C389.683 35.8314 387.539 37.9751 387.539 40.6194C387.539 43.2638 389.683 45.4075 392.328 45.4075Z" fill="#27A6E5"/>
<path d="M497.309 46.6738C497.309 48.1099 496.882 49.5138 496.084 50.7079C495.286 51.902 494.152 52.8327 492.824 53.3823C491.497 53.9319 490.037 54.0757 488.628 53.7955C487.218 53.5153 485.924 52.8238 484.908 51.8083C483.892 50.7927 483.201 49.4989 482.92 48.0904C482.64 46.6818 482.784 45.2218 483.334 43.895C483.883 42.5682 484.815 41.4342 486.009 40.6363C487.204 39.8384 488.608 39.4125 490.045 39.4125C491.971 39.4125 493.819 40.1776 495.181 41.5393C496.543 42.9011 497.309 44.748 497.309 46.6738Z" fill="#27A6E5"/>
<path d="M366.341 114.755C366.341 115.702 366.06 116.628 365.534 117.415C365.007 118.203 364.259 118.817 363.384 119.179C362.509 119.541 361.546 119.636 360.617 119.451C359.687 119.267 358.834 118.811 358.164 118.141C357.494 117.471 357.038 116.618 356.853 115.689C356.668 114.761 356.763 113.798 357.126 112.923C357.488 112.048 358.102 111.3 358.89 110.774C359.678 110.248 360.604 109.967 361.551 109.967C362.821 109.967 364.04 110.472 364.938 111.37C365.836 112.268 366.341 113.485 366.341 114.755Z" fill="#27A6E5"/>
<path d="M505.412 251.73C512.172 245.437 512.549 234.858 506.254 228.101C499.959 221.344 489.376 220.967 482.617 227.259C475.857 233.552 475.48 244.131 481.775 250.888C488.069 257.645 498.652 258.022 505.412 251.73Z" fill="#27A6E5"/>
<path d="M193.651 154.227C196.296 154.227 198.44 152.084 198.44 149.439C198.44 146.795 196.296 144.651 193.651 144.651C191.005 144.651 188.861 146.795 188.861 149.439C188.861 152.084 191.005 154.227 193.651 154.227Z" fill="#27A6E5"/>
<path d="M334.336 293.873C334.336 294.82 334.056 295.745 333.529 296.533C333.003 297.32 332.255 297.934 331.38 298.296C330.504 298.659 329.541 298.753 328.612 298.569C327.683 298.384 326.83 297.928 326.16 297.258C325.49 296.589 325.034 295.736 324.849 294.807C324.664 293.878 324.759 292.915 325.121 292.04C325.484 291.165 326.098 290.418 326.886 289.892C327.673 289.365 328.599 289.085 329.547 289.085C330.817 289.085 332.035 289.589 332.934 290.487C333.832 291.385 334.336 292.603 334.336 293.873Z" fill="#27A6E5"/>
<path d="M366.341 114.755C366.341 115.702 366.06 116.628 365.534 117.415C365.007 118.203 364.259 118.817 363.384 119.179C362.509 119.541 361.546 119.636 360.617 119.451C359.687 119.267 358.834 118.811 358.164 118.141C357.494 117.471 357.038 116.618 356.853 115.689C356.668 114.761 356.763 113.798 357.126 112.923C357.488 112.048 358.102 111.3 358.89 110.774C359.678 110.248 360.604 109.967 361.551 109.967C362.821 109.967 364.04 110.472 364.938 111.37C365.836 112.268 366.341 113.485 366.341 114.755Z" fill="#27A6E5"/>
<path d="M162.141 242.094C162.141 243.041 161.86 243.967 161.333 244.754C160.807 245.542 160.059 246.155 159.184 246.518C158.309 246.88 157.346 246.975 156.416 246.79C155.487 246.606 154.634 246.15 153.964 245.48C153.294 244.81 152.838 243.957 152.653 243.028C152.468 242.1 152.563 241.137 152.926 240.262C153.288 239.387 153.902 238.639 154.69 238.113C155.477 237.587 156.404 237.306 157.351 237.306C158.621 237.306 159.839 237.811 160.738 238.709C161.636 239.607 162.141 240.824 162.141 242.094Z" fill="#27A6E5"/>
<path d="M211.998 324.164C214.644 324.164 216.788 322.02 216.788 319.376C216.788 316.732 214.644 314.588 211.998 314.588C209.353 314.588 207.208 316.732 207.208 319.376C207.208 322.02 209.353 324.164 211.998 324.164Z" fill="#27A6E5"/>
<path d="M342.412 293.873C342.412 296.416 341.657 298.903 340.243 301.018C338.83 303.132 336.82 304.781 334.47 305.754C332.119 306.728 329.532 306.982 327.036 306.486C324.541 305.99 322.249 304.765 320.449 302.966C318.65 301.168 317.425 298.876 316.928 296.382C316.432 293.887 316.687 291.301 317.66 288.951C318.634 286.601 320.283 284.593 322.399 283.18C324.514 281.766 327.002 281.012 329.546 281.012C332.958 281.012 336.231 282.367 338.643 284.779C341.056 287.191 342.412 290.462 342.412 293.873Z" fill="#27A6E5"/>
<path d="M162.141 242.094C162.141 243.041 161.86 243.967 161.333 244.754C160.807 245.542 160.059 246.155 159.184 246.518C158.309 246.88 157.346 246.975 156.416 246.79C155.487 246.606 154.634 246.15 153.964 245.48C153.294 244.81 152.838 243.957 152.653 243.028C152.468 242.1 152.563 241.137 152.926 240.262C153.288 239.387 153.902 238.639 154.69 238.113C155.477 237.587 156.404 237.306 157.351 237.306C158.621 237.306 159.839 237.811 160.738 238.709C161.636 239.607 162.141 240.824 162.141 242.094Z" fill="#27A6E5"/>
<path d="M149.276 414.88C149.276 415.827 148.995 416.753 148.469 417.54C147.942 418.328 147.194 418.941 146.319 419.304C145.444 419.666 144.481 419.761 143.552 419.576C142.623 419.392 141.769 418.936 141.099 418.266C140.429 417.596 139.973 416.743 139.788 415.814C139.604 414.886 139.698 413.923 140.061 413.048C140.423 412.173 141.037 411.425 141.825 410.899C142.613 410.373 143.539 410.092 144.486 410.092C145.756 410.092 146.975 410.597 147.873 411.495C148.771 412.392 149.276 413.61 149.276 414.88Z" fill="#27A6E5"/>
<path d="M211.998 325.925C215.616 325.925 218.549 322.993 218.549 319.376C218.549 315.759 215.616 312.827 211.998 312.827C208.38 312.827 205.447 315.759 205.447 319.376C205.447 322.993 208.38 325.925 211.998 325.925Z" fill="#27A6E5"/>
<path d="M12.3307 394.521C12.3385 395.47 12.0643 396.399 11.5428 397.192C11.0212 397.984 10.2759 398.604 9.40144 398.973C8.52694 399.341 7.56264 399.442 6.63092 399.261C5.6992 399.081 4.84204 398.628 4.16821 397.96C3.49437 397.292 3.03424 396.439 2.8462 395.509C2.65815 394.579 2.75066 393.615 3.112 392.738C3.47334 391.86 4.08721 391.11 4.87572 390.582C5.66424 390.054 6.59185 389.773 7.54086 389.773C8.80437 389.772 10.0167 390.272 10.9138 391.161C11.811 392.05 12.3202 393.258 12.3307 394.521Z" fill="#27A6E5"/>
<path d="M158.625 418.273C160.475 410.469 155.646 402.643 147.838 400.794C140.031 398.945 132.202 403.772 130.352 411.577C128.503 419.381 133.332 427.207 141.139 429.056C148.947 430.906 156.775 426.078 158.625 418.273Z" fill="#27A6E5"/>
<path d="M46.1367 300.461C46.1367 301.408 45.8558 302.334 45.3295 303.121C44.8032 303.909 44.0551 304.522 43.1799 304.885C42.3047 305.247 41.3416 305.342 40.4125 305.157C39.4834 304.973 38.6299 304.517 37.96 303.847C37.2902 303.177 36.834 302.324 36.6492 301.395C36.4644 300.467 36.5592 299.504 36.9217 298.629C37.2843 297.754 37.8982 297.006 38.6859 296.48C39.4735 295.954 40.3996 295.673 41.3469 295.673C42.6173 295.673 43.8356 296.178 44.7338 297.076C45.6321 297.973 46.1367 299.191 46.1367 300.461Z" fill="#27A6E5"/>
<path d="M9.57961 288.867C9.57961 289.814 9.29869 290.74 8.77238 291.527C8.24607 292.314 7.49801 292.928 6.62279 293.291C5.74756 293.653 4.78449 293.748 3.85536 293.563C2.92623 293.378 2.07277 292.922 1.4029 292.253C0.733037 291.583 0.276853 290.73 0.0920369 289.801C-0.0927788 288.872 0.00207535 287.91 0.364604 287.035C0.727133 286.16 1.34105 285.412 2.12873 284.886C2.91641 284.36 3.84247 284.079 4.78981 284.079C6.06014 284.079 7.27845 284.583 8.17671 285.481C9.07497 286.379 9.57961 287.597 9.57961 288.867Z" fill="#27A6E5"/>
<path d="M12.3307 394.521C12.3385 395.47 12.0643 396.399 11.5428 397.192C11.0212 397.984 10.2759 398.604 9.40144 398.973C8.52694 399.341 7.56264 399.442 6.63092 399.261C5.6992 399.081 4.84204 398.628 4.16821 397.96C3.49437 397.292 3.03424 396.439 2.8462 395.509C2.65815 394.579 2.75066 393.615 3.112 392.738C3.47334 391.86 4.08721 391.11 4.87572 390.582C5.66424 390.054 6.59185 389.773 7.54086 389.773C8.80437 389.772 10.0167 390.272 10.9138 391.161C11.811 392.05 12.3202 393.258 12.3307 394.521Z" fill="#27A6E5"/>
<path d="M46.1367 300.461C46.1367 301.408 45.8558 302.334 45.3295 303.121C44.8032 303.909 44.0551 304.522 43.1799 304.885C42.3047 305.247 41.3416 305.342 40.4125 305.157C39.4834 304.973 38.6299 304.517 37.96 303.847C37.2902 303.177 36.834 302.324 36.6492 301.395C36.4644 300.467 36.5592 299.504 36.9217 298.629C37.2843 297.754 37.8982 297.006 38.6859 296.48C39.4735 295.954 40.3996 295.673 41.3469 295.673C42.6173 295.673 43.8356 296.178 44.7338 297.076C45.6321 297.973 46.1367 299.191 46.1367 300.461Z" fill="#27A6E5"/>
<path d="M162.141 242.094C162.141 243.041 161.86 243.967 161.333 244.754C160.807 245.542 160.059 246.155 159.184 246.518C158.309 246.88 157.346 246.975 156.416 246.79C155.487 246.606 154.634 246.15 153.964 245.48C153.294 244.81 152.838 243.957 152.653 243.028C152.468 242.1 152.563 241.137 152.926 240.262C153.288 239.387 153.902 238.639 154.69 238.113C155.477 237.587 156.404 237.306 157.351 237.306C158.621 237.306 159.839 237.811 160.738 238.709C161.636 239.607 162.141 240.824 162.141 242.094Z" fill="#27A6E5"/>
<path d="M27.7095 208.954C27.7095 209.901 27.4286 210.826 26.9023 211.614C26.376 212.401 25.6279 213.015 24.7527 213.377C23.8774 213.74 22.9144 213.835 21.9852 213.65C21.0561 213.465 20.2027 213.009 19.5328 212.339C18.8629 211.67 18.4067 210.817 18.2219 209.888C18.0371 208.959 18.132 207.996 18.4945 207.121C18.857 206.246 19.4709 205.499 20.2586 204.973C21.0463 204.446 21.9724 204.166 22.9197 204.166C24.19 204.166 25.4083 204.67 26.3066 205.568C27.2049 206.466 27.7095 207.684 27.7095 208.954Z" fill="#27A6E5"/>
<path d="M46.1367 300.461C46.1367 301.408 45.8558 302.334 45.3295 303.121C44.8032 303.909 44.0551 304.522 43.1799 304.885C42.3047 305.247 41.3416 305.342 40.4125 305.157C39.4834 304.973 38.6299 304.517 37.96 303.847C37.2902 303.177 36.834 302.324 36.6492 301.395C36.4644 300.467 36.5592 299.504 36.9217 298.629C37.2843 297.754 37.8982 297.006 38.6859 296.48C39.4735 295.954 40.3996 295.673 41.3469 295.673C42.6173 295.673 43.8356 296.178 44.7338 297.076C45.6321 297.973 46.1367 299.191 46.1367 300.461Z" fill="#27A6E5"/>
<path d="M27.7095 208.954C27.7095 209.901 27.4286 210.826 26.9023 211.614C26.376 212.401 25.6279 213.015 24.7527 213.377C23.8774 213.74 22.9144 213.835 21.9852 213.65C21.0561 213.465 20.2027 213.009 19.5328 212.339C18.8629 211.67 18.4067 210.817 18.2219 209.888C18.0371 208.959 18.132 207.996 18.4945 207.121C18.857 206.246 19.4709 205.499 20.2586 204.973C21.0463 204.446 21.9724 204.166 22.9197 204.166C24.19 204.166 25.4083 204.67 26.3066 205.568C27.2049 206.466 27.7095 207.684 27.7095 208.954Z" fill="#27A6E5"/>
<path d="M80.0608 169.838C82.7061 169.838 84.8506 167.694 84.8506 165.05C84.8506 162.405 82.7061 160.262 80.0608 160.262C77.4155 160.262 75.271 162.405 75.271 165.05C75.271 167.694 77.4155 169.838 80.0608 169.838Z" fill="#27A6E5"/>
<path d="M54.41 157.67C56.5088 157.67 58.2102 155.969 58.2102 153.871C58.2102 151.773 56.5088 150.072 54.41 150.072C52.3113 150.072 50.6099 151.773 50.6099 153.871C50.6099 155.969 52.3113 157.67 54.41 157.67Z" fill="#27A6E5"/>
<path d="M168.237 242.094C168.237 244.243 167.6 246.343 166.406 248.129C165.212 249.915 163.515 251.307 161.529 252.13C159.544 252.952 157.359 253.167 155.251 252.748C153.143 252.329 151.207 251.294 149.688 249.775C148.168 248.256 147.133 246.32 146.714 244.213C146.294 242.106 146.51 239.922 147.332 237.937C148.154 235.953 149.547 234.256 151.334 233.063C153.121 231.869 155.222 231.232 157.371 231.232C160.253 231.232 163.017 232.376 165.055 234.414C167.092 236.451 168.237 239.213 168.237 242.094Z" fill="#27A6E5"/>
<path d="M193.651 154.227C196.296 154.227 198.44 152.084 198.44 149.439C198.44 146.795 196.296 144.651 193.651 144.651C191.005 144.651 188.861 146.795 188.861 149.439C188.861 152.084 191.005 154.227 193.651 154.227Z" fill="#27A6E5"/>
<path d="M366.341 114.755C366.341 115.702 366.06 116.628 365.534 117.415C365.007 118.203 364.259 118.817 363.384 119.179C362.509 119.541 361.546 119.636 360.617 119.451C359.687 119.267 358.834 118.811 358.164 118.141C357.494 117.471 357.038 116.618 356.853 115.689C356.668 114.761 356.763 113.798 357.126 112.923C357.488 112.048 358.102 111.3 358.89 110.774C359.678 110.248 360.604 109.967 361.551 109.967C362.821 109.967 364.04 110.472 364.938 111.37C365.836 112.268 366.341 113.485 366.341 114.755Z" fill="#27A6E5"/>
<path d="M392.329 47.1684C395.947 47.1684 398.88 44.2363 398.88 40.6194C398.88 37.0025 395.947 34.0705 392.329 34.0705C388.71 34.0705 385.777 37.0025 385.777 40.6194C385.777 44.2363 388.71 47.1684 392.329 47.1684Z" fill="#27A6E5"/>
<path d="M182.131 44.2402C184.776 44.2402 186.921 42.0965 186.921 39.4521C186.921 36.8077 184.776 34.664 182.131 34.664C179.486 34.664 177.341 36.8077 177.341 39.4521C177.341 42.0965 179.486 44.2402 182.131 44.2402Z" fill="#27A6E5"/>
<path d="M193.651 154.227C196.296 154.227 198.44 152.084 198.44 149.439C198.44 146.795 196.296 144.651 193.651 144.651C191.005 144.651 188.861 146.795 188.861 149.439C188.861 152.084 191.005 154.227 193.651 154.227Z" fill="#27A6E5"/>
<path d="M106.959 94.7721C108.773 94.7721 110.244 93.3016 110.244 91.4877C110.244 89.6738 108.773 88.2034 106.959 88.2034C105.144 88.2034 103.673 89.6738 103.673 91.4877C103.673 93.3016 105.144 94.7721 106.959 94.7721Z" fill="#27A6E5"/>
<path d="M182.131 44.2402C184.776 44.2402 186.921 42.0965 186.921 39.4521C186.921 36.8077 184.776 34.664 182.131 34.664C179.486 34.664 177.341 36.8077 177.341 39.4521C177.341 42.0965 179.486 44.2402 182.131 44.2402Z" fill="#27A6E5"/>
<path d="M193.651 154.227C196.296 154.227 198.44 152.084 198.44 149.439C198.44 146.795 196.296 144.651 193.651 144.651C191.005 144.651 188.861 146.795 188.861 149.439C188.861 152.084 191.005 154.227 193.651 154.227Z" fill="#27A6E5"/>
<path d="M260.945 12.5242C260.945 13.4712 260.664 14.3969 260.138 15.1843C259.612 15.9717 258.864 16.5854 257.989 16.9478C257.113 17.3102 256.15 17.405 255.221 17.2202C254.292 17.0355 253.438 16.5795 252.769 15.9098C252.099 15.2402 251.643 14.3871 251.458 13.4583C251.273 12.5295 251.368 11.5668 251.73 10.6918C252.093 9.81694 252.707 9.06915 253.494 8.54303C254.282 8.01691 255.208 7.7361 256.156 7.7361C257.426 7.7361 258.644 8.24055 259.542 9.13849C260.441 10.0364 260.945 11.2543 260.945 12.5242Z" fill="#27A6E5"/>
<path d="M370.26 114.755C370.26 116.477 369.749 118.16 368.792 119.592C367.835 121.024 366.475 122.139 364.884 122.798C363.292 123.457 361.541 123.63 359.852 123.294C358.163 122.958 356.611 122.129 355.393 120.911C354.175 119.694 353.346 118.142 353.01 116.454C352.674 114.765 352.846 113.015 353.505 111.424C354.164 109.833 355.281 108.474 356.713 107.517C358.145 106.56 359.829 106.05 361.551 106.05C362.695 106.05 363.827 106.275 364.884 106.712C365.94 107.15 366.9 107.791 367.709 108.6C368.518 109.408 369.159 110.368 369.597 111.424C370.035 112.48 370.26 113.612 370.26 114.755Z" fill="#27A6E5"/>
<path d="M318.206 4.78807C318.206 5.73506 317.925 6.66078 317.398 7.44818C316.872 8.23557 316.124 8.84927 315.249 9.21167C314.374 9.57407 313.41 9.66889 312.481 9.48414C311.552 9.29939 310.699 8.84337 310.029 8.17375C309.359 7.50412 308.903 6.65097 308.718 5.72218C308.533 4.79338 308.628 3.83066 308.991 2.95575C309.353 2.08085 309.967 1.33305 310.755 0.806935C311.542 0.280815 312.468 0 313.416 0C314.686 0 315.904 0.504456 316.803 1.40239C317.701 2.30033 318.206 3.51819 318.206 4.78807Z" fill="#27A6E5"/>
<path d="M182.131 46.3176C185.924 46.3176 188.999 43.2438 188.999 39.4521C188.999 35.6604 185.924 32.5866 182.131 32.5866C178.338 32.5866 175.263 35.6604 175.263 39.4521C175.263 43.2438 178.338 46.3176 182.131 46.3176Z" fill="#27A6E5"/>
</g>
<defs>
<clipPath id="clip0_405_341">
<rect width="659.548" height="662" fill="white"/>
</clipPath>
</defs>
</svg>
