<svg width="99" height="99" viewBox="0 0 99 99" fill="none" xmlns="http://www.w3.org/2000/svg">
<rect x="0.262939" y="0.926025" width="98.0741" height="98.0741" rx="20" fill="#F40000"/>
<path fill-rule="evenodd" clip-rule="evenodd" d="M27.8769 67.2654C26.9151 66.9808 26.0376 66.4746 25.3183 65.7895C24.599 65.1043 24.0591 64.2603 23.7442 63.3287C21.9445 58.5136 21.4112 38.4074 24.8773 34.4382C26.0309 33.147 27.6597 32.352 29.41 32.2258C38.7085 31.2498 67.4375 31.3799 70.737 32.5512C71.665 32.8451 72.5129 33.3402 73.217 33.9994C73.9212 34.6586 74.4634 35.4649 74.803 36.3577C76.7694 41.3355 76.836 59.4246 74.5364 64.2071C73.9264 65.4521 72.9051 66.4605 71.6368 67.0702C68.1707 68.762 32.4762 68.7294 27.8769 67.2654ZM42.6413 57.8304L59.3054 49.3715L42.6413 40.8474V57.8304Z" fill="white"/>
</svg>
