<svg width="63" height="62" viewBox="0 0 63 62" fill="none" xmlns="http://www.w3.org/2000/svg">
<g clip-path="url(#clip0_14_4282)">
<rect x="0.711426" y="0.0852051" width="61.2963" height="61.2963" rx="10" fill="#111111"/>
<path d="M46.6353 23.4944C45.578 23.4944 44.5312 23.2862 43.5544 22.8816C42.5777 22.477 41.6902 21.884 40.9426 21.1365C40.195 20.3889 39.602 19.5014 39.1974 18.5247C38.7929 17.5479 38.5846 16.5011 38.5846 15.4438H32.833V37.9663C32.8319 38.9931 32.5076 39.9935 31.9062 40.8258C31.3048 41.6581 30.4566 42.2799 29.482 42.6033C28.5074 42.9266 27.4557 42.935 26.4761 42.6272C25.4965 42.3194 24.6385 41.7112 24.0239 40.8886C23.4093 40.066 23.0691 39.0708 23.0517 38.0441C23.0342 37.0174 23.3404 36.0113 23.9267 35.1683C24.513 34.3253 25.3498 33.6882 26.3184 33.3474C27.287 33.0065 28.3383 32.9791 29.3234 33.2692V27.6782C27.23 27.3959 25.1003 27.759 23.2187 28.7189C21.3371 29.6789 19.7932 31.19 18.793 33.0506C17.7928 34.9111 17.3841 37.0325 17.6214 39.1315C17.8586 41.2305 18.7306 43.2071 20.1208 44.7975C21.511 46.3878 23.3533 47.5162 25.4017 48.032C27.4501 48.5477 29.6071 48.4263 31.5847 47.6838C33.5622 46.9414 35.2662 45.6133 36.4691 43.877C37.6721 42.1406 38.3166 40.0786 38.3167 37.9663L38.4836 26.5818C40.8468 28.3166 43.703 29.2501 46.6346 29.2458L46.6353 23.4944Z" fill="url(#paint0_linear_14_4282)"/>
<path d="M45.1148 21.9276C42.9797 21.9275 40.9321 21.0793 39.4223 19.5695C37.9126 18.0597 37.0645 16.0121 37.0645 13.877H31.3129V36.3993C31.3118 37.4262 30.9876 38.4267 30.3861 39.2589C29.7847 40.0912 28.9366 40.7131 27.962 41.0364C26.9873 41.3598 25.9357 41.3682 24.956 41.0604C23.9764 40.7527 23.1184 40.1444 22.5038 39.3218C21.8892 38.4992 21.549 37.5041 21.5316 36.4774C21.5141 35.4507 21.8202 34.4445 22.4066 33.6015C22.9929 32.7585 23.8296 32.1214 24.7983 31.7806C25.7669 31.4397 26.8182 31.4123 27.8033 31.7024V26.1113C25.7099 25.829 23.5802 26.1921 21.6986 27.152C19.817 28.112 18.273 29.6231 17.2729 31.4837C16.2727 33.3442 15.864 35.4656 16.1012 37.5646C16.3385 39.6636 17.2104 41.6402 18.6006 43.2306C19.9909 44.8209 21.8332 45.9493 23.8816 46.4651C25.93 46.9808 28.087 46.8594 30.0646 46.1169C32.0421 45.3745 33.7461 44.0464 34.949 42.3101C36.1519 40.5737 36.7965 38.5117 36.7966 36.3993L36.9644 25.015C39.3276 26.7498 42.1838 27.6833 45.1154 27.6789L45.1148 21.9276Z" fill="url(#paint1_linear_14_4282)"/>
<path d="M45.1148 23.3504C43.1248 22.9675 41.3524 21.8481 40.1514 20.2158C38.6334 19.0278 37.5922 17.3345 37.2171 15.4438H32.8333V37.9663C32.8332 39.0352 32.4834 40.0747 31.8372 40.9261C31.1909 41.7776 30.2839 42.3942 29.2544 42.6819C28.2249 42.9695 27.1296 42.9124 26.1356 42.5192C25.1416 42.1261 24.3036 41.4185 23.7494 40.5044C22.764 39.863 22.0422 38.8884 21.716 37.7587C21.3898 36.629 21.481 35.4197 21.9729 34.3517C22.4648 33.2837 23.3245 32.4283 24.395 31.9419C25.4655 31.4555 26.6753 31.3705 27.8033 31.7024V27.588C25.8685 27.613 23.9792 28.1782 22.3486 29.22C20.718 30.2617 19.4111 31.7385 18.5754 33.4837C17.7396 35.2289 17.4083 37.1729 17.6189 39.0964C17.8295 41.0198 18.5735 42.8461 19.767 44.3692C21.2822 45.6335 23.1264 46.4396 25.0835 46.6932C27.0405 46.9467 29.0293 46.6371 30.8166 45.8006C32.604 44.9641 34.1158 43.6355 35.175 41.9704C36.2341 40.3053 36.7966 38.3728 36.7966 36.3994L36.9644 25.015C39.3276 26.7499 42.1838 27.6833 45.1154 27.6789L45.1148 23.3504Z" fill="url(#paint2_linear_14_4282)"/>
</g>
<defs>
<linearGradient id="paint0_linear_14_4282" x1="19.8608" y1="44.5692" x2="43.7854" y2="20.6445" gradientUnits="userSpaceOnUse">
<stop stop-color="#B5053C"/>
<stop offset="0.233" stop-color="#C90441"/>
<stop offset="0.737" stop-color="#F0014B"/>
<stop offset="1" stop-color="#FF004F"/>
</linearGradient>
<linearGradient id="paint1_linear_14_4282" x1="17.9842" y1="43.3584" x2="43.1857" y2="18.157" gradientUnits="userSpaceOnUse">
<stop stop-color="#00B2C9"/>
<stop offset="0.283" stop-color="#00C8D4"/>
<stop offset="0.741" stop-color="#00E6E4"/>
<stop offset="1" stop-color="#00F1EA"/>
</linearGradient>
<linearGradient id="paint2_linear_14_4282" x1="3.8651" y1="59.0213" x2="59.6488" y2="3.2376" gradientUnits="userSpaceOnUse">
<stop stop-color="#DDE3E4"/>
<stop offset="1" stop-color="#FCF7F7"/>
</linearGradient>
<clipPath id="clip0_14_4282">
<rect width="61.2963" height="61.2963" fill="white" transform="translate(0.711426 0.0852051)"/>
</clipPath>
</defs>
</svg>
