<svg width="50" height="50" viewBox="0 0 50 50" fill="none" xmlns="http://www.w3.org/2000/svg">
<rect x="0.452148" y="0.181519" width="49.037" height="49.037" rx="10" fill="#F79A38"/>
<path d="M32.6175 28.1238C33.2608 27.4806 33.3527 26.5616 32.8013 25.6426C32.3418 24.9075 31.5148 24.5399 30.5958 24.7237C30.2282 24.8156 29.8606 24.9994 29.493 25.275C26.6442 27.2049 22.7846 27.113 19.9358 25.1831C19.752 25.0912 19.5682 24.9993 19.3844 24.9074C18.3735 24.448 17.3627 24.6318 16.8113 25.5507C16.168 26.4697 16.2599 27.4806 17.087 28.3076C17.2708 28.4914 17.4546 28.5833 17.5465 28.7671L17.6384 28.859C18.9249 29.8699 20.4872 30.5132 22.5089 30.7888L21.3142 31.9835C20.3034 32.9944 19.2006 34.0971 18.1898 35.108C17.9141 35.3837 17.5465 35.8432 17.5465 36.4864C17.5465 37.3135 18.006 38.1406 18.833 38.5082C19.1087 38.6919 19.3844 38.6919 19.6601 38.6919C20.1196 38.6919 20.671 38.5082 21.0386 38.0487C22.417 36.6702 23.5198 35.5675 24.6225 34.4647C24.7144 34.3728 24.7144 34.3728 24.7144 34.3728C24.7144 34.3728 24.8063 34.3728 24.8063 34.4647C25.5415 35.2918 26.3686 36.0269 27.1037 36.854C27.4713 37.2216 27.8389 37.5892 28.2065 37.9568C28.666 38.4163 29.0336 38.6001 29.5849 38.6001C30.412 38.692 31.331 38.1406 31.6986 37.3135C32.0662 36.5783 31.8824 35.6594 31.2391 35.108C30.3201 34.189 29.4011 33.1781 28.3903 32.2592L26.828 30.6969C27.6551 30.605 28.5741 30.4213 29.4012 30.0537C30.7796 29.5942 31.7905 28.9509 32.6175 28.1238Z" fill="white"/>
<path d="M24.7144 25.5507C28.666 25.5507 31.8824 22.4262 31.8824 18.4747C31.8824 16.5448 31.1472 14.7069 29.7687 13.3285C28.3903 11.95 26.6443 11.2148 24.8063 11.2148C20.8548 11.2148 17.7303 14.4312 17.6384 18.2909C17.6384 20.2207 18.3736 21.9667 19.752 23.3452C21.0386 24.8155 22.7846 25.5507 24.7144 25.5507ZM22.6927 16.3611C23.2441 15.8097 23.9792 15.534 24.7144 15.534C26.3686 15.534 27.5632 16.8205 27.5632 18.3828C27.5632 20.0369 26.2767 21.2316 24.7144 21.2316C23.0603 21.2316 21.8656 19.945 21.8656 18.3828C21.8656 17.6476 22.1413 16.9124 22.6927 16.3611Z" fill="white"/>
<path d="M32.6175 28.1238C33.2608 27.4806 33.3527 26.5616 32.8013 25.6426C32.3418 24.9075 31.5148 24.5399 30.5958 24.7237C30.2282 24.8156 29.8606 24.9994 29.493 25.275C26.6442 27.2049 22.7846 27.113 19.9358 25.1831C19.752 25.0912 19.5682 24.9993 19.3844 24.9074C18.3735 24.448 17.3627 24.6318 16.8113 25.5507C16.168 26.4697 16.2599 27.4806 17.087 28.3076C17.2708 28.4914 17.4546 28.5833 17.5465 28.7671L17.6384 28.859C18.9249 29.8699 20.4872 30.5132 22.5089 30.7888L21.3142 31.9835C20.3034 32.9944 19.2006 34.0971 18.1898 35.108C17.9141 35.3837 17.5465 35.8432 17.5465 36.4864C17.5465 37.3135 18.006 38.1406 18.833 38.5082C19.1087 38.6919 19.3844 38.6919 19.6601 38.6919C20.1196 38.6919 20.671 38.5082 21.0386 38.0487C22.417 36.6702 23.5198 35.5675 24.6225 34.4647C24.7144 34.3728 24.7144 34.3728 24.7144 34.3728C24.7144 34.3728 24.8063 34.3728 24.8063 34.4647C25.5415 35.2918 26.3686 36.0269 27.1037 36.854C27.4713 37.2216 27.8389 37.5892 28.2065 37.9568C28.666 38.4163 29.0336 38.6001 29.5849 38.6001C30.412 38.692 31.331 38.1406 31.6986 37.3135C32.0662 36.5783 31.8824 35.6594 31.2391 35.108C30.3201 34.189 29.4011 33.1781 28.3903 32.2592L26.828 30.6969C27.6551 30.605 28.5741 30.4213 29.4012 30.0537C30.7796 29.5942 31.7905 28.9509 32.6175 28.1238Z" fill="white"/>
</svg>
