<svg width="74" height="74" viewBox="0 0 74 74" fill="none" xmlns="http://www.w3.org/2000/svg">
<rect x="0.0522461" y="0.140869" width="73.5556" height="73.5556" rx="20" fill="#7C509A"/>
<path d="M48.3303 17.6948C41.3214 16.3563 34.0428 16.3563 27.0339 17.6948C23.9338 18.364 20.0249 22.1118 19.351 25.0565C18.1379 30.8121 18.1379 36.7015 19.351 42.457C20.1597 45.4017 24.0685 49.1495 27.0339 49.8188C27.1687 49.8188 27.3034 49.9526 27.3034 50.0865V58.519C27.3034 58.9206 27.8426 59.1883 28.1122 58.7867L32.1558 54.6374C32.1558 54.6374 35.3907 51.2911 35.9299 50.7557C35.9299 50.7557 36.0647 50.6219 36.1994 50.6219C40.2431 50.7557 44.4215 50.3542 48.4651 49.6849C51.5652 49.0157 55.4741 45.2679 56.148 42.3232C57.3611 36.5676 57.3611 30.6782 56.148 24.9227C55.3393 22.1118 51.4304 18.364 48.3303 17.6948ZM48.4651 42.8586C47.7912 44.1971 46.9825 45.2679 45.6346 45.9371C45.2302 46.071 44.8258 46.2048 44.4215 46.3387C43.8823 46.2048 43.478 46.071 43.0736 45.9371C38.7604 44.1971 34.7168 41.7878 31.4819 38.3077C29.7296 36.2999 28.247 34.0245 27.0339 31.6152C26.4947 30.4105 25.9556 29.3397 25.5512 28.1351C25.1468 27.0643 25.8208 25.9935 26.4947 25.1904C27.1687 24.3873 27.9774 23.8519 28.9209 23.4503C29.5948 23.0488 30.2688 23.3165 30.8079 23.8519C31.8862 25.1904 32.9645 26.5289 33.7733 28.0012C34.3124 28.9382 34.1776 30.009 33.2341 30.6782C32.9645 30.8121 32.8297 30.9459 32.5602 31.2136C32.4254 31.3475 32.1558 31.4813 32.021 31.749C31.7514 32.1506 31.7514 32.5521 31.8862 32.9537C32.9645 36.0322 34.9863 38.4415 38.0865 39.78C38.6256 40.0477 39.03 40.1816 39.7039 40.1816C40.6474 40.0477 41.0518 38.9769 41.7257 38.4415C42.3997 37.9061 43.2084 37.9061 44.0171 38.3077C44.6911 38.7092 45.365 39.2446 46.1737 39.78C46.8477 40.3154 47.5216 40.717 48.1955 41.2524C48.5999 41.5201 48.7347 42.1893 48.4651 42.8586ZM42.804 32.8198C42.5345 32.8198 42.6692 32.8198 42.804 32.8198C42.2649 32.8198 42.1301 32.5521 41.9953 32.1506C41.9953 31.8829 41.9953 31.4813 41.8605 31.2136C41.7257 30.6782 41.4562 30.1428 40.917 29.7413C40.6474 29.6074 40.3778 29.4736 40.1083 29.3397C39.7039 29.2059 39.4343 29.2059 39.03 29.2059C38.6256 29.072 38.4908 28.8043 38.4908 28.4028C38.4908 28.1351 38.8952 27.8674 39.1648 27.8674C41.3214 28.0012 42.9388 29.2059 43.2084 31.749C43.2084 31.8829 43.2084 32.1506 43.2084 32.2844C43.2084 32.5521 43.0736 32.8198 42.804 32.8198ZM41.4562 26.9304C40.7822 26.6627 40.1083 26.395 39.2996 26.2612C39.03 26.2612 38.6256 26.1273 38.356 26.1273C37.9517 26.1273 37.6821 25.8596 37.8169 25.4581C37.8169 25.0565 38.0865 24.7888 38.4908 24.9227C39.8387 25.0565 41.0518 25.3242 42.2649 25.8596C44.6911 27.0643 46.0389 29.072 46.4433 31.749C46.4433 31.8829 46.4433 32.0167 46.4433 32.1506C46.4433 32.4183 46.4433 32.686 46.4433 33.0875C46.4433 33.2214 46.4433 33.3552 46.4433 33.4891C46.3085 34.0245 45.365 34.1583 45.2302 33.4891C45.2302 33.3552 45.0954 33.0875 45.0954 32.9537C45.0954 31.749 44.8259 30.5444 44.2867 29.4736C43.478 28.2689 42.5345 27.4658 41.4562 26.9304ZM48.7347 34.9614C48.3303 34.9614 48.0607 34.5599 48.0607 34.1583C48.0607 33.3552 47.926 32.5521 47.7912 31.749C47.252 27.4658 43.7476 23.9857 39.5691 23.3165C38.8952 23.1826 38.2213 23.1826 37.6821 23.0488C37.2777 23.0488 36.7386 23.0488 36.6038 22.5134C36.469 22.1118 36.8734 21.7103 37.2777 21.7103C37.4125 21.7103 37.5473 21.7103 37.5473 21.7103C43.0736 21.8441 37.8169 21.7103 37.5473 21.7103C43.2084 21.8441 47.926 25.5919 48.8695 31.2136C49.0043 32.1506 49.1391 33.0875 49.1391 34.1583C49.4086 34.5599 49.1391 34.9614 48.7347 34.9614Z" fill="white"/>
</svg>
