<svg width="50" height="50" viewBox="0 0 50 50" fill="none" xmlns="http://www.w3.org/2000/svg">
<rect x="0.155762" y="0.174072" width="49.037" height="49.037" rx="10" fill="#00A9E7"/>
<path d="M37.3236 26.0022C37.4072 25.3335 37.4908 24.7484 37.4908 24.0797C37.4908 17.3929 32.0577 11.8762 25.2873 11.8762C24.6186 11.8762 24.0335 11.9598 23.3648 12.0434C22.2782 11.4583 21.108 11.2075 19.9378 11.2075C15.7585 11.2075 12.415 14.551 12.415 18.7302C12.415 19.9004 12.6658 21.0707 13.2509 22.1573C13.1673 22.826 13.0837 23.4111 13.0837 24.0797C13.0837 30.7666 18.5168 36.2833 25.2873 36.2833C25.9559 36.2833 26.5411 36.1997 27.2097 36.1161C28.2964 36.6176 29.4666 36.952 30.6368 36.952C34.816 36.952 38.1595 33.6085 38.1595 29.4292C38.1595 28.259 37.8251 27.0888 37.3236 26.0022ZM30.386 28.5098C30.1352 29.0113 29.8009 29.4292 29.2994 29.7636C28.7979 30.0979 28.2964 30.3487 27.6277 30.5159C26.959 30.683 26.2067 30.7666 25.3708 30.7666C23.6155 30.7666 22.1946 30.3487 21.1916 29.5964C20.6065 29.0949 20.1049 28.5098 19.8542 27.7575C19.5198 27.0888 20.1049 26.253 20.9408 26.253H21.1916C21.6931 26.253 22.1946 26.5873 22.3618 27.0052C22.5289 27.4232 22.7797 27.7575 23.114 28.0083C23.6155 28.4262 24.3678 28.5934 25.2873 28.5934C26.1231 28.5934 26.7918 28.4262 27.2933 28.1754C27.7948 27.9247 28.0456 27.4232 28.0456 26.9217C28.0456 26.6709 27.962 26.5037 27.8784 26.3366C27.7948 26.1694 27.5441 26.0022 27.3769 25.9186C27.1262 25.7515 26.8754 25.6679 26.4575 25.5843C26.1231 25.5007 25.7052 25.3335 25.2037 25.2499L24.7022 25.0828C24.1171 24.9156 23.4484 24.7484 22.9469 24.5813C22.3618 24.4141 21.8602 24.1633 21.4423 23.9126C21.0244 23.6618 20.69 23.3275 20.4393 22.826C20.1885 22.408 20.1049 21.8229 20.1049 21.1542C20.1049 20.4855 20.2721 19.9004 20.5229 19.3989C20.7736 18.8974 21.1916 18.4795 21.6095 18.2287C22.111 17.8944 22.6125 17.6436 23.2812 17.56C23.8663 17.3929 24.535 17.3093 25.2873 17.3093C26.1231 17.3093 26.7918 17.3929 27.4605 17.56C28.1292 17.7272 28.6307 17.978 29.1322 18.3959C29.6337 18.7302 29.9681 19.1482 30.2188 19.7333C30.6368 20.4855 30.0517 21.4886 29.1322 21.4886H28.8815C28.3799 21.4886 27.962 21.2378 27.7113 20.8199C27.5441 20.5691 27.3769 20.3184 27.1262 20.0676C26.7082 19.7333 26.0395 19.5661 25.2873 19.5661C24.535 19.5661 23.9499 19.7333 23.532 19.984C23.114 20.2348 22.9469 20.6527 22.9469 21.0707C22.9469 21.3214 23.0304 21.4886 23.114 21.6558C23.1976 21.8229 23.3648 21.9901 23.6155 22.0737C23.8663 22.1573 24.1171 22.3244 24.4514 22.408C24.7857 22.4916 25.2037 22.5752 25.7052 22.7424C26.2067 22.826 26.6246 22.9931 27.1262 23.0767C27.5441 23.1603 27.962 23.3275 28.3799 23.4111C28.7979 23.5782 29.1322 23.7454 29.4666 23.9126C29.8009 24.0797 30.0517 24.3305 30.3024 24.5813C30.5532 24.832 30.7203 25.1664 30.8039 25.5007C30.9711 25.835 30.9711 26.3366 30.9711 26.8381C30.8039 27.4232 30.6368 28.0083 30.386 28.5098Z" fill="white"/>
</svg>
