<svg width="50" height="50" viewBox="0 0 50 50" fill="none" xmlns="http://www.w3.org/2000/svg">
<rect x="0.644531" y="0.677734" width="49.037" height="49.037" rx="10" fill="#2878B7"/>
<path d="M34.9704 26.1088V32.8706H31.0123V26.5211C31.0123 24.9543 30.4351 23.8823 29.0332 23.8823C27.9612 23.8823 27.3015 24.6245 27.0541 25.2842C26.9717 25.5315 26.8892 25.8614 26.8892 26.2737V32.8706H22.9311C22.9311 32.8706 23.0135 22.1506 22.9311 21.0786H26.8892V22.7279C27.384 21.9032 28.3735 20.7488 30.4351 20.7488C32.9914 20.7488 34.9704 22.4805 34.9704 26.1088ZM18.808 15.3888C17.4886 15.3888 16.5815 16.2959 16.5815 17.4503C16.5815 18.6048 17.4062 19.5119 18.7255 19.5119C20.1274 19.5119 20.952 18.6048 20.952 17.4503C21.0345 16.2134 20.2098 15.3888 18.808 15.3888ZM16.8289 32.8706H20.7871V21.0786H16.8289V32.8706Z" fill="white"/>
</svg>
