<svg width="62" height="63" viewBox="0 0 62 63" fill="none" xmlns="http://www.w3.org/2000/svg">
<rect x="0.270508" y="0.981445" width="61.2963" height="61.2963" rx="10" fill="#1C66FB"/>
<path d="M29.1907 29.4123C29.7776 28.532 30.071 27.505 30.071 26.3313C30.071 23.2503 27.4301 20.9028 24.4958 20.9028H15.9864C15.5462 20.9028 15.2528 21.1963 15.2528 21.6364V40.2692C15.2528 40.7093 15.5462 41.0027 15.9864 41.0027H25.3761C28.8973 41.0027 31.8316 38.2151 31.8316 34.694C31.8316 32.4933 30.8046 30.586 29.1907 29.4123ZM18.9207 24.7174H24.4958C25.5228 24.7174 26.2564 25.5977 26.2564 26.478C26.2564 27.505 25.3761 28.2386 24.4958 28.2386H18.9207V24.7174ZM25.5228 37.3349H18.9207V32.0532H25.5228C26.99 32.0532 28.1637 33.2269 28.1637 34.694C28.1637 36.1611 26.99 37.3349 25.5228 37.3349Z" fill="white"/>
<path d="M48.1169 33.3736C48.1169 28.9721 44.7424 25.451 40.4877 25.451C36.233 25.451 32.8586 28.9721 32.8586 33.3736C32.8586 37.775 36.233 41.2962 40.4877 41.2962C42.9819 41.2962 45.3293 39.9757 46.7964 37.775C46.9432 37.4816 47.0899 37.1882 47.2366 36.8947C47.3833 36.748 47.2366 36.4546 46.9432 36.4546H43.2753C43.1286 36.4546 43.1286 36.4546 42.9819 36.6013C42.2483 37.3349 41.368 37.6283 40.4877 37.6283C38.5804 37.6283 37.1133 36.3079 36.6731 34.4006H47.3833C47.8235 34.4006 48.1169 34.1072 48.1169 33.667V33.3736ZM40.4877 29.2656C41.8082 29.2656 42.9819 29.9992 43.7154 31.1729H37.26C37.8469 29.9992 39.1673 29.2656 40.4877 29.2656Z" fill="white"/>
<path d="M43.5687 24.5707H36.8199C36.5264 24.5707 36.233 24.2773 36.233 23.9839V22.37C36.233 22.0766 36.5264 21.7831 36.8199 21.7831H43.5687C43.8622 21.7831 44.1556 22.0766 44.1556 22.37V24.1306C44.1556 24.2773 44.0089 24.5707 43.5687 24.5707Z" fill="white"/>
</svg>
