<svg width="62" height="62" viewBox="0 0 62 62" fill="none" xmlns="http://www.w3.org/2000/svg">
<rect x="0.507324" y="0.366699" width="61.2963" height="61.2963" rx="10" fill="#48C95F"/>
<path d="M43.3026 18.8513C40.2752 15.8344 36.2386 14.1583 31.9778 14.1583C23.1197 14.1583 15.9435 21.3096 15.9435 30.1369C15.9435 32.9303 16.7284 35.7238 18.074 38.0703L15.8314 46.3389L24.3531 44.1041C26.7078 45.3332 29.2867 46.0037 31.9778 46.0037C40.8358 46.0037 48.012 38.8524 48.012 30.0251C47.8998 25.8908 46.3301 21.8682 43.3026 18.8513ZM39.7145 35.8355C39.3782 36.7294 37.8084 37.6233 37.0235 37.7351C36.3507 37.8468 35.4537 37.8468 34.5567 37.6233C33.9961 37.3998 33.2112 37.1764 32.3141 36.7294C28.2776 35.0533 25.6986 31.0308 25.4744 30.6956C25.2501 30.4721 23.7925 28.5725 23.7925 26.5612C23.7925 24.55 24.8016 23.6561 25.138 23.2091C25.4744 22.7622 25.9229 22.7622 26.2593 22.7622C26.4835 22.7622 26.8199 22.7622 27.0442 22.7622C27.2684 22.7622 27.6048 22.6504 27.9412 23.4326C28.2776 24.2147 29.0624 26.226 29.1746 26.3378C29.2867 26.5612 29.2867 26.7847 29.1746 27.0082C29.0624 27.2317 28.9503 27.4552 28.7261 27.6786C28.5018 27.9021 28.2776 28.2373 28.1654 28.3491C27.9412 28.5725 27.7169 28.796 27.9412 29.1312C28.1654 29.5782 28.9503 30.8073 30.1837 31.9247C31.7535 33.2655 32.9869 33.7125 33.4354 33.936C33.8839 34.1594 34.1082 34.0477 34.3324 33.8242C34.5567 33.6007 35.3416 32.7068 35.5658 32.2599C35.7901 31.8129 36.1265 31.9247 36.4629 32.0364C36.7992 32.1482 38.8175 33.1538 39.1539 33.3773C39.6024 33.6007 39.8267 33.7125 39.9388 33.8242C40.0509 34.1594 40.0509 34.9416 39.7145 35.8355Z" fill="white"/>
</svg>
