<svg width="87" height="87" viewBox="0 0 87 87" fill="none" xmlns="http://www.w3.org/2000/svg">
<rect x="0.385376" y="0.407349" width="85.8148" height="85.8148" rx="20" fill="url(#paint0_radial_14_4274)"/>
<path d="M43.2928 25.7383C48.9793 25.7383 49.7547 25.7383 52.081 25.7383C54.1488 25.7383 55.1828 26.2552 55.9582 26.5137C56.9921 27.0307 57.7675 27.2891 58.543 28.0646C59.3184 28.84 59.8354 29.6154 60.0938 30.6493C60.3523 31.4248 60.6108 32.4587 60.8693 34.5265C60.8693 36.8528 60.8693 37.3698 60.8693 43.3148C60.8693 49.2598 60.8693 49.7767 60.8693 52.1031C60.8693 54.1709 60.3523 55.2048 60.0938 55.9802C59.5769 57.0141 59.3184 57.7896 58.543 58.565C57.7675 59.3404 56.9921 59.8574 55.9582 60.1159C55.1828 60.3744 54.1488 60.6328 52.081 60.8913C49.7547 60.8913 49.2378 60.8913 43.2928 60.8913C37.3478 60.8913 36.8308 60.8913 34.5045 60.8913C32.4367 60.8913 31.4028 60.3744 30.6273 60.1159C29.5934 59.5989 28.818 59.3404 28.0425 58.565C27.2671 57.7896 26.7501 57.0141 26.4917 55.9802C26.2332 55.2048 25.9747 54.1709 25.7162 52.1031C25.7162 49.7767 25.7162 49.2598 25.7162 43.3148C25.7162 37.3698 25.7162 36.8528 25.7162 34.5265C25.7162 32.4587 26.2332 31.4248 26.4917 30.6493C27.0086 29.6154 27.2671 28.84 28.0425 28.0646C28.818 27.2891 29.5934 26.7722 30.6273 26.5137C31.4028 26.2552 32.4367 25.9967 34.5045 25.7383C36.8308 25.7383 37.6062 25.7383 43.2928 25.7383ZM43.2928 21.8611C37.3478 21.8611 36.8308 21.8611 34.5045 21.8611C32.1782 21.8611 30.6273 22.378 29.3349 22.895C28.0425 23.412 26.7501 24.1874 25.4577 25.4798C24.1654 26.7722 23.6484 27.8061 22.873 29.357C22.356 30.6493 22.0975 32.2002 21.8391 34.5265C21.8391 36.8528 21.8391 37.6283 21.8391 43.3148C21.8391 49.2598 21.8391 49.7767 21.8391 52.1031C21.8391 54.4294 22.356 55.9802 22.873 57.2726C23.3899 58.565 24.1654 59.8574 25.4577 61.1498C26.7501 62.4422 27.7841 62.9591 29.3349 63.7346C30.6273 64.2515 32.1782 64.51 34.5045 64.7685C36.8308 64.7685 37.6062 64.7685 43.2928 64.7685C48.9793 64.7685 49.7547 64.7685 52.081 64.7685C54.4073 64.7685 55.9582 64.2515 57.2506 63.7346C58.543 63.2176 59.8354 62.4422 61.1278 61.1498C62.4202 59.8574 62.9371 58.8235 63.7125 57.2726C64.2295 55.9802 64.488 54.4294 64.7465 52.1031C64.7465 49.7767 64.7465 49.0013 64.7465 43.3148C64.7465 37.6283 64.7465 36.8528 64.7465 34.5265C64.7465 32.2002 64.2295 30.6493 63.7125 29.357C63.1956 28.0646 62.4202 26.7722 61.1278 25.4798C59.8354 24.1874 58.8015 23.6704 57.2506 22.895C55.9582 22.378 54.4073 22.1196 52.081 21.8611C49.7547 21.8611 49.2378 21.8611 43.2928 21.8611Z" fill="white"/>
<path d="M43.2928 32.2002C37.0893 32.2002 32.1782 37.1113 32.1782 43.3148C32.1782 49.5183 37.0893 54.4294 43.2928 54.4294C49.4962 54.4294 54.4073 49.5183 54.4073 43.3148C54.4073 37.1113 49.4962 32.2002 43.2928 32.2002ZM43.2928 50.5522C39.4156 50.5522 36.0554 47.4504 36.0554 43.3148C36.0554 39.4376 39.1571 36.0774 43.2928 36.0774C47.1699 36.0774 50.5301 39.1791 50.5301 43.3148C50.5301 47.192 47.1699 50.5522 43.2928 50.5522Z" fill="white"/>
<path d="M54.6658 34.5265C56.0933 34.5265 57.2506 33.3693 57.2506 31.9417C57.2506 30.5142 56.0933 29.357 54.6658 29.357C53.2383 29.357 52.081 30.5142 52.081 31.9417C52.081 33.3693 53.2383 34.5265 54.6658 34.5265Z" fill="white"/>
<defs>
<radialGradient id="paint0_radial_14_4274" cx="0" cy="0" r="1" gradientUnits="userSpaceOnUse" gradientTransform="translate(87.9265 2.15046) scale(198.172)">
<stop stop-color="#F9ED32"/>
<stop offset="0.36" stop-color="#EE2A7B"/>
<stop offset="0.44" stop-color="#D22A8A"/>
<stop offset="0.6" stop-color="#8B2AB2"/>
<stop offset="0.83" stop-color="#1B2AF0"/>
<stop offset="0.88" stop-color="#002AFF"/>
</radialGradient>
</defs>
</svg>
