<svg width="99" height="99" viewBox="0 0 99 99" fill="none" xmlns="http://www.w3.org/2000/svg">
<rect x="0.503784" y="0.588867" width="98.0741" height="98.0741" rx="20" fill="#0077FF"/>
<path d="M51.9498 66.7888C33.5203 66.7888 23.0084 53.9037 22.5704 32.4629H31.802C32.1052 48.1999 38.911 54.8658 44.3017 56.2402V32.4629H52.9942V46.0352C58.3176 45.4511 63.9104 39.2662 65.7971 32.4629H74.4897C73.7787 35.9913 72.3615 39.3321 70.3266 42.2764C68.2918 45.2207 65.6831 47.7052 62.6638 49.5743C66.0341 51.2822 69.0109 53.6996 71.3979 56.6669C73.7848 59.6343 75.5276 63.0841 76.5112 66.7888H66.9427C66.0597 63.571 64.2651 60.6906 61.7839 58.5085C59.3026 56.3264 56.245 54.9397 52.9942 54.5222V66.7888H51.9498Z" fill="white"/>
</svg>
