<svg width="75" height="75" viewBox="0 0 75 75" fill="none" xmlns="http://www.w3.org/2000/svg">
<rect x="0.681824" y="0.914795" width="73.5556" height="73.5556" rx="20" fill="#55ACE3"/>
<path d="M56.9518 28.3142C55.6646 28.8659 54.1935 29.2336 52.7224 29.4175C54.1935 28.4981 55.4807 27.027 56.0324 25.372C54.5613 26.2914 53.0902 26.8431 51.2513 27.2109C49.9641 25.7398 47.9413 24.8203 45.9185 24.8203C41.8729 24.8203 38.5629 28.1303 38.5629 32.1759C38.5629 32.7275 38.5629 33.2792 38.7468 33.8309C32.6785 33.4631 27.1618 30.5209 23.484 26.1075C22.9324 27.2109 22.5646 28.4981 22.5646 29.7853C22.5646 32.3598 23.8518 34.5664 25.8746 35.8536C24.5874 35.8536 23.484 35.4859 22.5646 34.9342C22.5646 38.4281 25.139 41.5542 28.449 42.1059C27.8974 42.2897 27.1618 42.2898 26.4263 42.2898C25.8746 42.2898 25.5068 42.2897 24.9552 42.1059C25.8746 45.0481 28.6329 47.2548 31.9429 47.2548C29.3685 49.2775 26.2424 50.3809 22.7485 50.3809C22.1968 50.3809 21.6452 50.3809 20.9096 50.197C24.2196 52.2198 28.0813 53.507 32.3107 53.507C45.9185 53.507 53.274 42.2898 53.274 32.5436V31.6242C54.7451 31.0725 56.0324 29.7853 56.9518 28.3142Z" fill="white"/>
</svg>
