<svg width="50" height="50" viewBox="0 0 50 50" fill="none" xmlns="http://www.w3.org/2000/svg">
<rect x="0.133362" y="0.0334473" width="49.037" height="49.037" rx="10" fill="#7289DA"/>
<path d="M35.719 17.2292C33.6946 15.66 31.2652 14.8754 28.7009 14.7446L28.2959 15.137C30.5903 15.66 32.6148 16.7061 34.5043 18.1445C32.2099 16.9676 29.6456 16.1831 26.9463 15.9215C26.1365 15.7907 25.4617 15.7907 24.6519 15.7907C23.8422 15.7907 23.1673 15.7907 22.3575 15.9215C19.6582 16.1831 17.0939 16.9676 14.7995 18.1445C16.689 16.7061 18.7135 15.66 21.0079 15.137L20.6029 14.7446C18.0386 14.8754 15.6093 15.66 13.5848 17.2292C11.2904 21.4137 10.0758 26.1212 9.9408 30.9595C11.9652 33.0518 14.7995 34.3594 17.7688 34.3594C17.7688 34.3594 18.7135 33.3133 19.3883 32.3979C17.6338 32.0057 16.0142 31.0903 14.9345 29.6519C15.8792 30.1749 16.8239 30.698 17.7688 31.0902C18.9834 31.6133 20.1981 31.8749 21.4128 32.1364C22.4925 32.2671 23.5722 32.3979 24.6519 32.3979C25.7316 32.3979 26.8113 32.2671 27.891 32.1364C29.1057 31.8749 30.3204 31.6133 31.5351 31.0902C32.4799 30.698 33.4246 30.1749 34.3693 29.6519C33.2896 31.0903 31.67 32.0057 29.9155 32.3979C30.5903 33.3133 31.5351 34.3594 31.5351 34.3594C34.5043 34.3594 37.3386 33.0518 39.363 30.9595C39.228 26.1212 38.0134 21.4137 35.719 17.2292ZM20.1981 28.6057C18.8485 28.6057 17.6338 27.4288 17.6338 25.9905C17.6338 24.552 18.8485 23.3752 20.1981 23.3752C21.5478 23.3752 22.7624 24.552 22.7624 25.9905C22.7624 27.4288 21.5478 28.6057 20.1981 28.6057ZM29.1057 28.6057C27.756 28.6057 26.5414 27.4288 26.5414 25.9905C26.5414 24.552 27.756 23.3752 29.1057 23.3752C30.4553 23.3752 31.67 24.552 31.67 25.9905C31.67 27.4288 30.4553 28.6057 29.1057 28.6057Z" fill="white"/>
</svg>
