<svg width="37" height="38" viewBox="0 0 37 38" fill="none" xmlns="http://www.w3.org/2000/svg">
<path d="M36.8188 0.970459H0.0410156V37.7482H36.8188V0.970459Z" fill="#FF5700"/>
<path fill-rule="evenodd" clip-rule="evenodd" d="M21.7124 22.2675C20.8876 22.2675 20.1946 21.6047 20.1946 20.7875C20.1946 19.9702 20.8876 19.2856 21.7124 19.2856C22.5371 19.2856 23.206 19.9702 23.206 20.7875C23.206 21.6047 22.5371 22.2675 21.7124 22.2675ZM22.0627 25.1401C21.2945 25.9006 20.1098 26.2702 18.441 26.2702C18.4375 26.2702 18.4334 26.2695 18.4292 26.2695C18.4258 26.2695 18.4217 26.2702 18.4175 26.2702C16.7487 26.2702 15.5647 25.9006 14.7972 25.1401C14.5614 24.9064 14.5614 24.5285 14.7972 24.2955C15.0324 24.0625 15.4137 24.0625 15.6495 24.2955C16.1791 24.8203 17.0846 25.0758 18.4175 25.0758C18.4217 25.0758 18.4258 25.0765 18.4292 25.0765C18.4334 25.0765 18.4375 25.0758 18.441 25.0758C19.7739 25.0758 20.68 24.8203 21.2103 24.2955C21.4462 24.0618 21.8275 24.0625 22.0627 24.2955C22.2978 24.5292 22.2978 24.9071 22.0627 25.1401ZM13.6539 20.7875C13.6539 19.9709 14.3455 19.2856 15.1696 19.2856C15.9943 19.2856 16.6632 19.9709 16.6632 20.7875C16.6632 21.6047 15.9943 22.2675 15.1696 22.2675C14.3455 22.2675 13.6539 21.6047 13.6539 20.7875ZM25.7837 11.3593C26.3422 11.3593 26.7967 11.8096 26.7967 12.3624C26.7967 12.9159 26.3422 13.3662 25.7837 13.3662C25.2251 13.3662 24.7707 12.9159 24.7707 12.3624C24.7707 11.8096 25.2251 11.3593 25.7837 11.3593ZM29.4633 19.1619C29.4633 17.7126 28.2737 16.5339 26.8111 16.5339C26.1781 16.5339 25.5968 16.7553 25.1403 17.1236C23.5232 16.1164 21.471 15.5097 19.2712 15.3812L20.4187 11.7864L23.5722 12.5223C23.6549 13.66 24.6148 14.5606 25.7837 14.5606C27.0063 14.5606 28.0014 13.5746 28.0014 12.3624C28.0014 11.1509 27.0063 10.1649 25.7837 10.1649C24.9286 10.1649 24.1852 10.6473 23.8149 11.3518L20.1504 10.497C19.8436 10.4253 19.5333 10.6002 19.4381 10.8981L18.0134 15.36C15.6433 15.4174 13.4153 16.0262 11.6796 17.0922C11.2293 16.743 10.6632 16.5339 10.0487 16.5339C8.58614 16.5339 7.39661 17.7126 7.39661 19.1619C7.39661 20.0577 7.85173 20.8496 8.54476 21.3238C8.5158 21.5322 8.50063 21.742 8.50063 21.9545C8.50063 23.7659 9.56328 25.451 11.4927 26.6987C13.3422 27.8951 15.7902 28.5538 18.3851 28.5538C20.98 28.5538 23.428 27.8951 25.2775 26.6987C27.207 25.451 28.2696 23.7659 28.2696 21.9545C28.2696 21.7612 28.2565 21.5691 28.2324 21.3785C28.9716 20.9118 29.4633 20.0925 29.4633 19.1619Z" fill="white"/>
</svg>
