<svg width="342" height="374" viewBox="0 0 342 374" fill="none" xmlns="http://www.w3.org/2000/svg">
<path fill-rule="evenodd" clip-rule="evenodd" d="M170.092 3.83979C220.611 6.49495 273.521 13.0954 306.154 51.7514C339.73 91.5223 343.413 146.467 333.662 197.594C323.361 251.6 299.532 303.011 252.729 331.859C199.293 364.794 127.432 391.956 75.4794 356.728C25.9708 323.158 53.7111 248.137 42.5819 189.363C32.4411 135.809 -16.0423 81.3591 14.8305 36.4401C46.3448 -9.4122 114.532 0.919646 170.092 3.83979Z" fill="#F2F0FD"/>
<path d="M29.7446 146.385C29.7446 146.385 19.9723 150.607 18.2756 158.703C17.0265 164.621 19.3243 190.364 20.6402 203.657C20.6892 204.164 20.899 204.643 21.2391 205.023C21.5792 205.402 22.0317 205.664 22.5307 205.768C23.0296 205.872 23.5489 205.815 24.0127 205.603C24.4765 205.392 24.8606 205.037 25.1089 204.592C28.9364 197.752 35.6161 187.225 44.3999 179.029L29.7446 146.385Z" fill="#00CCC1"/>
<path d="M87.918 146.385C87.918 146.385 97.6838 150.634 99.3871 158.703C100.629 164.621 98.3317 190.364 97.0225 203.657C96.9712 204.164 96.7598 204.641 96.4191 205.02C96.0783 205.398 95.6258 205.659 95.1271 205.763C94.6285 205.867 94.1096 205.81 93.6457 205.599C93.1818 205.389 92.797 205.036 92.5471 204.592C88.7196 197.752 82.0399 187.225 73.2628 179.029L87.918 146.385Z" fill="#00CCC1"/>
<mask id="mask0_1_242" style="mask-type:luminance" maskUnits="userSpaceOnUse" x="24" y="43" width="71" height="143">
<path d="M78.8203 183.705C88.0449 168.048 94.6846 143.406 94.1836 121.049C93.3286 83.2957 72.1874 56.1428 61.8205 44.7205C61.5358 44.4097 61.1895 44.1615 60.8037 43.9918C60.4179 43.822 60.001 43.7343 59.5795 43.7343C59.1579 43.7343 58.741 43.822 58.3552 43.9918C57.9694 44.1615 57.6231 44.4097 57.3384 44.7205C46.9715 56.1428 25.8303 83.2957 24.9753 121.049C24.4677 143.406 31.1006 168.048 40.3386 183.711C53.0637 186.05 66.1086 186.05 78.8337 183.711L78.8203 183.705Z" fill="white"/>
</mask>
<g mask="url(#mask0_1_242)">
<path d="M78.8203 183.705C88.0449 168.048 94.6846 143.406 94.1836 121.049C93.3286 83.2957 72.1874 56.1428 61.8205 44.7205C61.5358 44.4097 61.1895 44.1615 60.8037 43.9918C60.4179 43.822 60.001 43.7343 59.5795 43.7343C59.1579 43.7343 58.741 43.822 58.3552 43.9918C57.9694 44.1615 57.6231 44.4097 57.3384 44.7205C46.9715 56.1428 25.8303 83.2957 24.9753 121.049C24.4677 143.406 31.1006 168.048 40.3386 183.711C53.0637 186.05 66.1086 186.05 78.8337 183.711L78.8203 183.705Z" fill="#FF535C"/>
<path d="M94.1835 80.9712C84.6123 77.0524 74.4521 74.7653 64.1249 74.2047C50.7287 73.5725 37.3566 75.8821 24.9485 80.9712V32.7572H94.1835V80.9712Z" fill="#00CCC1"/>
</g>
<path d="M80.1562 187.085C80.1165 188.324 79.6357 189.508 78.8006 190.424C77.9654 191.34 76.8307 191.927 75.6007 192.081C64.8446 193.787 53.8868 193.787 43.1307 192.081C41.9025 191.927 40.7695 191.34 39.9355 190.426C39.1016 189.511 38.6216 188.329 38.5818 187.091V186.423C38.5818 183.625 41.0533 181.36 44.106 181.36H74.6121C77.658 181.36 80.1295 183.625 80.1295 186.423L80.1562 187.085Z" fill="#00CCC1"/>
<path d="M80.1562 195.855C80.1165 197.094 79.6357 198.278 78.8006 199.194C77.9654 200.11 76.8307 200.698 75.6007 200.852C64.8446 202.558 53.8868 202.558 43.1307 200.852C41.9025 200.698 40.7695 200.111 39.9355 199.196C39.1016 198.281 38.6216 197.099 38.5818 195.862V195.194C38.5818 192.395 41.0533 190.124 44.106 190.124H74.6121C77.658 190.124 80.1295 192.395 80.1295 195.194L80.1562 195.855Z" fill="#00CCC1"/>
<path d="M59.5762 136.513C70.5733 136.513 79.4883 127.598 79.4883 116.601C79.4883 105.603 70.5733 96.6885 59.5762 96.6885C48.579 96.6885 39.664 105.603 39.664 116.601C39.664 127.598 48.579 136.513 59.5762 136.513Z" fill="#FFF3E3"/>
<path d="M59.5761 131.416C56.6443 131.416 53.7783 130.547 51.3407 128.918C48.903 127.289 47.0032 124.973 45.8815 122.265C44.7599 119.556 44.4667 116.575 45.0392 113.7C45.6117 110.824 47.024 108.183 49.0976 106.111C51.1712 104.038 53.8129 102.627 56.6886 102.056C59.5642 101.485 62.5447 101.779 65.253 102.902C67.9613 104.025 70.2757 105.926 71.9036 108.364C73.5315 110.802 74.3997 113.669 74.3984 116.601C74.3931 120.529 72.8295 124.296 70.0508 127.073C67.272 129.851 63.505 131.413 59.5761 131.416Z" fill="#00CCC1"/>
<path d="M49.5232 204.492C49.4403 204.471 49.3533 204.474 49.2719 204.5C49.1905 204.526 49.1179 204.574 49.0623 204.639C47.4179 206.625 46.227 208.947 45.5729 211.441C44.9187 213.936 44.817 216.543 45.2749 219.08C45.2917 219.178 45.3398 219.267 45.4117 219.334C45.4837 219.402 45.5757 219.444 45.6738 219.455C45.7719 219.465 45.8708 219.443 45.9555 219.393C46.0402 219.342 46.1061 219.265 46.1433 219.174C46.7944 217.581 47.7548 216.132 48.9688 214.912C49.0383 214.845 49.1275 214.802 49.2233 214.789C49.3191 214.776 49.4166 214.794 49.5016 214.84C49.5866 214.886 49.6546 214.958 49.6957 215.046C49.7368 215.133 49.7489 215.232 49.7303 215.326C48.7417 220.603 50.3448 225.88 54.0654 229.193C56.4917 231.28 59.5517 232.485 62.749 232.613C62.8254 232.617 62.9015 232.601 62.9703 232.568C63.039 232.534 63.0981 232.483 63.1421 232.421C63.186 232.358 63.2135 232.285 63.2218 232.209C63.2302 232.133 63.2192 232.056 63.1898 231.986C62.7725 230.954 62.5899 229.843 62.6555 228.733C62.8091 226.448 64.0582 224.898 64.7195 223.917C65.8751 222.193 67.024 219.521 67.1308 215.266C67.1324 215.165 67.1672 215.067 67.2298 214.988C67.2924 214.909 67.3795 214.852 67.4775 214.827C67.5754 214.802 67.679 214.81 67.772 214.849C67.8651 214.889 67.9426 214.958 67.9925 215.046C68.3773 215.783 68.6647 216.566 68.8475 217.377C69.0671 218.356 69.1236 219.365 69.0145 220.363C69.0072 220.451 69.0256 220.54 69.0674 220.618C69.1092 220.696 69.1728 220.761 69.2503 220.804C69.3279 220.847 69.4162 220.867 69.5047 220.861C69.5932 220.855 69.6782 220.823 69.7493 220.77C71.012 219.858 72.0587 218.68 72.8151 217.318C73.5715 215.956 74.0191 214.445 74.1262 212.891C74.2333 211.337 73.9972 209.778 73.4347 208.326C72.8723 206.873 71.9972 205.562 70.8715 204.485C70.816 204.429 70.7461 204.389 70.6695 204.371C70.5928 204.352 70.5125 204.354 70.4373 204.378C68.034 205.04 65.5741 205.476 63.0896 205.681C58.5328 206.054 53.9456 205.652 49.5232 204.492Z" fill="#FFB833"/>
<path d="M225.105 144.442C225.105 144.442 198.46 192.054 231.571 205.821C264.683 219.588 266.707 170.646 266.707 170.646C266.707 170.646 242.586 144.154 225.105 144.442Z" fill="#FF535C"/>
<path d="M99.7411 136.513H152.23V121.129" stroke="#00CCC1" stroke-width="2" stroke-linecap="round" stroke-linejoin="round"/>
<path d="M29.7313 207.057V270.628H36.431" stroke="#00CCC1" stroke-width="2" stroke-linecap="round" stroke-linejoin="round"/>
<path d="M229.227 191.714C229.227 191.714 221.211 162.991 240.843 155.416" stroke="#383333" stroke-linecap="round" stroke-linejoin="round"/>
<path d="M235.312 58.3404H234.885C234.486 58.3404 234.163 58.6634 234.163 59.0618V68.8543C234.163 69.2527 234.486 69.5757 234.885 69.5757H235.312C235.71 69.5757 236.033 69.2527 236.033 68.8543V59.0618C236.033 58.6634 235.71 58.3404 235.312 58.3404Z" fill="#FFB833"/>
<path d="M229.481 63.7443V64.1718C229.481 64.5702 229.804 64.8932 230.202 64.8932H239.995C240.393 64.8932 240.716 64.5702 240.716 64.1718V63.7443C240.716 63.3459 240.393 63.0229 239.995 63.0229H230.202C229.804 63.0229 229.481 63.3459 229.481 63.7443Z" fill="#FFB833"/>
<path d="M305.536 290.112H305.108C304.71 290.112 304.387 290.435 304.387 290.834V300.626C304.387 301.024 304.71 301.347 305.108 301.347H305.536C305.934 301.347 306.257 301.024 306.257 300.626V290.834C306.257 290.435 305.934 290.112 305.536 290.112Z" fill="#FFB833"/>
<path d="M299.704 295.516V295.944C299.704 296.342 300.027 296.665 300.426 296.665H310.218C310.616 296.665 310.939 296.342 310.939 295.944V295.516C310.939 295.118 310.616 294.795 310.218 294.795H300.426C300.027 294.795 299.704 295.118 299.704 295.516Z" fill="#FFB833"/>
<path d="M195.087 160.119H194.232C193.833 160.119 193.51 160.442 193.51 160.84V173.171C193.51 173.569 193.833 173.892 194.232 173.892H195.087C195.485 173.892 195.808 173.569 195.808 173.171V160.84C195.808 160.442 195.485 160.119 195.087 160.119Z" fill="#FFB833"/>
<path d="M187.773 166.578V167.433C187.773 167.832 188.096 168.154 188.494 168.154H200.825C201.223 168.154 201.546 167.832 201.546 167.433V166.578C201.546 166.18 201.223 165.857 200.825 165.857H188.494C188.096 165.857 187.773 166.18 187.773 166.578Z" fill="#FFB833"/>
<path d="M227.523 182.937C223.228 183.661 219.099 185.155 215.333 187.345C205.14 193.303 200.778 202.956 198.527 207.611C193.497 218.032 185.087 232.366 169.804 251.965L184.359 274.014C189.767 270.591 194.893 266.743 199.689 262.505C211.786 251.818 218.092 241.865 227.37 226.982C242.539 202.635 241.357 196.924 240.322 194.199C238.044 188.187 232.112 184.807 227.523 182.937Z" fill="#FFDB99"/>
<path d="M152.537 212.514C167.66 228.759 193.25 258.424 185.809 269.218C183.324 272.818 178.121 272.939 177.226 272.965C162.998 273.299 148.262 249.974 138.877 216.188L152.537 212.514Z" fill="#FFDB99"/>
<path d="M157.293 217.698C157.293 217.698 147.12 202.922 141.336 200.524C135.551 198.126 123.394 198.233 115.352 195.448C107.309 192.662 112.72 202.682 120.802 206.282C128.885 209.882 137.829 213.369 140.227 220.837C140.227 220.837 154.775 225.493 157.293 217.698Z" fill="#FFDB99"/>
<path d="M270.22 168.996C295.129 168.996 315.321 148.804 315.321 123.895C315.321 98.9861 295.129 78.7936 270.22 78.7936C245.311 78.7936 225.119 98.9861 225.119 123.895C225.119 148.804 245.311 168.996 270.22 168.996Z" fill="#FFDB99"/>
<path d="M281.883 164.514C281.883 164.514 278.77 177.359 281.883 187.472C284.996 197.585 302.51 201.874 304.066 219C305.622 236.127 292.784 258.31 287.333 281.669C281.883 305.028 286.164 338.099 286.164 338.099C274.177 341.255 261.746 342.384 249.386 341.439C230.33 339.877 211.98 333.514 196.049 322.943C198.42 300.025 201.767 269.619 206.349 233.028C209.021 211.846 211.953 188.427 226.001 183.598C232.233 181.454 246.634 183.01 249.553 180.091C252.472 177.172 254.61 154.408 254.61 154.408C254.61 154.408 278.156 151.669 281.883 164.514Z" fill="#FFDB99"/>
<path d="M302.83 155.042C296.885 161.14 289.738 165.937 281.843 169.13C267.562 174.841 243.615 177.927 231.124 164.815C229.359 162.933 227.874 160.807 226.715 158.502C216.983 140.574 223.883 118.872 227.323 109.934C227.323 109.934 297.166 79.8624 302.83 155.042Z" fill="#FFDB99"/>
<path d="M277.474 122.332C275.708 120.237 273.338 118.739 270.688 118.043C268.904 117.549 266.479 116.875 265.377 118.09C265.128 118.352 264.954 118.677 264.874 119.03C264.794 119.382 264.811 119.75 264.923 120.094C265.477 121.43 267.855 120.949 271.295 121.784C275.818 122.886 278.316 125.338 278.777 124.763C279.111 124.349 277.935 122.906 277.474 122.332Z" fill="#FF535C"/>
<path d="M231.785 108.371C234.474 107.799 237.275 108.075 239.801 109.159C241.517 109.861 243.809 110.816 243.962 112.459C243.993 112.818 243.929 113.178 243.777 113.504C243.624 113.83 243.389 114.11 243.094 114.316C241.825 115.031 240.248 113.187 237.022 111.738C232.78 109.827 229.3 110.228 229.287 109.493C229.22 108.959 231.037 108.525 231.785 108.371Z" fill="#FF535C"/>
<path d="M249.9 123.574C249.9 123.574 244.283 129.546 244.363 131.102C244.443 132.659 250.114 134.188 250.114 134.188" stroke="#383333" stroke-linecap="round" stroke-linejoin="round"/>
<path d="M274.125 142.634C274.699 140.955 272.981 138.847 270.286 137.925C267.592 137.003 264.941 137.616 264.367 139.295C263.792 140.974 265.511 143.082 268.206 144.004C270.9 144.926 273.55 144.313 274.125 142.634Z" fill="#FFC871"/>
<path d="M234.104 130.555C234.678 128.876 232.959 126.767 230.265 125.845C227.57 124.923 224.92 125.537 224.346 127.216C223.771 128.894 225.49 131.003 228.184 131.925C230.879 132.847 233.529 132.233 234.104 130.555Z" fill="#FFC871"/>
<path d="M293.138 135.09C294.126 134.392 295.248 133.904 296.432 133.657C297.617 133.41 298.84 133.409 300.025 133.654C301.466 133.946 302.773 134.701 303.745 135.805C306.791 139.772 303.645 150.193 296.959 151.896C293.225 152.845 289.778 150.72 288.629 149.932L293.138 135.09Z" fill="#FFDB99"/>
<path d="M301.481 140.307L295.516 139.031C295.516 139.031 301 143.854 295.062 147.948" stroke="#383333" stroke-width="0.75" stroke-linecap="round" stroke-linejoin="round"/>
<path fill-rule="evenodd" clip-rule="evenodd" d="M236.033 123.594C235.402 123.976 234.673 124.161 233.936 124.128C233.2 124.094 232.49 123.843 231.896 123.406C231.302 122.969 230.851 122.366 230.6 121.673C230.35 120.979 230.31 120.227 230.487 119.512C230.663 118.796 231.048 118.148 231.593 117.651C232.137 117.154 232.817 116.83 233.546 116.719C234.275 116.609 235.02 116.717 235.688 117.03C236.355 117.343 236.915 117.847 237.296 118.478C237.803 119.325 237.955 120.338 237.719 121.296C237.482 122.255 236.876 123.081 236.033 123.594Z" fill="#383333"/>
<path fill-rule="evenodd" clip-rule="evenodd" d="M228.445 116.841C228.539 116.788 229.033 118.177 229.975 118.244C230.643 118.304 230.977 117.576 231.979 117.088C232.831 116.681 233.79 116.555 234.718 116.728C234.186 117.436 233.556 118.066 232.847 118.598C231.845 119.359 231.197 119.847 230.463 119.72C228.973 119.473 228.338 116.915 228.445 116.841Z" fill="#383333"/>
<path fill-rule="evenodd" clip-rule="evenodd" d="M267.855 133.153C267.247 133.572 266.528 133.802 265.789 133.812C265.05 133.823 264.324 133.614 263.704 133.211C263.084 132.809 262.598 132.232 262.306 131.553C262.014 130.874 261.93 130.124 262.065 129.397C262.2 128.671 262.547 128.001 263.063 127.471C263.579 126.942 264.241 126.578 264.964 126.426C265.687 126.273 266.439 126.338 267.125 126.613C267.811 126.887 268.4 127.36 268.817 127.969C269.374 128.785 269.585 129.788 269.405 130.759C269.225 131.731 268.668 132.591 267.855 133.153Z" fill="#383333"/>
<path fill-rule="evenodd" clip-rule="evenodd" d="M272.358 129.165C272.291 129.078 271.275 130.127 270.387 129.833C269.719 129.599 269.719 128.818 269.051 127.949C268.441 127.231 267.621 126.722 266.707 126.493C266.898 127.359 267.211 128.193 267.635 128.971C268.236 130.074 268.624 130.788 269.345 130.975C270.801 131.349 272.438 129.279 272.358 129.165Z" fill="#383333"/>
<path d="M250.114 175.943C250.114 175.943 249.566 179.51 244.924 180.478C240.282 181.447 229.06 181.981 224.11 183.685C219.161 185.388 204.519 220.884 191.56 322.429C191.56 322.429 237.576 358.298 287.921 338.206C287.921 338.206 283.386 298.235 290.513 277.274C297.64 256.313 308.976 223.048 304.173 212.481C299.37 201.914 285.61 190.839 283.165 186.337C282.447 185.101 282.033 183.712 281.957 182.284C281.882 180.857 282.147 179.432 282.731 178.127C282.731 178.127 262.859 178.321 250.114 175.943Z" fill="#FFB833"/>
<path d="M237.022 200.164H176.29C172.716 200.164 169.818 203.061 169.818 206.636V289.251C169.818 292.825 172.716 295.723 176.29 295.723H237.022C240.597 295.723 243.495 292.825 243.495 289.251V206.636C243.495 203.061 240.597 200.164 237.022 200.164Z" fill="#00CCC1"/>
<path d="M206.656 258.157C214.167 258.157 220.256 252.068 220.256 244.557C220.256 237.046 214.167 230.957 206.656 230.957C199.145 230.957 193.056 237.046 193.056 244.557C193.056 252.068 199.145 258.157 206.656 258.157Z" fill="#AAEEEA"/>
<path d="M299.317 210.156C292.377 208.52 284.227 215.006 281.008 220.45C272.578 234.711 259.633 261.623 259.633 261.623L268.49 280.734C277.354 276.292 289.518 268.223 298.088 254.155C299.036 252.606 314.66 226.388 305.329 214.298C304.721 213.53 302.67 210.945 299.317 210.156Z" fill="#FFDB99"/>
<path d="M202.468 255.885C202.468 255.885 254.65 254.977 266.96 260.134C269.459 261.176 274.976 263.721 275.898 268.41C276.8 272.879 273.072 277.094 271.93 278.356C261.009 290.64 212.982 274.682 205.34 272.09L202.468 255.885Z" fill="#FFDB99"/>
<path d="M206.656 255.839C206.656 255.839 201.399 255.979 198.253 253.835C195.107 251.691 190.638 248.244 189.99 249.7C189.342 251.156 192.909 255.939 193.965 257.235C195.02 258.531 183.023 254.563 179.136 252.559C175.248 250.555 174.353 251.818 174.761 253.441C175.168 255.064 183.351 259.593 184.566 260.12C185.782 260.648 172.249 254.496 171.842 256.781C171.434 259.065 178 261.971 181.808 263.667C185.615 265.364 172.817 260.508 172.737 262.371C172.657 264.235 178.808 266.747 181.728 267.562C184.647 268.376 175.168 265.558 174.68 266.994C174.193 268.43 188.848 272.718 198.801 272.972C208.754 273.226 214.385 274.976 214.385 274.976C214.385 274.976 212.548 257.823 206.656 255.839Z" fill="#FFDB99"/>
<path d="M256.593 89.1538C256.593 89.1538 234.517 92.6607 227.323 109.948C227.323 109.948 226.889 65.0134 264.262 77.1638C273.03 74.892 282.271 75.2239 290.854 78.119C294.768 79.4549 307.379 84.0038 315.321 95.8001C330.377 118.17 319.082 152.09 311.688 166.451C310.004 169.711 308.254 172.463 306.825 177.473C302.009 194.225 310.833 201.032 306.825 212.147C302.65 223.736 287.333 234.337 272.798 231.271C261.637 228.913 255.518 219.501 254.002 217.01C269.365 208.667 274.508 199.896 276.165 193.03C278.837 182.055 273.353 172.63 278.95 160.62C279.705 159.003 283.673 150.493 288.649 150.487C288.973 150.423 289.309 150.451 289.618 150.567C294.394 152.117 298.301 152.27 301.481 148.99C304.661 145.711 306.157 140.554 304.153 136.486C302.149 132.418 296.364 133.307 294.741 134.202C293.118 135.097 292.003 141.229 289.397 140.988C286.792 140.748 291.902 125.418 291.902 125.418C291.902 125.418 269.773 115.338 256.593 89.1538Z" fill="#FF535C"/>
<path d="M251.824 173.812C258.365 175.027 265.11 174.521 271.396 172.343" stroke="#383333" stroke-linecap="round" stroke-linejoin="round"/>
<path d="M240.843 141.589C240.843 141.589 244.817 147.12 255.184 143.493" stroke="#383333" stroke-linecap="round" stroke-linejoin="round"/>
<path d="M244.356 147.207C244.356 147.207 246.921 148.777 251.083 147.588" stroke="#383333" stroke-width="0.75" stroke-linecap="round" stroke-linejoin="round"/>
<path d="M197.679 46.6309H116.901C111.899 46.6309 107.844 50.6862 107.844 55.6886V107.637C107.844 112.639 111.899 116.694 116.901 116.694H197.679C202.681 116.694 206.736 112.639 206.736 107.637V55.6886C206.736 50.6862 202.681 46.6309 197.679 46.6309Z" fill="#AAEEEA"/>
<path d="M134.549 239.954H48.7083C43.7059 239.954 39.6506 244.01 39.6506 249.012V307.105C39.6506 312.108 43.7059 316.163 48.7083 316.163H134.549C139.551 316.163 143.607 312.108 143.607 307.105V249.012C143.607 244.01 139.551 239.954 134.549 239.954Z" fill="#AAEEEA"/>
<path d="M65.3808 274.034H52.7428V303.365H65.3808V274.034Z" fill="#FFF3E3"/>
<path d="M82.0667 266.259H69.4287V303.365H82.0667V266.259Z" fill="#FFF3E3"/>
<path d="M98.7592 261.069H86.1212V303.365H98.7592V261.069Z" fill="#FFF3E3"/>
<path d="M115.452 256.861H102.814V303.365H115.452V256.861Z" fill="#FFF3E3"/>
<path d="M132.144 252.319H119.506V303.365H132.144V252.319Z" fill="#FFF3E3"/>
<path d="M232.453 94.3306C232.453 94.3306 241.958 82.3071 255.164 83.1221" stroke="#383333" stroke-linecap="round" stroke-linejoin="round"/>
<path d="M264.262 90.4497C264.262 90.4497 284.789 129.192 313.144 122.512" stroke="#383333" stroke-linecap="round" stroke-linejoin="round"/>
<path d="M278.837 97.5368C278.837 97.5368 294.2 120.582 319.623 115.392" stroke="#383333" stroke-linecap="round" stroke-linejoin="round"/>
<path d="M288.703 157.367C288.703 157.367 279.064 169.677 282.952 181.561C286.839 193.444 284.628 216.783 265.745 217.631" stroke="#383333" stroke-linecap="round" stroke-linejoin="round"/>
<path d="M295.062 182.937C295.062 182.937 308.354 216.596 286.378 222.213" stroke="#383333" stroke-linecap="round" stroke-linejoin="round"/>
<path d="M183.451 259.566C183.451 259.566 185.669 260.234 187.726 260.748" stroke="#383333" stroke-width="0.75" stroke-linecap="round" stroke-linejoin="round"/>
<path d="M182.088 263.941C182.088 263.941 185.021 264.85 186.483 265.177" stroke="#383333" stroke-width="0.75" stroke-linecap="round" stroke-linejoin="round"/>
<path d="M181.06 267.355C182.631 267.845 184.25 268.165 185.889 268.31" stroke="#383333" stroke-width="0.75" stroke-linecap="round" stroke-linejoin="round"/>
<path d="M261.777 258.684C261.777 258.684 272.738 259.559 275.036 268.744" stroke="#383333" stroke-linecap="round" stroke-linejoin="round"/>
<path d="M156.945 56.3318C143.022 56.3318 131.691 67.6635 131.691 81.5865C131.691 95.5096 143.022 106.841 156.945 106.841C170.868 106.841 182.2 95.5096 182.2 81.5865C182.2 67.6635 170.868 56.3318 156.945 56.3318ZM156.945 104.645C144.23 104.645 133.887 94.3017 133.887 81.5865C133.887 68.8713 144.23 58.5279 156.945 58.5279C169.66 58.5279 180.004 68.8713 180.004 81.5865C180.004 94.3017 169.66 104.645 156.945 104.645Z" fill="#00CCC1"/>
<path d="M156.945 65.1161C157.549 65.1161 158.043 64.622 158.043 64.0181V61.822C158.043 61.2181 157.549 60.724 156.945 60.724C156.341 60.724 155.847 61.2181 155.847 61.822V64.0181C155.847 64.622 156.341 65.1161 156.945 65.1161Z" fill="#00CCC1"/>
<path d="M170.144 66.84L168.595 68.3882C168.167 68.8164 168.167 69.5082 168.595 69.9364C168.815 70.156 169.089 70.2548 169.375 70.2548C169.66 70.2548 169.935 70.145 170.155 69.9364L171.703 68.3882C172.131 67.96 172.131 67.2682 171.703 66.84C171.275 66.4117 170.583 66.4117 170.155 66.84H170.144Z" fill="#00CCC1"/>
<path d="M176.71 80.4885H174.514C173.91 80.4885 173.416 80.9826 173.416 81.5866C173.416 82.1905 173.91 82.6846 174.514 82.6846H176.71C177.314 82.6846 177.808 82.1905 177.808 81.5866C177.808 80.9826 177.314 80.4885 176.71 80.4885Z" fill="#00CCC1"/>
<path d="M170.144 93.2366C169.715 92.8084 169.024 92.8084 168.595 93.2366C168.167 93.6649 168.167 94.3566 168.595 94.7849L170.144 96.3331C170.363 96.5527 170.638 96.6515 170.923 96.6515C171.209 96.6515 171.483 96.5417 171.703 96.3331C172.131 95.9049 172.131 95.2131 171.703 94.7849L170.155 93.2366H170.144Z" fill="#00CCC1"/>
<path d="M156.945 98.057C156.341 98.057 155.847 98.5511 155.847 99.155V101.351C155.847 101.955 156.341 102.449 156.945 102.449C157.549 102.449 158.043 101.955 158.043 101.351V99.155C158.043 98.5511 157.549 98.057 156.945 98.057Z" fill="#00CCC1"/>
<path d="M143.747 93.2366L142.199 94.7849C141.77 95.2131 141.77 95.9049 142.199 96.3331C142.418 96.5527 142.693 96.6515 142.978 96.6515C143.264 96.6515 143.538 96.5417 143.758 96.3331L145.306 94.7849C145.734 94.3566 145.734 93.6649 145.306 93.2366C144.878 92.8084 144.186 92.8084 143.758 93.2366H143.747Z" fill="#00CCC1"/>
<path d="M139.377 80.4885H137.181C136.577 80.4885 136.083 80.9826 136.083 81.5866C136.083 82.1905 136.577 82.6846 137.181 82.6846H139.377C139.981 82.6846 140.475 82.1905 140.475 81.5866C140.475 80.9826 139.981 80.4885 139.377 80.4885Z" fill="#00CCC1"/>
<path d="M143.747 66.84C143.319 66.4117 142.627 66.4117 142.199 66.84C141.77 67.2682 141.77 67.96 142.199 68.3882L143.747 69.9364C143.966 70.156 144.241 70.2548 144.526 70.2548C144.812 70.2548 145.086 70.145 145.306 69.9364C145.734 69.5082 145.734 68.8164 145.306 68.3882L143.758 66.84H143.747Z" fill="#00CCC1"/>
<path d="M158.043 81.1364V67.3121C158.043 66.7082 157.549 66.2141 156.945 66.2141C156.341 66.2141 155.847 66.7082 155.847 67.3121V81.5865C155.847 81.7293 155.88 81.872 155.935 82.0038C155.99 82.1356 156.067 82.2563 156.177 82.3661L163.863 90.0524C164.082 90.272 164.357 90.3708 164.642 90.3708C164.928 90.3708 165.202 90.261 165.422 90.0524C165.85 89.6241 165.85 88.9324 165.422 88.5041L158.054 81.1364H158.043Z" fill="#00CCC1"/>
<path d="M136.818 64.0181C137.115 64.0181 137.411 63.8973 137.62 63.6667C139.278 61.8879 141.167 60.3396 143.242 59.0769C143.758 58.7585 143.923 58.0887 143.604 57.5726C143.286 57.0565 142.616 56.8918 142.1 57.2103C139.849 58.5828 137.807 60.2518 136.017 62.1843C135.599 62.6345 135.632 63.3263 136.072 63.7326C136.28 63.9302 136.555 64.029 136.818 64.029V64.0181Z" fill="#00CCC1"/>
<path d="M170.649 59.0769C172.724 60.3396 174.612 61.8879 176.271 63.6667C176.49 63.8973 176.776 64.018 177.072 64.018C177.336 64.018 177.61 63.9192 177.819 63.7216C178.258 63.3043 178.291 62.6126 177.874 62.1734C176.084 60.2408 174.031 58.5718 171.791 57.1993C171.274 56.8808 170.594 57.0456 170.286 57.5616C169.968 58.0777 170.133 58.7585 170.649 59.0659V59.0769Z" fill="#00CCC1"/>
<g clip-path="url(#clip0_1_242)">
<path fill-rule="evenodd" clip-rule="evenodd" d="M54.0682 118.644C54.0682 116.936 57.9526 115.551 62.7459 115.551C67.5378 115.551 71.4222 116.936 71.4222 118.644V121.486C71.4222 123.193 67.5378 124.579 62.7459 124.579C57.9526 124.579 54.0682 123.193 54.0682 121.486C54.0682 120.539 54.0682 119.591 54.0682 118.644Z" fill="#FE9923"/>
<path fill-rule="evenodd" clip-rule="evenodd" d="M62.7459 115.551C67.5378 115.551 71.4222 116.936 71.4222 118.644C71.4222 120.352 67.5378 121.736 62.7459 121.736C57.9526 121.736 54.0682 120.352 54.0682 118.644C54.0682 116.936 57.9526 115.551 62.7459 115.551Z" fill="#FECD3D"/>
<path fill-rule="evenodd" clip-rule="evenodd" d="M62.7459 116.996C66.5584 116.996 69.6484 117.735 69.6484 118.644C69.6484 119.554 66.5584 120.291 62.7459 120.291C58.9333 120.291 55.842 119.554 55.842 118.644C55.842 117.735 58.9333 116.996 62.7459 116.996Z" fill="#FEA832"/>
<path d="M58.3532 122.85L59.0944 122.851V124.291C58.8403 124.25 58.5941 124.203 58.3532 124.153V122.85ZM69.0761 122.087V123.601C69.3436 123.498 69.5911 123.39 69.8187 123.277V122.086L69.0761 122.087ZM61.0333 124.517C61.2781 124.536 61.5256 124.549 61.7758 124.559V123.183L61.0333 123.184V124.517ZM55.6718 123.277C55.8993 123.39 56.1468 123.498 56.4143 123.601V122.086L55.6718 122.087V123.277ZM63.7146 124.559C63.9661 124.549 64.2123 124.535 64.4559 124.517V123.184L63.7146 123.183V124.559ZM66.3961 124.291C66.6502 124.25 66.8977 124.203 67.1373 124.153V122.851L66.3961 122.85V124.291Z" fill="#C85929"/>
<path d="M50.5911 122.079V123H51.5106V123.658H50.5911V124.579H49.9337V123.658H49.0128V123H49.9337V122.079H50.5911Z" fill="#FEA832"/>
<path d="M67.4141 111.994V112.915H68.3349V113.571H67.4141V114.492H66.7567V113.571H65.8372V112.915H66.7567V111.994H67.4141Z" fill="#FEA832"/>
<path d="M51.0328 106.526V107.447H51.9524V108.103H51.0328V109.024H50.3754V108.103H49.4546V107.447H50.3754V106.526H51.0328Z" fill="#FEA832"/>
<path fill-rule="evenodd" clip-rule="evenodd" d="M48.2024 117.036C47.3481 115.556 50.0202 112.414 54.1707 110.019C58.3213 107.622 62.3773 106.88 63.2316 108.358C63.7054 109.179 64.1791 109.999 64.6528 110.819C65.5071 112.299 62.835 115.44 58.6845 117.836C54.534 120.232 50.4779 120.976 49.6236 119.497C49.1499 118.677 48.6762 117.856 48.2024 117.036Z" fill="#FE9923"/>
<path fill-rule="evenodd" clip-rule="evenodd" d="M54.1707 110.019C58.3213 107.622 62.3773 106.88 63.2316 108.358C64.0859 109.838 61.4138 112.98 57.2633 115.375C53.1141 117.772 49.0567 118.514 48.2024 117.036C47.3481 115.556 50.0202 112.414 54.1707 110.019Z" fill="#FECD3D"/>
<path fill-rule="evenodd" clip-rule="evenodd" d="M54.8933 111.27C58.1948 109.364 61.2408 108.458 61.6959 109.246C62.151 110.034 59.8422 112.217 56.5407 114.124C53.2392 116.03 50.1945 116.936 49.7394 116.148C49.2843 115.361 51.5917 113.177 54.8933 111.27Z" fill="#FEA832"/>
<path d="M57.1475 117.113L57.8355 118.304C57.6133 118.421 57.3924 118.533 57.1715 118.64L56.5048 117.484L57.1475 117.113ZM51.3136 119.216L51.9085 120.246C52.1613 120.231 52.4301 120.2 52.7122 120.155L51.9564 118.845L51.3136 119.216ZM54.0163 118.536L54.6684 119.664C54.9012 119.588 55.1381 119.505 55.379 119.414L54.659 118.166L54.0163 118.536ZM58.8269 116.143L59.5149 117.334C59.7265 117.201 59.9341 117.065 60.1363 116.928L59.4696 115.774L58.8269 116.143ZM63.5643 112.142L62.9215 112.514L63.6787 113.824C63.8584 113.603 64.0194 113.384 64.1591 113.173L63.5643 112.142ZM60.9827 114.514L61.7026 115.763C61.9022 115.6 62.0925 115.437 62.2748 115.273L61.6241 114.146L60.9827 114.514Z" fill="#C85929"/>
</g>
<defs>
<clipPath id="clip0_1_242">
<rect width="23.4247" height="23.4247" fill="white" transform="translate(48.0205 103.84)"/>
</clipPath>
</defs>
</svg>
