<svg width="358" height="327" viewBox="0 0 358 327" fill="none" xmlns="http://www.w3.org/2000/svg">
<path d="M351.552 262.87C346.248 273.827 337.271 283.623 325.563 292.002C267.634 333.625 142.877 341.73 68.0939 292.002C55.8036 283.995 44.863 274.082 35.6819 262.634C11.4416 232.165 -2.91787 185.526 0.500121 141.483C1.89482 123.406 4.01632 100.549 20.5956 80.6814C53.9897 40.6518 115.73 49.7199 118.814 50.2313C162.03 57.2537 162.737 83.0419 225.223 122.698C294.703 166.858 334.265 160.623 351.316 200.042C359.193 218.08 361.118 243.042 351.552 262.87Z" fill="#F2F0FD"/>
<path d="M128.95 276.994L143.428 211.864C145.217 203.792 148.815 196.233 153.95 189.759C159.085 183.284 165.623 178.063 173.07 174.49L215.834 153.994L259.718 172.287C268.408 175.907 276.087 181.593 282.09 188.852C288.093 196.111 292.24 204.725 294.173 213.949L307.354 276.895L128.95 276.994Z" fill="#3D71F2"/>
<path d="M188.726 256.182C188.726 256.182 200.178 241.154 205.678 242.118C211.179 243.082 221.393 261.041 221.393 261.041H266.75L268.027 249.534C268.027 249.534 297.061 254.805 307.315 277.073H193.833L188.726 256.182Z" fill="#FFB0B3"/>
<path d="M267.929 250.93C267.587 250.932 267.256 250.806 267.002 250.577C266.748 250.348 266.588 250.032 266.554 249.691L262.625 210.901C262.606 210.708 262.627 210.513 262.687 210.328C262.748 210.144 262.845 209.974 262.975 209.83C263.104 209.686 263.262 209.57 263.439 209.49C263.615 209.41 263.806 209.368 264 209.366C264.364 209.333 264.726 209.444 265.009 209.676C265.292 209.908 265.473 210.242 265.513 210.605L269.441 249.376C269.475 249.743 269.364 250.108 269.133 250.394C268.902 250.681 268.569 250.866 268.204 250.91L267.929 250.93Z" fill="#002D53"/>
<path d="M195.502 147.522V177.696C195.502 177.696 193.361 196.364 205.324 194.692C217.287 193.02 229.977 159.934 229.977 159.934L228.012 130.585L195.502 147.522Z" fill="#FFB0B3"/>
<path d="M229.526 153.305L195.523 175.12V147.502L227.974 130.566L229.526 153.305Z" fill="#FF7A72"/>
<path d="M229.791 126.332C238.708 103.263 232.88 79.5008 216.773 73.2577C200.666 67.0146 180.38 80.6547 171.463 103.724C162.546 126.793 168.374 150.555 184.481 156.798C200.588 163.041 220.874 149.401 229.791 126.332Z" fill="#FFB3AE"/>
<path d="M233.768 109.538C222.272 102.313 213.279 91.7145 208.015 79.1864C208.015 79.1864 165.448 112.626 155.41 92.1099C145.372 71.5935 170.241 55.5423 173.089 69.4494C173.089 69.4494 196.013 32.2327 233.749 56.9783C271.484 81.7239 233.768 109.538 233.768 109.538Z" fill="#002D53"/>
<path d="M239.936 119.55C237.5 126.317 232.334 130.664 228.386 129.228C224.437 127.792 223.2 121.183 225.636 114.416C228.072 107.65 233.218 103.322 237.167 104.738C241.115 106.155 242.392 112.784 239.936 119.55Z" fill="#FFB3AE"/>
<path d="M92.1968 221.759H51.5344V277.013H92.1968V221.759Z" fill="#6190E5"/>
<path d="M36.1336 249.573C36.131 251.372 36.6845 253.128 37.718 254.599C38.7516 256.07 40.2146 257.185 41.9063 257.791C43.5979 258.397 45.4353 258.463 47.1661 257.981C48.897 257.5 50.4366 256.493 51.5735 255.1V266.903C49.434 267.745 47.1542 268.172 44.8554 268.162C39.9477 268.162 35.2411 266.209 31.7709 262.734C28.3006 259.259 26.3511 254.546 26.3511 249.632C26.3511 244.718 28.3006 240.004 31.7709 236.529C35.2411 233.054 39.9477 231.102 44.8554 231.102C47.1542 231.092 49.434 231.519 51.5735 232.361V244.163C50.4378 242.789 48.909 241.796 47.1928 241.318C45.4765 240.839 43.6552 240.899 41.9736 241.488C40.2921 242.077 38.8311 243.167 37.787 244.613C36.7429 246.058 36.1659 247.789 36.1336 249.573Z" fill="#6190E5"/>
<path d="M62.9276 180.451C67.9367 172.799 75.2049 166.681 78.8782 158.242C83.9266 146.735 81.2748 133.182 85.1249 121.222C90.7037 103.873 108.363 93.6836 118.716 78.6552C124.278 70.3967 127.611 60.8364 128.389 50.9053C129.167 40.9741 127.364 31.0105 123.155 21.9843C119.226 13.821 113.058 6.42485 104.827 2.66777C99.8687 0.571058 94.4818 -0.310359 89.1144 0.0967666C83.747 0.503892 78.5542 2.18781 73.9673 5.00857C64.8241 10.8311 58.1987 19.8807 55.4041 30.364C48.2734 55.9357 62.0633 83.4745 56.5827 109.302C53.3219 124.724 43.5197 138.119 40.2195 153.521C37.4907 167.062 39.8926 181.135 46.9573 193C48.9217 196.443 54.6183 207.321 57.6238 199.846C58.7631 197.013 58.056 193.512 58.6846 190.522C59.457 186.928 60.8963 183.512 62.9276 180.451Z" fill="#F1F3F6"/>
<path d="M346.955 276.994H28.9636V292.002H346.955V276.994Z" fill="#D18C7E"/>
<path d="M325.563 291.983C267.634 333.606 142.877 341.71 68.094 291.983H325.563Z" fill="#F2F0FD"/>
<path d="M200.021 269.794C200.287 270.655 200.34 271.568 200.175 272.454C200.011 273.339 199.635 274.172 199.078 274.88C198.522 275.588 197.802 276.15 196.981 276.519C196.16 276.887 195.262 277.05 194.364 276.994H100.074C97.9837 276.911 95.9725 276.17 94.3258 274.878C92.6792 273.586 91.4808 271.807 90.9006 269.794L73.7517 199.531C73.4959 198.678 73.4485 197.775 73.6133 196.899C73.7782 196.024 74.1506 195.201 74.6991 194.499C75.2477 193.797 75.9564 193.238 76.7658 192.868C77.5751 192.497 78.4614 192.327 79.3501 192.371H173.64C175.733 192.455 177.746 193.198 179.393 194.494C181.04 195.791 182.236 197.574 182.813 199.59L200.021 269.794Z" fill="white"/>
<path d="M146.138 235.685C146.442 236.949 146.45 238.266 146.161 239.533C145.872 240.801 145.294 241.984 144.472 242.99C143.65 243.996 142.606 244.797 141.423 245.332C140.24 245.867 138.949 246.12 137.652 246.072C134.74 245.965 131.948 244.884 129.723 243.001C127.497 241.118 125.966 238.542 125.375 235.685C125.071 234.422 125.063 233.105 125.352 231.838C125.641 230.57 126.219 229.387 127.041 228.381C127.863 227.375 128.907 226.574 130.09 226.039C131.273 225.504 132.564 225.251 133.861 225.299C136.771 225.409 139.562 226.492 141.787 228.374C144.012 230.256 145.544 232.83 146.138 235.685Z" fill="#DFEAF7"/>
</svg>
