<svg width="413" height="358" viewBox="0 0 413 358" fill="none" xmlns="http://www.w3.org/2000/svg">
<path fill-rule="evenodd" clip-rule="evenodd" d="M34.6131 212.802C34.5974 177.661 75.1379 155.933 94.2477 125.319C109.726 100.521 111.251 67.9259 135.738 50.796C161.008 33.1182 194.432 30.4823 225.141 33.7505C254.82 36.9091 285.282 46.7448 303.688 68.6705C320.87 89.1368 307.914 120.246 318.213 144.617C331.749 176.651 378.97 196.837 372.402 231.278C366.099 264.33 321.254 276.029 290.029 292.403C260.532 307.87 230.514 321.805 197.188 323.155C160.862 324.627 123.476 320.116 94.3261 300.329C63.7891 279.601 34.6293 248.857 34.6131 212.802Z" fill="#F2F0FD"/>
<path d="M153.709 341.898V352.029C153.709 355.3 174.104 357.952 199.263 357.952C224.422 357.952 244.817 355.3 244.817 352.029V341.904L153.709 341.898Z" fill="url(#paint0_linear_142_461)"/>
<path d="M244.811 341.898C244.811 345.17 224.416 347.822 199.257 347.822C174.098 347.822 153.709 345.17 153.709 341.898C153.709 338.627 174.104 335.975 199.263 335.975C224.422 335.975 244.811 338.627 244.811 341.898Z" fill="url(#paint1_linear_142_461)"/>
<path d="M199.257 348.233C176.975 348.233 153.676 346.101 153.676 341.988C153.676 341.761 153.756 341.364 153.982 341.364C154.208 341.364 154.117 341.676 154.117 341.906C154.117 344.515 172.654 347.422 199.264 347.422C225.874 347.422 244.409 344.515 244.409 341.906C244.409 341.681 244.448 341.468 244.68 341.468C244.911 341.468 244.852 341.771 244.852 341.996C244.838 346.101 221.538 348.233 199.257 348.233Z" fill="url(#paint2_linear_142_461)"/>
<path d="M194.952 342.229C195.4 341.919 195.875 341.614 196.383 341.312C197.002 340.964 197.659 340.691 198.341 340.498C199.324 340.217 200.328 340.018 201.344 339.903C202.837 339.733 204.339 339.652 205.841 339.66C207.601 339.651 209.254 339.707 210.8 339.828C212.169 339.925 213.531 340.106 214.877 340.371C216.05 340.61 217.004 340.907 217.739 341.26C218.474 341.613 218.91 342.02 219.047 342.48L224.177 342.532C224.507 342.53 224.836 342.561 225.161 342.624C225.447 342.682 225.585 342.76 225.587 342.846V343.269L218.993 343.206C218.761 343.724 218.172 344.198 217.225 344.628C216.278 345.058 215.072 345.431 213.609 345.745L211.208 345.412C211.027 345.386 210.85 345.344 210.677 345.285C210.542 345.235 210.472 345.18 210.472 345.12C210.472 345.039 210.657 344.946 211.028 344.841C211.398 344.736 211.818 344.607 212.286 344.453C212.755 344.299 213.215 344.118 213.662 343.911C214.11 343.702 214.409 343.451 214.565 343.159L199.004 343.005C198.563 343.327 198.104 343.623 197.63 343.893C196.991 344.236 196.313 344.5 195.611 344.679C194.582 344.947 193.535 345.137 192.478 345.246C190.91 345.408 189.333 345.485 187.756 345.478C186.33 345.485 184.942 345.431 183.581 345.315C182.363 345.221 181.153 345.048 179.957 344.799C179.059 344.621 178.187 344.334 177.358 343.945C176.681 343.606 176.304 343.216 176.225 342.777L172.002 342.734C171.668 342.735 171.334 342.705 171.005 342.646C170.714 342.589 170.565 342.51 170.565 342.421V341.998L176.339 342.052C176.595 341.606 177.118 341.218 177.918 340.887C178.868 340.51 179.848 340.214 180.847 340.003L182.781 340.274C183.368 340.357 183.66 340.453 183.66 340.564C183.66 340.624 183.543 340.7 183.299 340.787C183.056 340.874 182.766 340.982 182.432 341.105C182.102 341.229 181.781 341.374 181.471 341.541C181.197 341.673 180.957 341.866 180.768 342.105L194.952 342.229ZM180.708 342.81C180.824 343.081 181.083 343.326 181.475 343.527C181.941 343.754 182.434 343.921 182.942 344.023C183.594 344.163 184.254 344.258 184.919 344.308C185.653 344.369 186.42 344.398 187.219 344.393C188.036 344.395 188.853 344.355 189.665 344.273C190.282 344.209 190.893 344.105 191.496 343.962C191.967 343.85 192.427 343.697 192.872 343.507C193.237 343.346 193.589 343.158 193.925 342.944L180.708 342.81ZM214.592 342.431C214.475 342.149 214.186 341.904 213.753 341.691C213.213 341.448 212.647 341.27 212.066 341.158C211.276 341 210.478 340.893 209.675 340.837C208.767 340.766 207.765 340.734 206.668 340.739C205.826 340.739 204.985 340.784 204.149 340.875C203.532 340.943 202.921 341.054 202.319 341.208C201.865 341.325 201.425 341.488 201.004 341.695C200.656 341.873 200.32 342.072 199.996 342.29L214.592 342.431Z" fill="#FCB048"/>
<path d="M199.262 336.616C178.952 336.616 157.802 338.407 154.419 341.874C154.552 341.996 154.676 342.128 154.791 342.267C157.643 339.859 175.106 337.436 199.265 337.436C224.045 337.436 241.788 339.987 243.937 342.453C244.043 342.317 244.157 342.188 244.278 342.065C241.481 338.471 219.935 336.616 199.262 336.616Z" fill="url(#paint3_linear_142_461)"/>
<path d="M141.039 331.263V341.388C141.039 344.66 161.435 347.312 186.592 347.312C211.75 347.312 232.146 344.66 232.146 341.388V331.263H141.039Z" fill="url(#paint4_linear_142_461)"/>
<path d="M232.146 331.263C232.146 334.535 211.751 337.187 186.592 337.187C161.433 337.187 141.039 334.539 141.039 331.263C141.039 327.988 161.435 325.34 186.592 325.34C211.75 325.34 232.146 327.992 232.146 331.263Z" fill="url(#paint5_linear_142_461)"/>
<path d="M186.588 337.596C164.307 337.596 141.009 335.463 141.009 331.35C141.009 331.125 141.089 330.728 141.315 330.728C141.541 330.728 141.45 331.038 141.45 331.263C141.45 333.872 159.987 336.779 186.595 336.779C213.203 336.779 231.742 333.872 231.742 331.263C231.742 331.038 231.78 330.827 232.012 330.827C232.245 330.827 232.183 331.128 232.183 331.354C232.173 335.466 208.875 337.596 186.588 337.596Z" fill="url(#paint6_linear_142_461)"/>
<path d="M182.288 331.594C182.739 331.284 183.217 330.978 183.72 330.676C184.338 330.329 184.995 330.056 185.677 329.863C186.66 329.583 187.665 329.384 188.68 329.268C190.173 329.098 191.675 329.017 193.178 329.025C194.939 329.016 196.591 329.072 198.136 329.193C199.505 329.291 200.867 329.472 202.214 329.735C203.386 329.975 204.34 330.271 205.076 330.625C205.811 330.978 206.247 331.385 206.384 331.845L211.513 331.898C211.844 331.896 212.173 331.926 212.497 331.989C212.784 332.047 212.922 332.124 212.922 332.211V332.634L206.328 332.57C206.097 333.088 205.507 333.562 204.56 333.993C203.613 334.423 202.408 334.796 200.945 335.111L198.543 334.776C198.362 334.752 198.185 334.71 198.012 334.65C197.877 334.6 197.807 334.544 197.807 334.485C197.807 334.403 197.992 334.311 198.363 334.214C198.734 334.116 199.154 333.979 199.621 333.826C200.09 333.672 200.549 333.491 200.997 333.284C201.448 333.075 201.749 332.824 201.9 332.532L186.34 332.378C185.898 332.7 185.439 332.997 184.965 333.267C184.326 333.61 183.648 333.874 182.946 334.052C181.918 334.32 180.871 334.51 179.814 334.619C178.245 334.78 176.668 334.858 175.091 334.851C173.665 334.858 172.273 334.804 170.916 334.69C169.698 334.594 168.488 334.421 167.292 334.172C166.394 333.993 165.521 333.707 164.692 333.319C164.015 332.98 163.639 332.591 163.561 332.15L159.338 332.107C159.003 332.108 158.669 332.078 158.34 332.019C158.049 331.963 157.901 331.883 157.901 331.793V331.37L163.674 331.426C163.93 330.98 164.452 330.591 165.253 330.26C166.203 329.883 167.183 329.588 168.183 329.377L170.116 329.649C170.703 329.731 170.994 329.828 170.996 329.939C170.996 329.998 170.877 330.074 170.634 330.162C170.392 330.251 170.101 330.358 169.767 330.481C169.437 330.604 169.116 330.749 168.805 330.915C168.532 331.048 168.292 331.241 168.103 331.479L182.288 331.594ZM168.051 332.17C168.166 332.442 168.426 332.687 168.819 332.888C169.284 333.115 169.777 333.282 170.285 333.384C170.937 333.523 171.598 333.619 172.262 333.67C172.997 333.73 173.765 333.759 174.562 333.755C175.38 333.756 176.197 333.715 177.01 333.633C177.626 333.57 178.238 333.467 178.841 333.323C179.312 333.211 179.772 333.059 180.217 332.867C180.582 332.708 180.933 332.52 181.268 332.305L168.051 332.17ZM201.935 331.792C201.819 331.511 201.536 331.265 201.096 331.053C200.557 330.809 199.99 330.63 199.409 330.519C198.616 330.361 197.814 330.255 197.007 330.2C196.101 330.13 195.098 330.097 194.001 330.103C193.159 330.102 192.319 330.147 191.483 330.238C190.865 330.305 190.253 330.416 189.652 330.571C189.198 330.687 188.758 330.85 188.338 331.059C187.989 331.235 187.652 331.434 187.329 331.654L201.935 331.792Z" fill="#FCB048"/>
<path d="M186.599 325.981C166.287 325.981 145.139 327.772 141.756 331.239C141.888 331.361 142.011 331.491 142.125 331.629C144.976 329.223 162.44 326.799 186.599 326.799C211.378 326.799 229.122 329.349 231.271 331.815C231.377 331.679 231.491 331.55 231.612 331.429C228.818 327.838 207.272 325.981 186.599 325.981Z" fill="url(#paint7_linear_142_461)"/>
<path d="M151.966 320.661V330.785C151.966 334.056 172.361 336.708 197.52 336.708C222.679 336.708 243.074 334.056 243.074 330.785V320.661H151.966Z" fill="url(#paint8_linear_142_461)"/>
<path d="M243.074 320.661C243.074 323.932 222.679 326.584 197.52 326.584C172.361 326.584 151.966 323.932 151.966 320.661C151.966 317.389 172.361 314.744 197.52 314.744C222.679 314.744 243.074 317.389 243.074 320.661Z" fill="url(#paint9_linear_142_461)"/>
<path d="M197.52 326.993C175.239 326.993 151.939 324.86 151.939 320.746C151.939 320.521 152.02 320.124 152.245 320.124C152.469 320.124 152.38 320.435 152.38 320.666C152.38 323.275 170.917 326.18 197.527 326.18C224.136 326.18 242.673 323.275 242.673 320.666C242.673 320.44 242.711 320.228 242.944 320.228C243.177 320.228 243.114 320.529 243.114 320.756C243.101 324.864 219.801 326.993 197.52 326.993Z" fill="url(#paint10_linear_142_461)"/>
<path d="M193.218 320.99C193.665 320.68 194.142 320.374 194.65 320.073C195.268 319.726 195.925 319.453 196.607 319.259C197.59 318.979 198.595 318.781 199.61 318.665C201.103 318.495 202.605 318.413 204.108 318.421C205.868 318.413 207.52 318.469 209.066 318.589C210.434 318.687 211.796 318.868 213.142 319.132C214.313 319.372 215.27 319.674 216.006 320.021C216.742 320.368 217.173 320.78 217.314 321.241L222.443 321.293C222.774 321.291 223.103 321.322 223.427 321.384C223.713 321.442 223.852 321.519 223.852 321.606V322.029L217.257 321.965C217.025 322.484 216.436 322.959 215.49 323.389C214.544 323.819 213.338 324.192 211.873 324.506L209.472 324.171C209.291 324.147 209.114 324.105 208.943 324.045C208.807 323.995 208.737 323.939 208.736 323.88C208.736 323.798 208.921 323.708 209.293 323.609C209.665 323.509 210.084 323.38 210.55 323.221C211.018 323.066 211.478 322.885 211.926 322.678C212.374 322.468 212.673 322.217 212.83 321.926L197.27 321.771C196.828 322.093 196.369 322.39 195.895 322.661C195.256 323.004 194.578 323.268 193.876 323.447C192.847 323.714 191.8 323.903 190.744 324.014C189.175 324.175 187.599 324.252 186.021 324.244C184.594 324.253 183.206 324.198 181.846 324.083C180.628 323.988 179.418 323.815 178.222 323.565C177.324 323.388 176.451 323.101 175.622 322.712C174.945 322.373 174.569 321.984 174.491 321.544L170.268 321.5C169.933 321.502 169.6 321.473 169.27 321.413C168.978 321.357 168.831 321.278 168.829 321.187V320.764L174.603 320.82C174.859 320.374 175.381 319.984 176.181 319.654C177.131 319.277 178.111 318.982 179.111 318.771L181.045 319.042C181.632 319.125 181.923 319.221 181.924 319.332C181.924 319.393 181.805 319.468 181.562 319.556C181.318 319.644 181.029 319.751 180.696 319.875C180.366 319.998 180.045 320.143 179.734 320.308C179.46 320.442 179.22 320.635 179.03 320.874L193.218 320.99ZM178.975 321.568C179.09 321.839 179.349 322.083 179.741 322.285C180.207 322.512 180.7 322.678 181.209 322.782C181.861 322.92 182.521 323.015 183.185 323.066C183.92 323.127 184.686 323.155 185.486 323.152C186.303 323.153 187.12 323.112 187.933 323.031C188.549 322.967 189.16 322.863 189.763 322.72C190.234 322.608 190.695 322.455 191.14 322.264C191.505 322.104 191.856 321.916 192.191 321.701L178.975 321.568ZM212.857 321.188C212.742 320.908 212.459 320.661 212.019 320.449C211.48 320.206 210.913 320.028 210.332 319.917C209.543 319.757 208.743 319.649 207.94 319.594C207.038 319.523 206.036 319.491 204.933 319.496C204.092 319.496 203.252 319.541 202.415 319.632C201.798 319.699 201.186 319.81 200.585 319.965C200.131 320.08 199.69 320.244 199.271 320.452C198.922 320.629 198.585 320.828 198.261 321.047L212.857 321.188Z" fill="#FCB048"/>
<path d="M197.527 315.377C177.214 315.377 156.066 317.168 152.683 320.636C152.814 320.758 152.937 320.888 153.052 321.026C155.903 318.619 173.368 316.195 197.527 316.195C222.305 316.195 240.05 318.745 242.198 321.211C242.304 321.075 242.417 320.946 242.539 320.825C239.745 317.235 218.199 315.377 197.527 315.377Z" fill="url(#paint11_linear_142_461)"/>
<path d="M158.597 310.026V320.15C158.597 323.423 178.992 326.075 204.151 326.075C229.31 326.075 249.705 323.423 249.705 320.15V310.026H158.597Z" fill="url(#paint12_linear_142_461)"/>
<path d="M204.151 315.949C229.31 315.949 249.705 313.297 249.705 310.026C249.705 306.754 229.31 304.102 204.151 304.102C178.993 304.102 158.597 306.754 158.597 310.026C158.597 313.297 178.993 315.949 204.151 315.949Z" fill="url(#paint13_linear_142_461)"/>
<path d="M204.151 316.358C181.869 316.358 158.57 314.225 158.57 310.113C158.57 309.887 158.65 309.489 158.876 309.489C159.102 309.489 159.005 309.8 159.005 310.032C159.005 312.64 177.542 315.546 204.151 315.546C230.761 315.546 249.297 312.64 249.297 310.032C249.297 309.805 249.336 309.594 249.567 309.594C249.799 309.594 249.739 309.895 249.739 310.121C249.732 314.229 226.432 316.358 204.151 316.358Z" fill="url(#paint14_linear_142_461)"/>
<path d="M199.849 310.355C200.296 310.046 200.771 309.74 201.28 309.439C201.898 309.091 202.556 308.818 203.238 308.625C204.221 308.345 205.225 308.146 206.24 308.03C207.734 307.86 209.235 307.779 210.738 307.786C212.5 307.778 214.153 307.834 215.697 307.954C217.066 308.052 218.427 308.233 219.774 308.497C220.947 308.736 221.901 309.033 222.637 309.387C223.373 309.742 223.809 310.148 223.945 310.608L229.074 310.659C229.404 310.657 229.733 310.688 230.057 310.751C230.344 310.81 230.483 310.887 230.483 310.972V311.397L223.89 311.333C223.658 311.851 223.069 312.325 222.122 312.755C221.174 313.186 219.969 313.558 218.506 313.872L216.104 313.538C215.924 313.513 215.746 313.471 215.574 313.413C215.439 313.361 215.368 313.307 215.368 313.247C215.368 313.166 215.554 313.073 215.926 312.968C216.297 312.863 216.716 312.734 217.183 312.58C217.652 312.427 218.111 312.246 218.559 312.038C219.007 311.828 219.306 311.578 219.461 311.287L203.901 311.132C203.459 311.453 203 311.75 202.526 312.02C201.888 312.364 201.21 312.628 200.508 312.807C199.479 313.074 198.433 313.263 197.377 313.374C195.807 313.535 194.23 313.612 192.653 313.605C191.227 313.605 189.839 313.558 188.477 313.443C187.26 313.348 186.049 313.175 184.854 312.925C183.956 312.748 183.083 312.461 182.255 312.072C181.578 311.733 181.201 311.344 181.122 310.905L176.899 310.861C176.565 310.861 176.231 310.832 175.902 310.773C175.611 310.716 175.462 310.637 175.462 310.548V310.124L181.234 310.179C181.49 309.733 182.014 309.344 182.813 309.015C183.763 308.637 184.743 308.341 185.743 308.131L187.676 308.402C188.264 308.484 188.556 308.582 188.556 308.693C188.556 308.753 188.438 308.829 188.195 308.916C187.951 309.002 187.661 309.111 187.327 309.234C186.998 309.358 186.677 309.503 186.367 309.669C186.093 309.802 185.852 309.995 185.663 310.233L199.849 310.355ZM185.605 310.933C185.721 311.204 185.98 311.45 186.372 311.65C186.838 311.877 187.331 312.044 187.839 312.146C188.49 312.286 189.151 312.381 189.816 312.431C190.55 312.493 191.317 312.521 192.116 312.517C192.933 312.518 193.749 312.478 194.562 312.396C195.178 312.332 195.79 312.228 196.393 312.085C196.864 311.972 197.325 311.82 197.77 311.63C198.135 311.47 198.486 311.281 198.822 311.067L185.605 310.933ZM219.488 310.555C219.372 310.273 219.082 310.026 218.65 309.814C218.11 309.571 217.544 309.392 216.964 309.282C216.174 309.122 215.375 309.015 214.571 308.96C213.665 308.89 212.663 308.857 211.565 308.863C210.723 308.862 209.882 308.907 209.045 308.998C208.428 309.065 207.817 309.177 207.216 309.332C206.762 309.447 206.321 309.61 205.901 309.819C205.553 309.996 205.216 310.194 204.893 310.414L219.488 310.555Z" fill="#FCB048"/>
<path d="M204.157 304.744C183.846 304.744 162.696 306.535 159.313 310.002C159.445 310.123 159.568 310.253 159.682 310.392C162.535 307.984 179.997 305.561 204.157 305.561C228.937 305.561 246.68 308.11 248.83 310.578C248.935 310.442 249.048 310.313 249.169 310.191C246.375 306.601 224.83 304.744 204.157 304.744Z" fill="url(#paint15_linear_142_461)"/>
<path d="M153.709 298.552V308.677C153.709 311.949 174.104 314.601 199.263 314.601C224.422 314.601 244.817 311.949 244.817 308.677V298.552H153.709Z" fill="url(#paint16_linear_142_461)"/>
<path d="M244.811 298.552C244.811 301.823 224.416 304.475 199.257 304.475C174.098 304.475 153.709 301.823 153.709 298.552C153.709 295.28 174.104 292.628 199.263 292.628C224.422 292.628 244.811 295.28 244.811 298.552Z" fill="url(#paint17_linear_142_461)"/>
<path d="M199.257 304.885C176.975 304.885 153.676 302.752 153.676 298.638C153.676 298.413 153.756 298.016 153.982 298.016C154.208 298.016 154.117 298.327 154.117 298.558C154.117 301.167 172.654 304.074 199.264 304.074C225.874 304.074 244.409 301.167 244.409 298.558C244.409 298.333 244.448 298.122 244.68 298.122C244.911 298.122 244.852 298.423 244.852 298.649C244.838 302.755 221.538 304.885 199.257 304.885Z" fill="url(#paint18_linear_142_461)"/>
<path d="M194.952 298.881C195.4 298.571 195.874 298.266 196.383 297.963C197.002 297.617 197.659 297.344 198.341 297.15C199.324 296.87 200.328 296.671 201.344 296.555C202.837 296.385 204.339 296.304 205.841 296.312C207.601 296.303 209.254 296.359 210.8 296.48C212.169 296.578 213.53 296.759 214.877 297.022C216.05 297.262 217.004 297.558 217.739 297.912C218.474 298.265 218.91 298.672 219.047 299.132L224.177 299.185C224.507 299.183 224.836 299.214 225.16 299.276C225.447 299.334 225.585 299.411 225.587 299.498V299.921L218.993 299.857C218.761 300.375 218.172 300.849 217.225 301.28C216.277 301.71 215.072 302.083 213.609 302.398L211.214 302.054C211.034 302.03 210.856 301.987 210.684 301.928C210.549 301.878 210.478 301.822 210.478 301.762C210.478 301.681 210.664 301.591 211.034 301.491C211.405 301.392 211.824 301.262 212.293 301.102C212.762 300.949 213.221 300.768 213.669 300.56C214.117 300.351 214.416 300.1 214.571 299.809L199.011 299.654C198.57 299.976 198.111 300.273 197.636 300.544C196.997 300.886 196.32 301.15 195.617 301.329C194.589 301.597 193.542 301.786 192.485 301.895C190.916 302.057 189.34 302.134 187.763 302.127C186.337 302.134 184.948 302.08 183.587 301.966C182.37 301.87 181.159 301.697 179.964 301.448C179.066 301.27 178.193 300.983 177.364 300.595C176.688 300.256 176.31 299.867 176.232 299.426L172.009 299.383C171.675 299.384 171.341 299.354 171.012 299.295C170.721 299.239 170.572 299.159 170.572 299.07V298.647L176.346 298.702C176.601 298.256 177.125 297.867 177.925 297.536C178.874 297.16 179.854 296.864 180.854 296.654L182.788 296.925C183.375 297.008 183.667 297.104 183.667 297.215C183.667 297.275 183.549 297.351 183.306 297.439C183.062 297.527 182.773 297.634 182.438 297.757C182.109 297.88 181.788 298.025 181.478 298.191C181.204 298.324 180.963 298.518 180.774 298.757L194.952 298.881ZM180.708 299.457C180.824 299.729 181.083 299.974 181.475 300.175C181.941 300.402 182.434 300.569 182.942 300.672C183.594 300.811 184.254 300.906 184.919 300.957C185.653 301.017 186.422 301.047 187.219 301.042C188.036 301.043 188.852 301.002 189.665 300.92C190.282 300.858 190.893 300.754 191.496 300.61C191.967 300.498 192.427 300.346 192.872 300.154C193.237 299.995 193.589 299.807 193.925 299.592L180.708 299.457ZM214.592 299.079C214.475 298.799 214.186 298.552 213.753 298.34C213.213 298.096 212.647 297.917 212.065 297.806C211.276 297.648 210.477 297.54 209.674 297.485C208.767 297.414 207.765 297.382 206.668 297.387C205.826 297.386 204.985 297.432 204.149 297.523C203.532 297.589 202.92 297.7 202.319 297.855C201.865 297.971 201.424 298.134 201.004 298.343C200.656 298.52 200.319 298.718 199.996 298.938L214.592 299.079Z" fill="#FCB048"/>
<path d="M199.262 293.27C178.952 293.27 157.802 295.061 154.419 298.527C154.55 298.65 154.674 298.78 154.788 298.918C157.641 296.511 175.103 294.087 199.262 294.087C224.043 294.087 241.785 296.637 243.934 299.104C244.04 298.968 244.154 298.839 244.275 298.717C241.481 295.127 219.935 293.27 199.262 293.27Z" fill="url(#paint19_linear_142_461)"/>
<path d="M141.039 287.918V298.042C141.039 301.313 161.435 303.965 186.592 303.965C211.75 303.965 232.146 301.313 232.146 298.042V287.918H141.039Z" fill="url(#paint20_linear_142_461)"/>
<path d="M186.592 293.841C211.751 293.841 232.146 291.189 232.146 287.918C232.146 284.646 211.751 281.994 186.592 281.994C161.434 281.994 141.039 284.646 141.039 287.918C141.039 291.189 161.434 293.841 186.592 293.841Z" fill="url(#paint21_linear_142_461)"/>
<path d="M186.588 294.25C164.307 294.25 141.009 292.117 141.009 288.003C141.009 287.778 141.089 287.381 141.315 287.381C141.541 287.381 141.45 287.692 141.45 287.923C141.45 290.532 159.987 293.438 186.595 293.438C213.203 293.438 231.742 290.532 231.742 287.923C231.742 287.697 231.78 287.485 232.012 287.485C232.245 287.485 232.183 287.786 232.183 288.013C232.173 292.121 208.875 294.25 186.588 294.25Z" fill="url(#paint22_linear_142_461)"/>
<path d="M182.288 288.248C182.739 287.938 183.217 287.632 183.72 287.33C184.338 286.983 184.995 286.71 185.677 286.516C186.66 286.237 187.665 286.038 188.68 285.922C190.173 285.752 191.675 285.67 193.178 285.678C194.939 285.67 196.591 285.726 198.136 285.846C199.505 285.944 200.867 286.125 202.214 286.389C203.386 286.628 204.34 286.925 205.076 287.278C205.811 287.632 206.247 288.038 206.384 288.498L211.513 288.55C211.843 288.548 212.173 288.579 212.497 288.641C212.784 288.7 212.922 288.776 212.922 288.863V289.286L206.328 289.222C206.097 289.741 205.507 290.216 204.56 290.646C203.613 291.076 202.408 291.449 200.945 291.763L198.543 291.428C198.362 291.404 198.185 291.362 198.012 291.302C197.877 291.252 197.807 291.198 197.807 291.137C197.807 291.076 197.992 290.963 198.363 290.866C198.734 290.768 199.154 290.631 199.621 290.478C200.09 290.323 200.549 290.142 200.997 289.936C201.448 289.725 201.749 289.475 201.9 289.184L186.34 289.029C185.898 289.351 185.439 289.647 184.965 289.918C184.326 290.261 183.648 290.525 182.946 290.704C181.917 290.971 180.87 291.16 179.814 291.271C178.245 291.433 176.668 291.51 175.091 291.502C173.665 291.51 172.273 291.456 170.916 291.34C169.698 291.245 168.488 291.072 167.292 290.822C166.394 290.645 165.521 290.358 164.692 289.969C164.015 289.63 163.639 289.241 163.561 288.801L159.338 288.757C159.003 288.759 158.669 288.73 158.34 288.671C158.049 288.614 157.901 288.535 157.901 288.444V288.021L163.674 288.077C163.93 287.631 164.452 287.242 165.253 286.911C166.203 286.534 167.183 286.239 168.183 286.028L170.116 286.299C170.703 286.382 170.994 286.478 170.996 286.589C170.996 286.65 170.877 286.725 170.634 286.813C170.392 286.901 170.101 287.008 169.767 287.132C169.437 287.255 169.116 287.4 168.805 287.566C168.532 287.699 168.292 287.892 168.103 288.131L182.288 288.248ZM168.051 288.825C168.166 289.096 168.426 289.34 168.819 289.542C169.285 289.769 169.778 289.936 170.285 290.039C170.937 290.177 171.598 290.272 172.262 290.323C172.997 290.384 173.764 290.412 174.562 290.409C175.38 290.41 176.197 290.37 177.01 290.288C177.626 290.224 178.238 290.12 178.841 289.978C179.311 289.864 179.772 289.712 180.217 289.522C180.582 289.362 180.933 289.173 181.268 288.958L168.051 288.825ZM201.935 288.446C201.819 288.165 201.536 287.918 201.096 287.707C200.557 287.463 199.99 287.284 199.409 287.174C198.619 287.014 197.82 286.906 197.017 286.851C196.11 286.782 195.108 286.75 194.01 286.755C193.169 286.753 192.328 286.799 191.492 286.89C190.875 286.958 190.263 287.069 189.661 287.224C189.207 287.339 188.767 287.502 188.347 287.711C187.999 287.888 187.662 288.087 187.338 288.306L201.935 288.446Z" fill="#FCB048"/>
<path d="M186.599 282.636C166.287 282.636 145.139 284.425 141.756 287.894C141.888 288.015 142.011 288.145 142.125 288.283C144.976 285.876 162.44 283.452 186.599 283.452C211.378 283.452 229.122 286.002 231.271 288.468C231.377 288.333 231.491 288.204 231.612 288.082C228.818 284.492 207.272 282.636 186.599 282.636Z" fill="url(#paint23_linear_142_461)"/>
<path d="M151.966 277.314V287.439C151.966 290.71 172.361 293.363 197.52 293.363C222.679 293.363 243.074 290.71 243.074 287.439V277.314H151.966Z" fill="url(#paint24_linear_142_461)"/>
<path d="M197.52 283.238C222.678 283.238 243.074 280.586 243.074 277.314C243.074 274.043 222.678 271.391 197.52 271.391C172.361 271.391 151.966 274.043 151.966 277.314C151.966 280.586 172.361 283.238 197.52 283.238Z" fill="url(#paint25_linear_142_461)"/>
<path d="M197.52 283.646C175.239 283.646 151.939 281.513 151.939 277.401C151.939 277.175 152.02 276.777 152.245 276.777C152.469 276.777 152.38 277.088 152.38 277.32C152.38 279.928 170.917 282.834 197.527 282.834C224.136 282.834 242.673 279.928 242.673 277.32C242.673 277.093 242.711 276.882 242.944 276.882C243.177 276.882 243.114 277.184 243.114 277.409C243.101 281.517 219.801 283.646 197.52 283.646Z" fill="url(#paint26_linear_142_461)"/>
<path d="M193.218 277.644C193.665 277.335 194.142 277.029 194.65 276.727C195.268 276.379 195.925 276.106 196.607 275.914C197.59 275.633 198.594 275.434 199.61 275.319C201.104 275.149 202.605 275.067 204.108 275.075C205.868 275.066 207.52 275.122 209.066 275.243C210.434 275.34 211.796 275.521 213.142 275.785C214.313 276.025 215.27 276.327 216.006 276.676C216.742 277.024 217.173 277.434 217.314 277.896L222.443 277.947C222.774 277.946 223.103 277.977 223.427 278.04C223.713 278.098 223.852 278.175 223.852 278.262V278.685L217.257 278.621C217.025 279.139 216.436 279.613 215.49 280.044C214.544 280.474 213.338 280.846 211.873 281.161L209.472 280.826C209.292 280.801 209.114 280.76 208.943 280.701C208.807 280.65 208.737 280.595 208.736 280.536C208.736 280.454 208.921 280.361 209.293 280.256C209.665 280.152 210.084 280.022 210.55 279.869C211.019 279.715 211.478 279.534 211.926 279.326C212.374 279.116 212.673 278.867 212.83 278.575L197.27 278.421C196.828 278.742 196.369 279.038 195.895 279.309C195.256 279.652 194.578 279.916 193.876 280.095C192.848 280.362 191.801 280.552 190.744 280.662C189.175 280.823 187.599 280.901 186.021 280.894C184.594 280.894 183.206 280.846 181.846 280.731C180.628 280.637 179.418 280.464 178.222 280.213C177.324 280.036 176.451 279.75 175.622 279.36C174.945 279.021 174.569 278.632 174.491 278.193L170.268 278.15C169.933 278.15 169.6 278.12 169.27 278.061C168.978 278.004 168.831 277.926 168.829 277.836V277.412L174.603 277.468C174.859 277.021 175.381 276.634 176.181 276.303C177.131 275.925 178.111 275.629 179.111 275.419L181.045 275.69C181.632 275.773 181.923 275.87 181.924 275.982C181.924 276.041 181.805 276.117 181.562 276.204C181.318 276.291 181.029 276.399 180.696 276.523C180.366 276.646 180.044 276.791 179.734 276.958C179.46 277.091 179.22 277.284 179.03 277.522L193.218 277.644ZM178.975 278.221C179.09 278.499 179.349 278.738 179.741 278.939C180.207 279.166 180.7 279.332 181.209 279.435C181.86 279.574 182.521 279.67 183.185 279.72C183.92 279.78 184.686 279.809 185.486 279.805C186.303 279.807 187.12 279.766 187.933 279.684C188.549 279.62 189.16 279.516 189.763 279.374C190.234 279.261 190.695 279.109 191.14 278.918C191.504 278.758 191.856 278.57 192.191 278.356L178.975 278.221ZM212.857 277.843C212.742 277.561 212.459 277.316 212.019 277.103C211.48 276.86 210.913 276.681 210.332 276.57C209.543 276.41 208.743 276.303 207.94 276.249C207.038 276.178 206.036 276.146 204.933 276.151C204.092 276.15 203.252 276.196 202.415 276.287C201.798 276.354 201.186 276.465 200.585 276.62C200.131 276.736 199.69 276.899 199.271 277.107C198.922 277.284 198.585 277.483 198.261 277.702L212.857 277.843Z" fill="#FCB048"/>
<path d="M197.527 272.036C177.214 272.036 156.066 273.827 152.683 277.294C152.814 277.416 152.938 277.546 153.052 277.684C155.903 275.276 173.368 272.853 197.527 272.853C222.305 272.853 240.05 275.402 242.198 277.87C242.304 277.734 242.418 277.605 242.539 277.484C239.745 273.889 218.199 272.036 197.527 272.036Z" fill="url(#paint27_linear_142_461)"/>
<path d="M146.283 266.679V276.804C146.283 280.076 166.678 282.728 191.837 282.728C216.996 282.728 237.391 280.076 237.391 276.804V266.679H146.283Z" fill="url(#paint28_linear_142_461)"/>
<path d="M191.837 272.603C216.996 272.603 237.391 269.951 237.391 266.679C237.391 263.408 216.996 260.756 191.837 260.756C166.678 260.756 146.283 263.408 146.283 266.679C146.283 269.951 166.678 272.603 191.837 272.603Z" fill="url(#paint29_linear_142_461)"/>
<path d="M191.837 273.012C169.554 273.012 146.256 270.879 146.256 266.766C146.256 266.539 146.336 266.144 146.562 266.144C146.788 266.144 146.697 266.454 146.697 266.686C146.697 269.294 165.234 272.201 191.844 272.201C218.453 272.201 236.989 269.294 236.989 266.686C236.989 266.461 237.028 266.249 237.259 266.249C237.491 266.249 237.431 266.55 237.431 266.775C237.418 270.882 214.118 273.012 191.837 273.012Z" fill="url(#paint30_linear_142_461)"/>
<path d="M187.535 267.01C187.983 266.7 188.458 266.395 188.967 266.092C189.586 265.746 190.243 265.472 190.925 265.279C191.908 264.999 192.912 264.8 193.927 264.684C195.42 264.514 196.922 264.433 198.425 264.441C200.186 264.432 201.839 264.488 203.384 264.609C204.753 264.706 206.114 264.887 207.461 265.151C208.633 265.391 209.587 265.687 210.322 266.041C211.058 266.394 211.494 266.801 211.631 267.261L216.76 267.314C217.09 267.312 217.42 267.342 217.744 267.405C218.031 267.463 218.169 267.54 218.17 267.627V268.05L211.577 267.986C211.345 268.504 210.755 268.978 209.808 269.409C208.861 269.839 207.656 270.212 206.193 270.527L203.791 270.192C203.611 270.168 203.433 270.125 203.261 270.066C203.125 270.016 203.055 269.96 203.055 269.901C203.055 269.819 203.24 269.726 203.611 269.623C203.982 269.52 204.403 269.388 204.87 269.234C205.339 269.08 205.798 268.899 206.246 268.691C206.694 268.483 206.993 268.232 207.148 267.94L191.588 267.786C191.146 268.107 190.688 268.404 190.213 268.674C189.574 269.017 188.897 269.281 188.194 269.46C187.166 269.728 186.119 269.918 185.062 270.027C183.493 270.188 181.917 270.266 180.34 270.259C178.914 270.259 177.525 270.211 176.164 270.096C174.947 270.001 173.736 269.829 172.541 269.579C171.643 269.401 170.77 269.115 169.941 268.727C169.265 268.388 168.887 267.999 168.809 267.558L164.586 267.515C164.252 267.516 163.918 267.486 163.589 267.426C163.298 267.369 163.149 267.291 163.149 267.201V266.778L168.922 266.833C169.178 266.388 169.702 265.999 170.502 265.668C171.451 265.291 172.431 264.996 173.431 264.785L175.364 265.056C175.952 265.139 176.244 265.235 176.244 265.347C176.244 265.406 176.125 265.482 175.883 265.57C175.64 265.658 175.35 265.764 175.015 265.888C174.686 266.011 174.365 266.157 174.055 266.323C173.781 266.456 173.54 266.648 173.351 266.887L187.535 267.01ZM173.292 267.586C173.408 267.858 173.666 268.103 174.059 268.304C174.524 268.531 175.017 268.698 175.525 268.8C176.177 268.939 176.838 269.035 177.502 269.086C178.237 269.146 179.004 269.174 179.803 269.17C180.62 269.172 181.437 269.131 182.25 269.049C182.867 268.987 183.478 268.883 184.081 268.739C184.552 268.627 185.012 268.475 185.457 268.283C185.822 268.123 186.174 267.935 186.51 267.721L173.292 267.586ZM207.175 267.208C207.059 266.927 206.776 266.681 206.336 266.469C205.797 266.225 205.23 266.046 204.649 265.935C203.86 265.777 203.061 265.669 202.258 265.614C201.35 265.543 200.348 265.511 199.252 265.516C198.41 265.515 197.569 265.561 196.732 265.652C196.115 265.719 195.503 265.83 194.901 265.984C194.448 266.1 194.008 266.263 193.588 266.471C193.24 266.648 192.903 266.847 192.58 267.066L207.175 267.208Z" fill="#FCB048"/>
<path d="M191.843 261.397C171.532 261.397 150.382 263.188 146.999 266.655C147.131 266.777 147.254 266.907 147.368 267.045C150.221 264.637 167.683 262.215 191.843 262.215C216.623 262.215 234.366 264.765 236.514 267.231C236.62 267.095 236.733 266.966 236.855 266.845C234.061 263.254 212.515 261.397 191.843 261.397Z" fill="url(#paint31_linear_142_461)"/>
<path d="M145.056 273.817L153.289 279.685C155.951 281.583 146.286 299.772 131.702 320.315C117.119 340.858 103.142 355.973 100.482 354.075L92.2468 348.207L145.056 273.817Z" fill="url(#paint32_linear_142_461)"/>
<path d="M92.2469 348.209C94.9084 350.108 108.89 334.99 123.469 314.45C138.048 293.909 147.717 275.716 145.056 273.82C142.394 271.925 128.413 287.039 113.835 307.58C99.2571 328.12 89.5867 346.313 92.2469 348.209Z" fill="url(#paint33_linear_142_461)"/>
<path d="M123.806 314.683C136.721 296.489 148.491 276.23 145.146 273.846C144.962 273.71 144.593 273.55 144.462 273.734C144.331 273.917 144.64 274.02 144.824 274.15C146.943 275.661 138.554 292.486 123.136 314.21C107.718 335.934 94.6051 349.388 92.4835 347.876C92.3008 347.74 92.106 347.654 91.9748 347.838C91.8435 348.022 92.1209 348.153 92.3049 348.284C95.6497 350.673 110.887 332.877 123.806 314.683Z" fill="url(#paint34_linear_142_461)"/>
<path d="M129.525 296.02C129.222 296.038 128.926 296.122 128.659 296.269C128.344 296.426 128.039 296.604 127.747 296.801C127.454 297.002 127.206 297.174 126.987 297.325C126.768 297.475 126.645 297.525 126.596 297.49C126.505 297.425 126.596 297.132 126.867 296.605L127.77 294.871C128.522 294.177 129.33 293.548 130.187 292.99C130.92 292.529 131.54 292.327 132.05 292.377L135.352 287.632L135.694 287.879C135.77 287.934 135.745 288.098 135.622 288.37C135.48 288.673 135.311 288.962 135.116 289.235L132.704 292.708C133.016 293.027 133.11 293.562 132.997 294.309C132.834 295.212 132.561 296.09 132.185 296.926C131.695 298.046 131.135 299.132 130.506 300.18C129.811 301.355 129.048 302.523 128.218 303.684C127.311 304.977 126.335 306.221 125.294 307.409C124.593 308.208 123.832 308.954 123.018 309.638C122.466 310.108 121.858 310.508 121.209 310.831C120.714 311.062 120.207 311.265 119.69 311.439L110.792 324.235C111.119 324.276 111.497 324.177 111.926 323.933C112.355 323.686 112.77 323.414 113.168 323.119C113.563 322.828 113.911 322.561 114.213 322.318C114.514 322.075 114.697 321.977 114.762 322.024C114.811 322.059 114.816 322.146 114.777 322.295C114.725 322.47 114.656 322.639 114.571 322.8L113.452 324.956C112.344 325.972 111.342 326.74 110.447 327.261C109.552 327.782 108.825 327.988 108.266 327.881L104.495 333.304L104.153 333.056C104.079 333.004 104.1 332.848 104.217 332.58C104.355 332.279 104.521 331.993 104.714 331.724L107.645 327.505C107.355 327.127 107.279 326.537 107.415 325.733C107.551 324.93 107.863 323.98 108.35 322.886C108.917 321.631 109.56 320.412 110.275 319.236C111.073 317.903 111.986 316.521 113.012 315.09C113.877 313.861 114.814 312.683 115.817 311.565C116.5 310.802 117.243 310.097 118.04 309.457C118.594 309.012 119.198 308.635 119.84 308.333C120.381 308.091 120.905 307.881 121.415 307.695L129.525 296.02ZM122.588 307.267C122.957 307.118 123.314 306.94 123.656 306.734C124.069 306.482 124.46 306.194 124.825 305.875C125.291 305.466 125.73 305.026 126.139 304.559C126.677 303.943 127.183 303.3 127.655 302.631C128.124 301.979 128.546 301.335 128.922 300.701C129.265 300.129 129.571 299.535 129.835 298.922C130.047 298.446 130.197 297.945 130.283 297.431C130.347 296.994 130.302 296.644 130.148 296.388L122.588 307.267ZM118.529 311.839C118.163 311.976 117.807 312.135 117.461 312.317C117.048 312.539 116.66 312.804 116.303 313.108C115.828 313.509 115.383 313.944 114.97 314.409C114.413 315.041 113.891 315.702 113.405 316.39C112.765 317.283 112.211 318.12 111.742 318.901C111.321 319.589 110.945 320.304 110.616 321.041C110.371 321.58 110.189 322.146 110.075 322.727C109.992 323.21 110.029 323.583 110.191 323.84L118.529 311.839Z" fill="#FCB048"/>
<path d="M114.352 307.957C126.124 291.372 139.841 275.147 144.621 274.389C144.643 274.567 144.678 274.743 144.724 274.916C141.113 275.849 129.021 288.703 115.018 308.43C100.655 328.665 92.443 344.631 93.2034 347.814C93.032 347.822 92.8612 347.84 92.6919 347.868C91.3916 343.507 102.37 324.837 114.352 307.957Z" fill="url(#paint35_linear_142_461)"/>
<path d="M59.1736 329.57C52.6018 329.796 45.9758 327.966 40.5824 323.943C28.6388 315.034 27.3534 298.843 37.7301 287.892L189.38 126.722C194.342 121.488 201.513 118.607 209.022 118.812C216.498 119.016 223.576 122.26 228.436 127.692L279.212 184.426L336.907 120.863C345.537 111.355 360.485 110.776 370.28 119.475C380.022 128.121 381.056 142.743 372.617 152.23L297.818 236.31C293.158 241.548 286.375 244.607 279.212 244.683C272.015 244.759 265.14 241.82 260.39 236.616L209.022 180.363L80.3803 320.119C74.8557 326.071 67.0539 329.299 59.1736 329.57Z" fill="#97A6B7"/>
<path d="M388.758 164.439L325.213 108.573L406.758 81.1377H412.451L393.894 163.936L388.758 164.439Z" fill="#97A6B7"/>
<path d="M64.8673 329.57C58.2954 329.796 51.6694 327.966 46.2774 323.943C34.3325 315.034 33.0484 298.843 43.4238 287.892L195.073 126.722C200.035 121.488 207.208 118.607 214.716 118.812C222.192 119.016 229.27 122.26 234.13 127.692L284.905 184.426L342.598 120.863C351.228 111.355 366.176 110.776 375.972 119.475C385.715 128.121 386.748 142.743 378.309 152.23L303.509 236.31C298.85 241.548 292.067 244.607 284.903 244.683C277.707 244.759 270.831 241.82 266.081 236.616L214.716 180.363L86.074 320.119C80.5508 326.071 72.7476 329.299 64.8673 329.57Z" fill="#D8DEE8"/>
<path d="M393.894 163.936L330.908 108.573L412.451 81.1377L393.894 163.936Z" fill="#D8DEE8"/>
<path d="M273.967 313.5L281.803 348.795C281.803 351.074 288.774 352.921 297.374 352.921C305.974 352.921 312.944 351.074 312.944 348.795L320.781 313.5H273.967Z" fill="url(#paint36_linear_142_461)"/>
<path style="mix-blend-mode:multiply" opacity="0.3" d="M304.882 345.871C301.609 341.437 303.394 338.358 299.704 333.381C294.14 325.889 286.308 327.79 282.445 322.429C281.092 320.562 280.224 317.788 280.768 313.5H273.967L281.803 348.795C281.803 351.074 288.774 352.921 297.374 352.921C303.3 352.921 308.453 352.043 311.083 350.752C308.024 349.331 306.124 347.555 304.882 345.871Z" fill="url(#paint37_linear_142_461)"/>
<path d="M320.781 313.5C320.781 315.777 310.301 317.624 297.373 317.624C284.444 317.624 273.964 315.777 273.964 313.5C273.964 311.222 284.444 309.374 297.373 309.374C310.301 309.374 320.781 311.219 320.781 313.5Z" fill="url(#paint38_linear_142_461)"/>
<path style="mix-blend-mode:multiply" opacity="0.69" d="M297.374 316.6C309.418 316.6 319.181 315.138 319.181 313.334C319.181 311.53 309.418 310.068 297.374 310.068C285.33 310.068 275.566 311.53 275.566 313.334C275.566 315.138 285.33 316.6 297.374 316.6Z" fill="url(#paint39_linear_142_461)"/>
<path d="M276.723 314.383C279.643 315.673 287.782 316.6 297.374 316.6C306.966 316.6 315.099 315.673 318.025 314.383C314.084 313.083 306.319 312.199 297.374 312.199C288.429 312.199 280.664 313.083 276.723 314.383Z" fill="url(#paint40_linear_142_461)"/>
<path d="M297.374 314.507C297.223 314.507 297.073 314.477 296.933 314.419C296.794 314.361 296.667 314.276 296.56 314.169C296.453 314.062 296.369 313.934 296.311 313.794C296.253 313.654 296.223 313.504 296.224 313.353V233.984C296.224 233.678 296.345 233.385 296.56 233.169C296.776 232.953 297.069 232.831 297.374 232.831C297.679 232.831 297.971 232.953 298.187 233.169C298.403 233.385 298.524 233.678 298.524 233.984V313.353C298.524 313.504 298.494 313.654 298.437 313.794C298.379 313.934 298.294 314.062 298.187 314.169C298.081 314.276 297.954 314.361 297.814 314.419C297.675 314.477 297.525 314.507 297.374 314.507Z" fill="url(#paint41_linear_142_461)"/>
<path d="M338.961 197.233C338.961 222.534 319.217 242.437 293.98 241.661C267.719 240.847 245.631 218.126 245.631 190.929C245.631 163.731 267.719 143.988 293.98 146.729C319.217 149.361 338.961 171.931 338.961 197.233Z" fill="url(#paint42_linear_142_461)"/>
<path d="M345.78 195.052C345.78 220.353 326.036 240.256 300.8 239.479C274.537 238.666 252.449 215.944 252.449 188.747C252.449 161.551 274.537 141.806 300.8 144.548C326.036 147.18 345.78 169.75 345.78 195.052Z" fill="url(#paint43_linear_142_461)"/>
<path d="M343.799 194.918C343.799 219.105 324.908 238.099 300.8 237.318C275.757 236.504 254.73 214.811 254.73 188.901C254.73 162.99 275.757 144.137 300.8 146.708C324.908 149.183 343.799 170.73 343.799 194.918Z" fill="url(#paint44_linear_142_461)"/>
<path d="M342.38 194.821C342.38 218.21 324.1 236.557 300.8 235.767C276.627 234.953 256.355 214.005 256.355 189.005C256.355 164.005 276.627 145.801 300.8 148.25C324.1 150.616 342.38 171.435 342.38 194.821Z" fill="url(#paint45_linear_142_461)"/>
<path d="M300.562 156.209C301.175 156.282 301.74 156.575 302.153 157.035C302.566 157.495 302.798 158.089 302.805 158.708V163.014C305.309 163.297 307.794 163.729 310.247 164.309C312.079 164.741 313.9 165.255 315.709 165.85C316.243 166.026 316.703 166.376 317.015 166.845C317.327 167.313 317.473 167.873 317.431 168.434L316.903 173.835C316.879 174.163 316.775 174.481 316.601 174.76C316.426 175.039 316.187 175.271 315.903 175.437C315.618 175.602 315.298 175.696 314.97 175.709C314.642 175.723 314.315 175.656 314.018 175.514C312.826 174.982 311.601 174.525 310.351 174.146C308.099 173.472 305.782 173.038 303.438 172.852L302.805 172.8V185.138C309.273 186.951 314.023 189.391 317.094 192.459C320.164 195.528 321.67 199.318 321.67 203.886C321.67 208.827 319.982 212.787 316.608 215.767C313.212 218.766 308.439 220.45 302.29 220.819V225.572C302.294 225.867 302.238 226.158 302.125 226.43C302.013 226.702 301.847 226.948 301.637 227.154C301.427 227.359 301.177 227.519 300.903 227.625C300.629 227.731 300.337 227.78 300.044 227.769H300.004C299.396 227.736 298.824 227.47 298.405 227.027C297.986 226.584 297.752 225.997 297.751 225.387V220.697L296.752 220.652C293.97 220.533 291.199 220.237 288.456 219.765C286.522 219.43 284.608 218.989 282.723 218.445C282.175 218.291 281.697 217.952 281.369 217.486C281.041 217.019 280.884 216.454 280.925 215.885L281.546 208.945C281.681 207.444 283.184 206.571 284.609 207.133C286.256 207.785 287.939 208.338 289.651 208.792C292.29 209.49 294.988 209.942 297.711 210.141L297.751 196.422C291.543 194.886 286.906 192.606 283.841 189.582C280.775 186.559 279.239 182.679 279.232 177.943C279.232 173.056 280.897 169.288 284.227 166.638C287.537 164.004 292.242 162.694 298.31 162.697V158.283C298.303 157.993 298.357 157.705 298.47 157.437C298.583 157.17 298.752 156.93 298.965 156.733C299.179 156.537 299.432 156.388 299.707 156.298C299.982 156.208 300.274 156.177 300.562 156.209ZM298.31 172.673C296.392 172.812 294.896 173.34 293.823 174.256C292.751 175.173 292.215 176.407 292.215 177.959C292.215 179.426 292.711 180.652 293.703 181.637C294.695 182.623 296.229 183.408 298.303 183.992L298.31 172.673ZM302.29 197.514V210.094C304.375 210.094 305.976 209.597 307.092 208.603C308.208 207.609 308.765 206.197 308.763 204.367C308.763 202.704 308.245 201.324 307.209 200.227C306.174 199.13 304.534 198.225 302.29 197.514Z" fill="url(#paint46_linear_142_461)"/>
<path style="mix-blend-mode:multiply" opacity="0.3" d="M293.275 200.55C294.68 186.646 307.433 180.755 305.768 167.971C304.743 160.089 298.78 153.446 292.129 148.26C271.955 150.379 256.355 167.118 256.355 189.01C256.355 214.011 276.627 234.96 300.8 235.774C303.095 235.849 305.392 235.737 307.668 235.437C298.068 225.864 292.068 212.494 293.275 200.55Z" fill="url(#paint47_linear_142_461)"/>
<path d="M296.81 315.445C299.125 316.724 306.856 308.745 312.129 300.096C315.559 294.469 314.106 293.961 316.876 290.007C323.352 280.766 331.083 281.942 333.966 274.539C336.052 269.192 332.455 267.456 334.559 262.64C338.401 253.852 352.209 255.436 353.521 249.474C354.387 245.542 349.405 240.29 344.396 238.045C330.419 231.777 306.127 245.381 300.722 262.864C297.815 272.261 302.734 275.119 300.395 293.234C298.654 306.726 294.746 314.305 296.81 315.445Z" fill="url(#paint48_linear_142_461)"/>
<path opacity="0.17" d="M347.623 245.088C345.803 241.601 334.343 241.677 326.544 246.278C318.675 250.921 318.37 257.909 308.434 284.952C302.029 302.386 298.484 309.477 299.824 310.238C301.207 311.023 307.342 304.814 310.809 297.149C314.135 289.796 312.075 287.583 315.262 283.464C320.539 276.641 328.711 279.463 331.294 273.945C333.98 268.206 326.369 262.547 329.216 257.88C332.193 252.999 342.098 256.576 346.435 250.152C346.752 249.677 348.592 246.954 347.623 245.088Z" fill="white"/>
<path d="M296.223 309.374C296.223 309.374 293.219 268.176 276.109 266.144C259 264.111 256.92 278.331 263.956 283.238C270.992 288.144 274.705 288.837 275.567 295.942C276.429 303.046 288.114 306.493 290.821 309.374C293.529 312.255 298.159 322.935 296.223 309.374Z" fill="url(#paint49_linear_142_461)"/>
<path opacity="0.17" d="M291.78 304.885C291.78 304.885 280.3 272.902 273.967 271.396C267.635 269.89 262.356 275.773 266.514 278.115C270.672 280.458 276.699 280.298 276.723 284.465C276.748 288.631 277.105 290.414 281.005 293.368C284.904 296.323 293.219 311.529 291.78 304.885Z" fill="white"/>
<defs>
<linearGradient id="paint0_linear_142_461" x1="145.914" y1="349.922" x2="250.728" y2="349.922" gradientUnits="userSpaceOnUse">
<stop stop-color="#FCB148"/>
<stop offset="0.05" stop-color="#FDBA46"/>
<stop offset="0.14" stop-color="#FFC244"/>
<stop offset="0.32" stop-color="#FFC444"/>
<stop offset="0.48" stop-color="#FDB946"/>
<stop offset="0.78" stop-color="#F99C4D"/>
<stop offset="0.87" stop-color="#F8924F"/>
<stop offset="1" stop-color="#F8924F"/>
</linearGradient>
<linearGradient id="paint1_linear_142_461" x1="198.803" y1="338.091" x2="204.351" y2="384.441" gradientUnits="userSpaceOnUse">
<stop stop-color="#FFDB44"/>
<stop offset="1" stop-color="#FEEF06"/>
</linearGradient>
<linearGradient id="paint2_linear_142_461" x1="198.563" y1="336.025" x2="200.267" y2="350.259" gradientUnits="userSpaceOnUse">
<stop stop-color="#FFDB44"/>
<stop offset="1" stop-color="#FEEF06"/>
</linearGradient>
<linearGradient id="paint3_linear_142_461" x1="200.158" y1="348.767" x2="198.46" y2="334.583" gradientUnits="userSpaceOnUse">
<stop stop-color="#F36F56"/>
<stop offset="0.31" stop-color="#F99C4C"/>
<stop offset="0.55" stop-color="#FDB946"/>
<stop offset="0.68" stop-color="#FFC444"/>
<stop offset="0.8" stop-color="#FFC244"/>
<stop offset="0.87" stop-color="#FEBA46"/>
<stop offset="0.92" stop-color="#FCAD49"/>
<stop offset="0.96" stop-color="#F99A4D"/>
<stop offset="1" stop-color="#F57E53"/>
</linearGradient>
<linearGradient id="paint4_linear_142_461" x1="133.25" y1="339.288" x2="238.065" y2="339.288" gradientUnits="userSpaceOnUse">
<stop stop-color="#FCB148"/>
<stop offset="0.05" stop-color="#FDBA46"/>
<stop offset="0.14" stop-color="#FFC244"/>
<stop offset="0.32" stop-color="#FFC444"/>
<stop offset="0.48" stop-color="#FDB946"/>
<stop offset="0.78" stop-color="#F99C4D"/>
<stop offset="0.87" stop-color="#F8924F"/>
<stop offset="1" stop-color="#F8924F"/>
</linearGradient>
<linearGradient id="paint5_linear_142_461" x1="186.139" y1="327.458" x2="191.687" y2="373.806" gradientUnits="userSpaceOnUse">
<stop stop-color="#FFDB44"/>
<stop offset="1" stop-color="#FEEF06"/>
</linearGradient>
<linearGradient id="paint6_linear_142_461" x1="185.898" y1="325.39" x2="187.603" y2="339.625" gradientUnits="userSpaceOnUse">
<stop stop-color="#FFDB44"/>
<stop offset="1" stop-color="#FEEF06"/>
</linearGradient>
<linearGradient id="paint7_linear_142_461" x1="187.494" y1="338.133" x2="185.797" y2="323.948" gradientUnits="userSpaceOnUse">
<stop stop-color="#F36F56"/>
<stop offset="0.31" stop-color="#F99C4C"/>
<stop offset="0.55" stop-color="#FDB946"/>
<stop offset="0.68" stop-color="#FFC444"/>
<stop offset="0.8" stop-color="#FFC244"/>
<stop offset="0.87" stop-color="#FEBA46"/>
<stop offset="0.92" stop-color="#FCAD49"/>
<stop offset="0.96" stop-color="#F99A4D"/>
<stop offset="1" stop-color="#F57E53"/>
</linearGradient>
<linearGradient id="paint8_linear_142_461" x1="144.178" y1="328.685" x2="248.992" y2="328.685" gradientUnits="userSpaceOnUse">
<stop stop-color="#FCB148"/>
<stop offset="0.05" stop-color="#FDBA46"/>
<stop offset="0.14" stop-color="#FFC244"/>
<stop offset="0.32" stop-color="#FFC444"/>
<stop offset="0.48" stop-color="#FDB946"/>
<stop offset="0.78" stop-color="#F99C4D"/>
<stop offset="0.87" stop-color="#F8924F"/>
<stop offset="1" stop-color="#F8924F"/>
</linearGradient>
<linearGradient id="paint9_linear_142_461" x1="197.066" y1="316.854" x2="202.614" y2="363.202" gradientUnits="userSpaceOnUse">
<stop stop-color="#FFDB44"/>
<stop offset="1" stop-color="#FEEF06"/>
</linearGradient>
<linearGradient id="paint10_linear_142_461" x1="196.826" y1="314.786" x2="198.529" y2="329.021" gradientUnits="userSpaceOnUse">
<stop stop-color="#FFDB44"/>
<stop offset="1" stop-color="#FEEF06"/>
</linearGradient>
<linearGradient id="paint11_linear_142_461" x1="198.421" y1="327.529" x2="196.723" y2="313.346" gradientUnits="userSpaceOnUse">
<stop stop-color="#F36F56"/>
<stop offset="0.31" stop-color="#F99C4C"/>
<stop offset="0.55" stop-color="#FDB946"/>
<stop offset="0.68" stop-color="#FFC444"/>
<stop offset="0.8" stop-color="#FFC244"/>
<stop offset="0.87" stop-color="#FEBA46"/>
<stop offset="0.92" stop-color="#FCAD49"/>
<stop offset="0.96" stop-color="#F99A4D"/>
<stop offset="1" stop-color="#F57E53"/>
</linearGradient>
<linearGradient id="paint12_linear_142_461" x1="150.808" y1="318.05" x2="255.622" y2="318.05" gradientUnits="userSpaceOnUse">
<stop stop-color="#FCB148"/>
<stop offset="0.05" stop-color="#FDBA46"/>
<stop offset="0.14" stop-color="#FFC244"/>
<stop offset="0.32" stop-color="#FFC444"/>
<stop offset="0.48" stop-color="#FDB946"/>
<stop offset="0.78" stop-color="#F99C4D"/>
<stop offset="0.87" stop-color="#F8924F"/>
<stop offset="1" stop-color="#F8924F"/>
</linearGradient>
<linearGradient id="paint13_linear_142_461" x1="203.697" y1="306.219" x2="209.245" y2="352.569" gradientUnits="userSpaceOnUse">
<stop stop-color="#FFDB44"/>
<stop offset="1" stop-color="#FEEF06"/>
</linearGradient>
<linearGradient id="paint14_linear_142_461" x1="203.457" y1="304.153" x2="205.161" y2="318.387" gradientUnits="userSpaceOnUse">
<stop stop-color="#FFDB44"/>
<stop offset="1" stop-color="#FEEF06"/>
</linearGradient>
<linearGradient id="paint15_linear_142_461" x1="205.052" y1="316.895" x2="203.354" y2="302.711" gradientUnits="userSpaceOnUse">
<stop stop-color="#F36F56"/>
<stop offset="0.31" stop-color="#F99C4C"/>
<stop offset="0.55" stop-color="#FDB946"/>
<stop offset="0.68" stop-color="#FFC444"/>
<stop offset="0.8" stop-color="#FFC244"/>
<stop offset="0.87" stop-color="#FEBA46"/>
<stop offset="0.92" stop-color="#FCAD49"/>
<stop offset="0.96" stop-color="#F99A4D"/>
<stop offset="1" stop-color="#F57E53"/>
</linearGradient>
<linearGradient id="paint16_linear_142_461" x1="145.914" y1="306.577" x2="250.728" y2="306.577" gradientUnits="userSpaceOnUse">
<stop stop-color="#FCB148"/>
<stop offset="0.05" stop-color="#FDBA46"/>
<stop offset="0.14" stop-color="#FFC244"/>
<stop offset="0.32" stop-color="#FFC444"/>
<stop offset="0.48" stop-color="#FDB946"/>
<stop offset="0.78" stop-color="#F99C4D"/>
<stop offset="0.87" stop-color="#F8924F"/>
<stop offset="1" stop-color="#F8924F"/>
</linearGradient>
<linearGradient id="paint17_linear_142_461" x1="198.803" y1="294.746" x2="204.351" y2="341.094" gradientUnits="userSpaceOnUse">
<stop stop-color="#FFDB44"/>
<stop offset="1" stop-color="#FEEF06"/>
</linearGradient>
<linearGradient id="paint18_linear_142_461" x1="198.563" y1="292.678" x2="200.267" y2="306.914" gradientUnits="userSpaceOnUse">
<stop stop-color="#FFDB44"/>
<stop offset="1" stop-color="#FEEF06"/>
</linearGradient>
<linearGradient id="paint19_linear_142_461" x1="200.158" y1="305.422" x2="198.46" y2="291.237" gradientUnits="userSpaceOnUse">
<stop stop-color="#F36F56"/>
<stop offset="0.31" stop-color="#F99C4C"/>
<stop offset="0.55" stop-color="#FDB946"/>
<stop offset="0.68" stop-color="#FFC444"/>
<stop offset="0.8" stop-color="#FFC244"/>
<stop offset="0.87" stop-color="#FEBA46"/>
<stop offset="0.92" stop-color="#FCAD49"/>
<stop offset="0.96" stop-color="#F99A4D"/>
<stop offset="1" stop-color="#F57E53"/>
</linearGradient>
<linearGradient id="paint20_linear_142_461" x1="133.25" y1="295.942" x2="238.065" y2="295.942" gradientUnits="userSpaceOnUse">
<stop stop-color="#FCB148"/>
<stop offset="0.05" stop-color="#FDBA46"/>
<stop offset="0.14" stop-color="#FFC244"/>
<stop offset="0.32" stop-color="#FFC444"/>
<stop offset="0.48" stop-color="#FDB946"/>
<stop offset="0.78" stop-color="#F99C4D"/>
<stop offset="0.87" stop-color="#F8924F"/>
<stop offset="1" stop-color="#F8924F"/>
</linearGradient>
<linearGradient id="paint21_linear_142_461" x1="186.139" y1="284.111" x2="191.687" y2="330.461" gradientUnits="userSpaceOnUse">
<stop stop-color="#FFDB44"/>
<stop offset="1" stop-color="#FEEF06"/>
</linearGradient>
<linearGradient id="paint22_linear_142_461" x1="185.898" y1="282.043" x2="187.603" y2="296.278" gradientUnits="userSpaceOnUse">
<stop stop-color="#FFDB44"/>
<stop offset="1" stop-color="#FEEF06"/>
</linearGradient>
<linearGradient id="paint23_linear_142_461" x1="187.494" y1="294.787" x2="185.797" y2="280.603" gradientUnits="userSpaceOnUse">
<stop stop-color="#F36F56"/>
<stop offset="0.31" stop-color="#F99C4C"/>
<stop offset="0.55" stop-color="#FDB946"/>
<stop offset="0.68" stop-color="#FFC444"/>
<stop offset="0.8" stop-color="#FFC244"/>
<stop offset="0.87" stop-color="#FEBA46"/>
<stop offset="0.92" stop-color="#FCAD49"/>
<stop offset="0.96" stop-color="#F99A4D"/>
<stop offset="1" stop-color="#F57E53"/>
</linearGradient>
<linearGradient id="paint24_linear_142_461" x1="144.178" y1="285.338" x2="248.992" y2="285.338" gradientUnits="userSpaceOnUse">
<stop stop-color="#FCB148"/>
<stop offset="0.05" stop-color="#FDBA46"/>
<stop offset="0.14" stop-color="#FFC244"/>
<stop offset="0.32" stop-color="#FFC444"/>
<stop offset="0.48" stop-color="#FDB946"/>
<stop offset="0.78" stop-color="#F99C4D"/>
<stop offset="0.87" stop-color="#F8924F"/>
<stop offset="1" stop-color="#F8924F"/>
</linearGradient>
<linearGradient id="paint25_linear_142_461" x1="197.066" y1="273.507" x2="202.614" y2="319.857" gradientUnits="userSpaceOnUse">
<stop stop-color="#FFDB44"/>
<stop offset="1" stop-color="#FEEF06"/>
</linearGradient>
<linearGradient id="paint26_linear_142_461" x1="196.826" y1="271.441" x2="198.529" y2="285.675" gradientUnits="userSpaceOnUse">
<stop stop-color="#FFDB44"/>
<stop offset="1" stop-color="#FEEF06"/>
</linearGradient>
<linearGradient id="paint27_linear_142_461" x1="198.421" y1="284.183" x2="196.723" y2="269.999" gradientUnits="userSpaceOnUse">
<stop stop-color="#F36F56"/>
<stop offset="0.31" stop-color="#F99C4C"/>
<stop offset="0.55" stop-color="#FDB946"/>
<stop offset="0.68" stop-color="#FFC444"/>
<stop offset="0.8" stop-color="#FFC244"/>
<stop offset="0.87" stop-color="#FEBA46"/>
<stop offset="0.92" stop-color="#FCAD49"/>
<stop offset="0.96" stop-color="#F99A4D"/>
<stop offset="1" stop-color="#F57E53"/>
</linearGradient>
<linearGradient id="paint28_linear_142_461" x1="138.494" y1="274.704" x2="243.308" y2="274.704" gradientUnits="userSpaceOnUse">
<stop stop-color="#FCB148"/>
<stop offset="0.05" stop-color="#FDBA46"/>
<stop offset="0.14" stop-color="#FFC244"/>
<stop offset="0.32" stop-color="#FFC444"/>
<stop offset="0.48" stop-color="#FDB946"/>
<stop offset="0.78" stop-color="#F99C4D"/>
<stop offset="0.87" stop-color="#F8924F"/>
<stop offset="1" stop-color="#F8924F"/>
</linearGradient>
<linearGradient id="paint29_linear_142_461" x1="191.382" y1="262.874" x2="196.93" y2="309.222" gradientUnits="userSpaceOnUse">
<stop stop-color="#FFDB44"/>
<stop offset="1" stop-color="#FEEF06"/>
</linearGradient>
<linearGradient id="paint30_linear_142_461" x1="191.143" y1="260.806" x2="192.846" y2="275.04" gradientUnits="userSpaceOnUse">
<stop stop-color="#FFDB44"/>
<stop offset="1" stop-color="#FEEF06"/>
</linearGradient>
<linearGradient id="paint31_linear_142_461" x1="192.738" y1="273.549" x2="191.04" y2="259.364" gradientUnits="userSpaceOnUse">
<stop stop-color="#F36F56"/>
<stop offset="0.31" stop-color="#F99C4C"/>
<stop offset="0.55" stop-color="#FDB946"/>
<stop offset="0.68" stop-color="#FFC444"/>
<stop offset="0.8" stop-color="#FFC244"/>
<stop offset="0.87" stop-color="#FEBA46"/>
<stop offset="0.92" stop-color="#FCAD49"/>
<stop offset="0.96" stop-color="#F99A4D"/>
<stop offset="1" stop-color="#F57E53"/>
</linearGradient>
<linearGradient id="paint32_linear_142_461" x1="154.797" y1="271.623" x2="93.8413" y2="356.579" gradientUnits="userSpaceOnUse">
<stop stop-color="#FCB148"/>
<stop offset="0.05" stop-color="#FDBA46"/>
<stop offset="0.14" stop-color="#FFC244"/>
<stop offset="0.32" stop-color="#FFC444"/>
<stop offset="0.48" stop-color="#FDB946"/>
<stop offset="0.78" stop-color="#F99C4D"/>
<stop offset="0.87" stop-color="#F8924F"/>
<stop offset="1" stop-color="#F8924F"/>
</linearGradient>
<linearGradient id="paint33_linear_142_461" x1="114.559" y1="307.689" x2="148.881" y2="338.985" gradientUnits="userSpaceOnUse">
<stop stop-color="#FFDB44"/>
<stop offset="1" stop-color="#FEEF06"/>
</linearGradient>
<linearGradient id="paint34_linear_142_461" x1="113.028" y1="306.296" x2="123.569" y2="315.907" gradientUnits="userSpaceOnUse">
<stop stop-color="#FFDB44"/>
<stop offset="1" stop-color="#FEEF06"/>
</linearGradient>
<linearGradient id="paint35_linear_142_461" x1="123.821" y1="315.548" x2="113.319" y2="305.971" gradientUnits="userSpaceOnUse">
<stop stop-color="#F36F56"/>
<stop offset="0.31" stop-color="#F99C4C"/>
<stop offset="0.55" stop-color="#FDB946"/>
<stop offset="0.68" stop-color="#FFC444"/>
<stop offset="0.8" stop-color="#FFC244"/>
<stop offset="0.87" stop-color="#FEBA46"/>
<stop offset="0.92" stop-color="#FCAD49"/>
<stop offset="0.96" stop-color="#F99A4D"/>
<stop offset="1" stop-color="#F57E53"/>
</linearGradient>
<linearGradient id="paint36_linear_142_461" x1="324.462" y1="375.94" x2="301.232" y2="331.355" gradientUnits="userSpaceOnUse">
<stop stop-color="#311944"/>
<stop offset="1" stop-color="#6B3976"/>
</linearGradient>
<linearGradient id="paint37_linear_142_461" x1="292.761" y1="328.582" x2="291.09" y2="353.594" gradientUnits="userSpaceOnUse">
<stop stop-color="#FF9085"/>
<stop offset="1" stop-color="#FB6FBB"/>
</linearGradient>
<linearGradient id="paint38_linear_142_461" x1="273.967" y1="313.5" x2="320.781" y2="313.5" gradientUnits="userSpaceOnUse">
<stop stop-color="#FF9085"/>
<stop offset="1" stop-color="#FB6FBB"/>
</linearGradient>
<linearGradient id="paint39_linear_142_461" x1="296.546" y1="324.54" x2="297.123" y2="316.758" gradientUnits="userSpaceOnUse">
<stop stop-color="#FF9085"/>
<stop offset="1" stop-color="#FB6FBB"/>
</linearGradient>
<linearGradient id="paint40_linear_142_461" x1="300.807" y1="306.711" x2="293.303" y2="323.417" gradientUnits="userSpaceOnUse">
<stop stop-color="#FCB148"/>
<stop offset="0.05" stop-color="#FDBA46"/>
<stop offset="0.14" stop-color="#FFC244"/>
<stop offset="0.32" stop-color="#FFC444"/>
<stop offset="0.48" stop-color="#FDB946"/>
<stop offset="0.78" stop-color="#F99C4D"/>
<stop offset="0.87" stop-color="#F8924F"/>
<stop offset="1" stop-color="#F8924F"/>
</linearGradient>
<linearGradient id="paint41_linear_142_461" x1="304.946" y1="337.256" x2="295.899" y2="261.595" gradientUnits="userSpaceOnUse">
<stop stop-color="#311944"/>
<stop offset="1" stop-color="#6B3976"/>
</linearGradient>
<linearGradient id="paint42_linear_142_461" x1="276.301" y1="199.211" x2="221.851" y2="216.651" gradientUnits="userSpaceOnUse">
<stop stop-color="#FCB148"/>
<stop offset="0.05" stop-color="#FDBA46"/>
<stop offset="0.14" stop-color="#FFC244"/>
<stop offset="0.32" stop-color="#FFC444"/>
<stop offset="0.48" stop-color="#FDB946"/>
<stop offset="0.78" stop-color="#F99C4D"/>
<stop offset="0.87" stop-color="#F8924F"/>
<stop offset="1" stop-color="#F8924F"/>
</linearGradient>
<linearGradient id="paint43_linear_142_461" x1="320.332" y1="144.923" x2="271.577" y2="252.268" gradientUnits="userSpaceOnUse">
<stop stop-color="#FFDB44"/>
<stop offset="1" stop-color="#FEEF06"/>
</linearGradient>
<linearGradient id="paint44_linear_142_461" x1="311.393" y1="258.345" x2="301.98" y2="207.029" gradientUnits="userSpaceOnUse">
<stop stop-color="#FCB148"/>
<stop offset="0.05" stop-color="#FDBA46"/>
<stop offset="0.14" stop-color="#FFC244"/>
<stop offset="0.32" stop-color="#FFC444"/>
<stop offset="0.48" stop-color="#FDB946"/>
<stop offset="0.78" stop-color="#F99C4D"/>
<stop offset="0.87" stop-color="#F8924F"/>
<stop offset="1" stop-color="#F8924F"/>
</linearGradient>
<linearGradient id="paint45_linear_142_461" x1="291.514" y1="175.273" x2="330.281" y2="257.401" gradientUnits="userSpaceOnUse">
<stop stop-color="#FCB148"/>
<stop offset="0.05" stop-color="#FDBA46"/>
<stop offset="0.14" stop-color="#FFC244"/>
<stop offset="0.32" stop-color="#FFC444"/>
<stop offset="0.48" stop-color="#FDB946"/>
<stop offset="0.78" stop-color="#F99C4D"/>
<stop offset="0.87" stop-color="#F8924F"/>
<stop offset="1" stop-color="#F8924F"/>
</linearGradient>
<linearGradient id="paint46_linear_142_461" x1="289.975" y1="157.587" x2="309.478" y2="230.53" gradientUnits="userSpaceOnUse">
<stop stop-color="#FFDB44"/>
<stop offset="1" stop-color="#FEEF06"/>
</linearGradient>
<linearGradient id="paint47_linear_142_461" x1="280.147" y1="180.592" x2="318.836" y2="262.554" gradientUnits="userSpaceOnUse">
<stop stop-color="#FCB148"/>
<stop offset="0.05" stop-color="#FDBA46"/>
<stop offset="0.14" stop-color="#FFC244"/>
<stop offset="0.32" stop-color="#FFC444"/>
<stop offset="0.48" stop-color="#FDB946"/>
<stop offset="0.78" stop-color="#F99C4D"/>
<stop offset="0.87" stop-color="#F8924F"/>
<stop offset="1" stop-color="#F8924F"/>
</linearGradient>
<linearGradient id="paint48_linear_142_461" x1="330.722" y1="248.629" x2="290.828" y2="328.906" gradientUnits="userSpaceOnUse">
<stop stop-color="#AA80F9"/>
<stop offset="1" stop-color="#6165D7"/>
</linearGradient>
<linearGradient id="paint49_linear_142_461" x1="260.171" y1="291.02" x2="296.683" y2="291.02" gradientUnits="userSpaceOnUse">
<stop stop-color="#AA80F9"/>
<stop offset="1" stop-color="#6165D7"/>
</linearGradient>
</defs>
</svg>
