<svg width="434" height="400" viewBox="0 0 434 400" fill="none" xmlns="http://www.w3.org/2000/svg">
<path fill-rule="evenodd" clip-rule="evenodd" d="M38.9683 237.82C38.9507 198.558 84.2444 174.283 105.595 140.079C122.888 112.374 124.592 75.9573 151.95 56.8191C180.182 37.0686 217.526 34.1236 251.835 37.7751C284.993 41.304 319.027 52.2928 339.592 76.7893C358.787 99.6552 344.313 134.411 355.819 161.64C370.943 197.43 423.7 219.983 416.362 258.462C409.32 295.389 359.217 308.46 324.331 326.753C291.376 344.034 257.838 359.603 220.604 361.111C180.019 362.755 138.25 357.716 105.682 335.609C71.565 312.451 38.9863 278.102 38.9683 237.82Z" fill="#F2F0FD"/>
<path d="M153.741 207.475C196.723 207.475 231.566 172.632 231.566 129.65C231.566 86.6684 196.723 51.825 153.741 51.825C110.76 51.825 75.9163 86.6684 75.9163 129.65C75.9163 172.632 110.76 207.475 153.741 207.475Z" fill="#AAEEEA"/>
<path d="M153.741 189.245C186.655 189.245 213.337 162.564 213.337 129.65C213.337 96.7364 186.655 70.0546 153.741 70.0546C120.828 70.0546 94.1459 96.7364 94.1459 129.65C94.1459 162.564 120.828 189.245 153.741 189.245Z" fill="#00CCC1"/>
<path d="M153.741 167.83C174.827 167.83 191.921 150.736 191.921 129.65C191.921 108.564 174.827 91.4703 153.741 91.4703C132.655 91.4703 115.562 108.564 115.562 129.65C115.562 150.736 132.655 167.83 153.741 167.83Z" fill="#AAEEEA"/>
<path d="M153.741 150.702C149.583 150.702 145.517 149.469 142.059 147.159C138.601 144.848 135.906 141.564 134.315 137.722C132.723 133.88 132.307 129.652 133.118 125.573C133.93 121.495 135.932 117.748 138.873 114.807C141.814 111.867 145.56 109.864 149.639 109.053C153.718 108.241 157.946 108.658 161.788 110.249C165.63 111.841 168.914 114.536 171.225 117.994C173.535 121.451 174.768 125.517 174.768 129.676C174.755 135.248 172.535 140.589 168.595 144.529C164.654 148.469 159.314 150.689 153.741 150.702Z" fill="#00CCC1"/>
<path d="M140.615 129.153C139.716 133.441 139.374 137.827 139.596 142.202C140.006 149.676 142.027 156.973 145.522 163.593L176.744 157.272C175.02 154.501 173.585 151.561 172.462 148.498C169.887 141.391 168.98 133.787 169.811 126.273L140.615 129.153Z" fill="#FF535C"/>
<path d="M142.043 124.948C141.143 129.236 140.801 133.622 141.023 137.997C141.425 145.479 143.442 152.785 146.936 159.413L178.158 153.085C176.433 150.318 174.999 147.38 173.876 144.318C171.301 137.211 170.395 129.607 171.226 122.093L142.043 124.948Z" fill="#FFF3E3"/>
<path d="M146.732 131.268L166.409 128.924" stroke="#00CCC1" stroke-linecap="round" stroke-linejoin="round"/>
<path d="M146.732 136.876L166.409 134.021" stroke="#00CCC1" stroke-linecap="round" stroke-linejoin="round"/>
<path d="M147.65 142.789L167.122 139.628" stroke="#00CCC1" stroke-linecap="round" stroke-linejoin="round"/>
<path d="M148.568 149.11L169.066 144.93" stroke="#00CCC1" stroke-linecap="round" stroke-linejoin="round"/>
<path d="M151.218 153.602L170.085 149.925" stroke="#00CCC1" stroke-linecap="round" stroke-linejoin="round"/>
<path d="M211.661 66.2571L159.877 129.089" stroke="#383333" stroke-width="5" stroke-linecap="round" stroke-linejoin="round"/>
<path d="M159.196 122.144L166.778 128.395C166.838 128.443 166.884 128.507 166.91 128.58C166.937 128.652 166.943 128.73 166.929 128.806C166.915 128.882 166.88 128.953 166.829 129.01C166.777 129.068 166.712 129.111 166.638 129.134L157.138 132.32C157.066 132.344 156.989 132.349 156.915 132.334C156.84 132.319 156.771 132.284 156.715 132.234C156.658 132.183 156.617 132.118 156.593 132.046C156.57 131.974 156.567 131.897 156.583 131.823L158.495 122.399C158.509 122.325 158.542 122.256 158.59 122.199C158.639 122.141 158.702 122.097 158.773 122.072C158.843 122.046 158.92 122.039 158.994 122.052C159.068 122.065 159.138 122.096 159.196 122.144Z" fill="#383333"/>
<path d="M208.456 76.3946L204.231 75.9741L202.32 71.3354L211.527 60.1656L213.362 64.1608L217.663 65.193L208.456 76.3946Z" fill="#383333"/>
<path d="M219.849 142.062C219.849 142.062 195.636 221.856 226.087 236.505C256.538 251.154 325.073 231.835 329.049 209.68C333.025 187.525 313.38 180.006 312.189 121.36L219.849 142.062Z" fill="#FF535C"/>
<path d="M226.087 166.396C226.087 166.396 213.056 204.34 226.087 221.933" stroke="#383333" stroke-linecap="round" stroke-linejoin="round"/>
<path d="M237.639 174.826C237.639 174.826 229.7 198.797 235.632 209.68" stroke="#383333" stroke-linecap="round" stroke-linejoin="round"/>
<path d="M305.957 160.209C305.957 160.209 302.134 183.364 315.744 202.9" stroke="#383333" stroke-linecap="round" stroke-linejoin="round"/>
<path d="M294.176 173.443C294.176 173.443 291.213 189.921 297.591 200.345" stroke="#383333" stroke-linecap="round" stroke-linejoin="round"/>
<path d="M235.829 60.9557H235.44C235.06 60.9557 234.752 61.2638 234.752 61.6439V70.8703C234.752 71.2503 235.06 71.5584 235.44 71.5584H235.829C236.209 71.5584 236.517 71.2503 236.517 70.8703V61.6439C236.517 61.2638 236.209 60.9557 235.829 60.9557Z" fill="#FFB833"/>
<path d="M230.33 66.0595V66.4482C230.33 66.8283 230.638 67.1364 231.018 67.1364H240.245C240.625 67.1364 240.933 66.8283 240.933 66.4482V66.0595C240.933 65.6795 240.625 65.3714 240.245 65.3714H231.018C230.638 65.3714 230.33 65.6795 230.33 66.0595Z" fill="#FFB833"/>
<path d="M332.222 155.794H331.833C331.453 155.794 331.145 156.102 331.145 156.482V165.708C331.145 166.088 331.453 166.396 331.833 166.396H332.222C332.602 166.396 332.91 166.088 332.91 165.708V156.482C332.91 156.102 332.602 155.794 332.222 155.794Z" fill="#FFB833"/>
<path d="M326.729 160.904V161.292C326.729 161.672 327.037 161.981 327.417 161.981H336.644C337.024 161.981 337.332 161.672 337.332 161.292V160.904C337.332 160.524 337.024 160.216 336.644 160.216H327.417C327.037 160.216 326.729 160.524 326.729 160.904Z" fill="#FFB833"/>
<path d="M191.564 214.35H190.774C190.394 214.35 190.086 214.658 190.086 215.038V226.661C190.086 227.041 190.394 227.349 190.774 227.349H191.564C191.944 227.349 192.252 227.041 192.252 226.661V215.038C192.252 214.658 191.944 214.35 191.564 214.35Z" fill="#FFB833"/>
<path d="M184.67 220.454V221.245C184.67 221.625 184.978 221.933 185.358 221.933H196.98C197.36 221.933 197.669 221.625 197.669 221.245V220.454C197.669 220.074 197.36 219.766 196.98 219.766H185.358C184.978 219.766 184.67 220.074 184.67 220.454Z" fill="#FFB833"/>
<path d="M229.19 132.339C228.319 131.458 227.276 130.766 226.126 130.306C224.976 129.845 223.744 129.627 222.506 129.663C221.97 129.695 219.83 129.828 218.37 131.16C214.592 134.62 215.898 145.688 222.334 148.593C225.927 150.225 229.782 148.695 231.082 148.109L229.19 132.339Z" fill="#FFC871"/>
<path d="M219.849 136.117L226.087 135.901C226.087 135.901 219.715 139.775 224.953 144.968" stroke="#383333" stroke-width="0.75" stroke-linecap="round" stroke-linejoin="round"/>
<path d="M302.905 133.167C303.794 132.302 304.851 131.63 306.01 131.191C307.17 130.753 308.408 130.558 309.646 130.619C310.188 130.663 312.323 130.842 313.75 132.205C317.452 135.748 315.897 146.784 309.404 149.549C305.772 151.097 301.956 149.485 300.669 148.874L302.905 133.167Z" fill="#FFC871"/>
<path d="M312.189 137.143L305.957 136.786C305.957 136.786 312.259 140.807 306.887 145.873" stroke="#383333" stroke-width="0.75" stroke-linecap="round" stroke-linejoin="round"/>
<path d="M266.254 167.193C290.177 167.193 309.57 147.8 309.57 123.877C309.57 99.9548 290.177 80.5618 266.254 80.5618C242.332 80.5618 222.939 99.9548 222.939 123.877C222.939 147.8 242.332 167.193 266.254 167.193Z" fill="#FFDB99"/>
<path d="M256.722 156.883C256.722 156.883 257.359 180.102 251.669 186.06C245.979 192.017 229.228 193.98 223.939 205.532C218.651 217.084 236.046 259.405 222.633 323.098C231.679 328.499 241.518 332.442 251.791 334.784C286.198 342.576 314.973 329.571 325.366 324.213C321.429 309.016 319.223 293.423 318.79 277.731C317.624 234.288 330.38 210.024 317.114 196.458C307.556 186.684 292.022 191.667 285.032 181.918C278.042 172.169 278.96 153.047 278.96 153.047C278.96 153.047 268.873 146.484 256.722 156.883Z" fill="#FFDB99"/>
<path d="M223.958 134.034C223.958 134.034 232.446 177.54 266.184 176.527C299.923 175.514 308.608 141.661 309.513 121.551C309.5 121.551 254.543 81.3646 223.958 134.034Z" fill="#FFDB99"/>
<path d="M234.886 195.114C230.986 196.407 227.351 198.393 224.156 200.976C215.529 208.023 212.865 217.664 211.451 222.334C208.265 232.784 202.53 247.382 191.169 267.892L207.946 286.371C212.49 282.391 216.706 278.052 220.556 273.398C230.267 261.635 234.727 251.44 241.175 236.199C251.765 211.279 249.828 206.143 248.458 203.741C245.463 198.472 239.442 196.184 234.886 195.114Z" fill="#FFDB99"/>
<path d="M301.809 189.883C307.155 190.074 315.61 191.195 322.9 196.809C330.387 202.543 331.1 208.8 341.563 240.882C346.775 256.857 353.178 275.481 353.178 275.481L326.653 285.307C323.9 280.541 320.281 273.876 316.394 265.694C312.998 258.488 307.843 247.547 304.67 236.269C302 226.782 299.025 210.986 301.809 189.883Z" fill="#FFDB99"/>
<path d="M340.014 215.402C337.28 228.11 333.66 240.613 329.182 252.817C325.047 264.05 321.594 271.066 323.989 280.107C325.57 286.065 329.941 294.278 336.319 295.004C340.849 295.521 344.653 292.067 346.163 290.697C360.85 277.361 358.588 219.269 358.168 209.68L340.014 215.402Z" fill="#FFDB99"/>
<path d="M238.977 128.656C241.255 127.021 243.984 126.131 246.789 126.107C248.7 126.056 251.249 125.993 252.052 127.484C252.23 127.806 252.319 128.17 252.31 128.539C252.301 128.907 252.194 129.266 252.001 129.58C251.109 130.771 248.872 129.701 245.253 129.669C240.487 129.631 237.39 131.441 237.078 130.759C236.849 130.249 238.378 129.108 238.977 128.656Z" fill="#FF535C"/>
<path d="M293.876 128.548C291.573 126.948 288.831 126.098 286.026 126.114C284.115 126.114 281.566 126.075 280.782 127.573C280.61 127.899 280.527 128.265 280.543 128.633C280.558 129.001 280.672 129.359 280.871 129.669C281.776 130.848 284 129.739 287.619 129.669C292.379 129.548 295.507 131.307 295.807 130.619C296.03 130.102 294.482 128.987 293.876 128.548Z" fill="#FF535C"/>
<path d="M266.274 136.328C266.274 136.328 262.935 144.025 263.547 145.497C264.158 146.969 270.16 146.478 270.16 146.478" stroke="#383333" stroke-linecap="round" stroke-linejoin="round"/>
<path d="M246.202 148.444C246.231 146.628 243.89 145.119 240.973 145.072C238.056 145.025 235.668 146.459 235.638 148.274C235.609 150.09 237.95 151.6 240.867 151.647C243.784 151.693 246.172 150.26 246.202 148.444Z" fill="#FFC871"/>
<path d="M295.676 149.24C295.705 147.425 293.364 145.915 290.448 145.868C287.531 145.821 285.142 147.255 285.113 149.071C285.084 150.886 287.425 152.396 290.342 152.443C293.259 152.49 295.647 151.056 295.676 149.24Z" fill="#FFC871"/>
<path d="M263.489 160.693C264.59 161.251 265.807 161.542 267.041 161.542C268.276 161.542 269.493 161.251 270.594 160.693" stroke="#383333" stroke-width="0.75" stroke-linecap="round" stroke-linejoin="round"/>
<path d="M257.277 152.474C260.566 153.793 264.086 154.442 267.63 154.383C271.174 154.324 274.671 153.558 277.915 152.13C277.074 154.437 275.505 156.407 273.445 157.743C271.385 159.078 268.946 159.707 266.497 159.534C264.46 159.315 262.524 158.54 260.898 157.295C259.272 156.05 258.019 154.382 257.277 152.474Z" fill="white"/>
<path d="M255.588 175.259C255.588 175.259 268.803 178.343 281.184 173.443" stroke="#383333" stroke-linecap="round" stroke-linejoin="round"/>
<path fill-rule="evenodd" clip-rule="evenodd" d="M250.255 139.781C249.735 140.32 249.067 140.693 248.335 140.852C247.603 141.01 246.84 140.949 246.144 140.674C245.447 140.399 244.847 139.924 244.421 139.309C243.994 138.693 243.76 137.965 243.747 137.216C243.735 136.467 243.945 135.732 244.35 135.102C244.756 134.473 245.34 133.978 246.027 133.68C246.714 133.382 247.474 133.295 248.211 133.43C248.948 133.564 249.628 133.914 250.166 134.435C250.876 135.138 251.284 136.091 251.3 137.09C251.317 138.089 250.942 139.055 250.255 139.781Z" fill="#383333"/>
<path fill-rule="evenodd" clip-rule="evenodd" d="M241.099 135.13C241.182 135.053 242.016 136.277 242.959 136.105C243.654 135.984 243.775 135.2 244.616 134.454C245.345 133.833 246.254 133.46 247.209 133.39C246.869 134.223 246.415 135.003 245.858 135.71C245.075 136.716 244.584 137.36 243.813 137.43C242.258 137.577 240.971 135.232 241.099 135.13Z" fill="#383333"/>
<path fill-rule="evenodd" clip-rule="evenodd" d="M285.861 139.622C285.373 140.19 284.727 140.601 284.006 140.802C283.285 141.003 282.52 140.986 281.809 140.752C281.097 140.519 280.471 140.079 280.009 139.49C279.547 138.9 279.271 138.187 279.215 137.44C279.159 136.694 279.325 135.947 279.693 135.295C280.062 134.643 280.615 134.115 281.284 133.777C281.952 133.44 282.706 133.309 283.449 133.4C284.192 133.491 284.892 133.8 285.459 134.289C286.21 134.949 286.673 135.876 286.748 136.873C286.823 137.87 286.504 138.857 285.861 139.622Z" fill="#383333"/>
<path fill-rule="evenodd" clip-rule="evenodd" d="M289.231 134.544C289.148 134.473 288.422 135.767 287.466 135.69C286.765 135.627 286.574 134.862 285.676 134.193C284.889 133.646 283.951 133.361 282.993 133.378C283.408 134.174 283.931 134.91 284.548 135.563C285.421 136.487 285.988 137.086 286.746 137.086C288.25 137.086 289.346 134.633 289.231 134.544Z" fill="#383333"/>
<path d="M334.216 191.539C335.49 189.57 338.555 189.163 340.741 189.685C342.533 190.154 344.097 191.251 345.15 192.775C345.15 192.775 342.448 174.214 345.15 173.507C347.852 172.8 351.14 189.959 351.14 189.959C351.14 189.959 352.669 172.411 355.37 173.488C358.072 174.565 356.645 192.775 356.645 192.775C356.645 192.775 359.582 184.084 362.163 183.855C362.265 183.841 362.37 183.859 362.462 183.906C363.858 184.626 360.857 191.431 359.225 199.593C357.237 209.565 359.289 211.579 356.645 214.561C353.026 218.645 344.895 219.696 340.849 216.472C336.465 213.006 339.18 206.373 334.324 200.574C333.687 199.784 331.527 197.287 332.107 195.764C332.234 195.491 332.463 195.278 332.744 195.171C334.656 194.228 338.734 196.962 339.173 199.517C339.613 202.072 342.786 198.727 342.525 196.783C342.264 194.84 338.555 193.527 336.911 194.171C335.433 194.751 334.465 195.127 333.897 194.661C333.33 194.196 333.534 192.584 334.216 191.539Z" fill="#FFDB99"/>
<path d="M346.507 193.113C346.507 193.113 353.28 194.19 356.613 197.306" stroke="#383333" stroke-width="0.75" stroke-linecap="round" stroke-linejoin="round"/>
<path d="M340.403 200.345C340.403 200.345 344.36 202.461 344.679 205.443" stroke="#383333" stroke-width="0.75" stroke-linecap="round" stroke-linejoin="round"/>
<path d="M252.37 182.631C252.37 182.631 270.511 186.608 286.778 180.287C286.778 180.287 288.689 185.384 293.717 187.143C298.744 188.901 308.372 190.38 314.189 192.113L318.548 226.782C320.64 229.958 322.174 233.468 323.084 237.161C325.907 248.662 321.638 258.328 319.975 261.654C320.489 270.116 321.19 278.824 322.078 287.779C323.397 301.032 325.047 313.718 326.933 325.787C326.933 325.787 268.313 356.072 220.358 323.34C221.713 314.419 222.971 305.286 224.13 295.941C225.498 284.765 226.645 273.871 227.571 263.26C226.191 259.786 225.278 256.143 224.857 252.428C224.066 245.09 225.149 237.671 228.005 230.866C226.926 220.743 225.853 210.616 224.787 200.485C224.787 200.485 232.082 194.566 240.136 192.119C248.19 189.672 252.568 185.792 252.37 182.631Z" fill="#FFB833"/>
<path d="M218.371 131.167C218.371 131.167 235.651 135.117 247.528 111C259.405 86.8826 262.266 79.778 275.315 85.8694C275.315 85.8694 281.407 128.267 314.661 133.378C314.661 133.378 318.605 77.5033 282.993 79.3447C282.993 79.3447 248.025 70.163 231.082 85.0793C214.14 99.9957 218.371 131.167 218.371 131.167Z" fill="#FF535C"/>
<path d="M251.293 90.3552C251.293 90.3552 239.092 121.762 223.958 124.82" stroke="#383333" stroke-linecap="round" stroke-linejoin="round"/>
<path d="M243.743 96.0643C243.743 96.0643 232.178 110.745 222.62 113.6" stroke="#383333" stroke-linecap="round" stroke-linejoin="round"/>
<path d="M282.993 91.4703C282.993 91.4703 294.622 117.684 312.189 121.36" stroke="#383333" stroke-linecap="round" stroke-linejoin="round"/>
<path d="M290.385 96.0643C290.385 96.0643 302.223 108.292 309.57 108.598" stroke="#383333" stroke-linecap="round" stroke-linejoin="round"/>
<path d="M98.7337 150.295C98.7337 150.295 95.5796 149.109 93.4196 150.569C91.833 151.639 86.6846 157.985 84.0594 161.292C83.9594 161.419 83.9023 161.573 83.8962 161.734C83.8901 161.895 83.9354 162.054 84.0256 162.188C84.1157 162.321 84.246 162.422 84.3976 162.477C84.5492 162.531 84.7142 162.536 84.8686 162.49C88.108 161.479 91.4791 160.953 94.8724 160.929L98.7337 150.295Z" fill="#FF535C"/>
<path d="M111.93 163.102C111.93 163.102 113.204 166.218 111.821 168.422C110.802 170.041 104.615 175.374 101.391 178.101C101.268 178.205 101.115 178.268 100.954 178.279C100.793 178.29 100.633 178.25 100.496 178.164C100.36 178.078 100.255 177.951 100.196 177.801C100.136 177.651 100.126 177.486 100.167 177.33C101.085 174.062 101.515 170.676 101.442 167.282L111.93 163.102Z" fill="#FF535C"/>
<mask id="mask0_1_434" style="mask-type:luminance" maskUnits="userSpaceOnUse" x="92" y="133" width="37" height="37">
<path d="M101.652 169.569C107.195 168.046 114.128 163.918 118.932 158.737C127.05 149.982 128.229 139.17 128.388 134.295C128.393 134.161 128.369 134.028 128.319 133.904C128.269 133.78 128.194 133.668 128.098 133.575C128.002 133.481 127.887 133.41 127.762 133.364C127.636 133.318 127.502 133.298 127.368 133.307C122.5 133.613 111.732 135.123 103.226 143.502C98.192 148.466 94.2734 155.52 92.9162 161.108C94.1258 162.801 95.4887 164.379 96.9878 165.823C98.4267 167.209 99.9878 168.463 101.652 169.569Z" fill="white"/>
</mask>
<g mask="url(#mask0_1_434)">
<path d="M101.652 169.569C107.195 168.046 114.128 163.918 118.932 158.737C127.05 149.982 128.229 139.17 128.388 134.295C128.393 134.161 128.369 134.028 128.319 133.904C128.269 133.78 128.194 133.668 128.098 133.575C128.002 133.481 127.887 133.41 127.762 133.364C127.636 133.318 127.502 133.298 127.368 133.307C122.5 133.613 111.732 135.123 103.226 143.502C98.192 148.466 94.2734 155.52 92.9162 161.108C94.1258 162.801 95.4887 164.379 96.9878 165.823C98.4267 167.209 99.9878 168.463 101.652 169.569Z" fill="#FFB833"/>
<path d="M127.757 149.645C126.269 146.195 124.115 143.073 121.419 140.456C118.723 137.84 115.537 135.781 112.044 134.397L122.653 123.457L138.373 138.711L127.757 149.645Z" fill="#FF535C"/>
</g>
<path d="M101.206 170.627C100.923 170.898 100.553 171.06 100.162 171.083C99.771 171.107 99.3844 170.99 99.0714 170.754C97.9163 169.944 96.8158 169.059 95.7772 168.104C94.2846 166.733 92.9216 165.227 91.7056 163.605C91.4608 163.301 91.3327 162.92 91.3444 162.529C91.356 162.139 91.5067 161.766 91.7693 161.477L91.9159 161.324C92.2393 161.02 92.6701 160.855 93.1141 160.867C93.5582 160.879 93.9795 161.066 94.2862 161.388L101.212 168.11C101.544 168.405 101.745 168.82 101.771 169.263C101.798 169.706 101.647 170.142 101.352 170.474L101.206 170.627Z" fill="#FF535C"/>
<path d="M99.2752 172.615C98.9938 172.889 98.6234 173.052 98.2316 173.075C97.8399 173.099 97.4527 172.981 97.1407 172.742C95.9871 171.933 94.8867 171.049 93.8465 170.098C92.3554 168.726 90.9926 167.22 89.7749 165.6C89.5296 165.295 89.4013 164.912 89.413 164.521C89.4246 164.129 89.5756 163.755 89.8386 163.465L89.9852 163.312C90.3094 163.009 90.7407 162.845 91.1848 162.859C91.6289 162.872 92.0497 163.06 92.3555 163.382L99.2816 170.105C99.6134 170.4 99.8145 170.814 99.8408 171.258C99.867 171.701 99.7164 172.136 99.4218 172.469L99.2752 172.615Z" fill="#FF535C"/>
<path d="M112.057 156.399C115.534 156.399 118.352 153.58 118.352 150.104C118.352 146.627 115.534 143.808 112.057 143.808C108.58 143.808 105.762 146.627 105.762 150.104C105.762 153.58 108.58 156.399 112.057 156.399Z" fill="#FFF3E3"/>
<path d="M108.795 153.468C108.13 152.823 107.672 151.995 107.478 151.09C107.284 150.184 107.362 149.242 107.704 148.381C108.045 147.52 108.634 146.78 109.396 146.254C110.158 145.728 111.059 145.439 111.985 145.425C112.911 145.411 113.82 145.671 114.598 146.174C115.376 146.676 115.988 147.398 116.355 148.248C116.723 149.098 116.831 150.038 116.664 150.948C116.498 151.859 116.066 152.701 115.421 153.366C114.555 154.256 113.371 154.766 112.129 154.785C110.887 154.804 109.688 154.331 108.795 153.468Z" fill="#FF535C"/>
<path d="M90.4248 167.836C90.4113 167.814 90.3914 167.795 90.3676 167.784C90.3438 167.773 90.3171 167.769 90.291 167.772C89.5687 167.852 88.8681 168.068 88.2266 168.41C87.4339 168.842 86.7566 169.458 86.2513 170.206C86.2305 170.232 86.2193 170.264 86.2196 170.297C86.2199 170.329 86.2317 170.361 86.2529 170.386C86.2741 170.411 86.3034 170.428 86.3357 170.433C86.368 170.439 86.4013 170.433 86.4297 170.417C86.9286 170.199 87.4656 170.082 88.0099 170.073C88.0396 170.074 88.0681 170.085 88.0916 170.103C88.1151 170.121 88.1325 170.146 88.1415 170.175C88.1505 170.203 88.1506 170.233 88.1419 170.262C88.1332 170.29 88.1161 170.315 88.0928 170.334C87.4235 170.782 86.8813 171.395 86.5185 172.114C86.1557 172.833 85.9846 173.633 86.0219 174.437C86.1107 175.446 86.5399 176.394 87.2389 177.126C87.2557 177.144 87.2767 177.157 87.3 177.165C87.3233 177.173 87.3481 177.174 87.3721 177.17C87.3962 177.165 87.4188 177.155 87.4378 177.14C87.4569 177.124 87.4717 177.104 87.4811 177.082C87.6118 176.756 87.8144 176.464 88.0736 176.228C88.5132 175.876 89.0433 175.655 89.6029 175.591C90.5418 175.363 91.3942 174.867 92.056 174.163C92.0766 174.137 92.1058 174.119 92.1384 174.113C92.1709 174.106 92.2048 174.111 92.2339 174.128C92.263 174.144 92.2854 174.169 92.2972 174.201C92.3089 174.232 92.3093 174.266 92.2981 174.297C92.2326 174.554 92.1318 174.801 91.9987 175.03C91.8262 175.301 91.611 175.542 91.3615 175.744C91.3405 175.762 91.3253 175.786 91.3176 175.813C91.31 175.84 91.3102 175.869 91.3182 175.895C91.3262 175.922 91.3418 175.946 91.363 175.964C91.3842 175.983 91.4102 175.995 91.4379 175.998C91.9239 176.067 92.4189 176.028 92.8882 175.884C93.3574 175.74 93.7895 175.496 94.1539 175.167C94.5184 174.838 94.8064 174.434 94.9977 173.982C95.1889 173.53 95.2788 173.042 95.261 172.551C95.2616 172.527 95.2554 172.502 95.2431 172.481C95.2307 172.46 95.2126 172.442 95.1909 172.43C94.5111 172.048 93.869 171.602 93.273 171.099C92.1445 170.182 91.1811 169.078 90.4248 167.836Z" fill="#FFB833"/>
<path d="M86.0092 183.243C86.0092 183.243 77.0887 228.782 94.6302 240.736C112.172 252.689 122.258 233.408 112.471 229.432C102.684 225.456 74.5463 265.312 142.457 285.307" stroke="#383333" stroke-linecap="round" stroke-linejoin="round" stroke-dasharray="12 12"/>
<path d="M167.823 232.427C185.396 246.222 215.535 271.792 209.807 283.707C207.895 287.677 202.734 288.614 201.842 288.773C187.729 291.322 169.41 270.403 154.793 238.219L167.823 232.427Z" fill="#FFDB99"/>
<path d="M173.335 236.836C173.335 236.836 160.897 223.71 154.761 222.219C148.625 220.728 136.531 222.748 128.089 221.225C119.646 219.703 126.598 228.872 135.206 231.165C143.814 233.459 153.27 235.568 156.825 242.635C156.825 242.641 172.048 245.005 173.335 236.836Z" fill="#FFDB99"/>
<path d="M196.579 257.78C196.579 257.78 209.131 268.855 206.997 278.38" stroke="#383333" stroke-linecap="round" stroke-linejoin="round"/>
<path d="M337.185 227.279C337.185 227.279 335.771 244.119 332.03 252.39C328.29 260.661 324.665 271.818 326.933 278.553" stroke="#383333" stroke-linecap="round" stroke-linejoin="round"/>
</svg>
