<svg width="362" height="319" viewBox="0 0 362 319" fill="none" xmlns="http://www.w3.org/2000/svg">
<path fill-rule="evenodd" clip-rule="evenodd" d="M191.569 3.41037C234.702 5.67736 279.876 11.3129 307.739 44.3174C336.405 78.2738 339.551 125.186 331.225 168.838C322.43 214.948 302.084 258.843 262.124 283.473C216.501 311.594 155.146 334.785 110.788 304.707C68.5176 276.044 92.2023 211.991 82.7002 161.81C74.042 116.086 32.6468 69.5965 59.0061 31.2446C85.913 -7.90419 144.131 0.91715 191.569 3.41037Z" fill="#F2F0FD"/>
<path d="M274.441 271.103H264.661C263.695 271.101 262.769 270.716 262.087 270.032C261.405 269.347 261.021 268.42 261.021 267.453V259.914C258.425 259.2 255.928 258.164 253.588 256.83L248.286 262.166C247.601 262.848 246.675 263.232 245.708 263.232C244.742 263.232 243.815 262.848 243.131 262.166L236.242 255.264C235.561 254.579 235.179 253.653 235.179 252.687C235.179 251.721 235.561 250.794 236.242 250.11L241.573 244.774C240.234 242.432 239.199 239.929 238.492 237.326H230.954C229.989 237.326 229.063 236.942 228.38 236.259C227.698 235.576 227.314 234.649 227.314 233.683V223.927C227.314 222.961 227.698 222.034 228.38 221.351C229.063 220.667 229.989 220.284 230.954 220.284H238.492C239.199 217.68 240.234 215.177 241.573 212.836L236.242 207.5C235.561 206.816 235.179 205.889 235.179 204.923C235.179 203.957 235.561 203.03 236.242 202.346L243.131 195.444C243.815 194.761 244.742 194.378 245.708 194.378C246.675 194.378 247.601 194.761 248.286 195.444L253.616 200.779C255.956 199.445 258.453 198.409 261.049 197.695V190.136C261.049 189.169 261.433 188.241 262.115 187.557C262.797 186.873 263.723 186.487 264.689 186.485H274.469C275.435 186.487 276.361 186.873 277.043 187.557C277.726 188.241 278.109 189.169 278.109 190.136V197.675C280.705 198.39 283.202 199.426 285.542 200.759L290.872 195.423C291.556 194.741 292.481 194.358 293.447 194.358C294.412 194.358 295.337 194.741 296.021 195.423L302.916 202.325C303.597 203.009 303.98 203.936 303.98 204.902C303.98 205.868 303.597 206.795 302.916 207.479L297.586 212.815C298.924 215.156 299.96 217.659 300.667 220.263H308.204C309.17 220.263 310.095 220.646 310.778 221.33C311.46 222.013 311.844 222.94 311.844 223.906V233.662C311.844 234.628 311.46 235.555 310.778 236.238C310.095 236.921 309.17 237.305 308.204 237.305H300.639C299.932 239.909 298.896 242.411 297.558 244.753L302.888 250.089C303.569 250.773 303.952 251.7 303.952 252.666C303.952 253.632 303.569 254.558 302.888 255.243L295.993 262.166C295.309 262.848 294.384 263.231 293.419 263.231C292.454 263.231 291.528 262.848 290.844 262.166L285.514 256.83C283.174 258.163 280.677 259.199 278.081 259.914V267.453C278.081 268.42 277.698 269.347 277.015 270.032C276.333 270.716 275.407 271.101 274.441 271.103ZM253.351 254.746L253.903 255.075C256.447 256.6 259.201 257.743 262.076 258.467L262.705 258.627V267.453C262.705 267.98 262.914 268.486 263.286 268.86C263.658 269.233 264.162 269.444 264.689 269.446H274.469C274.996 269.444 275.501 269.233 275.873 268.86C276.245 268.486 276.453 267.98 276.453 267.453V258.627L277.075 258.467C279.952 257.745 282.706 256.602 285.249 255.075L285.807 254.746L292.046 260.991C292.417 261.36 292.92 261.567 293.443 261.567C293.966 261.567 294.469 261.36 294.84 260.991L301.728 254.089C302.097 253.717 302.304 253.214 302.304 252.69C302.304 252.166 302.097 251.664 301.728 251.292L295.504 245.033L295.839 244.48C297.359 241.932 298.501 239.176 299.227 236.298L299.381 235.669H308.204C308.73 235.669 309.235 235.459 309.607 235.087C309.979 234.715 310.188 234.209 310.188 233.683V223.927C310.188 223.4 309.979 222.895 309.607 222.523C309.235 222.15 308.73 221.941 308.204 221.941H299.353L299.199 221.312C298.473 218.434 297.331 215.678 295.811 213.13L295.476 212.577L301.714 206.325C302.085 205.954 302.293 205.451 302.293 204.926C302.293 204.402 302.085 203.899 301.714 203.528L294.805 196.619C294.433 196.251 293.931 196.045 293.408 196.045C292.885 196.045 292.383 196.251 292.011 196.619L285.773 202.863L285.214 202.535C282.671 201.007 279.917 199.864 277.04 199.143L276.418 198.982V190.136C276.418 189.608 276.21 189.103 275.838 188.729C275.466 188.355 274.961 188.145 274.434 188.143H264.654C264.127 188.145 263.623 188.355 263.251 188.729C262.879 189.103 262.67 189.608 262.67 190.136V198.961L262.041 199.122C259.166 199.846 256.412 200.989 253.868 202.514L253.316 202.843L247.078 196.598C246.706 196.229 246.204 196.022 245.68 196.022C245.157 196.022 244.655 196.229 244.283 196.598L237.395 203.5C237.025 203.871 236.817 204.374 236.817 204.898C236.817 205.423 237.025 205.926 237.395 206.297L243.634 212.549L243.298 213.102C241.775 215.648 240.634 218.405 239.91 221.284L239.749 221.913H230.954C230.428 221.913 229.923 222.122 229.551 222.495C229.179 222.867 228.97 223.372 228.97 223.899V233.655C228.97 234.181 229.179 234.687 229.551 235.059C229.923 235.431 230.428 235.641 230.954 235.641H239.77L239.931 236.27C240.656 239.148 241.797 241.905 243.319 244.452L243.654 245.005L237.416 251.25C237.047 251.622 236.841 252.124 236.841 252.648C236.841 253.172 237.047 253.675 237.416 254.047L244.304 260.949C244.676 261.318 245.178 261.525 245.701 261.525C246.225 261.525 246.727 261.318 247.099 260.949L253.351 254.746ZM269.565 251.865C265.006 251.865 260.549 250.511 256.757 247.976C252.966 245.44 250.011 241.836 248.267 237.619C246.522 233.402 246.065 228.762 246.955 224.285C247.844 219.809 250.04 215.696 253.264 212.469C256.488 209.242 260.596 207.044 265.068 206.153C269.54 205.263 274.175 205.72 278.387 207.466C282.6 209.213 286.2 212.171 288.734 215.966C291.267 219.761 292.619 224.223 292.619 228.787C292.619 234.908 290.19 240.778 285.867 245.106C281.543 249.434 275.679 251.865 269.565 251.865ZM269.565 207.402C265.335 207.401 261.2 208.655 257.682 211.007C254.165 213.358 251.423 216.702 249.803 220.613C248.184 224.525 247.76 228.83 248.585 232.983C249.41 237.136 251.447 240.951 254.438 243.945C257.429 246.939 261.239 248.978 265.388 249.804C269.537 250.629 273.837 250.205 277.745 248.584C281.652 246.963 284.992 244.218 287.341 240.697C289.69 237.175 290.943 233.036 290.942 228.801C290.937 223.128 288.683 217.688 284.675 213.676C280.667 209.664 275.233 207.408 269.565 207.402Z" fill="white"/>
<path d="M93.0941 119.994L89.0074 117.777C89.4353 116.099 89.6165 114.367 89.5453 112.637L93.9953 111.315C94.1967 111.255 94.3843 111.156 94.5474 111.023C94.7105 110.89 94.8458 110.727 94.9458 110.542C95.0457 110.357 95.1082 110.154 95.1297 109.945C95.1512 109.735 95.1313 109.524 95.0711 109.322L93.4923 104.007C93.3725 103.602 93.0971 103.261 92.7264 103.059C92.3557 102.858 91.9202 102.811 91.5153 102.93L87.0583 104.259C86.1761 102.77 85.0818 101.418 83.8099 100.245L86.0174 96.1539C86.2187 95.781 86.2641 95.3434 86.1436 94.937C86.0231 94.5307 85.7466 94.1887 85.3747 93.986L80.4846 91.3496C80.112 91.1481 79.6749 91.1027 79.2689 91.2233C78.863 91.3439 78.5214 91.6207 78.3189 91.993L76.1463 96.077C74.4697 95.6509 72.7399 95.4719 71.0117 95.5455L69.6913 91.0909C69.6313 90.8892 69.5322 90.7014 69.3996 90.5382C69.267 90.3749 69.1036 90.2394 68.9187 90.1394C68.7338 90.0394 68.5311 89.9769 68.322 89.9553C68.113 89.9338 67.9017 89.9537 67.7004 90.0139L62.398 91.5944C62.1963 91.653 62.0081 91.7509 61.8443 91.8827C61.6805 92.0144 61.5444 92.1772 61.4437 92.3618C61.3431 92.5464 61.2799 92.7491 61.2579 92.9583C61.2358 93.1674 61.2553 93.3789 61.3152 93.5804L62.6426 98.0421C61.1418 98.9293 59.781 100.035 58.6047 101.322L54.49 99.0841C54.3057 98.9834 54.1034 98.9201 53.8946 98.898C53.6859 98.8758 53.4748 98.8952 53.2735 98.955C53.0723 99.0148 52.8848 99.1138 52.7219 99.2464C52.559 99.3789 52.4239 99.5425 52.3244 99.7275L49.6907 104.623C49.4894 104.996 49.444 105.433 49.5645 105.84C49.6849 106.246 49.9615 106.588 50.3334 106.791L54.4411 109.014C54.0159 110.695 53.837 112.429 53.9102 114.161L49.4601 115.448C49.2587 115.508 49.0711 115.608 48.9081 115.74C48.745 115.873 48.6096 116.037 48.5097 116.222C48.4098 116.407 48.3473 116.61 48.3258 116.819C48.3043 117.028 48.3242 117.24 48.3843 117.441L49.9631 122.749C50.0224 122.951 50.1208 123.138 50.2527 123.301C50.3846 123.465 50.5474 123.6 50.7317 123.7C50.916 123.8 51.1183 123.863 51.3269 123.884C51.5354 123.906 51.7462 123.886 51.9471 123.826L56.4041 122.504C57.2858 123.987 58.3803 125.333 59.6526 126.498L57.445 130.582C57.3443 130.767 57.281 130.97 57.2587 131.179C57.2365 131.389 57.2558 131.6 57.3155 131.803C57.3752 132.005 57.4742 132.193 57.6067 132.357C57.7392 132.52 57.9027 132.656 58.0877 132.756L62.9779 135.393C63.3504 135.594 63.7876 135.64 64.1935 135.519C64.5995 135.399 64.9411 135.122 65.1435 134.75L67.3301 130.693C69.0089 131.121 70.7408 131.303 72.4717 131.232L73.7921 135.687C73.8521 135.888 73.9512 136.076 74.0838 136.239C74.2164 136.403 74.3798 136.538 74.5647 136.638C74.7496 136.738 74.9523 136.801 75.1614 136.822C75.3704 136.844 75.5817 136.824 75.7831 136.764L81.0854 135.183C81.2865 135.124 81.4739 135.025 81.637 134.893C81.8 134.761 81.9354 134.598 82.0353 134.414C82.1353 134.229 82.1978 134.027 82.2194 133.818C82.241 133.609 82.2212 133.398 82.1612 133.197L80.8409 128.735C82.3283 127.852 83.6791 126.757 84.8508 125.484L88.9305 127.693C89.3041 127.895 89.7423 127.941 90.1494 127.82C90.5565 127.7 90.8994 127.423 91.1032 127.05L93.7368 122.155C93.9359 121.782 93.9801 121.347 93.8597 120.942C93.7394 120.537 93.4642 120.196 93.0941 119.994ZM65.7164 124.483C63.5244 123.294 61.7341 121.48 60.5716 119.272C59.4091 117.064 58.9267 114.56 59.1853 112.078C59.4438 109.595 60.4319 107.245 62.0244 105.325C63.617 103.404 65.7425 101.999 68.1325 101.288C70.5224 100.576 73.0695 100.59 75.4516 101.327C77.8337 102.065 79.944 103.492 81.5157 105.43C83.0874 107.368 84.05 109.728 84.2818 112.214C84.5136 114.699 84.0041 117.197 82.8179 119.392C81.2244 122.338 78.5274 124.529 75.3203 125.483C72.1132 126.438 68.6586 126.078 65.7164 124.483Z" fill="white"/>
<g opacity="0.36">
<path d="M82.8178 82.7129L79.6741 81.0066C80.0046 79.7146 80.1435 78.3809 80.0863 77.0484L83.5164 76.0274C83.6714 75.9818 83.8159 75.9058 83.9414 75.8039C84.067 75.702 84.1711 75.5762 84.2477 75.4338C84.3244 75.2914 84.3721 75.1352 84.388 74.9742C84.404 74.8132 84.3879 74.6506 84.3407 74.4959L83.1322 70.4119C83.0865 70.2565 83.0106 70.1118 82.909 69.9858C82.8073 69.8599 82.6818 69.7553 82.5397 69.678C82.3976 69.6007 82.2416 69.5522 82.0808 69.5353C81.9199 69.5184 81.7573 69.5335 81.6022 69.5797L78.1791 70.6007C77.4999 69.4542 76.6574 68.4129 75.6782 67.5097L77.3758 64.3627C77.4539 64.2212 77.5031 64.0655 77.5204 63.9047C77.5377 63.7439 77.5229 63.5813 77.4767 63.4263C77.4305 63.2714 77.3539 63.1272 77.2514 63.0022C77.1489 62.8772 77.0226 62.7739 76.8798 62.6983L73.1353 60.6633C72.8479 60.5088 72.5111 60.4744 72.1983 60.5674C71.8856 60.6604 71.6223 60.8733 71.4657 61.1598L69.7681 64.3068C68.4774 63.9762 67.1452 63.8372 65.8141 63.8942L64.7941 60.4675C64.7003 60.1549 64.4869 59.892 64.2003 59.7361C63.9138 59.5803 63.5773 59.544 63.2642 59.6353L59.1705 60.8521C58.8584 60.9459 58.5963 61.1599 58.4417 61.4471C58.2871 61.7343 58.2528 62.0711 58.3461 62.3836L59.3801 65.8173C58.2335 66.4954 57.1931 67.339 56.2923 68.3209L53.1486 66.6145C52.8612 66.4601 52.5244 66.4256 52.2117 66.5186C51.8989 66.6116 51.6356 66.8245 51.479 67.1111L49.4531 70.8664C49.3759 71.0082 49.3275 71.1638 49.3107 71.3244C49.2938 71.4849 49.3089 71.6473 49.355 71.802C49.4011 71.9567 49.4773 72.1007 49.5793 72.2258C49.6812 72.3509 49.8069 72.4546 49.9491 72.5308L53.0927 74.2371C52.7622 75.5292 52.6234 76.8628 52.6806 78.1953L49.2505 79.2163C49.0957 79.2612 48.9514 79.3364 48.8259 79.4376C48.7004 79.5388 48.5963 79.664 48.5196 79.8059C48.4429 79.9478 48.3951 80.1035 48.3791 80.264C48.363 80.4245 48.379 80.5866 48.4261 80.7408L49.5998 84.8319C49.6455 84.9872 49.7213 85.132 49.823 85.2579C49.9246 85.3839 50.0501 85.4885 50.1922 85.5658C50.3344 85.6431 50.4903 85.6916 50.6512 85.7084C50.812 85.7253 50.9747 85.7102 51.1297 85.6641L54.5528 84.6431C55.232 85.7895 56.0745 86.8308 57.0537 87.7341L55.3562 90.881C55.279 91.0228 55.2306 91.1784 55.2138 91.339C55.1969 91.4995 55.212 91.6618 55.2581 91.8166C55.3042 91.9713 55.3804 92.1153 55.4824 92.2404C55.5843 92.3655 55.71 92.4691 55.8522 92.5454L59.5966 94.5804C59.8841 94.7349 60.2208 94.7694 60.5336 94.6764C60.8463 94.5834 61.1097 94.3704 61.2663 94.0839L62.9638 90.937C64.2546 91.2675 65.5868 91.4065 66.9179 91.3496L67.9378 94.7762C68.0317 95.0889 68.2451 95.3517 68.5316 95.5076C68.8182 95.6635 69.1546 95.6997 69.4677 95.6084L73.5545 94.3916C73.8666 94.2978 74.1287 94.0838 74.2832 93.7966C74.4378 93.5095 74.4722 93.1726 74.3788 92.8601L73.3868 89.4334C74.5333 88.7553 75.5738 87.9117 76.4746 86.9298L79.6182 88.6362C79.9057 88.7907 80.2425 88.8252 80.5552 88.7321C80.8679 88.6391 81.1313 88.4262 81.2879 88.1397L83.3138 84.3843C83.3921 84.2422 83.4413 84.086 83.4588 83.9247C83.4762 83.7634 83.4614 83.6002 83.4152 83.4447C83.3691 83.2892 83.2925 83.1444 83.1899 83.0188C83.0873 82.8931 82.9609 82.7892 82.8178 82.7129ZM61.7553 86.1676C60.0654 85.2529 58.6846 83.857 57.7874 82.1565C56.8903 80.456 56.5172 78.5273 56.7153 76.6145C56.9134 74.7017 57.6739 72.8907 58.9004 71.4106C60.127 69.9305 61.7646 68.8479 63.6059 68.2997C65.4473 67.7515 67.4097 67.7624 69.2449 68.331C71.0801 68.8995 72.7055 70.0002 73.9157 71.4938C75.1258 72.9874 75.8661 74.8067 76.0431 76.7216C76.22 78.6365 75.8256 80.5609 74.9097 82.2514C74.303 83.3732 73.4814 84.3645 72.4919 85.1684C71.5024 85.9724 70.3644 86.5734 69.1428 86.937C67.9213 87.3007 66.6402 87.4199 65.3726 87.2879C64.105 87.1559 62.8759 86.7752 61.7553 86.1676Z" fill="#599AF2"/>
</g>
<g opacity="0.18">
<path d="M181.27 38.5787L177.393 36.4807C177.8 34.8826 177.97 33.2331 177.896 31.5855L182.088 30.3267C182.473 30.2117 182.798 29.9485 182.99 29.5947C183.183 29.2409 183.227 28.8252 183.115 28.4385L181.634 23.4104C181.578 23.2189 181.484 23.0403 181.359 22.8851C181.233 22.7299 181.079 22.6011 180.903 22.5062C180.728 22.4112 180.535 22.352 180.337 22.332C180.139 22.312 179.938 22.3315 179.747 22.3894L175.556 23.6412C174.719 22.2279 173.679 20.946 172.468 19.8369L174.564 15.9556C174.658 15.7808 174.717 15.589 174.737 15.3912C174.757 15.1935 174.738 14.9938 174.681 14.8034C174.624 14.6131 174.53 14.4359 174.404 14.282C174.279 14.1281 174.124 14.0005 173.949 13.9066L169.317 11.3891C169.142 11.2945 168.95 11.2354 168.752 11.2151C168.554 11.1948 168.354 11.2138 168.163 11.271C167.972 11.3281 167.795 11.4223 167.641 11.5481C167.486 11.674 167.358 11.8291 167.264 12.0045L165.168 15.8857C163.572 15.4759 161.924 15.3039 160.278 15.3752L159.027 11.1793C158.919 10.7964 158.666 10.4712 158.321 10.2737C157.976 10.0762 157.567 10.0222 157.183 10.1233L152.146 11.6198C151.76 11.7349 151.436 11.9981 151.244 12.3519C151.051 12.7057 151.006 13.1213 151.119 13.508L152.377 17.7389C150.964 18.5789 149.682 19.6202 148.569 20.8299L144.699 18.732C144.522 18.6314 144.327 18.5674 144.125 18.5436C143.923 18.5198 143.718 18.5368 143.523 18.5935C143.328 18.6502 143.146 18.7455 142.988 18.8738C142.83 19.0021 142.699 19.1607 142.603 19.3404L140.102 23.9699C140.008 24.1453 139.949 24.3376 139.929 24.5359C139.908 24.7341 139.927 24.9344 139.984 25.1253C140.041 25.3163 140.136 25.494 140.261 25.6486C140.387 25.8031 140.542 25.9313 140.717 26.0259L144.587 28.1238C144.18 29.722 144.011 31.3715 144.084 33.0191L139.858 34.2779C139.667 34.3348 139.489 34.4288 139.335 34.5545C139.18 34.6802 139.052 34.8351 138.957 35.0105C138.862 35.1858 138.803 35.3781 138.783 35.5764C138.762 35.7747 138.781 35.975 138.838 36.1661L140.333 41.1802C140.389 41.3717 140.482 41.5503 140.608 41.7055C140.733 41.8607 140.888 41.9895 141.063 42.0844C141.239 42.1794 141.431 42.2386 141.63 42.2586C141.828 42.2787 142.028 42.2591 142.219 42.2012L146.411 40.9494C147.25 42.3611 148.29 43.6428 149.498 44.7537L147.403 48.635C147.308 48.8104 147.249 49.0027 147.229 49.201C147.209 49.3992 147.228 49.5995 147.285 49.7904C147.342 49.9813 147.436 50.1591 147.562 50.3137C147.687 50.4682 147.842 50.5964 148.017 50.691L152.635 53.2015C152.99 53.3929 153.406 53.4356 153.793 53.3202C154.179 53.2049 154.504 52.9409 154.696 52.5861L156.792 48.7049C158.388 49.1147 160.036 49.2867 161.682 49.2154L162.939 53.4463C162.996 53.6421 163.091 53.8245 163.22 53.9826C163.348 54.1407 163.507 54.2713 163.687 54.3665C163.867 54.4618 164.064 54.5199 164.267 54.5372C164.47 54.5545 164.674 54.5307 164.867 54.4673L169.904 52.9708C170.095 52.9139 170.273 52.8199 170.427 52.6942C170.582 52.5685 170.71 52.4135 170.805 52.2382C170.9 52.0629 170.959 51.8706 170.979 51.6723C171 51.474 170.981 51.2736 170.924 51.0826L169.667 46.8867C171.079 46.0466 172.361 45.0054 173.474 43.7957L177.351 45.8936C177.704 46.0852 178.119 46.1287 178.504 46.0147C178.889 45.9006 179.213 45.6383 179.405 45.2852L181.906 40.6557C182.003 40.4781 182.064 40.2829 182.084 40.0815C182.105 39.8801 182.085 39.6767 182.025 39.4831C181.966 39.2896 181.869 39.1099 181.739 38.9545C181.609 38.7992 181.45 38.6714 181.27 38.5787ZM155.29 42.8376C153.21 41.7081 151.511 39.9866 150.408 37.8906C149.305 35.7947 148.847 33.4184 149.093 31.0623C149.339 28.7061 150.277 26.4759 151.789 24.6535C153.301 22.8311 155.319 21.4984 157.588 20.8239C159.856 20.1494 162.274 20.1633 164.534 20.8639C166.795 21.5645 168.797 22.9204 170.288 24.7601C171.779 26.5998 172.692 28.8407 172.911 31.1995C173.13 33.5583 172.645 35.9292 171.518 38.0123C170.769 39.3961 169.756 40.6188 168.535 41.6103C167.314 42.6018 165.91 43.3428 164.403 43.7909C162.896 44.239 161.315 44.3855 159.751 44.2219C158.188 44.0583 156.672 43.5879 155.29 42.8376Z" stroke="#4C65BA" stroke-miterlimit="10"/>
</g>
<path d="M113.954 156.638H5.85419C2.62101 156.638 0 159.262 0 162.498V238.34C0 241.577 2.62101 244.2 5.85419 244.2H113.954C117.187 244.2 119.808 241.577 119.808 238.34V162.498C119.808 159.262 117.187 156.638 113.954 156.638Z" fill="white"/>
<path d="M0 180.835V161.086C0 159.906 0.468105 158.775 1.30134 157.941C2.13457 157.107 3.26467 156.638 4.44304 156.638H115.365C116.544 156.638 117.674 157.107 118.507 157.941C119.34 158.775 119.808 159.906 119.808 161.086V180.345L0 180.835Z" fill="#EF929C"/>
<path d="M22.5296 185.562H9.27734V196.178H22.5296V185.562Z" fill="#EF929C"/>
<path opacity="0.54" d="M22.5296 204.136H9.27734V214.752H22.5296V204.136Z" fill="#EF929C"/>
<path opacity="0.54" d="M22.5296 222.179H9.27734V232.794H22.5296V222.179Z" fill="#EF929C"/>
<path opacity="0.54" d="M45.3248 185.562H32.0725V196.178H45.3248V185.562Z" fill="#EF929C"/>
<path d="M45.3248 204.136H32.0725V214.752H45.3248V204.136Z" fill="#EF929C"/>
<path opacity="0.54" d="M45.3248 222.179H32.0725V232.794H45.3248V222.179Z" fill="#EF929C"/>
<g opacity="0.98">
<path opacity="0.5" d="M67.5887 185.562H54.3364V196.178H67.5887V185.562Z" fill="#EF929C"/>
<path opacity="0.5" d="M67.5887 204.136H54.3364V214.752H67.5887V204.136Z" fill="#EF929C"/>
<path d="M67.5887 222.179H54.3364V232.794H67.5887V222.179Z" fill="#EF929C"/>
</g>
<g opacity="0.54">
<path d="M90.3834 185.562H77.1311V196.178H90.3834V185.562Z" fill="#EF929C"/>
<path d="M90.3831 204.136H77.1309V214.752H90.3831V204.136Z" fill="#EF929C"/>
<path d="M90.3831 222.179H77.1309V232.794H90.3831V222.179Z" fill="#EF929C"/>
</g>
<path opacity="0.43" d="M112.124 185.562H98.8716V196.178H112.124V185.562Z" fill="#EF929C"/>
<path d="M112.124 204.136H98.8716V214.752H112.124V204.136Z" fill="#EF929C"/>
<path opacity="0.43" d="M112.124 222.179H98.8716V232.794H112.124V222.179Z" fill="#EF929C"/>
<path d="M39.4704 194.898C41.7853 194.898 43.6619 193.02 43.6619 190.702C43.6619 188.385 41.7853 186.506 39.4704 186.506C37.1554 186.506 35.2788 188.385 35.2788 190.702C35.2788 193.02 37.1554 194.898 39.4704 194.898Z" stroke="white" stroke-miterlimit="10" stroke-linecap="round"/>
<path d="M37.542 187.555L41.0489 193.5" stroke="white" stroke-miterlimit="10" stroke-linecap="round"/>
<path d="M42.2644 188.772L36.3264 192.283" stroke="white" stroke-miterlimit="10" stroke-linecap="round"/>
<path opacity="0.58" d="M14.6776 170.967C17.6059 170.967 19.9799 168.591 19.9799 165.66C19.9799 162.728 17.6059 160.352 14.6776 160.352C11.7492 160.352 9.37524 162.728 9.37524 165.66C9.37524 168.591 11.7492 170.967 14.6776 170.967Z" fill="white"/>
<path d="M14.6707 167.569C14.0524 167.567 13.46 167.32 13.0228 166.883C12.5857 166.445 12.3392 165.852 12.3374 165.233V149.953C12.3392 149.334 12.5857 148.741 13.0228 148.303C13.46 147.866 14.0524 147.619 14.6707 147.617C15.289 147.619 15.8814 147.866 16.3185 148.303C16.7557 148.741 17.0021 149.334 17.004 149.953V165.233C17.0021 165.852 16.7557 166.445 16.3185 166.883C15.8814 167.32 15.289 167.567 14.6707 167.569Z" fill="#3E479B"/>
<path opacity="0.58" d="M30.3746 170.967C33.303 170.967 35.6769 168.591 35.6769 165.66C35.6769 162.728 33.303 160.352 30.3746 160.352C27.4462 160.352 25.0723 162.728 25.0723 165.66C25.0723 168.591 27.4462 170.967 30.3746 170.967Z" fill="white"/>
<path d="M30.3746 167.569C29.7563 167.567 29.1639 167.32 28.7267 166.883C28.2895 166.445 28.0431 165.852 28.0413 165.233V149.953C28.0431 149.334 28.2895 148.741 28.7267 148.303C29.1639 147.866 29.7563 147.619 30.3746 147.617C30.9928 147.619 31.5852 147.866 32.0224 148.303C32.4596 148.741 32.706 149.334 32.7078 149.953V165.233C32.706 165.852 32.4596 166.445 32.0224 166.883C31.5852 167.32 30.9928 167.567 30.3746 167.569Z" fill="#3E479B"/>
<path opacity="0.58" d="M45.178 170.967C48.1064 170.967 50.4803 168.591 50.4803 165.66C50.4803 162.728 48.1064 160.352 45.178 160.352C42.2497 160.352 39.8757 162.728 39.8757 165.66C39.8757 168.591 42.2497 170.967 45.178 170.967Z" fill="white"/>
<path d="M45.1778 167.569C44.5595 167.567 43.9671 167.32 43.5299 166.883C43.0927 166.445 42.8463 165.852 42.8445 165.233V149.953C42.8463 149.334 43.0927 148.741 43.5299 148.303C43.9671 147.866 44.5595 147.619 45.1778 147.617C45.7948 147.621 46.3854 147.868 46.8211 148.306C47.2568 148.743 47.5023 149.335 47.5041 149.953V165.233C47.5023 165.851 47.2568 166.443 46.8211 166.88C46.3854 167.318 45.7948 167.565 45.1778 167.569Z" fill="#3E479B"/>
<path opacity="0.58" d="M60.8751 170.967C63.8034 170.967 66.1774 168.591 66.1774 165.66C66.1774 162.728 63.8034 160.352 60.8751 160.352C57.9467 160.352 55.5728 162.728 55.5728 165.66C55.5728 168.591 57.9467 170.967 60.8751 170.967Z" fill="white"/>
<path d="M60.875 167.569C60.2568 167.567 59.6644 167.32 59.2272 166.883C58.79 166.445 58.5436 165.852 58.5417 165.233V149.953C58.5436 149.334 58.79 148.741 59.2272 148.303C59.6644 147.866 60.2568 147.619 60.875 147.617C61.4933 147.619 62.0857 147.866 62.5229 148.303C62.9601 148.741 63.2065 149.334 63.2083 149.953V165.233C63.2065 165.852 62.9601 166.445 62.5229 166.883C62.0857 167.32 61.4933 167.567 60.875 167.569Z" fill="#3E479B"/>
<path opacity="0.58" d="M75.6365 170.967C78.5649 170.967 80.9388 168.591 80.9388 165.66C80.9388 162.728 78.5649 160.352 75.6365 160.352C72.7081 160.352 70.3342 162.728 70.3342 165.66C70.3342 168.591 72.7081 170.967 75.6365 170.967Z" fill="white"/>
<path d="M75.6366 167.569C75.019 167.567 74.4273 167.32 73.9912 166.882C73.5552 166.444 73.3103 165.851 73.3103 165.233V149.953C73.3103 149.335 73.5552 148.741 73.9912 148.304C74.4273 147.866 75.019 147.619 75.6366 147.617C76.2549 147.619 76.8473 147.866 77.2845 148.303C77.7216 148.741 77.9681 149.334 77.9699 149.953V165.233C77.9681 165.852 77.7216 166.445 77.2845 166.883C76.8473 167.32 76.2549 167.567 75.6366 167.569Z" fill="#3E479B"/>
<path opacity="0.58" d="M91.3411 170.967C94.2695 170.967 96.6434 168.591 96.6434 165.66C96.6434 162.728 94.2695 160.352 91.3411 160.352C88.4127 160.352 86.0388 162.728 86.0388 165.66C86.0388 168.591 88.4127 170.967 91.3411 170.967Z" fill="white"/>
<path d="M91.3409 167.569C90.7226 167.567 90.1302 167.32 89.693 166.883C89.2558 166.445 89.0094 165.852 89.0076 165.233V149.953C89.0094 149.334 89.2558 148.741 89.693 148.303C90.1302 147.866 90.7226 147.619 91.3409 147.617C91.9591 147.619 92.5515 147.866 92.9887 148.303C93.4259 148.741 93.6723 149.334 93.6742 149.953V165.233C93.6723 165.852 93.4259 166.445 92.9887 166.883C92.5515 167.32 91.9591 167.567 91.3409 167.569Z" fill="#3E479B"/>
<path opacity="0.58" d="M106.144 170.967C109.072 170.967 111.446 168.591 111.446 165.66C111.446 162.728 109.072 160.352 106.144 160.352C103.215 160.352 100.842 162.728 100.842 165.66C100.842 168.591 103.215 170.967 106.144 170.967Z" fill="white"/>
<path d="M106.144 167.569C105.526 167.567 104.933 167.32 104.496 166.883C104.059 166.445 103.813 165.852 103.811 165.233V149.953C103.813 149.334 104.059 148.741 104.496 148.303C104.933 147.866 105.526 147.619 106.144 147.617C106.762 147.619 107.355 147.866 107.792 148.303C108.229 148.741 108.476 149.334 108.477 149.953V165.233C108.476 165.852 108.229 166.445 107.792 166.883C107.355 167.32 106.762 167.567 106.144 167.569Z" fill="#3E479B"/>
<path d="M72.416 275.53C89.6314 275.53 103.587 261.394 103.587 243.956C103.587 226.518 89.6314 212.381 72.416 212.381C55.2007 212.381 41.2449 226.518 41.2449 243.956C41.2449 261.394 55.2007 275.53 72.416 275.53Z" fill="#599AF2"/>
<path d="M72.4158 268.222C85.6494 268.222 96.3775 257.358 96.3775 243.956C96.3775 230.554 85.6494 219.689 72.4158 219.689C59.1821 219.689 48.4541 230.554 48.4541 243.956C48.4541 257.358 59.1821 268.222 72.4158 268.222Z" fill="white"/>
<path d="M72.9537 225.731H71.8848C71.5376 225.731 71.2561 226.013 71.2561 226.361V241.578C71.2561 241.926 71.5376 242.207 71.8848 242.207H72.9537C73.3009 242.207 73.5824 241.926 73.5824 241.578V226.361C73.5824 226.013 73.3009 225.731 72.9537 225.731Z" fill="#599AF2"/>
<path d="M85.7036 244.893V243.823C85.7036 243.475 85.4221 243.193 85.0749 243.193H73.115C72.7678 243.193 72.4863 243.475 72.4863 243.823V244.893C72.4863 245.241 72.7678 245.522 73.115 245.522H85.0749C85.4221 245.522 85.7036 245.241 85.7036 244.893Z" fill="#599AF2"/>
<path d="M75.9022 243.984C75.9022 244.675 75.6973 245.351 75.3135 245.926C74.9297 246.501 74.3842 246.949 73.7459 247.214C73.1077 247.479 72.4053 247.548 71.7278 247.413C71.0502 247.278 70.4278 246.945 69.9393 246.456C69.4508 245.967 69.1182 245.344 68.9834 244.666C68.8486 243.987 68.9178 243.284 69.1821 242.645C69.4465 242.007 69.8942 241.46 70.4686 241.076C71.043 240.692 71.7184 240.487 72.4092 240.487C73.3356 240.487 74.2241 240.855 74.8791 241.511C75.5342 242.167 75.9022 243.056 75.9022 243.984Z" fill="#3E479B"/>
<path d="M51.2625 110.357H23.8498C23.6991 110.356 23.5497 110.385 23.4103 110.443C23.2709 110.5 23.1442 110.584 23.0376 110.691C22.931 110.798 22.8467 110.925 22.7894 111.064C22.7322 111.204 22.7032 111.353 22.7041 111.504V131.512C22.7032 131.663 22.7322 131.812 22.7894 131.952C22.8467 132.091 22.931 132.218 23.0376 132.325C23.1442 132.431 23.2709 132.516 23.4103 132.573C23.5497 132.63 23.6991 132.66 23.8498 132.659H51.2625C51.564 132.655 51.8518 132.532 52.0636 132.318C52.2755 132.103 52.3943 131.813 52.3942 131.512V111.504C52.3943 111.202 52.2755 110.913 52.0636 110.698C51.8518 110.483 51.564 110.361 51.2625 110.357Z" fill="white"/>
<path opacity="0.8" d="M34.2309 120.329L37.2418 121.91C37.3283 121.958 37.4257 121.984 37.5247 121.984C37.6238 121.984 37.7212 121.958 37.8077 121.91L51.1577 114.042L52.1637 113.455C52.2345 113.413 52.3128 113.384 52.3942 113.371V111.511C52.3942 111.36 52.3644 111.21 52.3064 111.07C52.2484 110.931 52.1633 110.804 52.0562 110.697C51.9491 110.591 51.822 110.507 51.6822 110.449C51.5423 110.392 51.3926 110.363 51.2416 110.364H23.8498C23.6991 110.363 23.5497 110.392 23.4103 110.449C23.2709 110.507 23.1442 110.591 23.0376 110.698C22.931 110.805 22.8467 110.931 22.7894 111.071C22.7322 111.21 22.7032 111.36 22.7041 111.511V114.462L23.4027 114.826L34.2309 120.329Z" fill="#599AF2"/>
<path opacity="0.8" d="M22.7041 115.896V130.092L33.3227 121.302L22.7041 115.896Z" fill="#599AF2"/>
<path opacity="0.8" d="M52.415 130.169V114.805L41.6707 121.134L52.415 130.169Z" fill="#599AF2"/>
<path opacity="0.8" d="M51.6957 131.225L40.5182 121.826L38.4713 123.001C38.1865 123.165 37.8638 123.252 37.5352 123.253C37.2307 123.254 36.9306 123.179 36.662 123.036L34.5662 121.924C34.5392 121.964 34.5062 121.999 34.4684 122.029L23.3538 131.225C23.2375 131.32 23.0919 131.372 22.9416 131.372C22.8598 131.373 22.7788 131.356 22.7041 131.323V131.512C22.7032 131.663 22.7322 131.812 22.7894 131.952C22.8467 132.091 22.931 132.218 23.0376 132.325C23.1442 132.431 23.2709 132.516 23.4103 132.573C23.5497 132.63 23.6991 132.659 23.8498 132.659H51.2625C51.564 132.655 51.8518 132.532 52.0636 132.318C52.2755 132.103 52.3943 131.813 52.3942 131.512V131.274C52.2802 131.345 52.1467 131.378 52.0126 131.37C51.8786 131.361 51.7506 131.31 51.6468 131.225H51.6957Z" fill="#599AF2"/>
<path d="M52.3942 113.364C52.3127 113.377 52.2345 113.406 52.1637 113.448L51.1577 114.036L37.8286 121.903C37.7421 121.951 37.6447 121.977 37.5457 121.977C37.4466 121.977 37.3492 121.951 37.2627 121.903L34.2309 120.33L23.4306 114.819L22.732 114.455V115.896L33.3506 121.302L22.7041 130.092V131.323C22.7787 131.356 22.8598 131.373 22.9416 131.372C23.0918 131.372 23.2375 131.32 23.3538 131.225L34.4474 122.043C34.4852 122.013 34.5182 121.978 34.5452 121.938L36.641 123.05C36.9096 123.193 37.2097 123.268 37.5142 123.267C37.8428 123.266 38.1655 123.179 38.4503 123.015L40.4693 121.826L51.6467 131.225C51.7506 131.31 51.8785 131.361 52.0126 131.37C52.1467 131.378 52.2802 131.345 52.3942 131.274V130.169L41.6708 121.134L52.3942 114.805V113.364Z" fill="#4C65BA"/>
<path d="M177.791 260.635C237.98 260.635 286.772 211.791 286.772 151.54C286.772 91.2892 237.98 42.446 177.791 42.446C117.603 42.446 68.8113 91.2892 68.8113 151.54C68.8113 211.791 117.603 260.635 177.791 260.635Z" fill="#3E479B"/>
<path opacity="0.55" d="M177.791 250.69C232.493 250.69 276.838 206.299 276.838 151.54C276.838 96.7813 232.493 52.3904 177.791 52.3904C123.09 52.3904 78.7451 96.7813 78.7451 151.54C78.7451 206.299 123.09 250.69 177.791 250.69Z" fill="white"/>
<path d="M177.792 240.571C226.911 240.571 266.729 200.71 266.729 151.54C266.729 102.37 226.911 62.5095 177.792 62.5095C128.673 62.5095 88.854 102.37 88.854 151.54C88.854 200.71 128.673 240.571 177.792 240.571Z" fill="white"/>
<path d="M177.729 66.4047H177.554C176.277 66.4047 175.242 67.441 175.242 68.7194V80.3072C175.242 81.5856 176.277 82.6219 177.554 82.6219H177.729C179.006 82.6219 180.041 81.5856 180.041 80.3072V68.7194C180.041 67.441 179.006 66.4047 177.729 66.4047Z" fill="#373449"/>
<path d="M178.029 220.458H177.854C176.577 220.458 175.542 221.495 175.542 222.773V234.361C175.542 235.639 176.577 236.676 177.854 236.676H178.029C179.306 236.676 180.341 235.639 180.341 234.361V222.773C180.341 221.495 179.306 220.458 178.029 220.458Z" fill="#373449"/>
<path d="M262.838 151.477V151.302C262.838 150.024 261.803 148.988 260.526 148.988H248.95C247.673 148.988 246.638 150.024 246.638 151.302V151.477C246.638 152.756 247.673 153.792 248.95 153.792H260.526C261.803 153.792 262.838 152.756 262.838 151.477Z" fill="#373449"/>
<path d="M108.946 151.778V151.603C108.946 150.325 107.91 149.288 106.633 149.288H95.0576C93.7805 149.288 92.7452 150.325 92.7452 151.603V151.778C92.7452 153.056 93.7805 154.093 95.0576 154.093H106.633C107.91 154.093 108.946 153.056 108.946 151.778Z" fill="#373449"/>
<path d="M236.086 93.0951L235.963 92.9715C235.06 92.0672 233.596 92.0667 232.692 92.9703L228.463 97.2017C227.559 98.1054 227.559 99.571 228.461 100.475L228.585 100.599C229.488 101.503 230.952 101.504 231.855 100.6L236.085 96.3687C236.988 95.465 236.989 93.9994 236.086 93.0951Z" fill="#373449"/>
<path d="M127.995 201.703L127.871 201.579C126.969 200.675 125.505 200.675 124.601 201.578L119.398 206.783C118.494 207.687 118.494 209.153 119.397 210.057L119.52 210.181C120.423 211.085 121.887 211.086 122.79 210.182L127.994 204.977C128.897 204.073 128.897 202.607 127.995 201.703Z" fill="#373449"/>
<path d="M236.183 209.957L236.306 209.834C237.21 208.93 237.21 207.464 236.308 206.56L232.081 202.326C231.178 201.421 229.714 201.421 228.81 202.325L228.687 202.448C227.784 203.352 227.783 204.817 228.686 205.722L232.913 209.956C233.816 210.86 235.28 210.861 236.183 209.957Z" fill="#373449"/>
<path d="M127.674 101.769L127.797 101.646C128.701 100.742 128.701 99.2765 127.798 98.3722L122.599 93.1633C121.696 92.259 120.232 92.2585 119.328 93.1621L119.205 93.2857C118.302 94.1894 118.301 95.655 119.204 96.5593L124.404 101.768C125.306 102.672 126.77 102.673 127.674 101.769Z" fill="#373449"/>
<path d="M177.861 91.9021H177.659C176.25 91.9021 175.109 93.0449 175.109 94.4546V150.365C175.109 151.775 176.25 152.918 177.659 152.918H177.861C179.27 152.918 180.411 151.775 180.411 150.365V94.4546C180.411 93.0449 179.27 91.9021 177.861 91.9021Z" fill="#3E479B"/>
<path d="M218.834 155.009V154.806C218.834 153.396 217.692 152.254 216.284 152.254H177.659C176.251 152.254 175.109 153.396 175.109 154.806V155.009C175.109 156.419 176.251 157.562 177.659 157.562H216.284C217.692 157.562 218.834 156.419 218.834 155.009Z" fill="#3E479B"/>
<path d="M217.842 115.448L178.092 151.261" stroke="#373449" stroke-width="2" stroke-miterlimit="10" stroke-linecap="round"/>
<path d="M177.791 161.156C183.096 161.156 187.397 156.851 187.397 151.54C187.397 146.23 183.096 141.925 177.791 141.925C172.486 141.925 168.186 146.23 168.186 151.54C168.186 156.851 172.486 161.156 177.791 161.156Z" fill="#4C65BA"/>
<g opacity="0.77">
<path opacity="0.39" d="M337.035 111.448L334.527 110.084C334.768 109.087 334.858 108.059 334.793 107.035L337.489 106.294C337.609 106.262 337.722 106.206 337.82 106.129C337.917 106.052 337.999 105.956 338.058 105.847C338.118 105.738 338.154 105.618 338.166 105.494C338.177 105.37 338.163 105.245 338.125 105.126L337.098 101.951C337.026 101.698 336.858 101.483 336.629 101.352C336.401 101.221 336.13 101.185 335.876 101.252L333.179 102.021C332.623 101.122 331.94 100.307 331.153 99.6016L332.452 97.196C332.57 96.9688 332.593 96.7041 332.515 96.4602C332.438 96.2163 332.267 96.013 332.04 95.8952L329.036 94.2728C328.815 94.1463 328.552 94.1127 328.306 94.1796C328.06 94.2464 327.85 94.4082 327.723 94.6295L326.424 97.0351C325.401 96.7636 324.345 96.6388 323.287 96.6645L322.428 94.0001C322.354 93.7476 322.186 93.5335 321.958 93.403C321.73 93.2725 321.46 93.2359 321.205 93.3008L317.992 94.1749C317.871 94.2068 317.757 94.2631 317.659 94.3404C317.561 94.4178 317.479 94.5145 317.42 94.6246C317.36 94.7347 317.324 94.8558 317.313 94.9806C317.302 95.1053 317.316 95.2309 317.356 95.3498L318.215 98.0142C317.322 98.5195 316.51 99.156 315.805 99.9024L313.29 98.5037C313.181 98.4406 313.06 98.3998 312.935 98.3839C312.809 98.3681 312.682 98.3773 312.561 98.4112C312.439 98.445 312.325 98.5028 312.226 98.5811C312.127 98.6595 312.045 98.7568 311.984 98.8674L310.426 101.735C310.311 101.962 310.291 102.226 310.369 102.468C310.448 102.71 310.619 102.912 310.845 103.028L313.36 104.427C313.119 105.424 313.03 106.452 313.094 107.476L310.391 108.217C310.271 108.249 310.159 108.305 310.061 108.382C309.963 108.459 309.883 108.555 309.824 108.665C309.765 108.774 309.729 108.895 309.718 109.019C309.708 109.143 309.723 109.267 309.762 109.385L310.782 112.567C310.864 112.812 311.036 113.016 311.263 113.138C311.49 113.26 311.756 113.291 312.005 113.224L314.701 112.525C315.262 113.421 315.944 114.236 316.727 114.945L315.428 117.35C315.37 117.463 315.335 117.587 315.324 117.713C315.314 117.84 315.329 117.967 315.368 118.088C315.407 118.209 315.469 118.321 315.551 118.417C315.633 118.514 315.734 118.593 315.847 118.651L318.844 120.274C319.065 120.4 319.328 120.434 319.574 120.367C319.82 120.3 320.03 120.138 320.157 119.917L321.457 117.511C322.479 117.783 323.535 117.908 324.593 117.882L325.446 120.553C325.529 120.797 325.701 121 325.928 121.122C326.155 121.244 326.419 121.276 326.668 121.211L329.889 120.337C330.01 120.305 330.123 120.249 330.221 120.171C330.319 120.094 330.4 119.997 330.459 119.886C330.518 119.776 330.554 119.655 330.564 119.53C330.574 119.405 330.558 119.28 330.517 119.162L329.665 116.497C330.557 115.994 331.367 115.357 332.068 114.609L334.625 116.008C334.847 116.134 335.111 116.166 335.357 116.098C335.603 116.03 335.812 115.867 335.938 115.644L337.489 112.777C337.552 112.661 337.589 112.533 337.6 112.402C337.611 112.27 337.594 112.138 337.552 112.013C337.509 111.889 337.441 111.774 337.352 111.677C337.263 111.58 337.156 111.502 337.035 111.448ZM320.409 113.805C319.164 113.051 318.168 111.948 317.544 110.633C316.92 109.317 316.695 107.847 316.899 106.405C317.102 104.963 317.724 103.612 318.687 102.521C319.651 101.43 320.913 100.646 322.318 100.267C323.723 99.8874 325.207 99.9295 326.588 100.388C327.969 100.846 329.185 101.7 330.086 102.844C330.986 103.988 331.53 105.372 331.652 106.823C331.773 108.274 331.466 109.73 330.769 111.008C329.763 112.751 328.108 114.025 326.166 114.549C324.224 115.073 322.154 114.806 320.409 113.805Z" fill="#599AF2"/>
</g>
<g opacity="0.39">
<path d="M359.956 74.5379L355.869 72.321C356.297 70.643 356.479 68.9114 356.407 67.181L360.857 65.8593C361.059 65.7992 361.246 65.7 361.409 65.5673C361.573 65.4346 361.708 65.271 361.808 65.0859C361.908 64.9008 361.97 64.6978 361.992 64.4886C362.013 64.2793 361.993 64.0678 361.933 63.8662L360.354 58.5514C360.235 58.1463 359.959 57.8054 359.588 57.6035C359.218 57.4016 358.782 57.3552 358.377 57.4744L353.92 58.8032C353.045 57.3156 351.957 55.9634 350.693 54.789L352.9 50.698C353.102 50.3251 353.147 49.8875 353.027 49.4811C352.906 49.0747 352.63 48.7327 352.258 48.5301L347.368 45.8937C346.995 45.6922 346.558 45.6467 346.152 45.7673C345.746 45.8879 345.404 46.1647 345.202 46.537L343.008 50.6211C341.332 50.195 339.602 50.016 337.874 50.0896L336.553 45.6349C336.493 45.4333 336.394 45.2455 336.262 45.0823C336.129 44.919 335.966 44.7835 335.781 44.6835C335.596 44.5835 335.393 44.5209 335.184 44.4994C334.975 44.4778 334.764 44.4977 334.562 44.558L329.26 46.1384C329.058 46.197 328.87 46.295 328.706 46.4267C328.543 46.5584 328.406 46.7213 328.306 46.9059C328.205 47.0905 328.142 47.2932 328.12 47.5023C328.098 47.7115 328.117 47.9229 328.177 48.1245L329.505 52.5862C328.004 53.4733 326.643 54.5787 325.467 55.866L321.352 53.6282C321.168 53.5275 320.965 53.4642 320.757 53.442C320.548 53.4199 320.337 53.4393 320.136 53.499C319.934 53.5588 319.747 53.6579 319.584 53.7904C319.421 53.923 319.286 54.0865 319.186 54.2715L316.553 59.1668C316.351 59.5397 316.306 59.9773 316.427 60.3837C316.547 60.7901 316.823 61.1321 317.195 61.3347L321.303 63.5585C320.878 65.2394 320.699 66.9732 320.772 68.7056L316.322 69.9923C316.121 70.0524 315.933 70.1516 315.77 70.2843C315.607 70.417 315.472 70.5806 315.372 70.7657C315.272 70.9508 315.209 71.1538 315.188 71.363C315.166 71.5723 315.186 71.7838 315.246 71.9854L316.825 77.2932C316.884 77.4946 316.983 77.6822 317.115 77.8454C317.247 78.0086 317.409 78.1441 317.594 78.2442C317.778 78.3442 317.98 78.4069 318.189 78.4285C318.397 78.4501 318.608 78.4303 318.809 78.3702L323.266 77.0485C324.146 78.539 325.241 79.8915 326.515 81.0626L324.307 85.1466C324.206 85.3316 324.143 85.5347 324.121 85.7442C324.099 85.9537 324.118 86.1655 324.178 86.3676C324.237 86.5696 324.336 86.7579 324.469 86.9216C324.601 87.0853 324.765 87.2212 324.95 87.3215L329.84 89.958C330.212 90.1595 330.65 90.2049 331.056 90.0843C331.462 89.9637 331.803 89.6869 332.006 89.3146L334.213 85.2235C335.892 85.6515 337.624 85.8329 339.355 85.762L340.675 90.2167C340.735 90.4183 340.834 90.6061 340.967 90.7694C341.099 90.9326 341.263 91.0681 341.448 91.1681C341.633 91.2681 341.835 91.3307 342.044 91.3522C342.253 91.3738 342.465 91.3539 342.666 91.2937L347.968 89.7132C348.17 89.6539 348.357 89.5553 348.52 89.4233C348.683 89.2913 348.818 89.1283 348.918 88.9438C349.018 88.7593 349.081 88.5568 349.102 88.348C349.124 88.1392 349.104 87.9282 349.044 87.7271L347.724 83.2654C349.211 82.3823 350.562 81.2868 351.734 80.0136L355.814 82.2234C356.187 82.4253 356.625 82.4709 357.032 82.3503C357.44 82.2298 357.782 81.9529 357.986 81.5801L360.62 76.6848C360.813 76.3114 360.852 75.8769 360.727 75.4753C360.603 75.0736 360.326 74.7369 359.956 74.5379ZM332.578 79.0275C330.387 77.8378 328.596 76.0243 327.434 73.8161C326.271 71.608 325.789 69.1045 326.047 66.6219C326.306 64.1394 327.294 61.7893 328.886 59.8688C330.479 57.9482 332.605 56.5434 334.995 55.8319C337.384 55.1205 339.932 55.1342 342.314 55.8715C344.696 56.6088 346.806 58.0365 348.378 59.9742C349.949 61.9119 350.912 64.2725 351.144 66.7577C351.376 69.2429 350.866 71.7411 349.68 73.9365C348.086 76.8817 345.389 79.0726 342.182 80.0273C338.975 80.9821 335.521 80.6225 332.578 79.0275Z" fill="white"/>
</g>
<path d="M298.822 24.0537H280.463V34.6834H298.822V24.0537Z" fill="#3E479B"/>
<path d="M300.387 20.0677H278.892C278.128 20.0677 277.508 20.6876 277.508 21.4522V25.9901C277.508 26.7547 278.128 27.3745 278.892 27.3745H300.387C301.151 27.3745 301.77 26.7547 301.77 25.9901V21.4522C301.77 20.6876 301.151 20.0677 300.387 20.0677Z" fill="#4C65BA"/>
<path d="M289.643 121.469C313.907 121.469 333.577 101.547 333.577 76.9715C333.577 52.396 313.907 32.4736 289.643 32.4736C265.379 32.4736 245.708 52.396 245.708 76.9715C245.708 101.547 265.379 121.469 289.643 121.469Z" fill="#EF929C"/>
<path d="M289.643 111.175C308.294 111.175 323.413 95.8618 323.413 76.9715C323.413 58.0813 308.294 42.7677 289.643 42.7677C270.992 42.7677 255.873 58.0813 255.873 76.9715C255.873 95.8618 270.992 111.175 289.643 111.175Z" fill="white"/>
<path opacity="0.81" d="M319.808 91.937C317.118 97.6153 312.894 102.426 307.614 105.825C302.334 109.224 296.208 111.074 289.931 111.168C283.654 111.261 277.477 109.593 272.098 106.352C266.72 103.112 262.355 98.4281 259.498 92.8321C258.276 90.4614 273.156 77.1533 288.776 76.9575C304.397 76.7617 320.898 89.6712 319.808 91.937Z" fill="#ECF1F7"/>
<path opacity="0.55" d="M308.477 99.1611C306.806 102.716 304.172 105.729 300.874 107.859C297.577 109.988 293.748 111.148 289.824 111.207C285.9 111.265 282.039 110.219 278.68 108.189C275.32 106.158 272.598 103.224 270.823 99.7205C270.061 98.2449 279.353 89.93 289.098 89.8111C298.843 89.6922 309.155 97.7484 308.477 99.1611Z" fill="white"/>
<path d="M290.656 51.2854H288.637C288.29 51.2854 288.008 51.5672 288.008 51.9148V73.8805C288.008 74.2281 288.29 74.5099 288.637 74.5099H290.656C291.003 74.5099 291.285 74.2281 291.285 73.8805V51.9148C291.285 51.5672 291.003 51.2854 290.656 51.2854Z" fill="#EF929C"/>
<path d="M289.643 81.9507C292.355 81.9507 294.554 79.7214 294.554 76.9715C294.554 74.2216 292.355 71.9923 289.643 71.9923C286.93 71.9923 284.731 74.2216 284.731 76.9715C284.731 79.7214 286.93 81.9507 289.643 81.9507Z" fill="#3E479B"/>
<path d="M318.851 137.554H300.799C300.599 137.554 300.407 137.633 300.266 137.775C300.124 137.917 300.045 138.109 300.045 138.309V151.484C300.045 151.685 300.124 151.877 300.266 152.018C300.407 152.16 300.599 152.239 300.799 152.239H318.851C319.051 152.239 319.243 152.16 319.384 152.018C319.526 151.877 319.605 151.685 319.605 151.484V138.309C319.605 138.109 319.526 137.917 319.384 137.775C319.243 137.633 319.051 137.554 318.851 137.554Z" fill="white"/>
<path opacity="0.8" d="M307.653 144.12L309.63 145.162C309.687 145.195 309.752 145.212 309.818 145.212C309.884 145.212 309.949 145.195 310.007 145.162L318.795 139.987L319.452 139.596C319.5 139.57 319.552 139.554 319.605 139.547V138.316C319.605 138.116 319.526 137.924 319.384 137.782C319.243 137.64 319.051 137.561 318.851 137.561H300.799C300.599 137.561 300.407 137.64 300.266 137.782C300.124 137.924 300.045 138.116 300.045 138.316V140.26L300.52 140.505L307.653 144.12Z" fill="#599AF2"/>
<path opacity="0.8" d="M300.045 141.204V150.547L307.038 144.764L300.045 141.204Z" fill="#599AF2"/>
<path opacity="0.8" d="M319.605 150.603V140.484L312.529 144.652L319.605 150.603Z" fill="#599AF2"/>
<path opacity="0.8" d="M319.116 151.295L311.76 145.106L310.426 145.89C310.239 145.998 310.027 146.056 309.811 146.057C309.611 146.058 309.414 146.007 309.238 145.911L307.841 145.211L307.778 145.281L300.471 151.322C300.394 151.385 300.298 151.42 300.199 151.42C300.148 151.43 300.096 151.43 300.045 151.42V151.546C300.045 151.746 300.124 151.939 300.266 152.08C300.407 152.222 300.599 152.301 300.799 152.301H318.851C319.051 152.301 319.243 152.222 319.384 152.08C319.526 151.939 319.605 151.746 319.605 151.546V151.392C319.541 151.433 319.466 151.455 319.389 151.455C319.281 151.438 319.184 151.381 319.116 151.295Z" fill="#599AF2"/>
<path d="M319.605 139.54C319.552 139.547 319.5 139.563 319.452 139.589L318.795 139.98L310.007 145.155C309.949 145.188 309.884 145.205 309.818 145.205C309.752 145.205 309.687 145.188 309.63 145.155L307.653 144.113L300.52 140.484L300.045 140.239V141.183L307.031 144.743L300.045 150.526V151.337C300.096 151.347 300.148 151.347 300.199 151.337C300.298 151.337 300.394 151.303 300.471 151.24L307.778 145.197L307.841 145.128L309.238 145.827C309.414 145.923 309.611 145.974 309.811 145.974C310.027 145.972 310.239 145.915 310.426 145.806L311.76 145.023L319.116 151.212C319.193 151.275 319.29 151.309 319.389 151.31C319.466 151.309 319.541 151.287 319.605 151.247V150.547L312.529 144.68L319.605 140.484V139.54Z" fill="#4C65BA"/>
</svg>
