<svg width="364" height="330" viewBox="0 0 364 330" fill="none" xmlns="http://www.w3.org/2000/svg">
<path fill-rule="evenodd" clip-rule="evenodd" d="M348.996 151.602C351.525 196.637 359.572 249.884 325.611 279.657C291.968 309.151 240.223 294.915 196.478 285.31C162.308 277.807 136.555 255.772 110.538 232.433C80.9501 205.891 41.9267 182.925 38.2852 143.399C34.416 101.4 59.9084 61.386 92.2809 34.2643C122.926 8.59003 163.892 3.32669 203.89 4.65463C243.543 5.97108 284.4 13.3695 312.244 41.567C340.517 70.1993 346.744 111.476 348.996 151.602Z" fill="#F2F0FD"/>
<path d="M69.2689 262.452L69.1227 262.525C69.0172 262.574 68.8953 262.606 68.7817 262.647H68.7248C68.7184 262.65 68.7115 262.651 68.7045 262.651C68.6975 262.651 68.6906 262.65 68.6842 262.647H68.6192L68.2782 262.744H68.1726H68.0508H67.994C67.9876 262.741 67.9807 262.74 67.9737 262.74C67.9666 262.74 67.9597 262.741 67.9533 262.744L67.6772 262.825H67.6366L67.393 262.915C67.3291 262.923 67.2663 262.94 67.2062 262.963H67.1575H67.0844H67.0114L66.8246 263.028H66.719H66.6297H66.5566L66.2561 263.118C66.2004 263.128 66.146 263.144 66.0937 263.166L65.8988 263.223L65.777 263.264C65.7528 263.267 65.7282 263.267 65.7039 263.264C65.6883 263.257 65.6708 263.257 65.6552 263.264H65.5984H65.5172H65.4522H65.3466L65.1517 263.32L64.9568 263.385C64.8762 263.402 64.7974 263.427 64.7213 263.458L64.4858 263.532L64.3559 263.572H64.2666L64.1204 263.621H64.0554L63.8849 263.686H63.7875C63.7305 263.712 63.6705 263.731 63.6088 263.743H63.5195H63.4464C63.4169 263.737 63.3866 263.737 63.3571 263.743H63.3083H63.2677C63.2677 263.743 63.2677 263.743 63.219 263.743H63.1703C63.1122 263.754 63.0551 263.77 62.9998 263.791L62.6587 263.889L62.2283 264.01C62.0009 264.067 61.7817 264.132 61.538 264.181L61.0752 264.278L60.8803 264.319C60.5392 264.376 60.1981 264.416 59.8652 264.449L59.1993 264.514C58.7689 264.514 58.3872 264.514 58.0137 264.514C57.6401 264.514 57.5183 264.514 57.2747 264.514C56.9731 264.506 56.6721 264.482 56.3733 264.441C56.21 264.431 56.0473 264.412 55.8861 264.384C55.748 264.384 55.6181 264.343 55.48 264.335L54.8466 264.221C54.4487 264.132 53.8396 263.986 53.2225 263.807C52.9789 263.743 52.7515 263.669 52.516 263.588L52.0044 263.402C51.5577 263.231 51.1436 263.053 50.7619 262.882C50.2431 262.657 49.7363 262.405 49.2434 262.127L48.6749 261.795L48.3826 261.616C47.8141 261.251 47.3106 260.918 46.7584 260.545C46.5392 260.382 46.3362 260.236 46.1656 260.09C45.9951 259.944 45.7352 259.774 45.516 259.595C45.2967 259.416 44.8014 258.97 44.3872 258.597C44.1761 258.41 43.9812 258.215 43.7863 258.037C43.1447 257.428 42.5844 256.843 42.0809 256.292C41.9474 256.162 41.8226 256.024 41.7074 255.878C41.4638 255.602 41.2445 255.342 41.0334 255.066L40.6192 254.579L40.1076 255.147L39.6204 254.538C38.8083 253.475 37.8014 252.103 36.7944 250.569C36.6563 250.358 36.5264 250.139 36.3884 249.936C35.5276 248.573 34.6505 247.112 33.8547 245.61C33.4649 244.88 32.9452 243.889 32.3199 242.648C32.2116 242.404 32.0898 242.153 31.9545 241.893C31.4916 240.935 30.9962 239.839 30.4846 238.646C30.4116 238.476 30.3466 238.33 30.2898 238.167L30.103 237.705C30.0136 237.51 29.9406 237.315 29.8594 237.12C29.7782 236.926 29.7457 236.828 29.6888 236.682C29.2584 235.603 28.8768 234.531 28.3814 233.127C28.2839 232.81 28.1621 232.486 28.0566 232.129C27.951 231.772 27.8373 231.447 27.7399 231.13C27.6424 230.814 27.5206 230.4 27.4069 230.059C27.2932 229.718 27.2283 229.401 27.1389 229.101C27.0496 228.801 26.9603 228.403 26.871 228.103L26.7654 227.665C26.6517 227.242 26.5705 226.893 26.5055 226.609C26.4406 226.325 26.3594 225.976 26.335 225.879C26.3327 225.863 26.3327 225.846 26.335 225.83C26.0995 224.856 25.9208 223.931 25.7747 223.046C25.6772 222.494 25.5879 221.975 25.5148 221.423C25.5148 221.155 25.4417 220.871 25.4092 220.611C25.3361 220.116 25.2874 219.629 25.2468 219.167C25.2468 218.996 25.2468 218.809 25.1981 218.615C25.1981 218.176 25.125 217.706 25.1169 217.227C25.1088 216.748 25.1169 216.293 25.1169 215.831V215.108C25.1169 214.735 25.1169 214.37 25.1169 214.053C25.1169 213.956 25.1169 213.858 25.1169 213.769C25.1169 213.298 25.1737 212.868 25.2225 212.495C25.2225 212.495 25.2225 212.495 25.2225 212.446C25.2225 212.276 25.2225 212.089 25.2793 211.91C25.328 211.456 25.4011 211.058 25.4661 210.693C25.5635 210.141 25.6853 209.573 25.8315 209.013L25.9127 208.704C25.9127 208.607 25.9777 208.493 26.0102 208.372C26.0353 208.313 26.057 208.254 26.0751 208.193C26.0751 208.12 26.1239 208.047 26.1482 207.958L26.3188 207.446L26.4243 207.146L26.6436 206.57C26.7167 206.375 26.806 206.172 26.9034 205.953C26.9888 205.731 27.0864 205.514 27.1958 205.303C27.2932 205.101 27.3988 204.881 27.5206 204.662C27.6424 204.443 27.7074 204.321 27.8048 204.151C27.8233 204.11 27.8479 204.071 27.8779 204.037C28.0322 203.761 28.2921 203.355 28.6169 202.885C28.6657 202.808 28.72 202.735 28.7793 202.666C29.6629 201.444 30.7124 200.351 31.8976 199.419C32.0925 199.249 32.3037 199.102 32.5229 198.94L32.6285 198.859L33.0914 198.542L33.2863 198.421C33.3756 198.356 33.4812 198.307 33.5949 198.234L33.9928 198.007L34.1389 197.917L34.2364 197.861C34.2678 197.848 34.2977 197.831 34.3257 197.812C34.3686 197.798 34.4095 197.779 34.4475 197.755L34.6099 197.666L34.7318 197.609L35.4464 197.219L35.5195 197.179L36.4127 196.692H36.4696L36.6157 196.619C36.6419 196.605 36.6664 196.589 36.6888 196.57L36.7619 196.529C36.7619 196.529 36.8025 196.529 36.8106 196.529L36.9 196.481L37.0949 196.367C37.1331 196.355 37.1689 196.335 37.2004 196.31H37.2654C37.2953 196.289 37.3281 196.273 37.3628 196.262L37.4928 196.18L37.6714 195.896C37.8014 195.823 37.9232 195.75 38.045 195.693L38.7515 195.288L39.0357 195.133L39.1819 195.06L39.8478 194.679H39.8884C40.038 194.589 40.1956 194.513 40.3594 194.452C40.0427 194.646 39.726 194.817 39.4092 194.995C34.3663 198.843 36.0717 215.238 43.5914 233.005C44.2519 234.547 44.9205 236.049 45.5972 237.51C52.9707 253.021 62.4394 263.678 68.2295 262.801L69.2689 262.452Z" fill="url(#paint0_linear_142_701)"/>
<path d="M231.284 254.011L229.189 253.808L228.596 253.743H228.207C228.134 253.739 228.06 253.739 227.987 253.743H227.833L227.078 253.67L225.454 253.516C224.877 253.451 224.284 253.402 223.659 253.345C223.034 253.288 222.53 253.232 221.929 253.183C221.805 253.175 221.68 253.175 221.556 253.183L219.997 253.037C219.951 253.029 219.904 253.029 219.859 253.037L218.543 252.915H218.348L217.536 252.842C217.488 252.834 217.438 252.834 217.39 252.842L216.026 252.72C215.782 252.72 215.538 252.672 215.295 252.664L214.572 252.599C211.129 252.306 207.702 252.014 204.34 251.746L202.716 251.616C201.904 251.543 201.092 251.479 200.207 251.422L197.722 251.235C197.18 251.203 196.652 251.162 196.138 251.113C195.627 251.065 195.115 251.032 194.587 251.008C194.408 251.008 194.238 251.008 194.067 250.967L193.077 250.894C191.12 250.764 189.179 250.642 187.278 250.505C183.86 250.285 180.522 250.082 177.298 249.912L171.987 249.644C169.405 249.522 166.92 249.409 164.533 249.328H163.485H162.372C162.145 249.328 161.901 249.328 161.642 249.328H161.439H160.667L158.158 249.255L156.436 249.214C152.468 249.133 148.811 249.108 145.465 249.141C144.125 249.141 142.834 249.182 141.6 249.214C139.553 249.263 137.653 249.352 135.915 249.449C133.585 249.628 130.515 249.92 128.168 250.188C128.111 250.183 128.054 250.183 127.998 250.188H127.949L127.665 250.229H127.494C127.297 250.241 127.099 250.241 126.901 250.229H126.836H126.39C126.366 250.221 126.34 250.221 126.317 250.229H126.187C125.963 250.202 125.741 250.164 125.521 250.115C125.376 250.09 125.232 250.058 125.09 250.018C124.939 249.986 124.789 249.942 124.644 249.888C124.594 249.875 124.545 249.859 124.498 249.839L124.092 249.701L123.677 249.531L123.556 249.482L123.101 249.287C122.979 249.238 122.857 249.165 122.727 249.108C122.362 248.922 121.98 248.719 121.607 248.483H121.542L121.103 248.199L120.762 247.98L119.95 247.436C118.882 246.656 117.865 245.807 116.905 244.896C116.564 244.596 116.223 244.263 115.882 243.914C114.214 242.226 112.649 240.44 111.196 238.565C110.936 238.249 110.684 237.924 110.384 237.583C110.084 237.242 109.872 236.909 109.629 236.568L109.426 236.292C109.158 235.927 108.89 235.538 108.614 235.156C108.5 235.01 108.403 234.856 108.297 234.71C107.842 234.06 107.396 233.403 106.941 232.721L106.348 231.812L105.276 230.132L104.862 229.458C104.683 229.182 104.513 228.898 104.342 228.647C103.408 227.08 102.483 225.465 101.581 223.777C99.4617 219.881 97.4234 215.66 95.5475 211.196C92.7053 204.54 90.3998 197.668 88.6531 190.645C88.6531 190.645 88.6531 190.604 88.6531 190.58C88.4907 189.92 88.3364 189.263 88.1902 188.608C88.1902 188.47 88.1253 188.34 88.1009 188.202C87.971 187.593 87.8329 186.976 87.7274 186.376C87.6786 186.132 87.6299 185.905 87.5893 185.67C87.5487 185.434 87.4594 185.012 87.4106 184.687C87.3619 184.363 87.2726 183.876 87.2158 183.551C87.1021 182.913 87.0046 182.28 86.9234 181.652C86.9234 181.53 86.8828 181.425 86.8747 181.311C86.8666 181.197 86.8097 180.873 86.7854 180.67C86.761 180.467 86.7366 180.313 86.7285 180.142C86.7285 180.094 86.7285 180.045 86.7285 179.996C86.6717 179.509 86.6067 179.022 86.5742 178.535C86.5658 178.479 86.5658 178.421 86.5742 178.365C86.5255 177.902 86.493 177.439 86.4524 176.993C86.4118 176.547 86.3956 175.946 86.3712 175.435C86.3333 174.569 86.3333 173.741 86.3712 172.951C86.3712 172.732 86.3712 172.521 86.3712 172.326C86.3712 172.131 86.3712 171.701 86.4118 171.409V170.897C86.4118 170.768 86.4118 170.622 86.4118 170.5C86.4118 170.378 86.4118 170.24 86.4524 170.11C86.4524 169.85 86.5011 169.599 86.5336 169.339C86.5661 169.079 86.6067 168.771 86.6554 168.487C86.7041 168.203 86.7204 168.122 86.7529 167.951C86.8436 167.402 86.9711 166.86 87.1345 166.328C87.1914 166.117 87.2401 165.922 87.3051 165.727C87.3051 165.727 87.3051 165.727 87.3051 165.67C87.3014 165.641 87.3014 165.611 87.3051 165.581C87.3958 165.289 87.5015 165.002 87.6218 164.721C87.7517 164.404 87.8897 164.112 88.0359 163.828C88.1063 163.682 88.1875 163.536 88.2796 163.39L88.4257 163.138C88.5605 162.912 88.7097 162.695 88.8723 162.489C88.9373 162.408 89.0104 162.31 89.0916 162.221C89.1728 162.132 89.2297 162.091 89.3027 162.018C89.3613 161.942 89.4266 161.871 89.4977 161.807C89.5598 161.744 89.6278 161.687 89.7007 161.637C89.7007 161.588 89.79 161.555 89.8387 161.507C89.8874 161.458 89.8387 161.458 89.8956 161.458L89.9605 161.393C91.268 160.338 92.1937 159.583 92.9489 158.958C93.3306 158.642 93.6554 158.349 93.9721 158.081L94.4106 157.692C94.4679 157.653 94.5222 157.609 94.5731 157.562L94.8735 157.294L95.0603 157.124C95.0969 157.082 95.1377 157.044 95.1821 157.01L95.4826 156.718C95.7018 156.523 95.9211 156.32 96.1647 156.085C96.4083 155.849 96.5301 155.76 96.7169 155.565C97.4559 154.892 98.2274 154.161 99.0151 153.374C99.283 153.114 99.5429 152.854 99.8271 152.627C100.111 152.4 100.193 152.286 100.371 152.091L100.932 151.54C101.224 151.264 101.508 150.98 101.784 150.728L102.068 150.444L102.661 149.835C102.856 149.657 103.043 149.462 103.238 149.251L104.943 147.498L105.755 146.686C105.877 146.548 105.999 146.426 106.121 146.296C106.242 146.166 106.47 145.931 106.657 145.736C106.957 145.403 107.29 145.063 107.639 144.697L108.029 144.283L108.126 144.186C108.321 143.983 108.532 143.764 108.76 143.504C109.466 142.766 110.384 141.775 111.464 140.598L112.585 139.365L113.194 138.699C113.632 138.22 114.071 137.75 114.501 137.263C114.72 137.019 114.948 136.759 115.183 136.508C115.874 135.696 116.604 134.884 117.376 134.073C117.449 133.983 117.522 133.91 117.595 133.829C117.774 133.618 117.961 133.415 118.155 133.204C118.35 132.993 118.675 132.612 118.967 132.303C119.26 131.995 119.503 131.711 119.78 131.394C120.502 130.583 121.233 129.771 121.988 128.894L122.329 128.497L123.142 127.571L124.002 126.581C124.66 125.843 125.302 125.088 125.951 124.341C126.601 123.594 127.202 122.872 127.827 122.141C128.452 121.411 129.2 120.518 129.857 119.755C129.966 119.652 130.064 119.537 130.15 119.414L130.962 118.424L131.774 117.418C132.529 116.525 133.268 115.632 133.999 114.755C134.283 114.439 134.535 114.122 134.811 113.806C134.95 113.659 135.08 113.505 135.201 113.343C135.59 112.88 136.013 112.434 136.346 111.98C136.622 111.655 136.906 111.322 137.158 110.997C137.41 110.673 137.759 110.291 138.051 109.934L138.416 109.496L138.611 109.269C138.977 108.814 139.342 108.376 139.708 107.938C139.708 107.889 139.781 107.856 139.805 107.816C140.049 107.524 140.292 107.231 140.52 106.939C141.51 105.762 142.461 104.602 143.378 103.473C143.581 103.214 143.792 102.97 143.987 102.727L144.799 101.728C145.238 101.193 145.668 100.681 146.066 100.17C146.375 99.8047 146.667 99.4557 146.943 99.0986C147.029 99.0073 147.108 98.9096 147.179 98.8064C147.284 98.6765 147.398 98.5304 147.52 98.3924C147.633 98.2707 147.731 98.149 147.828 98.0272C148.372 97.3454 148.925 96.6717 149.452 96.0143C150.565 94.6426 151.613 93.3358 152.571 92.1346C152.766 91.8992 152.936 91.6801 153.107 91.4609L153.22 91.3311L153.74 90.6817L154.227 90.073L154.487 89.7483L155.194 88.8555C155.267 88.7743 155.324 88.6851 155.389 88.612L155.908 87.9546L156.274 87.5082L156.68 86.9968C156.802 86.8264 156.932 86.664 157.053 86.5098L157.589 85.8362C157.922 85.4141 158.239 85.0245 158.507 84.6674L158.759 84.3671L158.531 84.6674C158.531 84.7323 158.442 84.7891 158.393 84.8541C158.345 84.919 158.166 85.195 158.052 85.3735C157.939 85.5521 157.809 85.755 157.703 85.9579C157.548 86.2012 157.407 86.4533 157.281 86.7127C157.243 86.7751 157.211 86.8403 157.183 86.9075C149.542 101.939 154.926 138.935 171.703 178.624C188.667 218.744 211.876 248.897 228.166 253.832C228.324 253.894 228.487 253.942 228.653 253.978C228.897 254.051 229.14 254.116 229.376 254.165H229.449L229.725 254.23L230.156 254.311H230.229C230.497 254.36 230.748 254.392 231.041 254.417C231.086 254.411 231.129 254.395 231.168 254.37C231.206 254.346 231.238 254.312 231.262 254.273C231.285 254.234 231.299 254.19 231.303 254.145C231.307 254.099 231.301 254.053 231.284 254.011Z" fill="url(#paint1_linear_142_701)"/>
<path d="M127.519 249.993C107.852 252.878 88.3944 257.04 69.2691 262.452L68.2134 262.769C62.4234 263.645 52.9547 252.988 45.5812 237.478C44.899 236.017 44.2304 234.515 43.5754 232.973C36.0556 215.206 34.3503 198.81 39.3932 194.963C39.7099 194.785 40.0266 194.614 40.3433 194.419C57.6218 184.387 74.2162 173.221 90.0174 160.995C90.0174 160.995 90.0174 160.995 89.9606 161.044C89.8338 161.128 89.719 161.229 89.6195 161.344C89.4721 161.47 89.3362 161.609 89.2135 161.758C89.1322 161.848 89.0592 161.945 88.9942 162.026C88.8315 162.233 88.6823 162.45 88.5476 162.675C88.4783 162.755 88.4234 162.845 88.3852 162.943C88.2947 163.084 88.2133 163.231 88.1415 163.382C87.9808 163.668 87.8423 163.967 87.7274 164.274C87.6071 164.556 87.5014 164.843 87.4107 165.135C87.407 165.164 87.407 165.194 87.4107 165.224C87.4107 165.224 87.4107 165.224 87.4107 165.281C87.3405 165.477 87.2835 165.678 87.2401 165.882C87.0767 166.413 86.9492 166.956 86.8585 167.505C86.8585 167.675 86.7854 167.862 86.761 168.041C86.7367 168.219 86.6798 168.601 86.6392 168.893C86.5986 169.185 86.5824 169.396 86.558 169.664C86.558 169.794 86.558 169.915 86.5174 170.053C86.5174 170.346 86.4687 170.646 86.4605 170.962C86.4524 171.279 86.4605 171.563 86.4199 171.88C86.3793 172.196 86.4199 172.285 86.4199 172.505C86.4199 173.295 86.4199 174.123 86.4199 174.988C86.4199 175.5 86.4687 176.019 86.5012 176.547C86.5336 177.074 86.5742 177.456 86.623 177.918C86.6145 177.975 86.6145 178.032 86.623 178.089C86.623 178.576 86.7204 179.063 86.7773 179.55C86.7773 179.598 86.7773 179.647 86.7773 179.696C86.7773 179.866 86.7773 180.037 86.8341 180.223C86.891 180.41 86.8828 180.645 86.9234 180.865C86.964 181.084 86.9234 181.084 86.9721 181.206C87.0534 181.833 87.1508 182.466 87.2645 183.105C87.3213 183.47 87.3863 183.852 87.4594 184.241C87.5325 184.631 87.565 184.899 87.638 185.223C87.7111 185.548 87.7274 185.686 87.7761 185.929C87.8817 186.53 88.0197 187.147 88.1497 187.756C88.1497 187.894 88.2146 188.023 88.239 188.161C88.3851 188.816 88.5394 189.474 88.7018 190.134C88.7018 190.134 88.7018 190.182 88.7018 190.199C90.4486 197.222 92.7541 204.094 95.5963 210.75C97.4721 215.206 99.5104 219.434 101.63 223.33C102.531 225.01 103.457 226.626 104.391 228.2C104.561 228.476 104.732 228.76 104.911 229.012L105.325 229.686L106.397 231.366L106.99 232.275C107.444 232.957 107.891 233.614 108.346 234.263C108.451 234.409 108.549 234.564 108.662 234.71C108.93 235.091 109.198 235.481 109.474 235.846L109.678 236.122C109.921 236.463 110.189 236.804 110.433 237.137C110.676 237.469 110.944 237.802 111.245 238.119C112.698 239.994 114.263 241.78 115.93 243.467C116.271 243.817 116.613 244.149 116.954 244.45C117.913 245.361 118.93 246.209 119.999 246.99L120.811 247.534C120.817 247.531 120.824 247.529 120.831 247.529C120.838 247.529 120.845 247.531 120.852 247.534L121.152 247.737L121.59 248.021H121.655C122.029 248.256 122.411 248.459 122.776 248.646C122.906 248.703 123.028 248.776 123.15 248.824L123.604 249.019L123.726 249.068L124.14 249.238L124.546 249.376C124.594 249.396 124.643 249.412 124.693 249.425C124.838 249.48 124.987 249.523 125.139 249.555C125.28 249.598 125.424 249.631 125.57 249.652C125.79 249.701 126.012 249.739 126.236 249.766H126.325C126.349 249.758 126.374 249.758 126.398 249.766H126.845H126.91C127.107 249.782 127.305 249.782 127.502 249.766H127.575L127.519 249.993Z" fill="url(#paint2_linear_142_701)"/>
<path style="mix-blend-mode:overlay" d="M231.284 254.011L229.189 253.808L228.596 253.743H228.206C228.133 253.739 228.06 253.739 227.987 253.743H227.833L227.077 253.67L225.453 253.516C224.877 253.451 224.284 253.402 223.659 253.345C223.033 253.288 222.53 253.232 221.929 253.183C221.805 253.175 221.68 253.175 221.555 253.183L219.996 253.037C219.951 253.029 219.904 253.029 219.858 253.037L218.543 252.915H218.348L217.536 252.842C217.487 252.834 217.438 252.834 217.39 252.842L216.025 252.72C215.782 252.72 215.538 252.672 215.294 252.663L214.572 252.598C211.128 252.306 207.702 252.014 204.34 251.746L202.715 251.616C201.903 251.543 201.091 251.478 200.206 251.422L197.721 251.235C197.18 251.202 196.652 251.162 196.138 251.113C195.626 251.064 195.115 251.032 194.587 251.008C194.408 251.008 194.238 251.008 194.067 250.967L193.076 250.894C191.119 250.764 189.178 250.642 187.278 250.504H186.669C183.421 250.293 180.327 250.099 177.298 249.944L171.987 249.677C169.405 249.555 166.92 249.441 164.532 249.36H163.485H162.372C162.145 249.36 161.901 249.36 161.641 249.36H161.438H160.667L158.157 249.287L156.436 249.246C152.468 249.165 148.811 249.141 145.465 249.173C144.125 249.173 142.834 249.214 141.599 249.246C139.553 249.295 137.653 249.384 135.915 249.482C133.584 249.66 130.515 249.952 128.168 250.22C128.111 250.216 128.054 250.216 127.997 250.22H127.949L127.664 250.261H127.567C107.89 253.056 88.4161 257.128 69.2688 262.452L69.1226 262.525C69.017 262.574 68.8952 262.606 68.7815 262.647H68.7247C68.7183 262.65 68.7114 262.651 68.7044 262.651C68.6974 262.651 68.6905 262.65 68.6841 262.647H68.6191L68.2781 262.744H68.1725H68.0507H67.9938C67.9875 262.741 67.9805 262.74 67.9735 262.74C67.9665 262.74 67.9596 262.741 67.9532 262.744L67.6771 262.825H67.6365L67.3929 262.915C67.3289 262.923 67.2662 262.94 67.2061 262.963H67.1574H67.0843H67.0112L66.8245 263.028H66.7189H66.6296H66.5565L66.256 263.118C66.2003 263.128 66.1459 263.144 66.0936 263.166L65.8987 263.223L65.7769 263.264C65.7527 263.267 65.7281 263.267 65.7038 263.264C65.6882 263.257 65.6707 263.257 65.6551 263.264H65.5982H65.517H65.4521H65.3465L65.1516 263.32L64.9567 263.385C64.8761 263.402 64.7972 263.427 64.7212 263.458L64.4857 263.531L64.3558 263.572H64.2664L64.1203 263.621H64.0553L63.8848 263.686H63.7873C63.7303 263.712 63.6703 263.731 63.6087 263.742H63.5194H63.4463C63.4168 263.737 63.3864 263.737 63.3569 263.742H63.3082H63.2676C63.2676 263.742 63.2676 263.742 63.2189 263.742H63.1702C63.112 263.754 63.055 263.77 62.9996 263.791L62.6586 263.889L62.2282 264.01C62.0008 264.067 61.7815 264.132 61.5379 264.181L61.075 264.278L60.8801 264.319C60.5391 264.376 60.198 264.416 59.8651 264.449L59.1992 264.514C58.7688 264.514 58.3871 264.514 58.0135 264.514C57.64 264.514 57.5182 264.514 57.2746 264.514C56.973 264.506 56.672 264.482 56.3732 264.441C56.2098 264.431 56.0472 264.412 55.8859 264.384C55.7479 264.384 55.6179 264.343 55.4799 264.335L54.8465 264.221C54.4486 264.132 53.8395 263.986 53.2224 263.807C52.9787 263.743 52.7514 263.669 52.5159 263.588L52.0043 263.402C51.5576 263.231 51.1435 263.053 50.7618 262.882C50.243 262.657 49.7361 262.405 49.2432 262.127L48.6748 261.795L48.3825 261.616C47.814 261.251 47.3105 260.918 46.7583 260.545C46.5391 260.382 46.336 260.236 46.1655 260.09C45.995 259.944 45.7351 259.774 45.5159 259.595C45.2966 259.416 44.8012 258.97 44.3871 258.597C44.176 258.41 43.9811 258.215 43.7862 258.037C43.1446 257.428 42.5843 256.843 42.0808 256.292C41.9472 256.162 41.8225 256.024 41.7073 255.878C41.4637 255.602 41.2444 255.342 41.0333 255.066L40.6191 254.579L40.1075 255.147L39.6203 254.538C38.8082 253.475 37.8012 252.103 36.7943 250.569C36.6562 250.358 36.5263 250.139 36.3882 249.936C35.5274 248.573 34.6504 247.112 33.8546 245.61C33.4648 244.88 32.9451 243.889 32.3198 242.648C32.2115 242.404 32.0897 242.153 31.9544 241.893C31.4915 240.935 30.9961 239.839 30.4845 238.646C30.4114 238.476 30.3465 238.33 30.2896 238.167L30.1028 237.705C30.0135 237.51 29.9404 237.315 29.8592 237.12C29.778 236.925 29.7455 236.828 29.6887 236.682C29.2583 235.602 28.8766 234.531 28.3813 233.127C28.2838 232.81 28.162 232.486 28.0565 232.129C27.9509 231.771 27.8372 231.447 27.7397 231.13C33.2455 234.349 39.3047 236.51 45.6052 237.502C54.0485 238.812 62.6607 238.565 71.0147 236.771C82.0083 234.401 92.417 229.859 101.63 223.411C106.053 220.344 110.187 216.88 113.981 213.063C126.471 200.539 134.802 184.452 138.993 167.359C143.212 149.684 143.276 131.273 139.179 113.57C138.871 112.191 138.53 110.827 138.181 109.463L138.546 109.025L138.741 108.798C139.106 108.343 139.472 107.905 139.837 107.467C139.837 107.418 139.91 107.385 139.935 107.345C140.178 107.053 140.422 106.761 140.649 106.468C141.64 105.291 142.59 104.131 143.508 103.003C143.711 102.743 143.922 102.499 144.117 102.256L144.929 101.258C145.367 100.722 145.798 100.21 146.196 99.6991C146.504 99.3339 146.797 98.9849 147.073 98.6278C147.159 98.5365 147.237 98.4388 147.308 98.3356C147.414 98.2057 147.528 98.0596 147.649 97.9216C147.763 97.7999 147.86 97.6781 147.958 97.5564C148.502 96.8746 149.054 96.2009 149.582 95.5435C150.695 94.1718 151.742 92.865 152.7 91.6638C152.895 91.4284 153.066 91.2092 153.236 90.9901L153.35 90.8602L153.87 90.2109L154.357 89.6022L154.617 89.2775L155.323 88.3847C155.396 88.3035 155.453 88.2142 155.518 88.1412L156.038 87.4837L156.403 87.0373L156.809 86.526C156.931 86.3556 157.061 86.1932 157.183 86.039C157.219 85.9956 157.252 85.9494 157.28 85.901C157.443 85.7225 157.589 85.5358 157.719 85.3653C158.052 84.9433 158.369 84.5537 158.637 84.1966L158.888 83.8962L158.661 84.1966C158.661 84.2615 158.572 84.3183 158.523 84.3832C158.474 84.4482 158.296 84.7241 158.182 84.9027C158.068 85.0813 157.938 85.2842 157.833 85.4871C157.678 85.7304 157.537 85.9824 157.41 86.2419C157.373 86.3043 157.34 86.3694 157.313 86.4367C157.24 86.5991 157.151 86.7533 157.077 86.9156C154.925 91.4446 153.878 97.8648 153.91 105.665C154 124.179 160.147 150.501 171.833 178.162C188.797 218.282 212.006 248.435 228.296 253.37C228.454 253.431 228.617 253.48 228.783 253.516C229.026 253.589 229.27 253.654 229.506 253.702H229.579L229.855 253.767L230.285 253.848H230.358C230.626 253.897 230.878 253.93 231.17 253.954C231.204 253.981 231.242 254 231.284 254.011Z" fill="url(#paint3_linear_142_701)"/>
<path style="mix-blend-mode:overlay" opacity="0.5" d="M231.284 254.011L229.189 253.808L228.596 253.743H228.206C228.133 253.739 228.06 253.739 227.987 253.743H227.833L227.077 253.67L225.453 253.516C224.877 253.451 224.284 253.402 223.659 253.345C223.033 253.288 222.53 253.232 221.929 253.183C221.804 253.175 221.68 253.175 221.555 253.183L219.996 253.037C219.95 253.029 219.904 253.029 219.858 253.037L218.543 252.915H218.348L217.536 252.842C217.487 252.834 217.438 252.834 217.389 252.842L216.025 252.72C215.781 252.72 215.538 252.672 215.294 252.663L214.572 252.598C211.128 252.306 207.701 252.014 204.339 251.746L202.715 251.616C201.903 251.543 201.091 251.478 200.206 251.422L197.721 251.235C197.18 251.202 196.652 251.162 196.138 251.113C195.626 251.064 195.114 251.032 194.587 251.008C194.408 251.008 194.237 251.008 194.067 250.967L193.076 250.894C191.119 250.764 189.178 250.642 187.278 250.504H186.669C185.96 249.493 185.267 248.47 184.59 247.436C176.64 235.326 170.428 222.015 165.458 208.477C160.33 194.47 156.667 179.969 154.527 165.208C151.654 145.547 151.425 125.59 153.845 105.868C153.935 124.382 160.082 150.703 171.768 178.365C188.732 218.485 211.94 248.638 228.23 253.572C228.389 253.634 228.552 253.683 228.718 253.719C228.961 253.792 229.205 253.857 229.44 253.905H229.514L229.79 253.97L230.22 254.051H230.293C230.561 254.1 230.813 254.132 231.105 254.157C231.143 254.145 231.178 254.127 231.209 254.102C231.24 254.077 231.265 254.046 231.284 254.011Z" fill="url(#paint4_linear_142_701)"/>
<path d="M245.3 240.716C244.878 242.597 244.28 244.434 243.514 246.203C242.996 247.343 242.367 248.431 241.638 249.449C241.182 250.063 240.677 250.638 240.128 251.17C239.164 252.091 238.034 252.821 236.798 253.321C236.612 253.401 236.423 253.471 236.23 253.532L235.84 253.654L235.353 253.792L234.727 253.913C234.63 253.913 234.532 253.913 234.427 253.962L233.867 253.897L233.68 253.792H233.623L233.428 253.67C228.614 250.534 224.209 246.813 220.313 242.591L219.501 241.722C218.348 240.481 217.179 239.182 216.009 237.818C215.522 237.258 215.035 236.682 214.556 236.098C213.671 235.026 212.761 233.931 211.884 232.794C211.567 232.396 211.251 231.983 210.934 231.569C209.805 230.108 208.684 228.606 207.572 227.048C207.204 226.555 206.838 226.044 206.476 225.514C204.908 223.298 203.349 221.001 201.798 218.598C201.506 218.152 201.213 217.689 200.921 217.235L199.825 215.482C198.355 213.144 196.893 210.717 195.456 208.225C192.549 203.22 189.717 197.939 186.962 192.382C186.28 191.002 185.6 189.606 184.923 188.194C184.257 186.782 183.583 185.353 182.918 183.908C182.365 182.699 181.805 181.473 181.293 180.24C181.09 179.777 180.879 179.331 180.684 178.868C180.14 177.618 179.588 176.352 179.06 175.086C177.858 172.253 176.713 169.404 175.609 166.604C174.919 164.81 174.245 163.033 173.603 161.255C172.962 159.478 172.288 157.611 171.654 155.809L170.737 153.122C170.509 152.44 170.274 151.742 170.054 151.061C169.64 149.811 169.242 148.553 168.853 147.311C168.392 145.79 167.938 144.286 167.488 142.798C167.318 142.173 167.131 141.564 166.961 140.956C166.79 140.347 166.587 139.624 166.4 138.967C166.075 137.741 165.742 136.532 165.426 135.306C165.036 133.797 164.662 132.287 164.305 130.802C164.053 129.73 163.793 128.659 163.566 127.596C163.42 126.914 163.257 126.224 163.111 125.542C162.843 124.3 162.6 123.107 162.372 121.857C162.251 121.249 162.137 120.656 162.031 120.055C161.942 119.609 161.861 119.155 161.788 118.716C161.544 117.345 161.325 115.981 161.114 114.658C160.992 113.887 160.886 113.132 160.789 112.377C160.691 111.622 160.578 110.884 160.496 110.137C160.188 107.702 159.961 105.267 159.798 102.954C159.725 102.004 159.676 101.079 159.628 100.154C159.636 100.145 159.64 100.133 159.64 100.121C159.64 100.109 159.636 100.098 159.628 100.089C159.628 99.6018 159.628 99.1067 159.579 98.6197C159.321 93.0802 159.747 87.53 160.846 82.0944C160.984 81.9077 161.13 81.7373 161.252 81.5831C161.998 81.013 162.817 80.5461 163.688 80.1951C168.114 78.4176 173.603 79.8137 179.661 83.8232C180.27 84.2209 180.896 84.6349 181.529 85.1219L182.479 85.8361C183.113 86.3231 183.746 86.8345 184.387 87.3702C198.761 99.4313 215.514 124.422 228.588 155.314C229.319 157.059 230.034 158.788 230.732 160.516C231.43 162.245 232.08 163.966 232.746 165.679C233.144 166.766 233.558 167.846 233.94 168.925C234.476 170.41 234.995 171.871 235.499 173.332C236.084 175.01 236.644 176.682 237.18 178.348C238.325 181.895 239.356 185.394 240.298 188.803C240.672 190.19 241.037 191.554 241.378 192.918C242.028 195.434 242.613 197.926 243.124 200.344C243.546 202.308 243.936 204.24 244.277 206.131C244.326 206.383 244.375 206.651 244.415 206.943C244.586 207.925 244.756 208.891 244.903 209.849C245.195 211.651 245.439 213.428 245.658 215.157L245.731 215.782C246.884 225.676 246.762 234.223 245.3 240.716Z" fill="#DD5151"/>
<path style="mix-blend-mode:overlay" d="M245.3 240.716C244.875 242.599 244.274 244.439 243.505 246.211C242.99 247.353 242.362 248.441 241.63 249.457C241.176 250.073 240.67 250.648 240.119 251.178C239.158 252.098 238.031 252.828 236.798 253.329L236.221 253.54L235.831 253.662C235.661 253.71 235.498 253.759 235.344 253.792C235.19 253.824 234.93 253.881 234.719 253.913C234.62 253.938 234.52 253.954 234.418 253.962L233.858 253.905L233.671 253.792H233.614L233.42 253.67C228.969 250.795 224.88 247.397 221.239 243.549C220.906 243.232 220.589 242.915 220.288 242.583C219.988 242.25 219.736 242.015 219.476 241.722C218.318 240.478 217.151 239.174 215.976 237.81C215.489 237.25 215.002 236.682 214.523 236.098C213.638 235.026 212.736 233.93 211.859 232.794C211.543 232.396 211.226 231.982 210.909 231.569C209.772 230.108 208.652 228.606 207.547 227.048C207.179 226.544 206.814 226.033 206.451 225.514C204.875 223.3 203.316 220.995 201.773 218.598L200.896 217.202L199.8 215.449C198.322 213.112 196.863 210.69 195.423 208.185C192.524 203.185 189.682 197.885 186.929 192.349C186.247 190.97 185.565 189.565 184.899 188.153C184.233 186.741 183.559 185.32 182.885 183.868C182.341 182.666 181.78 181.433 181.261 180.207C181.049 179.744 180.846 179.29 180.652 178.827C180.099 177.585 179.547 176.319 179.027 175.053C177.826 172.22 176.681 169.371 175.584 166.563C174.886 164.778 174.22 163 173.57 161.222C172.921 159.445 172.255 157.578 171.621 155.776C171.321 154.875 171.012 153.991 170.712 153.09C170.476 152.4 170.249 151.71 170.03 151.028C169.618 149.767 169.215 148.517 168.82 147.278L167.456 142.757C167.285 142.141 167.106 141.532 166.936 140.923C166.765 140.314 166.554 139.592 166.375 138.934C166.042 137.709 165.718 136.5 165.401 135.274C165.011 133.756 164.589 132.246 164.28 130.761C164.02 129.69 163.769 128.618 163.533 127.563L163.087 125.502C162.819 124.26 162.575 123.067 162.339 121.825C162.218 121.216 162.112 120.624 161.998 120.023C161.917 119.577 161.828 119.122 161.755 118.684C161.511 117.312 161.292 115.948 161.081 114.625C160.959 113.862 160.853 113.108 160.756 112.353C160.707 112.061 160.667 111.768 160.642 111.476C160.569 111.014 160.512 110.559 160.464 110.113C160.155 107.637 159.928 105.243 159.765 102.93C159.692 101.98 159.643 101.055 159.595 100.129C159.603 100.12 159.607 100.109 159.607 100.097C159.607 100.085 159.603 100.073 159.595 100.064C159.595 99.5774 159.595 99.0823 159.546 98.5953C159.288 93.0557 159.713 87.5055 160.813 82.07C160.951 81.8833 161.097 81.7129 161.219 81.5587C161.964 80.9874 162.784 80.5204 163.655 80.1707C168.073 78.3932 173.57 79.7893 179.62 83.7988C180.237 84.1965 180.855 84.6105 181.488 85.0975C181.805 85.3329 182.121 85.5601 182.438 85.8036C183.072 86.2906 183.705 86.8019 184.355 87.3376C198.761 99.4313 215.514 124.422 228.58 155.314C229.311 157.059 230.033 158.788 230.724 160.516C231.414 162.245 232.08 163.958 232.737 165.678C233.135 166.758 233.55 167.846 233.931 168.925C234.467 170.41 234.987 171.871 235.49 173.332C236.075 175.01 236.635 176.682 237.171 178.348C238.316 181.895 239.356 185.385 240.29 188.794C240.674 190.18 241.037 191.554 241.378 192.918C242.019 195.434 242.604 197.917 243.116 200.344C243.546 202.3 243.928 204.24 244.277 206.123C244.326 206.383 244.374 206.651 244.407 206.935C244.577 207.925 244.748 208.883 244.894 209.849C245.186 211.651 245.43 213.428 245.649 215.157L245.722 215.782C246.884 225.676 246.762 234.223 245.3 240.716Z" fill="url(#paint5_linear_142_701)"/>
<path style="mix-blend-mode:overlay" d="M225.096 235.554C224.772 237.015 224.307 238.443 223.708 239.815C223.306 240.703 222.817 241.549 222.246 242.339C221.936 242.75 221.6 243.141 221.239 243.508C220.906 243.191 220.589 242.875 220.289 242.542C219.988 242.209 219.737 241.974 219.477 241.682C218.318 240.437 217.152 239.133 215.977 237.77C215.49 237.209 215.002 236.641 214.523 236.057C213.638 234.986 212.737 233.89 211.86 232.754C211.543 232.356 211.226 231.942 210.909 231.528C209.773 230.067 208.652 228.565 207.547 227.007C207.179 226.504 206.814 225.992 206.451 225.473C204.876 223.26 203.317 220.955 201.774 218.558L200.897 217.202L199.8 215.449C198.322 213.111 196.863 210.69 195.423 208.185C192.524 203.185 189.682 197.885 186.929 192.349C186.247 190.97 185.565 189.565 184.899 188.153C184.233 186.741 183.559 185.32 182.885 183.868C182.341 182.666 181.781 181.433 181.261 180.207C181.05 179.744 180.847 179.29 180.652 178.827C180.1 177.585 179.547 176.319 179.028 175.053C177.826 172.22 176.681 169.371 175.585 166.563C174.886 164.777 174.22 163 173.571 161.222C172.921 159.445 172.255 157.578 171.622 155.776C171.321 154.875 171.013 153.991 170.712 153.09C170.477 152.4 170.249 151.71 170.03 151.028C169.619 149.767 169.215 148.517 168.82 147.278L167.456 142.757C167.285 142.14 167.107 141.532 166.936 140.923C166.766 140.314 166.554 139.592 166.376 138.934C166.043 137.709 165.718 136.499 165.401 135.274C165.012 133.756 164.589 132.246 164.281 130.761C164.021 129.69 163.769 128.618 163.534 127.563L163.087 125.502C162.819 124.26 162.575 123.067 162.34 121.825C162.218 121.216 162.112 120.624 161.999 120.023C161.918 119.576 161.828 119.122 161.755 118.684C161.511 117.312 161.292 115.948 161.081 114.625C160.959 113.862 160.854 113.108 160.756 112.353C160.708 112.061 160.667 111.768 160.643 111.476C160.987 111.269 161.349 111.089 161.723 110.94C165.158 109.553 169.421 110.648 174.123 113.749C174.594 114.065 175.081 114.406 175.568 114.763L176.299 115.307C176.803 115.689 177.29 116.119 177.785 116.508C189.024 125.907 202.034 145.306 212.168 169.266C212.745 170.621 213.289 171.961 213.841 173.324C214.393 174.688 214.889 176.003 215.4 177.334C215.701 178.145 216.017 179.014 216.326 179.85C216.74 180.994 217.138 182.139 217.536 183.275C217.983 184.574 218.421 185.864 218.835 187.155C219.728 189.906 220.532 192.625 221.271 195.271C221.564 196.343 221.84 197.406 222.083 198.461C222.587 200.425 223.034 202.349 223.44 204.224C223.764 205.742 224.073 207.251 224.341 208.712C224.341 208.915 224.414 209.118 224.438 209.329C224.568 210.092 224.706 210.839 224.812 211.577C225.048 212.982 225.242 214.37 225.413 215.709C225.413 215.863 225.413 216.025 225.462 216.18C226.331 223.882 226.233 230.521 225.096 235.554Z" fill="url(#paint6_linear_142_701)"/>
<path d="M260.291 233.46V233.581C260.177 235.627 260.007 237.567 259.755 239.393C259.755 239.514 259.714 239.62 259.706 239.717C259.495 241.081 259.251 242.372 258.975 243.589C258.788 244.344 258.593 245.074 258.374 245.78C258.155 246.487 257.976 247.014 257.765 247.599C257.546 248.183 257.31 248.743 257.067 249.279C255.337 253.045 252.917 255.675 249.758 256.933C247.952 257.64 246.002 257.902 244.074 257.696C243.856 257.687 243.639 257.662 243.424 257.622C240.069 257.07 236.861 255.841 233.996 254.011L233.915 253.962H233.874H233.817L234.378 254.027C234.483 254.027 234.581 254.027 234.678 253.978L235.303 253.856L235.791 253.718L236.181 253.597C236.373 253.536 236.563 253.466 236.749 253.386C237.985 252.885 239.114 252.155 240.078 251.235C240.627 250.703 241.132 250.127 241.589 249.514C242.318 248.495 242.947 247.408 243.465 246.267C244.23 244.498 244.829 242.661 245.251 240.781C246.713 234.287 246.835 225.741 245.682 215.806L245.609 215.181C245.389 213.452 245.146 211.675 244.853 209.873C244.707 208.915 244.537 207.949 244.366 206.967C244.366 206.707 244.277 206.44 244.228 206.156C243.887 204.264 243.497 202.333 243.075 200.368C242.563 197.933 241.979 195.458 241.329 192.942C240.988 191.578 240.622 190.215 240.249 188.827C239.307 185.418 238.276 181.92 237.131 178.373C236.589 176.706 236.029 175.034 235.45 173.357C234.946 171.896 234.426 170.435 233.89 168.949C233.501 167.878 233.078 166.798 232.697 165.703C232.031 163.99 231.365 162.269 230.683 160.541C230.001 158.812 229.319 157.059 228.588 155.314C215.53 124.422 198.761 99.4311 184.298 87.3213C183.656 86.7856 183.023 86.2742 182.389 85.7872L181.439 85.073C180.806 84.6104 180.18 84.1721 179.571 83.7743C173.513 79.7648 168.024 78.3687 163.598 80.1463C162.727 80.4972 161.908 80.9641 161.162 81.5342C161.04 81.6884 160.894 81.8588 160.756 82.0455C160.756 81.9562 160.796 81.8751 160.821 81.802C162.445 74.8461 165.482 70.1142 170.038 68.288C171.458 67.7335 172.972 67.4579 174.496 67.4763H175.073C175.178 67.4763 175.292 67.4763 175.414 67.4763C175.535 67.4763 175.73 67.4763 175.901 67.4763H175.941L176.307 67.525H176.51L177.038 67.6062L177.704 67.7442C177.874 67.7442 178.045 67.8172 178.207 67.8497C178.646 67.9633 179.084 68.0851 179.523 68.2149C179.742 68.2799 179.961 68.361 180.18 68.4341C180.4 68.5071 180.627 68.5964 180.863 68.6776C181.407 68.8886 181.967 69.1321 182.487 69.3837C182.764 69.4968 183.035 69.6241 183.299 69.7652C183.632 69.9194 183.973 70.1061 184.314 70.2765C184.655 70.447 184.777 70.5282 185.004 70.6661C185.247 70.7907 185.483 70.9289 185.711 71.0801C186.904 71.7862 188.147 72.5979 189.365 73.515L190.112 74.067C191.403 75.0491 192.719 76.1205 194.042 77.3136C194.481 77.7032 194.928 78.1252 195.366 78.5067C196.414 79.4807 197.469 80.5196 198.541 81.5991C198.809 81.867 199.069 82.1348 199.353 82.4108C200.653 83.7743 201.984 85.211 203.308 86.745L204.12 87.6703C204.477 88.0842 204.827 88.4819 205.192 88.9365C205.558 89.391 206.004 89.9591 206.475 90.4948C208.034 92.4374 209.602 94.4719 211.177 96.5985C211.502 97.0368 211.835 97.4832 212.16 97.9377C212.574 98.5221 212.972 99.0903 213.41 99.6909L213.776 100.202C215.654 102.908 217.525 105.724 219.387 108.652C219.923 109.463 220.451 110.332 221.011 111.2L222.595 113.814C223.212 114.861 223.845 115.924 224.454 116.995C224.82 117.628 225.185 118.245 225.542 118.878C226.257 120.161 226.98 121.435 227.686 122.742C228.109 123.497 228.498 124.252 228.913 125.023C230.983 128.878 232.973 132.888 234.987 137.011C235.653 138.423 236.327 139.852 236.984 141.304C236.984 141.304 236.984 141.304 236.984 141.361L237.935 143.471C238.595 144.932 239.245 146.404 239.884 147.887C240.2 148.617 240.517 149.372 240.834 150.119C242.046 152.965 243.197 155.792 244.285 158.601C244.65 159.542 245 160.484 245.357 161.409C247.119 166.068 248.727 170.686 250.189 175.207C252.227 181.546 253.973 187.707 255.41 193.624C256.027 196.164 256.588 198.664 257.091 201.099C258.358 207.16 259.288 213.287 259.877 219.45C260.015 220.863 260.112 222.267 260.193 223.614C260.234 224.296 260.258 224.97 260.291 225.635C260.413 228.419 260.396 231.008 260.291 233.46Z" fill="#DD5151"/>
<path d="M210.715 189.963L210.999 189.825C206.841 192.187 201.408 195.45 194.912 199.752C192.11 201.602 189.114 203.631 185.93 205.88C184.485 203.445 183.437 201.513 179.174 193.591C178.005 191.432 176.6 188.502 175.504 186.286C175.504 186.221 172.215 179.655 168.487 170.865C167.513 168.487 166.197 165.329 165.239 162.943C164.281 160.557 163.12 157.489 162.291 155.119C161.463 152.749 160.367 149.762 159.636 147.432C159.579 147.221 159.514 147.027 159.441 146.832C163.266 146.101 166.847 145.371 170.152 144.657C178.208 142.879 184.672 141.158 189.479 139.787C184.932 141.613 185.995 154.34 191.85 168.195C197.705 182.049 206.175 191.789 210.715 189.963Z" fill="#C8D1E7"/>
<path d="M221.677 178.04C220.646 183.535 217.56 186.221 215.18 187.512C213.979 188.153 212.598 188.916 211.015 189.809L210.73 189.947C206.183 191.773 197.737 182.017 191.882 168.146C186.027 154.275 184.963 141.564 189.503 139.738L189.698 139.665C191.444 139.145 192.946 138.675 194.245 138.261C194.711 138.111 195.186 137.992 195.667 137.904C196.379 137.769 197.102 137.699 197.827 137.693C199.099 137.693 200.366 137.876 201.586 138.236C202.726 138.585 203.818 139.076 204.835 139.697C205.965 140.379 207.023 141.173 207.994 142.067C210.69 144.62 212.967 147.581 214.742 150.841C215.922 152.872 216.977 154.973 217.901 157.132C218.646 158.861 219.302 160.627 219.866 162.424C221.848 168.698 222.448 173.982 221.677 178.04Z" fill="url(#paint7_linear_142_701)"/>
<path d="M260.689 222.113C260.559 220.149 260.218 217.559 259.999 215.62C259.56 211.715 258.545 206.407 257.806 202.544C257.067 198.68 257.035 198.591 254.452 188.421C253.892 186.205 252.991 183.291 252.373 181.116C251.383 177.65 250.124 173.949 248.492 169.266C248.126 168.178 247.728 167.034 247.314 165.841C247.314 165.784 244.878 158.909 241.134 150.095C237.391 141.28 234.159 134.673 234.118 134.673C232.38 131.167 229.132 124.641 226.623 120.283C225.502 118.335 224.187 116.054 222.822 113.789C221.458 111.525 220.118 109.277 218.941 107.353C217.763 105.429 216.139 103.027 214.88 101.209C210.576 94.9023 206.808 90.2515 206.76 90.2028C205.395 88.5795 203.617 86.3069 202.18 84.7241C200.068 82.4109 197.194 79.3916 194.952 77.2082C192.379 74.7711 189.639 72.5173 186.75 70.4634C185.281 69.4569 183.234 68.2232 181.659 67.3466C180.63 66.7823 179.564 66.2887 178.467 65.8694C177.257 65.384 176.014 64.9826 174.748 64.6682C172.267 64.0156 169.684 63.8448 167.139 64.1649C166.725 64.1649 166.173 64.3354 165.759 64.4084C164.845 64.616 163.947 64.8872 163.071 65.2201H162.981C160.478 66.2657 158.254 67.8804 156.485 69.9358C154.585 72.1694 153.093 74.7187 152.075 77.4679C150.885 80.7478 150.068 84.1511 149.639 87.6136C149.347 90.0486 149.144 93.3358 149.046 95.7951C148.981 97.6375 149.046 100.097 149.119 101.931C149.192 103.766 149.298 106.079 149.493 107.84C149.688 109.601 149.907 111.996 150.143 113.757C150.394 115.705 150.776 118.302 151.101 120.25C151.783 124.308 152.952 129.665 153.846 133.683C154.317 135.883 155.121 138.78 155.681 140.988C156.655 144.827 156.94 145.704 159.977 155.306C160.05 155.5 160.107 155.695 160.172 155.906C160.902 158.228 162.031 161.287 162.827 163.593C163.623 165.898 164.857 169.079 165.775 171.417C166.692 173.754 168.024 176.96 169.023 179.339C172.75 188.161 176.007 194.76 176.047 194.76C177.144 196.952 178.54 199.89 179.71 202.065C183.973 209.987 185.021 211.951 186.474 214.345C186.742 214.8 187.018 215.271 187.351 215.806C188.505 217.697 190.031 220.246 191.225 222.105C192.419 223.963 194.059 226.415 195.285 228.257C196.511 230.099 198.249 232.478 199.565 234.255C201.741 237.234 204.851 241.032 207.215 243.865C208.457 245.367 210.268 247.242 211.6 248.686C213.045 250.269 215.124 252.258 216.74 253.678C218.583 255.301 221.141 257.322 223.099 258.8C225.553 260.553 228.182 262.049 230.943 263.264C233.493 264.396 236.212 265.103 238.991 265.358C240.317 265.458 241.651 265.42 242.97 265.244C243.896 265.102 244.812 264.904 245.715 264.652C246.112 264.538 246.64 264.319 247.038 264.189C247.07 264.176 247.1 264.16 247.128 264.14C248.303 263.668 249.418 263.058 250.449 262.322C251.241 261.781 251.98 261.167 252.658 260.488C254.506 258.649 256.013 256.498 257.108 254.133C260.941 246.154 261.087 235.862 261.168 232.478C261.152 229.369 260.9 225.213 260.689 222.113ZM260.291 233.476V233.598C260.194 235.643 260.007 237.583 259.755 239.409C259.755 239.531 259.715 239.636 259.706 239.734C259.512 241.097 259.268 242.388 258.976 243.605C258.789 244.36 258.594 245.091 258.375 245.797C258.155 246.503 257.985 247.031 257.766 247.615C257.546 248.199 257.311 248.759 257.067 249.295C255.338 253.061 252.918 255.691 249.759 256.949C247.953 257.657 246.003 257.918 244.074 257.712C243.856 257.703 243.639 257.679 243.425 257.639C240.069 257.087 236.862 255.858 233.996 254.027L233.915 253.978H233.875H233.818L233.647 253.873H233.59L233.395 253.751C228.582 250.615 224.176 246.894 220.281 242.672L219.469 241.803C218.315 240.562 217.146 239.263 215.977 237.899C215.489 237.339 215.01 236.763 214.523 236.179C213.638 235.107 212.728 234.012 211.851 232.875C211.535 232.461 211.21 232.064 210.901 231.65C209.773 230.189 208.652 228.687 207.539 227.129C207.166 226.634 206.8 226.106 206.443 225.595C204.876 223.379 203.317 221.082 201.766 218.679C201.473 218.233 201.181 217.77 200.889 217.316C200.523 216.732 200.15 216.147 199.792 215.563C198.322 213.225 196.861 210.798 195.423 208.307C192.516 203.301 189.685 198.02 186.929 192.463C186.247 191.083 185.568 189.687 184.891 188.275C184.214 186.863 183.546 185.434 182.885 183.989C182.344 182.777 181.802 181.554 181.261 180.321C181.058 179.858 180.847 179.412 180.652 178.949C180.092 177.691 179.556 176.433 179.028 175.167C177.826 172.334 176.681 169.485 175.576 166.685C174.886 164.891 174.212 163.114 173.571 161.336C172.929 159.559 172.239 157.692 171.622 155.89L170.704 153.203C170.477 152.522 170.241 151.824 170.022 151.142C169.608 149.876 169.21 148.634 168.82 147.392C168.36 145.871 167.905 144.367 167.456 142.879C167.269 142.27 167.098 141.645 166.928 141.037C166.757 140.428 166.554 139.706 166.368 139.048C166.027 137.823 165.702 136.613 165.393 135.388C165.003 133.878 164.63 132.368 164.272 130.883C164.004 129.811 163.761 128.74 163.533 127.677C163.387 126.995 163.225 126.305 163.079 125.623C162.811 124.382 162.567 123.148 162.34 121.938C162.218 121.33 162.104 120.737 161.999 120.137C161.909 119.69 161.828 119.252 161.755 118.797C161.511 117.426 161.292 116.062 161.081 114.739C160.959 113.968 160.854 113.213 160.756 112.458C160.659 111.703 160.545 110.965 160.464 110.218C160.155 107.783 159.928 105.348 159.766 103.035C159.692 102.085 159.644 101.16 159.595 100.235C159.603 100.226 159.607 100.214 159.607 100.202C159.607 100.19 159.603 100.179 159.595 100.17C159.595 99.6829 159.595 99.1878 159.546 98.7008C159.289 93.1613 159.714 87.6111 160.813 82.1755C160.813 82.0863 160.854 82.0051 160.878 81.932C162.502 74.9762 165.539 70.2442 170.095 68.418C171.515 67.8635 173.029 67.5879 174.553 67.6063H175.13C175.235 67.6063 175.349 67.6063 175.471 67.6063H175.958H175.999L176.364 67.655H176.567L177.095 67.7362L177.761 67.8742C177.931 67.8985 178.099 67.9337 178.264 67.9797C178.703 68.0933 179.141 68.2151 179.58 68.345C179.802 68.4099 180.021 68.4829 180.238 68.5641C180.457 68.6372 180.684 68.7102 180.92 68.8076C181.464 69.0186 182.024 69.2621 182.544 69.5137C182.804 69.6355 183.072 69.7572 183.356 69.8952C183.64 70.0332 184.03 70.2361 184.371 70.4066C184.712 70.577 184.834 70.6582 185.061 70.7961C185.304 70.9207 185.54 71.0589 185.768 71.2101C186.962 71.9162 188.204 72.7279 189.422 73.6451C189.666 73.8155 189.926 74.0022 190.169 74.197C191.46 75.1791 192.776 76.2505 194.1 77.4436C194.538 77.8332 194.985 78.2552 195.423 78.6367C196.471 79.6107 197.527 80.6496 198.598 81.7291C198.866 81.997 199.134 82.2648 199.411 82.5408C200.71 83.9044 202.042 85.341 203.365 86.875L204.177 87.8003C204.535 88.2142 204.884 88.612 205.249 89.0665C205.615 89.521 206.061 90.0892 206.532 90.6249C208.092 92.5674 209.659 94.602 211.234 96.7285C211.559 97.1749 211.892 97.6132 212.217 98.0677C212.631 98.6521 213.029 99.2203 213.467 99.8209L213.833 100.332C215.711 103.038 217.582 105.854 219.444 108.782C219.98 109.593 220.508 110.478 221.068 111.33L222.652 113.944C223.269 114.991 223.902 116.054 224.511 117.125C224.877 117.742 225.242 118.375 225.6 119.008C226.331 120.275 227.037 121.565 227.744 122.872C228.166 123.627 228.556 124.382 228.97 125.153C231.041 129.008 233.079 133.018 235.044 137.141C235.726 138.553 236.392 139.984 237.042 141.434C237.047 141.443 237.049 141.453 237.049 141.463C237.049 141.473 237.047 141.483 237.042 141.491C237.375 142.189 237.691 142.895 237.992 143.602C238.666 145.062 239.307 146.532 239.941 148.017C240.274 148.764 240.59 149.502 240.907 150.249C242.109 153.095 243.254 155.922 244.342 158.731C244.716 159.672 245.073 160.614 245.414 161.539C246.421 164.177 247.371 166.807 248.273 169.404C248.971 171.401 249.629 173.376 250.246 175.329C252.3 181.668 254.038 187.829 255.467 193.745C256.101 196.286 256.645 198.786 257.148 201.221C258.419 207.281 259.349 213.408 259.934 219.572C260.069 221.001 260.175 222.389 260.251 223.736C260.299 224.418 260.324 225.1 260.348 225.757C260.413 228.419 260.413 231.008 260.291 233.46V233.476Z" fill="url(#paint8_linear_142_701)"/>
<path d="M116.572 306.062C116.572 306.062 114.582 316.882 107.98 324.292C106.644 325.828 105.1 327.169 103.392 328.277C103.392 328.277 94.3294 324.803 84.9581 293.49C76.3015 264.611 77.5521 255.951 77.5521 255.951L99.5266 245.773C99.4265 247.766 99.4428 249.763 99.5753 251.754C99.6962 254.515 100.193 257.245 101.053 259.871C103.124 265.463 106.551 266.867 106.616 269.862C106.681 272.857 101.744 280.795 105.162 291.014C107.248 297.126 111.249 302.403 116.572 306.062Z" fill="url(#paint9_linear_142_701)"/>
<path d="M126.65 307.417C126.65 307.417 123.775 323.058 113.47 329.624L103.416 328.285C105.124 327.177 106.668 325.836 108.004 324.3C114.607 316.89 116.596 306.07 116.596 306.07C111.268 302.402 107.266 297.113 105.187 290.99C101.743 280.771 106.697 272.849 106.64 269.838C106.583 266.827 103.148 265.439 101.078 259.846C100.218 257.221 99.7206 254.49 99.5996 251.73C99.4671 249.739 99.4508 247.741 99.5509 245.748L109.629 247.087C109.629 247.087 109.093 255.569 111.155 261.169C113.218 266.77 116.653 268.15 116.718 271.161C116.783 274.172 111.846 282.086 115.264 292.313C117.328 298.444 121.322 303.743 126.65 307.417Z" fill="#C8D1E7"/>
<path d="M178.5 65.7963C166.969 61.2429 156.355 66.2102 152.514 78.0198C151.106 82.0817 150.307 86.3293 150.143 90.6248C149.631 97.7955 149.884 105 150.898 112.117C151.629 118.716 153.561 126.833 154.877 133.375C158.025 145.966 161.971 158.344 166.693 170.435C171.5 182.407 176.843 194.663 183.112 205.92C189.209 217.6 196.38 228.686 204.535 239.036C208.445 244.29 212.868 249.143 217.739 253.524C224.122 258.994 231.755 264.887 240.55 265C242.84 265.045 245.115 264.626 247.239 263.77C249.363 262.914 251.292 261.637 252.91 260.017C254.601 258.303 256.007 256.33 257.075 254.173C254.907 259.189 250.579 263.653 245.52 265.041C237.253 267.533 228.613 263.71 222.01 258.824L216.781 254.701C212.561 251.079 208.669 247.092 205.152 242.786C195.896 231.771 187.846 219.799 181.139 207.073C169.122 185.328 159.934 162.138 153.797 138.066C152.506 133.285 151.182 125.891 150.183 121.021C148.559 110.989 147.633 100.689 148.665 90.5192C148.911 86.1183 149.825 81.7804 151.377 77.6545C155.721 65.7557 166.717 60.5692 178.467 65.8206L178.5 65.7963Z" fill="#B22222"/>
<path d="M250.197 175.248C254.214 186.882 257.267 198.826 259.325 210.961C260.802 220.076 261.493 229.466 260.526 238.671C260.226 241.716 259.558 244.714 258.537 247.599C258.537 247.805 258.46 248.003 258.319 248.154C258.179 248.304 257.987 248.396 257.782 248.41L258.472 247.915C254.241 260.09 243.611 261.137 233.525 254.879L233.712 254.969L233.501 254.863L233.249 254.685L233.509 254.863H233.444C233.444 254.863 233.923 254.969 233.866 254.969H233.59L233.371 254.831L233.192 254.717C227.11 251.032 221.369 245.537 216.569 240.107C209.331 231.825 202.859 222.904 197.234 213.453C183.962 191.54 173.607 167.99 166.432 143.399C161.284 125.323 157.686 106.736 158.661 90.9252C159.14 80.7065 163.087 65.3825 176.072 66.884C193.848 69.6437 210.99 95.0728 220.004 109.472C221.563 111.988 223.017 114.569 224.471 117.15C222.936 114.617 221.409 112.085 219.777 109.61C210.844 96.2903 201.099 82.5977 187.749 73.3691C164.784 57.9477 159.416 80.8769 160.626 100.097L160.521 99.6911C160.63 99.8906 160.67 100.121 160.634 100.345C160.599 100.57 160.491 100.776 160.326 100.933L160.626 100.121C161.381 114.577 164.565 128.813 168.601 142.717C178.159 173.746 191.818 204.013 211.258 230.205C217.755 238.719 225.063 247.071 234.094 252.931H234.029H234.086L234.159 252.972L234.321 253.077L233.826 252.939H234.11L234.272 253.037L234.329 253.077L234.589 253.256L234.337 253.077H234.297C236.367 254.353 238.58 255.38 240.891 256.137C248.394 258.678 254.517 254.514 257.002 247.323L257.7 246.828C257.509 246.844 257.329 246.929 257.194 247.066C257.058 247.202 256.976 247.383 256.961 247.574L257.01 247.315C263.84 226.804 256.198 195.645 250.164 175.232L250.197 175.248Z" fill="#B22222"/>
<path d="M210.715 189.963C206.118 191.716 200.905 185.256 198.355 182.074C191.29 172.602 183.356 154.299 186.913 142.53C187.106 141.904 187.437 141.329 187.883 140.848C188.329 140.368 188.877 139.994 189.487 139.754C188.971 140.084 188.532 140.521 188.198 141.035C187.865 141.548 187.645 142.127 187.554 142.733C185.93 153.893 193.97 171.539 199.906 180.986C202.188 184.176 206.24 190.726 210.715 189.963Z" fill="#B1BBD5"/>
<path d="M99.5268 245.773C99.7054 251.162 100.071 256.949 102.726 261.689C104.237 264.798 108.484 267.265 107.461 271.315C106.226 275.893 104.756 280.52 105.211 285.276C105.727 289.249 107.058 293.073 109.12 296.509C111.183 299.945 113.932 302.918 117.197 305.243C117.355 305.352 117.477 305.507 117.546 305.686C117.615 305.866 117.63 306.061 117.587 306.249C115.963 312.807 113.218 319.17 108.589 324.105C107.097 325.764 105.341 327.165 103.392 328.253C105.15 326.939 106.713 325.384 108.037 323.635C111.959 318.481 114.323 312.15 115.565 305.851L116.036 306.915C108.792 302.045 103.571 294.163 102.832 285.43C102.369 280.373 103.985 275.552 105.439 270.82C106.015 268.864 104.886 267.704 103.652 266.007C99.0476 260.391 98.7797 252.623 99.5268 245.716V245.773Z" fill="#B1BBD5"/>
<path style="mix-blend-mode:overlay" d="M157.272 86.4367C157.199 86.599 157.11 86.7532 157.037 86.9156C157.11 86.5584 157.183 86.2175 157.256 85.8766C157.418 85.6981 157.564 85.5114 157.694 85.3409C158.027 84.9189 158.344 84.5293 158.612 84.1721L158.864 83.8718L158.636 84.1721C158.636 84.2371 158.547 84.2939 158.498 84.3588C158.45 84.4238 158.271 84.6997 158.157 84.8783C158.044 85.0569 157.914 85.2598 157.808 85.4627C157.653 85.706 157.512 85.958 157.386 86.2175C157.342 86.2872 157.304 86.3605 157.272 86.4367Z" fill="url(#paint10_linear_142_701)"/>
<path d="M165.929 306.744L172.986 312.166L161.657 307.061L154.601 301.639L165.929 306.744Z" fill="#DD5151"/>
<path d="M174.878 275.162L181.935 280.592L189.398 290.746L182.341 285.324L174.878 275.162Z" fill="#DD5151"/>
<path d="M177.087 309.171L184.144 314.592L171.443 328.277L164.378 322.855L177.087 309.171Z" fill="#DD5151"/>
<path d="M197.201 280.016L204.258 285.438L194.286 301.354L187.229 295.933L197.201 280.016Z" fill="#DD5151"/>
<path d="M190.706 309.495L197.762 314.917L184.144 314.593L177.087 309.171L190.706 309.495Z" fill="#DD5151"/>
<path d="M187.229 295.933L194.286 301.354L197.762 314.917L190.705 309.495L187.229 295.933Z" fill="#DD5151"/>
<path d="M174.878 275.162L182.341 285.324L197.202 280.016L187.229 295.933L190.705 309.495L177.087 309.171L164.378 322.855L165.929 306.744L154.601 301.639L169.169 292.004L174.878 275.162Z" fill="url(#paint11_linear_142_701)"/>
<path d="M11.3608 90.3813L6.04175 92.1023C6.4724 91.9603 6.91562 91.8597 7.36541 91.8019L12.6844 90.0809C12.2349 90.1398 11.7917 90.2403 11.3608 90.3813Z" fill="#C43030"/>
<path d="M16.7608 96.5661L22.088 94.8454C19.7817 91.5501 16.2249 89.5859 12.6843 90.0728L7.36523 91.7936C10.8734 91.3066 14.4627 93.2708 16.7608 96.5661Z" fill="#C43030"/>
<path d="M23.103 128.164L28.4221 126.443C44.7446 113.936 40.9766 98.7495 40.7817 97.9541L35.4627 99.6748C35.6576 100.47 39.4255 115.656 23.103 128.164Z" fill="#B22222"/>
<path d="M27.7885 88.1249L22.4695 89.8456C22.8999 89.7028 23.3432 89.6022 23.7932 89.5453C28.9741 88.831 34.1957 93.3682 35.4625 99.6747L40.7816 97.954C39.5147 91.6475 34.285 87.1103 29.1122 87.8164C28.6629 87.8808 28.22 87.984 27.7885 88.1249Z" fill="#B22222"/>
<path d="M7.36519 91.7935C2.18421 92.4996 -0.982844 98.1893 0.275857 104.496C0.405788 105.308 2.7689 120.672 23.103 128.164C39.4255 115.656 35.6576 100.47 35.4627 99.6746C34.1958 93.3681 28.9661 88.8309 23.7933 89.5452C20.2608 90.0241 17.6541 92.8324 16.7608 96.566C14.4626 93.2707 10.8733 91.3065 7.36519 91.7935Z" fill="url(#paint12_linear_142_701)"/>
<g style="mix-blend-mode:overlay" opacity="0.5">
<path d="M7.36519 91.7935C2.18421 92.4996 -0.982844 98.1893 0.275857 104.496C0.405788 105.308 2.7689 120.672 23.103 128.164C39.4255 115.656 35.6576 100.47 35.4627 99.6746C34.1958 93.3681 28.9661 88.8309 23.7933 89.5452C20.2608 90.0241 17.6541 92.8324 16.7608 96.566C14.4626 93.2707 10.8733 91.3065 7.36519 91.7935Z" fill="url(#paint13_linear_142_701)"/>
</g>
<path d="M63.6007 138.74L67.4661 137.327C67.1539 137.441 66.8523 137.583 66.5647 137.749C65.9922 138.092 65.4793 138.525 65.0462 139.032L61.1726 140.452C61.6045 139.941 62.1209 139.507 62.6993 139.17C62.985 138.997 63.2869 138.853 63.6007 138.74Z" fill="#C43030"/>
<path d="M51.3877 133.471L55.2613 132.051C54.9475 132.165 54.6456 132.309 54.3599 132.481L50.4863 133.893C50.773 133.725 51.0748 133.583 51.3877 133.471Z" fill="#B22222"/>
<path d="M67.1663 159.834L63.2927 161.255C61.2185 161.996 59.0511 162.444 56.853 162.586L60.7185 161.166C62.9192 161.023 65.0893 160.575 67.1663 159.834Z" fill="#B22222"/>
<path d="M51.2088 137.254L47.3352 138.675C47.49 137.7 47.8511 136.769 48.3944 135.945C48.9378 135.12 49.6508 134.421 50.486 133.894L54.3596 132.482C53.5236 133.006 52.8097 133.703 52.2662 134.526C51.7227 135.35 51.3621 136.28 51.2088 137.254Z" fill="#B22222"/>
<path d="M60.7183 161.165L56.8529 162.618C44.5988 149.729 47.2056 139.259 47.3355 138.707L51.209 137.287C51.071 137.806 48.4643 148.285 60.7183 161.165Z" fill="#B22222"/>
<path d="M54.3596 132.482C55.1737 132.016 56.0878 131.754 57.0249 131.715C57.9619 131.677 58.8944 131.865 59.7436 132.263C61.0836 132.915 62.2574 133.863 63.1762 135.036C64.095 136.209 64.7345 137.575 65.0464 139.032C65.4795 138.525 65.9924 138.092 66.565 137.749C67.3812 137.286 68.2964 137.024 69.2344 136.986C70.1724 136.948 71.1059 137.135 71.9571 137.53C75.8063 139.154 78.2262 144.121 77.3654 148.544C76.9444 150.631 76.0721 152.601 74.8097 154.316C73.5472 156.03 71.9251 157.449 70.0569 158.471C67.185 160.078 63.9807 161 60.6937 161.166C48.4397 148.285 51.0464 137.806 51.1844 137.254C51.3406 136.278 51.7049 135.346 52.2527 134.523C52.8006 133.7 53.5191 133.003 54.3596 132.482Z" fill="url(#paint14_linear_142_701)"/>
<g style="mix-blend-mode:overlay" opacity="0.5">
<path d="M54.3594 132.482C55.1734 132.016 56.0876 131.754 57.0246 131.715C57.9617 131.677 58.8941 131.865 59.7434 132.263C61.0833 132.915 62.2572 133.863 63.1759 135.036C64.0947 136.209 64.7343 137.575 65.0462 139.032C65.4793 138.525 65.9922 138.092 66.5647 137.749C67.3809 137.286 68.2962 137.024 69.2342 136.986C70.1722 136.948 71.1057 137.135 71.9568 137.53C75.806 139.154 78.226 144.121 77.3652 148.544C76.9441 150.631 76.0719 152.601 74.8094 154.316C73.547 156.03 71.9249 157.449 70.0566 158.471C67.1848 160.078 63.9805 161 60.6935 161.166C48.4394 148.285 51.0461 137.806 51.1842 137.254C51.3403 136.278 51.7047 135.346 52.2525 134.523C52.8003 133.7 53.5188 133.003 54.3594 132.482Z" fill="url(#paint15_linear_142_701)"/>
</g>
<path d="M129.362 57.3311L133.561 59.4904L133.293 59.3605L129.094 57.2012L129.362 57.3311Z" fill="#B1BBD5"/>
<path d="M117.677 77.1839L121.875 79.3433L121.623 79.2215L117.425 77.0621L117.677 77.1839Z" fill="#B1BBD5"/>
<path d="M122.614 67.2817L126.812 69.441L126.56 69.3193L122.362 67.1599L122.614 67.2817Z" fill="#B1BBD5"/>
<path d="M110.709 86.031L114.907 88.1904L114.663 88.0767L110.465 85.9174L110.709 86.031Z" fill="#B1BBD5"/>
<path d="M117.319 52.3718L113.121 50.2128L129.094 57.2011L133.293 59.3601L117.319 52.3718Z" fill="#B1BBD5"/>
<path d="M126.609 22.5109L130.808 24.6378L130.613 24.5485L126.414 22.3892L126.609 22.5109Z" fill="#B1BBD5"/>
<path d="M125.724 26.0743L121.526 23.9153C122.051 23.1546 122.818 22.5934 123.702 22.3223C124.586 22.0513 125.536 22.0864 126.398 22.4218L130.596 24.5808C129.735 24.2454 128.785 24.2103 127.901 24.4814C127.016 24.7524 126.249 25.3136 125.724 26.0743Z" fill="#B1BBD5"/>
<path d="M121.526 31.6731L117.327 29.5145L121.526 23.9149L125.732 26.0736L121.526 31.6731Z" fill="#B1BBD5"/>
<path d="M113.307 38.8008L109.133 36.6418C112.35 34.8863 115.146 32.4517 117.327 29.5073L121.534 31.6663C119.347 34.6176 116.539 37.053 113.307 38.8008Z" fill="#B1BBD5"/>
<path d="M107.631 41.8365L103.433 39.6775L109.109 36.6418L113.307 38.8009L107.631 41.8365Z" fill="#B1BBD5"/>
<path d="M88.2311 87.9466L84.0327 85.7876C82.0289 84.75 80.33 83.2087 79.1034 81.3154C78.4155 80.264 77.5815 79.3158 76.6266 78.4989C75.8783 77.8678 75.0611 77.3232 74.1904 76.8756L78.3888 79.0346C80.3916 80.0699 82.0904 81.6084 83.3181 83.4987C84.5411 85.3829 86.2345 86.9159 88.2311 87.9466Z" fill="#B1BBD5"/>
<path d="M73.8087 76.9811L69.6104 74.8221L85.0315 40.7245L89.2298 42.8835L73.8087 76.9811Z" fill="#B1BBD5"/>
<path d="M130.613 24.5806C131.43 24.9431 132.08 25.6013 132.432 26.4231C133.317 28.4603 133.625 31.2118 132.05 34.6938C128.233 43.1269 123.848 47.3637 123.613 47.5829L117.319 52.3716L133.292 59.36C135.98 60.545 137.085 63.9296 135.729 66.8921C135.103 68.3027 133.978 69.4327 132.57 70.0657C131.92 70.3703 131.212 70.5342 130.495 70.5468C129.777 70.5594 129.064 70.4203 128.404 70.1387L126.544 69.3271C129.053 70.4309 130.085 73.5964 128.834 76.356C128.25 77.6746 127.201 78.7321 125.886 79.3266C125.278 79.6112 124.617 79.7648 123.945 79.7774C123.274 79.7899 122.607 79.6613 121.988 79.3997L121.607 79.2293C124.084 80.3169 125.107 83.4336 123.872 86.1608C123.289 87.4593 122.253 88.501 120.957 89.0908C120.358 89.3711 119.706 89.5225 119.044 89.535C118.383 89.5476 117.726 89.4212 117.116 89.1639L114.68 88.0844C117.059 89.1233 118.042 92.1427 116.856 94.7643C116.295 96.0098 115.299 97.0082 114.055 97.5726C113.478 97.8411 112.851 97.9863 112.215 97.9989C111.579 98.0115 110.947 97.8912 110.36 97.6457L88.9374 88.2711C86.6351 87.2486 84.6799 85.5792 83.3098 83.4661C82.6187 82.4123 81.7821 81.4614 80.8248 80.6415C79.8734 79.834 78.8093 79.1696 77.6659 78.6692L73.8086 76.981L89.2378 42.8915C92.1138 44.1406 95.2431 44.6967 98.3736 44.5148C101.619 44.3075 104.781 43.3962 107.639 41.8445L113.324 38.8089C116.554 37.0635 119.362 34.6309 121.55 31.6826L125.74 26.0822C126.265 25.3201 127.031 24.7572 127.915 24.4847C128.799 24.2122 129.75 24.246 130.613 24.5806Z" fill="url(#paint16_linear_142_701)"/>
<path d="M89.2296 42.8836L85.0312 40.7245C87.9057 41.9784 91.0363 42.5346 94.167 42.3479C97.4183 42.1421 100.586 41.2308 103.449 39.6775L107.647 41.8365C104.789 43.3883 101.627 44.2995 98.3816 44.5069C95.2458 44.6913 92.1105 44.1352 89.2296 42.8836Z" fill="#B1BBD5"/>
<path d="M68.4411 31.4959L64.2427 29.3369L84.5849 38.2408L88.7833 40.3998L68.4411 31.4959Z" fill="#B22222"/>
<path d="M84.6575 38.2812L88.8315 40.4405H88.7584L84.5601 38.2731L84.6575 38.2812Z" fill="#B22222"/>
<path d="M50.8594 70.1875L46.6529 68.0285C46.3214 67.8328 46.0767 67.5187 45.9681 67.1495C45.8596 66.7803 45.8953 66.3837 46.0682 66.0399L50.2747 68.1989C50.0978 68.542 50.0599 68.9399 50.1688 69.3102C50.2776 69.6805 50.525 69.9947 50.8594 70.1875Z" fill="#B22222"/>
<path d="M50.2746 68.1988L46.0681 66.0398L62.2769 30.2134L66.4753 32.3724L50.2746 68.1988Z" fill="#B22222"/>
<path d="M66.4757 32.3724L62.2773 30.2133C62.4262 29.8402 62.7148 29.5398 63.0818 29.3761C63.4488 29.2124 63.8653 29.1982 64.2425 29.3367L68.4409 31.4958C68.0635 31.3594 67.6479 31.3745 67.2815 31.538C66.915 31.7015 66.6262 32.0005 66.4757 32.3724Z" fill="#B22222"/>
<path d="M88.783 40.4077C88.9595 40.4955 89.1168 40.6175 89.2457 40.7667C89.3746 40.9158 89.4725 41.0891 89.5337 41.2765C89.595 41.4638 89.6182 41.6615 89.6023 41.8579C89.5863 42.0543 89.5314 42.2456 89.4407 42.4206L89.2296 42.8833L73.8003 76.9728L73.2238 78.2471C73.0751 78.6181 72.7873 78.9165 72.4218 79.0788C72.0563 79.241 71.6418 79.2542 71.2667 79.1155L50.9651 70.1873C50.7882 70.0987 50.6308 69.9759 50.5018 69.8261C50.3728 69.6762 50.2749 69.5022 50.2137 69.3142C50.1525 69.1262 50.1293 68.9279 50.1453 68.7309C50.1614 68.5338 50.2164 68.3419 50.3073 68.1663L66.508 32.3399C66.6585 31.9681 66.9473 31.669 67.3137 31.5056C67.6802 31.3421 68.0958 31.327 68.4732 31.4633L88.783 40.4077Z" fill="url(#paint17_linear_142_701)"/>
<path d="M364 109.293L334.027 153.057L328.537 138.675L324.526 140.217L324.355 140.282L312.052 145.006L311.874 145.071L259.195 165.346L248.289 137.717L300.091 117.783L300.285 117.71L313.758 112.548L313.912 112.483L317.956 110.94L312.483 96.558L364 109.293Z" fill="#EAAE7C"/>
<g style="mix-blend-mode:overlay">
<path d="M364 109.293L334.027 153.057L328.537 138.675L324.526 140.217L324.355 140.282L312.052 145.006L311.874 145.071L259.195 165.346L248.289 137.717L300.091 117.783L300.285 117.71L313.758 112.548L313.912 112.483L317.956 110.94L312.483 96.558L364 109.293Z" fill="url(#paint18_linear_142_701)"/>
</g>
<path d="M287.008 97.6051L267.015 126.8L263.352 117.207L260.673 118.237L260.567 118.278L252.357 121.427L252.235 121.476L240.964 125.794L233.688 107.369L244.375 103.27L244.504 103.222L253.494 99.7722L253.6 99.7316L256.296 98.7008L252.641 89.1071L287.008 97.6051Z" fill="#EAAE7C"/>
<g style="mix-blend-mode:overlay">
<path d="M287.008 97.6051L267.015 126.8L263.352 117.207L260.673 118.237L260.567 118.278L252.357 121.427L252.235 121.476L240.964 125.794L233.688 107.369L244.375 103.27L244.504 103.222L253.494 99.7722L253.6 99.7316L256.296 98.7008L252.641 89.1071L287.008 97.6051Z" fill="url(#paint19_linear_142_701)"/>
</g>
<path d="M313.668 172.082L293.675 201.286L290.021 191.684L287.333 192.715L287.227 192.763L279.017 195.912L278.895 195.961L267.624 200.279L260.348 181.847L271.035 177.748L271.165 177.707L280.154 174.258L280.26 174.217L282.956 173.186L279.302 163.592L313.668 172.082Z" fill="#EAAE7C"/>
<g style="mix-blend-mode:overlay">
<path d="M313.668 172.082L293.675 201.286L290.021 191.684L287.333 192.715L287.227 192.763L279.017 195.912L278.895 195.961L267.624 200.279L260.348 181.847L271.035 177.748L271.165 177.707L280.154 174.258L280.26 174.217L282.956 173.186L279.302 163.592L313.668 172.082Z" fill="url(#paint20_linear_142_701)"/>
</g>
<path d="M228.97 40.1967L223.626 44.8475L227.833 32.3642L233.184 27.7216L228.97 40.1967Z" fill="#DD5151"/>
<path d="M252.162 70.0817L246.811 74.7244L233.111 66.0235L238.463 61.3727L252.162 70.0817Z" fill="#DD5151"/>
<path d="M227.045 52.1929L221.693 56.8356L209.861 45.0098L215.213 40.359L227.045 52.1929Z" fill="#DD5151"/>
<path d="M226.948 66.543L221.596 71.1857L221.694 56.8357L227.045 52.193L226.948 66.543Z" fill="#DD5151"/>
<path d="M238.463 61.3727L233.111 66.0235L221.596 71.1856L226.948 66.5429L238.463 61.3727Z" fill="#DD5151"/>
<path d="M233.184 27.7216L241.589 41.9661L256.011 46.0893L247.452 55.0499L252.162 70.0818L238.462 61.3727L226.947 66.543L227.044 52.1929L215.213 40.359L228.969 40.1967L233.184 27.7216Z" fill="url(#paint21_linear_142_701)"/>
<defs>
<linearGradient id="paint0_linear_142_701" x1="25.0438" y1="229.88" x2="69.2689" y2="229.88" gradientUnits="userSpaceOnUse">
<stop stop-color="#F1F1F1"/>
<stop offset="1" stop-color="#C7CEE7"/>
</linearGradient>
<linearGradient id="paint1_linear_142_701" x1="86.3144" y1="168.941" x2="231.284" y2="168.941" gradientUnits="userSpaceOnUse">
<stop stop-color="#F1F1F1"/>
<stop offset="1" stop-color="#C7CEE7"/>
</linearGradient>
<linearGradient id="paint2_linear_142_701" x1="36.5185" y1="211.927" x2="127.519" y2="211.927" gradientUnits="userSpaceOnUse">
<stop stop-color="#DC3F4F"/>
<stop offset="0.12" stop-color="#DD4E58"/>
<stop offset="0.28" stop-color="#DE5B5F"/>
<stop offset="0.49" stop-color="#DF6263"/>
<stop offset="1" stop-color="#DF6464"/>
</linearGradient>
<linearGradient id="paint3_linear_142_701" x1="110.684" y1="193.307" x2="132.793" y2="251.535" gradientUnits="userSpaceOnUse">
<stop stop-opacity="0"/>
<stop offset="1"/>
</linearGradient>
<linearGradient id="paint4_linear_142_701" x1="151.092" y1="106.72" x2="210.069" y2="262.066" gradientUnits="userSpaceOnUse">
<stop stop-opacity="0"/>
<stop offset="1"/>
</linearGradient>
<linearGradient id="paint5_linear_142_701" x1="159.457" y1="166.677" x2="246.502" y2="166.677" gradientUnits="userSpaceOnUse">
<stop stop-opacity="0"/>
<stop offset="1"/>
</linearGradient>
<linearGradient id="paint6_linear_142_701" x1="217.698" y1="166.498" x2="185.643" y2="179.602" gradientUnits="userSpaceOnUse">
<stop stop-opacity="0"/>
<stop offset="1"/>
</linearGradient>
<linearGradient id="paint7_linear_142_701" x1="186.669" y1="163.942" x2="222.002" y2="163.942" gradientUnits="userSpaceOnUse">
<stop stop-color="#F1F1F1"/>
<stop offset="1" stop-color="#C7CEE7"/>
</linearGradient>
<linearGradient id="paint8_linear_142_701" x1="148.998" y1="164.672" x2="261.111" y2="164.672" gradientUnits="userSpaceOnUse">
<stop stop-color="#DC3F4F"/>
<stop offset="0.12" stop-color="#DD4E58"/>
<stop offset="0.28" stop-color="#DE5B5F"/>
<stop offset="0.49" stop-color="#DF6263"/>
<stop offset="1" stop-color="#DF6464"/>
</linearGradient>
<linearGradient id="paint9_linear_142_701" x1="76.565" y1="288.251" x2="114.951" y2="287.867" gradientUnits="userSpaceOnUse">
<stop stop-color="#F1F1F1"/>
<stop offset="1" stop-color="#C7CEE7"/>
</linearGradient>
<linearGradient id="paint10_linear_142_701" x1="157.564" y1="84.3669" x2="158.343" y2="86.4207" gradientUnits="userSpaceOnUse">
<stop stop-opacity="0"/>
<stop offset="1"/>
</linearGradient>
<linearGradient id="paint11_linear_142_701" x1="154.601" y1="299.009" x2="197.202" y2="299.009" gradientUnits="userSpaceOnUse">
<stop stop-color="#EAAE7C"/>
<stop offset="1" stop-color="#E48E50"/>
</linearGradient>
<linearGradient id="paint12_linear_142_701" x1="-0.000245051" y1="108.814" x2="35.9743" y2="108.814" gradientUnits="userSpaceOnUse">
<stop stop-color="#DC3F4F"/>
<stop offset="0.12" stop-color="#DD4E58"/>
<stop offset="0.28" stop-color="#DE5B5F"/>
<stop offset="0.49" stop-color="#DF6263"/>
<stop offset="1" stop-color="#DF6464"/>
</linearGradient>
<linearGradient id="paint13_linear_142_701" x1="33.1628" y1="95.5942" x2="5.47196" y2="116.987" gradientUnits="userSpaceOnUse">
<stop stop-opacity="0"/>
<stop offset="1"/>
</linearGradient>
<linearGradient id="paint14_linear_142_701" x1="50.884" y1="146.442" x2="77.536" y2="146.442" gradientUnits="userSpaceOnUse">
<stop stop-color="#DC3F4F"/>
<stop offset="0.12" stop-color="#DD4E58"/>
<stop offset="0.28" stop-color="#DE5B5F"/>
<stop offset="0.49" stop-color="#DF6263"/>
<stop offset="1" stop-color="#DF6464"/>
</linearGradient>
<linearGradient id="paint15_linear_142_701" x1="50.8837" y1="146.442" x2="77.5357" y2="146.442" gradientUnits="userSpaceOnUse">
<stop stop-opacity="0"/>
<stop offset="1"/>
</linearGradient>
<linearGradient id="paint16_linear_142_701" x1="73.8086" y1="61.1375" x2="136.313" y2="61.1375" gradientUnits="userSpaceOnUse">
<stop stop-color="#F1F1F1"/>
<stop offset="1" stop-color="#C7CEE7"/>
</linearGradient>
<linearGradient id="paint17_linear_142_701" x1="50.1205" y1="55.3097" x2="89.595" y2="55.3097" gradientUnits="userSpaceOnUse">
<stop stop-color="#DC3F4F"/>
<stop offset="0.12" stop-color="#DD4E58"/>
<stop offset="0.28" stop-color="#DE5B5F"/>
<stop offset="0.49" stop-color="#DF6263"/>
<stop offset="1" stop-color="#DF6464"/>
</linearGradient>
<linearGradient id="paint18_linear_142_701" x1="291.666" y1="136.434" x2="250.072" y2="151.712" gradientUnits="userSpaceOnUse">
<stop stop-opacity="0"/>
<stop offset="1"/>
</linearGradient>
<linearGradient id="paint19_linear_142_701" x1="254.42" y1="109.973" x2="235.661" y2="116.862" gradientUnits="userSpaceOnUse">
<stop stop-opacity="0"/>
<stop offset="1"/>
</linearGradient>
<linearGradient id="paint20_linear_142_701" x1="281.073" y1="184.464" x2="262.314" y2="191.353" gradientUnits="userSpaceOnUse">
<stop stop-opacity="0"/>
<stop offset="1"/>
</linearGradient>
<linearGradient id="paint21_linear_142_701" x1="215.213" y1="48.8976" x2="256.011" y2="48.8976" gradientUnits="userSpaceOnUse">
<stop stop-color="#EAAE7C"/>
<stop offset="1" stop-color="#E48E50"/>
</linearGradient>
</defs>
</svg>
