<svg width="470" height="468" viewBox="0 0 470 468" fill="none" xmlns="http://www.w3.org/2000/svg">
<path fill-rule="evenodd" clip-rule="evenodd" d="M342.392 100.44C371.496 127.504 408.575 150.256 414.566 189.574C421.53 235.28 408.574 284.93 375.428 317.273C341.407 350.47 291.346 353.605 243.922 356.082C188.891 358.957 119.723 376.409 86.753 332.351C53.8306 288.357 91.5296 227.43 108.446 175.047C119.689 140.23 138.361 110.416 166.126 86.5561C192.942 63.5128 224.22 42.5354 259.422 45.3083C293.869 48.0216 317.116 76.9367 342.392 100.44Z" fill="#F2F0FD"/>
<path d="M334.324 135.906H119.557C116.153 135.906 113.394 138.669 113.394 142.077V309.393C113.394 312.801 116.153 315.564 119.557 315.564H334.324C337.728 315.564 340.487 312.801 340.487 309.393V142.077C340.487 138.669 337.728 135.906 334.324 135.906Z" fill="#EDEDED"/>
<path d="M340.487 168.29V144.141C340.487 141.957 339.62 139.863 338.078 138.318C336.536 136.774 334.444 135.906 332.263 135.906H121.618C119.437 135.906 117.345 136.774 115.803 138.318C114.261 139.863 113.394 141.957 113.394 144.141V168.29H340.487Z" fill="#E26573"/>
<g style="mix-blend-mode:multiply" opacity="0.15">
<path d="M316.501 158.869C317.765 158.867 319.015 158.616 320.182 158.13C321.349 157.644 322.408 156.932 323.3 156.036C324.192 155.14 324.899 154.077 325.381 152.907C325.863 151.737 326.109 150.484 326.107 149.219V135.906H306.895V149.219C306.893 150.484 307.14 151.737 307.621 152.907C308.103 154.077 308.81 155.14 309.702 156.036C310.594 156.932 311.654 157.644 312.82 158.13C313.987 158.616 315.238 158.867 316.501 158.869Z" fill="black"/>
<path d="M290.698 158.869C291.962 158.867 293.213 158.616 294.379 158.13C295.546 157.644 296.605 156.932 297.497 156.036C298.389 155.14 299.096 154.077 299.578 152.907C300.06 151.737 300.307 150.484 300.305 149.219V135.906H281.092V149.219C281.09 150.484 281.337 151.737 281.819 152.907C282.3 154.077 283.007 155.14 283.899 156.036C284.791 156.932 285.851 157.644 287.018 158.13C288.184 158.616 289.435 158.867 290.698 158.869Z" fill="black"/>
<path d="M135.898 158.869C138.447 158.861 140.889 157.84 142.687 156.031C144.485 154.221 145.493 151.771 145.489 149.219V135.906H126.276V149.219C126.274 150.485 126.522 151.74 127.004 152.911C127.487 154.081 128.195 155.145 129.089 156.042C129.983 156.938 131.044 157.649 132.212 158.134C133.381 158.619 134.633 158.869 135.898 158.869Z" fill="black"/>
<path d="M264.896 158.869C266.159 158.867 267.41 158.616 268.577 158.13C269.743 157.644 270.803 156.932 271.695 156.036C272.587 155.14 273.294 154.077 273.776 152.907C274.257 151.737 274.504 150.484 274.502 149.219V135.906H255.29V149.219C255.288 150.484 255.534 151.737 256.016 152.907C256.498 154.077 257.205 155.14 258.097 156.036C258.989 156.932 260.048 157.644 261.215 158.13C262.382 158.616 263.632 158.867 264.896 158.869Z" fill="black"/>
<path d="M187.487 158.869C188.751 158.867 190.002 158.616 191.168 158.13C192.335 157.644 193.394 156.932 194.286 156.036C195.178 155.14 195.885 154.077 196.367 152.907C196.849 151.737 197.096 150.484 197.094 149.219V135.906H177.896V149.219C177.892 151.771 178.9 154.221 180.698 156.031C182.496 157.84 184.938 158.861 187.487 158.869Z" fill="black"/>
<path d="M161.685 158.869C162.949 158.867 164.199 158.616 165.366 158.13C166.533 157.644 167.592 156.932 168.484 156.036C169.376 155.14 170.083 154.077 170.565 152.907C171.047 151.737 171.294 150.484 171.292 149.219V135.906H152.079V149.219C152.077 150.484 152.324 151.737 152.805 152.907C153.287 154.077 153.994 155.14 154.886 156.036C155.778 156.932 156.838 157.644 158.004 158.13C159.171 158.616 160.422 158.867 161.685 158.869Z" fill="black"/>
<path d="M213.29 158.869C214.554 158.867 215.805 158.616 216.971 158.13C218.138 157.644 219.197 156.932 220.089 156.036C220.981 155.14 221.689 154.077 222.17 152.907C222.652 151.737 222.899 150.484 222.897 149.219V135.906H203.684V149.219C203.682 150.484 203.929 151.737 204.411 152.907C204.892 154.077 205.599 155.14 206.491 156.036C207.383 156.932 208.443 157.644 209.61 158.13C210.776 158.616 212.027 158.867 213.29 158.869Z" fill="black"/>
<path d="M239.093 158.869C240.357 158.867 241.607 158.616 242.774 158.13C243.941 157.644 245 156.932 245.892 156.036C246.784 155.14 247.491 154.077 247.973 152.907C248.455 151.737 248.701 150.484 248.699 149.219V135.906H229.487V149.219C229.485 150.484 229.732 151.737 230.213 152.907C230.695 154.077 231.402 155.14 232.294 156.036C233.186 156.932 234.246 157.644 235.412 158.13C236.579 158.616 237.83 158.867 239.093 158.869Z" fill="black"/>
</g>
<path d="M135.898 153.807C134.469 153.803 133.099 153.233 132.088 152.221C131.077 151.21 130.506 149.839 130.5 148.408V128.42C130.506 126.989 131.077 125.618 132.088 124.606C133.099 123.595 134.469 123.025 135.898 123.021C137.328 123.025 138.697 123.595 139.709 124.606C140.72 125.618 141.291 126.989 141.297 128.42V148.4C141.293 149.833 140.723 151.206 139.711 152.219C138.7 153.232 137.329 153.803 135.898 153.807Z" fill="#EDEDED"/>
<path d="M161.686 153.807C160.257 153.803 158.887 153.233 157.876 152.221C156.864 151.21 156.293 149.839 156.287 148.408V128.42C156.293 126.989 156.864 125.618 157.876 124.606C158.887 123.595 160.257 123.025 161.686 123.021C163.115 123.025 164.485 123.595 165.496 124.606C166.508 125.618 167.079 126.989 167.085 128.42V148.4C167.081 149.833 166.511 151.206 165.499 152.219C164.487 153.232 163.117 153.803 161.686 153.807Z" fill="#EDEDED"/>
<path d="M187.488 153.807C186.059 153.803 184.689 153.233 183.678 152.221C182.667 151.21 182.096 149.839 182.09 148.408V128.42C182.096 126.989 182.667 125.618 183.678 124.606C184.689 123.595 186.059 123.025 187.488 123.021C188.918 123.025 190.287 123.595 191.299 124.606C192.31 125.618 192.881 126.989 192.887 128.42V148.4C192.883 149.833 192.313 151.206 191.301 152.219C190.29 153.232 188.919 153.803 187.488 153.807Z" fill="#EDEDED"/>
<path d="M213.291 153.807C211.862 153.803 210.492 153.233 209.481 152.221C208.469 151.21 207.898 149.839 207.892 148.408V128.42C207.898 126.989 208.469 125.618 209.481 124.606C210.492 123.595 211.862 123.025 213.291 123.021C214.72 123.025 216.09 123.595 217.102 124.606C218.113 125.618 218.684 126.989 218.69 128.42V148.4C218.686 149.833 218.116 151.206 217.104 152.219C216.093 153.232 214.722 153.803 213.291 153.807Z" fill="#EDEDED"/>
<path d="M240.446 123.021H237.735C235.504 123.021 233.695 124.832 233.695 127.066V149.762C233.695 151.996 235.504 153.807 237.735 153.807H240.446C242.677 153.807 244.485 151.996 244.485 149.762V127.066C244.485 124.832 242.677 123.021 240.446 123.021Z" fill="#EDEDED"/>
<path d="M264.896 153.807C263.467 153.803 262.097 153.233 261.086 152.221C260.075 151.21 259.504 149.839 259.498 148.408V128.42C259.504 126.989 260.075 125.618 261.086 124.606C262.097 123.595 263.467 123.025 264.896 123.021C266.326 123.023 267.697 123.592 268.709 124.604C269.721 125.616 270.291 126.988 270.295 128.42V148.4C270.293 149.834 269.724 151.208 268.712 152.221C267.7 153.234 266.328 153.805 264.896 153.807Z" fill="#EDEDED"/>
<path d="M290.699 153.807C289.27 153.803 287.9 153.233 286.889 152.221C285.877 151.21 285.306 149.839 285.3 148.408V128.42C285.306 126.989 285.877 125.618 286.889 124.606C287.9 123.595 289.27 123.025 290.699 123.021C292.128 123.025 293.497 123.595 294.507 124.607C295.517 125.618 296.086 126.989 296.09 128.42V148.4C296.088 149.832 295.52 151.205 294.509 152.218C293.499 153.232 292.129 153.803 290.699 153.807Z" fill="#EDEDED"/>
<path d="M316.502 153.807C315.072 153.803 313.703 153.233 312.691 152.221C311.68 151.21 311.109 149.839 311.103 148.408V128.42C311.109 126.989 311.68 125.618 312.691 124.606C313.703 123.595 315.072 123.025 316.502 123.021C317.93 123.025 319.299 123.595 320.309 124.607C321.319 125.618 321.889 126.989 321.893 128.42V148.4C321.891 149.832 321.322 151.205 320.312 152.218C319.302 153.232 317.931 153.803 316.502 153.807Z" fill="#EDEDED"/>
<path d="M145.497 175.936H123.269C122.543 175.936 121.955 176.525 121.955 177.252V198.433C121.955 199.159 122.543 199.748 123.269 199.748H145.497C146.223 199.748 146.811 199.159 146.811 198.433V177.252C146.811 176.525 146.223 175.936 145.497 175.936Z" fill="#D9D9D9"/>
<path d="M176.348 175.936H154.119C153.393 175.936 152.805 176.525 152.805 177.252V198.433C152.805 199.159 153.393 199.748 154.119 199.748H176.348C177.073 199.748 177.661 199.159 177.661 198.433V177.252C177.661 176.525 177.073 175.936 176.348 175.936Z" fill="#D9D9D9"/>
<path d="M207.197 175.936H184.968C184.243 175.936 183.655 176.525 183.655 177.252V198.433C183.655 199.159 184.243 199.748 184.968 199.748H207.197C207.923 199.748 208.511 199.159 208.511 198.433V177.252C208.511 176.525 207.923 175.936 207.197 175.936Z" fill="#D9D9D9"/>
<path d="M238.055 175.936H215.826C215.101 175.936 214.513 176.525 214.513 177.252V198.433C214.513 199.159 215.101 199.748 215.826 199.748H238.055C238.781 199.748 239.369 199.159 239.369 198.433V177.252C239.369 176.525 238.781 175.936 238.055 175.936Z" fill="#D9D9D9"/>
<path d="M268.906 175.936H246.677C245.951 175.936 245.363 176.525 245.363 177.252V198.433C245.363 199.159 245.951 199.748 246.677 199.748H268.906C269.631 199.748 270.219 199.159 270.219 198.433V177.252C270.219 176.525 269.631 175.936 268.906 175.936Z" fill="#D9D9D9"/>
<path d="M299.763 175.936H277.534C276.809 175.936 276.221 176.525 276.221 177.252V198.433C276.221 199.159 276.809 199.748 277.534 199.748H299.763C300.489 199.748 301.077 199.159 301.077 198.433V177.252C301.077 176.525 300.489 175.936 299.763 175.936Z" fill="#D9D9D9"/>
<path d="M330.613 175.936H308.384C307.659 175.936 307.071 176.525 307.071 177.252V198.433C307.071 199.159 307.659 199.748 308.384 199.748H330.613C331.339 199.748 331.927 199.159 331.927 198.433V177.252C331.927 176.525 331.339 175.936 330.613 175.936Z" fill="#E26573"/>
<path d="M145.497 210.912H123.269C122.543 210.912 121.955 211.501 121.955 212.227V233.408C121.955 234.135 122.543 234.724 123.269 234.724H145.497C146.223 234.724 146.811 234.135 146.811 233.408V212.227C146.811 211.501 146.223 210.912 145.497 210.912Z" fill="#BFBFBF"/>
<path d="M176.348 210.912H154.119C153.393 210.912 152.805 211.501 152.805 212.227V233.408C152.805 234.135 153.393 234.724 154.119 234.724H176.348C177.073 234.724 177.661 234.135 177.661 233.408V212.227C177.661 211.501 177.073 210.912 176.348 210.912Z" fill="#BFBFBF"/>
<path d="M207.197 210.912H184.968C184.243 210.912 183.655 211.501 183.655 212.227V233.408C183.655 234.135 184.243 234.724 184.968 234.724H207.197C207.923 234.724 208.511 234.135 208.511 233.408V212.227C208.511 211.501 207.923 210.912 207.197 210.912Z" fill="#BFBFBF"/>
<path d="M238.055 210.912H215.826C215.101 210.912 214.513 211.501 214.513 212.227V233.408C214.513 234.135 215.101 234.724 215.826 234.724H238.055C238.781 234.724 239.369 234.135 239.369 233.408V212.227C239.369 211.501 238.781 210.912 238.055 210.912Z" fill="#BFBFBF"/>
<path d="M268.906 210.912H246.677C245.951 210.912 245.363 211.501 245.363 212.227V233.408C245.363 234.135 245.951 234.724 246.677 234.724H268.906C269.631 234.724 270.219 234.135 270.219 233.408V212.227C270.219 211.501 269.631 210.912 268.906 210.912Z" fill="#BFBFBF"/>
<path d="M299.763 210.912H277.534C276.809 210.912 276.221 211.501 276.221 212.227V233.408C276.221 234.135 276.809 234.724 277.534 234.724H299.763C300.489 234.724 301.077 234.135 301.077 233.408V212.227C301.077 211.501 300.489 210.912 299.763 210.912Z" fill="#BFBFBF"/>
<path d="M330.613 210.912H308.384C307.659 210.912 307.071 211.501 307.071 212.227V233.408C307.071 234.135 307.659 234.724 308.384 234.724H330.613C331.339 234.724 331.927 234.135 331.927 233.408V212.227C331.927 211.501 331.339 210.912 330.613 210.912Z" fill="#E26573"/>
<path d="M145.497 245.88H123.269C122.543 245.88 121.955 246.469 121.955 247.195V268.376C121.955 269.103 122.543 269.692 123.269 269.692H145.497C146.223 269.692 146.811 269.103 146.811 268.376V247.195C146.811 246.469 146.223 245.88 145.497 245.88Z" fill="#D9D9D9"/>
<path d="M176.348 245.88H154.119C153.393 245.88 152.805 246.469 152.805 247.195V268.376C152.805 269.103 153.393 269.692 154.119 269.692H176.348C177.073 269.692 177.661 269.103 177.661 268.376V247.195C177.661 246.469 177.073 245.88 176.348 245.88Z" fill="#D9D9D9"/>
<path d="M207.197 245.88H184.968C184.243 245.88 183.655 246.469 183.655 247.195V268.376C183.655 269.103 184.243 269.692 184.968 269.692H207.197C207.923 269.692 208.511 269.103 208.511 268.376V247.195C208.511 246.469 207.923 245.88 207.197 245.88Z" fill="#D9D9D9"/>
<path d="M238.055 245.88H215.826C215.101 245.88 214.513 246.469 214.513 247.195V268.376C214.513 269.103 215.101 269.692 215.826 269.692H238.055C238.781 269.692 239.369 269.103 239.369 268.376V247.195C239.369 246.469 238.781 245.88 238.055 245.88Z" fill="#D9D9D9"/>
<path d="M268.906 245.88H246.677C245.951 245.88 245.363 246.469 245.363 247.195V268.376C245.363 269.103 245.951 269.692 246.677 269.692H268.906C269.631 269.692 270.219 269.103 270.219 268.376V247.195C270.219 246.469 269.631 245.88 268.906 245.88Z" fill="#D9D9D9"/>
<path d="M299.763 245.88H277.534C276.809 245.88 276.221 246.469 276.221 247.195V268.376C276.221 269.103 276.809 269.692 277.534 269.692H299.763C300.489 269.692 301.077 269.103 301.077 268.376V247.195C301.077 246.469 300.489 245.88 299.763 245.88Z" fill="#D9D9D9"/>
<path d="M330.613 245.88H308.384C307.659 245.88 307.071 246.469 307.071 247.195V268.376C307.071 269.103 307.659 269.692 308.384 269.692H330.613C331.339 269.692 331.927 269.103 331.927 268.376V247.195C331.927 246.469 331.339 245.88 330.613 245.88Z" fill="#E26573"/>
<path d="M145.497 280.848H123.269C122.543 280.848 121.955 281.437 121.955 282.163V303.345C121.955 304.071 122.543 304.66 123.269 304.66H145.497C146.223 304.66 146.811 304.071 146.811 303.345V282.163C146.811 281.437 146.223 280.848 145.497 280.848Z" fill="#BFBFBF"/>
<path d="M176.348 280.848H154.119C153.393 280.848 152.805 281.437 152.805 282.163V303.345C152.805 304.071 153.393 304.66 154.119 304.66H176.348C177.073 304.66 177.661 304.071 177.661 303.345V282.163C177.661 281.437 177.073 280.848 176.348 280.848Z" fill="#BFBFBF"/>
<path d="M207.197 280.848H184.968C184.243 280.848 183.655 281.437 183.655 282.163V303.345C183.655 304.071 184.243 304.66 184.968 304.66H207.197C207.923 304.66 208.511 304.071 208.511 303.345V282.163C208.511 281.437 207.923 280.848 207.197 280.848Z" fill="#BFBFBF"/>
<path d="M238.055 280.848H215.826C215.101 280.848 214.513 281.437 214.513 282.163V303.345C214.513 304.071 215.101 304.66 215.826 304.66H238.055C238.781 304.66 239.369 304.071 239.369 303.345V282.163C239.369 281.437 238.781 280.848 238.055 280.848Z" fill="#BFBFBF"/>
<path d="M268.906 280.848H246.677C245.951 280.848 245.363 281.437 245.363 282.163V303.345C245.363 304.071 245.951 304.66 246.677 304.66H268.906C269.631 304.66 270.219 304.071 270.219 303.345V282.163C270.219 281.437 269.631 280.848 268.906 280.848Z" fill="#BFBFBF"/>
<path d="M299.763 280.848H277.534C276.809 280.848 276.221 281.437 276.221 282.163V303.345C276.221 304.071 276.809 304.66 277.534 304.66H299.763C300.489 304.66 301.077 304.071 301.077 303.345V282.163C301.077 281.437 300.489 280.848 299.763 280.848Z" fill="#BFBFBF"/>
<path d="M330.613 280.848H308.384C307.659 280.848 307.071 281.437 307.071 282.163V303.345C307.071 304.071 307.659 304.66 308.384 304.66H330.613C331.339 304.66 331.927 304.071 331.927 303.345V282.163C331.927 281.437 331.339 280.848 330.613 280.848Z" fill="#E26573"/>
<path d="M241.927 336.76H312.325C313.855 336.76 315.096 335.518 315.096 333.985V324.014C315.096 322.481 313.855 321.238 312.325 321.238H241.927C240.396 321.238 239.155 322.481 239.155 324.014V333.985C239.155 335.518 240.396 336.76 241.927 336.76Z" fill="#FFB81F"/>
<g style="mix-blend-mode:multiply" opacity="0.05">
<path d="M257.864 321.246H253.847V336.768H257.864V321.246Z" fill="black"/>
</g>
<g style="mix-blend-mode:multiply" opacity="0.05">
<path d="M247.227 321.246H243.21V336.768H247.227V321.246Z" fill="black"/>
</g>
<g style="mix-blend-mode:multiply" opacity="0.05">
<path d="M279.145 321.246H275.129V336.768H279.145V321.246Z" fill="black"/>
</g>
<g style="mix-blend-mode:multiply" opacity="0.05">
<path d="M268.501 321.246H264.484V336.768H268.501V321.246Z" fill="black"/>
</g>
<g style="mix-blend-mode:multiply" opacity="0.05">
<path d="M311.065 321.246H307.048V336.768H311.065V321.246Z" fill="black"/>
</g>
<g style="mix-blend-mode:multiply" opacity="0.05">
<path d="M289.783 321.246H285.766V336.768H289.783V321.246Z" fill="black"/>
</g>
<g style="mix-blend-mode:multiply" opacity="0.05">
<path d="M300.42 321.246H296.403V336.768H300.42V321.246Z" fill="black"/>
</g>
<g style="mix-blend-mode:multiply" opacity="0.15">
<path d="M241.171 321.36V332.257C241.171 332.62 241.315 332.968 241.571 333.224C241.828 333.481 242.175 333.625 242.538 333.625H315.081V333.992C315.079 334.728 314.787 335.433 314.267 335.953C313.748 336.473 313.044 336.766 312.31 336.768H241.904C241.169 336.766 240.465 336.473 239.946 335.953C239.427 335.433 239.134 334.728 239.132 333.992V324.052C239.126 323.44 239.323 322.844 239.692 322.357C240.061 321.87 240.581 321.519 241.171 321.36Z" fill="black"/>
</g>
<path d="M246.677 321.039H317.074C318.605 321.039 319.846 319.796 319.846 318.263V308.292C319.846 306.759 318.605 305.516 317.074 305.516H246.677C245.146 305.516 243.905 306.759 243.905 308.292V318.263C243.905 319.796 245.146 321.039 246.677 321.039Z" fill="#FFD747"/>
<g style="mix-blend-mode:multiply" opacity="0.05">
<path d="M262.613 305.524H258.597V321.047H262.613V305.524Z" fill="black"/>
</g>
<g style="mix-blend-mode:multiply" opacity="0.05">
<path d="M251.976 305.524H247.959V321.047H251.976V305.524Z" fill="black"/>
</g>
<g style="mix-blend-mode:multiply" opacity="0.05">
<path d="M283.896 305.524H279.879V321.047H283.896V305.524Z" fill="black"/>
</g>
<g style="mix-blend-mode:multiply" opacity="0.05">
<path d="M273.258 305.524H269.241V321.047H273.258V305.524Z" fill="black"/>
</g>
<g style="mix-blend-mode:multiply" opacity="0.05">
<path d="M315.815 305.524H311.798V321.047H315.815V305.524Z" fill="black"/>
</g>
<g style="mix-blend-mode:multiply" opacity="0.05">
<path d="M294.54 305.524H290.523V321.047H294.54V305.524Z" fill="black"/>
</g>
<g style="mix-blend-mode:multiply" opacity="0.05">
<path d="M305.178 305.524H301.161V321.047H305.178V305.524Z" fill="black"/>
</g>
<g style="mix-blend-mode:multiply" opacity="0.15">
<path d="M245.92 305.639V316.535C245.92 316.898 246.065 317.246 246.321 317.503C246.577 317.76 246.925 317.904 247.287 317.904H319.831V318.271C319.831 318.635 319.759 318.996 319.62 319.332C319.481 319.668 319.276 319.974 319.019 320.231C318.761 320.488 318.456 320.692 318.119 320.831C317.783 320.969 317.423 321.04 317.059 321.039H246.676C246.313 321.04 245.953 320.969 245.616 320.831C245.28 320.692 244.974 320.488 244.717 320.231C244.459 319.974 244.255 319.668 244.116 319.332C243.976 318.996 243.905 318.635 243.905 318.271V308.269C243.911 307.671 244.111 307.091 244.474 306.617C244.838 306.143 245.345 305.799 245.92 305.639Z" fill="black"/>
</g>
<path d="M261.979 217.243H100.581C95.3558 217.243 91.1199 221.485 91.1199 226.717V326.766C91.1199 331.999 95.3558 336.24 100.581 336.24H261.979C267.205 336.24 271.441 331.999 271.441 326.766V226.717C271.441 221.485 267.205 217.243 261.979 217.243Z" fill="#374693"/>
<path d="M271.441 302.909H91.1199V321.146H271.441V302.909Z" fill="#8493E3"/>
<g opacity="0.1">
<path d="M154.317 304.828H144.604L130.225 319.227H139.938L154.317 304.828Z" fill="white"/>
<path d="M96.6867 304.828L91.1199 310.403V319.227H92.0286L106.408 304.828H96.6867Z" fill="white"/>
<path d="M170.292 304.828H160.571L146.192 319.227H155.913L170.292 304.828Z" fill="white"/>
<path d="M138.349 304.828H128.629L114.257 319.227H123.971L138.349 304.828Z" fill="white"/>
<path d="M122.375 304.828H112.661L98.2825 319.227H107.996L122.375 304.828Z" fill="white"/>
<path d="M186.259 304.828H176.546L162.167 319.227H171.88L186.259 304.828Z" fill="white"/>
<path d="M266.118 304.828H256.397L242.026 319.227H251.739L266.118 304.828Z" fill="white"/>
<path d="M250.143 304.828H240.43L226.051 319.227H235.764L250.143 304.828Z" fill="white"/>
<path d="M271.441 305.761L257.993 319.227H267.714L271.441 315.488V305.761Z" fill="white"/>
<path d="M218.201 304.828H208.488L194.109 319.227H203.822L218.201 304.828Z" fill="white"/>
<path d="M234.176 304.828H224.456L210.084 319.227H219.797L234.176 304.828Z" fill="white"/>
<path d="M202.234 304.828H192.513L178.134 319.227H187.855L202.234 304.828Z" fill="white"/>
</g>
<path d="M129.125 256.593H111.691C109.296 256.593 107.354 258.537 107.354 260.936V278.401C107.354 280.8 109.296 282.744 111.691 282.744H129.125C131.52 282.744 133.462 280.8 133.462 278.401V260.936C133.462 258.537 131.52 256.593 129.125 256.593Z" fill="#FFCE1F"/>
<path d="M128.889 259.17H111.944C110.835 259.17 109.936 260.071 109.936 261.181V278.149C109.936 279.26 110.835 280.16 111.944 280.16H128.889C129.998 280.16 130.897 279.26 130.897 278.149V261.181C130.897 260.071 129.998 259.17 128.889 259.17Z" stroke="#D99D1A" stroke-miterlimit="10"/>
<path d="M123.131 263.506H117.701C116.744 263.506 115.968 264.283 115.968 265.241V274.096C115.968 275.055 116.744 275.832 117.701 275.832H123.131C124.088 275.832 124.864 275.055 124.864 274.096V265.241C124.864 264.283 124.088 263.506 123.131 263.506Z" stroke="#D99D1A" stroke-miterlimit="10"/>
<path d="M124.857 269.669H130.89" stroke="#D99D1A" stroke-miterlimit="10"/>
<path d="M124.857 266.541H130.89" stroke="#D99D1A" stroke-miterlimit="10"/>
<path d="M124.857 272.789H130.89" stroke="#D99D1A" stroke-miterlimit="10"/>
<path d="M109.936 269.669H115.968" stroke="#D99D1A" stroke-miterlimit="10"/>
<path d="M109.936 266.541H115.968" stroke="#D99D1A" stroke-miterlimit="10"/>
<path d="M109.936 272.789H115.968" stroke="#D99D1A" stroke-miterlimit="10"/>
<path d="M141.801 269.662C141.806 270.424 141.616 271.176 141.25 271.845C140.884 272.514 140.353 273.078 139.709 273.485L141.152 275.779C142.189 275.131 143.044 274.229 143.637 273.159C144.23 272.089 144.541 270.885 144.541 269.662C144.541 268.438 144.23 267.234 143.637 266.164C143.044 265.094 142.189 264.192 141.152 263.544L139.709 265.838C140.353 266.245 140.884 266.809 141.25 267.478C141.616 268.147 141.806 268.899 141.801 269.662Z" fill="#8493E3"/>
<path d="M145.619 258.757L144.038 261.311C145.456 262.193 146.625 263.422 147.436 264.883C148.247 266.343 148.673 267.987 148.673 269.658C148.673 271.329 148.247 272.972 147.436 274.432C146.625 275.893 145.456 277.122 144.038 278.004L145.619 280.558C147.472 279.408 149.002 277.803 150.062 275.896C151.123 273.988 151.68 271.841 151.68 269.658C151.68 267.474 151.123 265.327 150.062 263.42C149.002 261.512 147.472 259.907 145.619 258.757Z" fill="#8493E3"/>
<path d="M158.861 269.661C158.856 266.52 158.052 263.431 156.525 260.687C154.998 257.943 152.798 255.634 150.132 253.978L148.506 256.601C150.727 257.985 152.558 259.913 153.828 262.203C155.099 264.492 155.765 267.069 155.765 269.688C155.765 272.307 155.099 274.883 153.828 277.173C152.558 279.463 150.727 281.391 148.506 282.775L150.132 285.398C152.805 283.736 155.01 281.418 156.537 278.664C158.065 275.91 158.864 272.811 158.861 269.661Z" fill="#8493E3"/>
<path d="M143.435 227.345H107.721C106.911 227.345 106.255 228.002 106.255 228.813V235.114C106.255 235.925 106.911 236.582 107.721 236.582H143.435C144.245 236.582 144.901 235.925 144.901 235.114V228.813C144.901 228.002 144.245 227.345 143.435 227.345Z" fill="#4F5FB3"/>
<path d="M175.133 227.345H154.913C154.225 227.345 153.668 227.903 153.668 228.591V235.335C153.668 236.024 154.225 236.582 154.913 236.582H175.133C175.821 236.582 176.378 236.024 176.378 235.335V228.591C176.378 227.903 175.821 227.345 175.133 227.345Z" fill="#7081D4"/>
<path d="M223.363 227.345H187.649C186.839 227.345 186.183 228.002 186.183 228.813V235.114C186.183 235.925 186.839 236.582 187.649 236.582H223.363C224.173 236.582 224.83 235.925 224.83 235.114V228.813C224.83 228.002 224.173 227.345 223.363 227.345Z" fill="#4F5FB3"/>
<path d="M255.053 227.345H234.833C234.145 227.345 233.588 227.903 233.588 228.591V235.335C233.588 236.024 234.145 236.582 234.833 236.582H255.053C255.741 236.582 256.298 236.024 256.298 235.335V228.591C256.298 227.903 255.741 227.345 255.053 227.345Z" fill="#7081D4"/>
<g style="mix-blend-mode:multiply" opacity="0.15">
<path d="M261.979 217.274H261.651C263.184 218.002 264.48 219.149 265.389 220.584C266.298 222.018 266.784 223.68 266.79 225.379V321.819C266.782 324.199 265.834 326.48 264.153 328.163C262.472 329.846 260.195 330.796 257.818 330.804H104.743C102.365 330.798 100.086 329.849 98.405 328.165C96.7236 326.482 95.7764 324.2 95.7703 321.819V225.349C95.7824 223.656 96.2701 222.001 97.1776 220.573C98.0851 219.145 99.3757 218.002 100.902 217.274H100.581C98.0743 217.282 95.6725 218.283 93.8999 220.058C92.1273 221.833 91.1279 224.238 91.1199 226.748V326.766C91.1259 329.277 92.1247 331.683 93.8977 333.459C95.6707 335.234 98.0737 336.234 100.581 336.24H261.979C264.486 336.232 266.888 335.232 268.661 333.457C270.433 331.682 271.433 329.276 271.441 326.766V226.717C271.425 224.212 270.422 221.815 268.65 220.047C266.878 218.278 264.481 217.282 261.979 217.274Z" fill="black"/>
</g>
<path d="M64.7295 343.276H135.127C136.658 343.276 137.899 342.033 137.899 340.5V330.529C137.899 328.996 136.658 327.753 135.127 327.753H64.7295C63.1986 327.753 61.9576 328.996 61.9576 330.529V340.5C61.9576 342.033 63.1986 343.276 64.7295 343.276Z" fill="#FFD747"/>
<g style="mix-blend-mode:multiply" opacity="0.05">
<path d="M80.6663 327.745H76.6497V343.268H80.6663V327.745Z" fill="black"/>
</g>
<g style="mix-blend-mode:multiply" opacity="0.05">
<path d="M70.0286 327.745H66.012V343.268H70.0286V327.745Z" fill="black"/>
</g>
<g style="mix-blend-mode:multiply" opacity="0.05">
<path d="M101.948 327.745H97.9314V343.268H101.948V327.745Z" fill="black"/>
</g>
<g style="mix-blend-mode:multiply" opacity="0.05">
<path d="M91.3033 327.745H87.2866V343.268H91.3033V327.745Z" fill="black"/>
</g>
<g style="mix-blend-mode:multiply" opacity="0.05">
<path d="M133.867 327.745H129.851V343.268H133.867V327.745Z" fill="black"/>
</g>
<g style="mix-blend-mode:multiply" opacity="0.05">
<path d="M112.585 327.745H108.568V343.268H112.585V327.745Z" fill="black"/>
</g>
<g style="mix-blend-mode:multiply" opacity="0.05">
<path d="M123.223 327.745H119.206V343.268H123.223V327.745Z" fill="black"/>
</g>
<g style="mix-blend-mode:multiply" opacity="0.15">
<path d="M63.9735 327.868V338.764C63.9735 339.127 64.1175 339.475 64.3738 339.732C64.6302 339.989 64.9778 340.133 65.3403 340.133H137.884V340.5C137.882 341.235 137.589 341.939 137.07 342.458C136.55 342.977 135.846 343.268 135.112 343.268H64.7218C63.988 343.268 63.2841 342.977 62.7645 342.458C62.2448 341.939 61.9519 341.235 61.9499 340.5V330.559C61.9431 329.95 62.138 329.355 62.504 328.868C62.8701 328.382 63.3868 328.03 63.9735 327.868Z" fill="black"/>
</g>
<path d="M60.781 327.745H131.179C132.71 327.745 133.951 326.502 133.951 324.969V314.998C133.951 313.465 132.71 312.222 131.179 312.222H60.781C59.2501 312.222 58.0091 313.465 58.0091 314.998V324.969C58.0091 326.502 59.2501 327.745 60.781 327.745Z" fill="#FFB81F"/>
<g style="mix-blend-mode:multiply" opacity="0.05">
<path d="M76.7259 312.23H72.7092V327.753H76.7259V312.23Z" fill="black"/>
</g>
<g style="mix-blend-mode:multiply" opacity="0.05">
<path d="M66.0811 312.23H62.0645V327.753H66.0811V312.23Z" fill="black"/>
</g>
<g style="mix-blend-mode:multiply" opacity="0.05">
<path d="M97.9995 312.23H93.9829V327.753H97.9995V312.23Z" fill="black"/>
</g>
<g style="mix-blend-mode:multiply" opacity="0.05">
<path d="M87.3628 312.23H83.3462V327.753H87.3628V312.23Z" fill="black"/>
</g>
<g style="mix-blend-mode:multiply" opacity="0.05">
<path d="M129.927 312.23H125.91V327.753H129.927V312.23Z" fill="black"/>
</g>
<g style="mix-blend-mode:multiply" opacity="0.05">
<path d="M108.645 312.23H104.628V327.753H108.645V312.23Z" fill="black"/>
</g>
<g style="mix-blend-mode:multiply" opacity="0.05">
<path d="M119.282 312.23H115.266V327.753H119.282V312.23Z" fill="black"/>
</g>
<g style="mix-blend-mode:multiply" opacity="0.15">
<path d="M60.0329 312.345V323.241C60.0329 323.603 60.1758 323.95 60.4305 324.207C60.6852 324.463 61.0309 324.608 61.3921 324.61H133.936V324.977C133.936 325.341 133.864 325.702 133.725 326.038C133.585 326.375 133.381 326.68 133.124 326.937C132.866 327.194 132.56 327.398 132.224 327.537C131.888 327.676 131.528 327.746 131.164 327.745H60.7812C60.4176 327.746 60.0573 327.676 59.721 327.537C59.3848 327.398 59.0791 327.194 58.8216 326.937C58.5641 326.68 58.3598 326.375 58.2204 326.038C58.081 325.702 58.0093 325.341 58.0093 324.977V314.998C58.0109 314.395 58.2097 313.81 58.5751 313.331C58.9405 312.851 59.4525 312.505 60.0329 312.345Z" fill="black"/>
</g>
<path d="M65.3784 312.031H135.776C137.307 312.031 138.548 310.789 138.548 309.256V299.285C138.548 297.752 137.307 296.509 135.776 296.509H65.3784C63.8475 296.509 62.6065 297.752 62.6065 299.285V309.256C62.6065 310.789 63.8475 312.031 65.3784 312.031Z" fill="#FFD747"/>
<g style="mix-blend-mode:multiply" opacity="0.05">
<path d="M81.323 296.501H77.3064V312.024H81.323V296.501Z" fill="black"/>
</g>
<g style="mix-blend-mode:multiply" opacity="0.05">
<path d="M70.6856 296.501H66.6689V312.024H70.6856V296.501Z" fill="black"/>
</g>
<g style="mix-blend-mode:multiply" opacity="0.05">
<path d="M102.605 296.501H98.5881V312.024H102.605V296.501Z" fill="black"/>
</g>
<g style="mix-blend-mode:multiply" opacity="0.05">
<path d="M91.9678 296.501H87.9512V312.024H91.9678V296.501Z" fill="black"/>
</g>
<g style="mix-blend-mode:multiply" opacity="0.05">
<path d="M134.524 296.501H130.507V312.024H134.524V296.501Z" fill="black"/>
</g>
<g style="mix-blend-mode:multiply" opacity="0.05">
<path d="M113.242 296.501H109.225V312.024H113.242V296.501Z" fill="black"/>
</g>
<g style="mix-blend-mode:multiply" opacity="0.05">
<path d="M123.887 296.501H119.87V312.024H123.887V296.501Z" fill="black"/>
</g>
<g style="mix-blend-mode:multiply" opacity="0.15">
<path d="M64.63 296.623V307.504C64.63 307.867 64.774 308.216 65.0303 308.472C65.2867 308.729 65.6343 308.873 65.9969 308.873H138.541V309.233C138.541 309.969 138.249 310.675 137.729 311.195C137.209 311.716 136.504 312.008 135.769 312.008H65.3783C65.014 312.011 64.6527 311.942 64.3152 311.805C63.9777 311.668 63.6706 311.465 63.4116 311.208C63.1525 310.952 62.9467 310.647 62.8059 310.31C62.6651 309.974 62.5921 309.613 62.5911 309.248V299.307C62.587 298.697 62.7848 298.103 63.1537 297.617C63.5226 297.132 64.0417 296.782 64.63 296.623Z" fill="black"/>
</g>
</svg>
