<svg width="536" height="534" viewBox="0 0 536 534" fill="none" xmlns="http://www.w3.org/2000/svg">
<path fill-rule="evenodd" clip-rule="evenodd" d="M390.472 113.88C423.664 144.745 465.95 170.692 472.782 215.531C480.723 267.655 465.949 324.277 428.148 361.161C389.349 399.02 332.259 402.596 278.175 405.421C215.416 408.699 136.535 428.602 98.9355 378.358C61.3899 328.186 104.383 258.703 123.674 198.963C136.496 159.258 157.791 125.256 189.455 98.0464C220.036 71.7673 255.707 47.8442 295.852 51.0064C335.136 54.1007 361.647 87.0763 390.472 113.88Z" fill="#F2F0FD"/>
<path d="M234.574 251.366L393.928 251.366C398.899 251.366 402.93 247.336 402.93 242.365V124.259C402.93 119.288 398.899 115.257 393.928 115.257L234.574 115.257C229.602 115.257 225.572 119.288 225.572 124.259L225.572 242.365C225.572 247.336 229.602 251.366 234.574 251.366Z" fill="#AAEEEA"/>
<path d="M389.161 129.417C391.24 129.417 392.926 127.731 392.926 125.651C392.926 123.571 391.24 121.885 389.161 121.885C387.081 121.885 385.395 123.571 385.395 125.651C385.395 127.731 387.081 129.417 389.161 129.417Z" fill="#00CCC1"/>
<path d="M370.579 129.417C372.659 129.417 374.345 127.731 374.345 125.651C374.345 123.571 372.659 121.885 370.579 121.885C368.499 121.885 366.813 123.571 366.813 125.651C366.813 127.731 368.499 129.417 370.579 129.417Z" fill="#00CCC1"/>
<path d="M351.997 129.417C354.077 129.417 355.763 127.731 355.763 125.651C355.763 123.571 354.077 121.885 351.997 121.885C349.917 121.885 348.231 123.571 348.231 125.651C348.231 127.731 349.917 129.417 351.997 129.417Z" fill="#00CCC1"/>
<path fill-rule="evenodd" clip-rule="evenodd" d="M288.186 215.601C287.72 215.343 287.32 214.98 287.017 214.543C286.713 214.105 286.514 213.603 286.436 213.076C286.357 212.549 286.401 212.011 286.563 211.504C286.726 210.997 287.003 210.534 287.373 210.151C289.747 207.712 292.576 203.308 293.578 195.764C295.367 181.962 292.466 160.603 311.171 154.034C329.877 147.465 341.805 155.907 345.994 166.515C349.766 176.057 341.812 199.939 354.67 211.464C355.122 211.867 355.46 212.382 355.65 212.956C355.841 213.531 355.877 214.145 355.755 214.738C355.633 215.331 355.357 215.881 354.956 216.334C354.554 216.787 354.041 217.126 353.467 217.318C340.862 221.624 311.952 228.889 288.186 215.601Z" fill="#FFB833"/>
<path d="M321.103 233.168C325.751 233.168 329.519 229.4 329.519 224.752C329.519 220.104 325.751 216.336 321.103 216.336C316.455 216.336 312.687 220.104 312.687 224.752C312.687 229.4 316.455 233.168 321.103 233.168Z" fill="#FFB833"/>
<path d="M321.103 162.476C325.751 162.476 329.519 158.708 329.519 154.06C329.519 149.412 325.751 145.644 321.103 145.644C316.455 145.644 312.687 149.412 312.687 154.06C312.687 158.708 316.455 162.476 321.103 162.476Z" fill="#FFB833"/>
<path d="M351.997 181.488C362.547 181.488 371.099 172.935 371.099 162.385C371.099 151.836 362.547 143.283 351.997 143.283C341.447 143.283 332.895 151.836 332.895 162.385C332.895 172.935 341.447 181.488 351.997 181.488Z" fill="#FFF3E3"/>
<path fill-rule="evenodd" clip-rule="evenodd" d="M344.381 157.013C344.381 157.013 345.59 159.673 346.56 159.615C347.529 159.556 348.979 157.273 349.46 157.013C349.942 156.753 348.16 172.896 348.81 173.273C349.46 173.65 354.455 172.467 354.937 171.901C355.418 171.335 355.743 151.738 354.937 151.088C354.13 150.438 351.151 150.203 350.586 150.203C350.02 150.203 344.381 157.013 344.381 157.013Z" fill="#00CCC1"/>
<path fill-rule="evenodd" clip-rule="evenodd" d="M285.012 141.859L296.141 159.914L278.567 147.823L285.012 141.859Z" fill="#FFB833"/>
<path fill-rule="evenodd" clip-rule="evenodd" d="M290.176 167.816L269.208 167.302L271.12 173.377L290.176 167.816Z" fill="#FFB833"/>
<path fill-rule="evenodd" clip-rule="evenodd" d="M286.391 179.101L272.219 187.478L276.629 194.418L286.391 179.101Z" fill="#FFB833"/>
<path d="M167.531 174.626C167.531 174.626 165.189 188.538 173.586 200.148C181.983 211.757 138.529 234.619 167.999 252.362C197.469 270.104 259.406 246.17 265.682 228.479C271.959 210.788 259.51 206.97 258.697 193.357C257.884 179.745 264.785 168.109 258.697 150.743C252.609 133.378 167.531 174.626 167.531 174.626Z" fill="#383333"/>
<path d="M174.197 177.546C174.197 177.546 171.297 187.302 178.1 195.387C184.903 203.471 186.054 225.051 170.789 235.061" stroke="white" stroke-linecap="round" stroke-linejoin="round"/>
<path d="M188.922 192.141C193.048 197.613 195.114 204.364 194.757 211.208C194.4 218.052 191.644 224.552 186.971 229.565" stroke="white" stroke-linecap="round" stroke-linejoin="round"/>
<path d="M249.501 179.4C249.501 179.4 241.696 191.679 249.501 199.9C257.305 208.121 258.248 222.742 250.834 229.461" stroke="white" stroke-linecap="round" stroke-linejoin="round"/>
<path d="M234.99 191.296C234.99 191.296 227.055 222.105 246.047 229.461" stroke="white" stroke-linecap="round" stroke-linejoin="round"/>
<path d="M277.058 91.5635H276.603C276.215 91.5635 275.9 91.878 275.9 92.2659V102.041C275.9 102.429 276.215 102.744 276.603 102.744H277.058C277.446 102.744 277.76 102.429 277.76 102.041V92.2659C277.76 91.878 277.446 91.5635 277.058 91.5635Z" fill="#FFB833"/>
<path d="M271.243 96.9227V97.378C271.243 97.7659 271.558 98.0804 271.946 98.0804H281.721C282.109 98.0804 282.424 97.7659 282.424 97.378V96.9227C282.424 96.5348 282.109 96.2203 281.721 96.2203H271.946C271.558 96.2203 271.243 96.5348 271.243 96.9227Z" fill="#FFB833"/>
<path d="M298.918 267.34H298.463C298.075 267.34 297.76 267.655 297.76 268.043V277.818C297.76 278.206 298.075 278.521 298.463 278.521H298.918C299.306 278.521 299.62 278.206 299.62 277.818V268.043C299.62 267.655 299.306 267.34 298.918 267.34Z" fill="#FFB833"/>
<path d="M293.103 272.706V273.161C293.103 273.549 293.418 273.864 293.806 273.864H303.581C303.969 273.864 304.284 273.549 304.284 273.161V272.706C304.284 272.318 303.969 272.004 303.581 272.004H293.806C293.418 272.004 293.103 272.318 293.103 272.706Z" fill="#FFB833"/>
<path d="M149.268 199.445H148.39C148.002 199.445 147.687 199.76 147.687 200.148V212.447C147.687 212.834 148.002 213.149 148.39 213.149H149.268C149.655 213.149 149.97 212.834 149.97 212.447V200.148C149.97 199.76 149.655 199.445 149.268 199.445Z" fill="#FFB833"/>
<path d="M141.977 205.858V206.736C141.977 207.124 142.291 207.438 142.679 207.438H154.978C155.366 207.438 155.68 207.124 155.68 206.736V205.858C155.68 205.47 155.366 205.156 154.978 205.156H142.679C142.291 205.156 141.977 205.47 141.977 205.858Z" fill="#FFB833"/>
<path d="M248.089 222.703C253.291 222.92 258.375 224.316 262.957 226.788C278.762 235.529 283.237 256.14 289.402 286.442C290.996 294.306 292.817 304.738 294.131 317.187L262.853 315.112C261.279 310.787 259.751 306.228 258.3 301.454C258.3 301.454 256.044 293.942 254.274 286.377C251.9 276.088 248.753 253.149 248.089 222.703Z" fill="#FFDB99"/>
<path d="M176.493 164.024C175.62 163.192 174.585 162.549 173.453 162.135C172.32 161.721 171.115 161.545 169.911 161.618C168.449 161.702 167.055 162.259 165.937 163.205C162.38 166.684 163.986 177.397 170.34 180.024C173.885 181.488 177.579 179.888 178.828 179.276C178.048 174.199 177.269 169.115 176.493 164.024Z" fill="#FFC871"/>
<path d="M167.531 167.101L173.586 166.691C173.586 166.691 167.498 170.665 172.773 175.536" stroke="#383333" stroke-width="0.75" stroke-linecap="round" stroke-linejoin="round"/>
<path d="M251.153 164.278C251.977 163.425 252.969 162.751 254.065 162.298C255.162 161.845 256.34 161.622 257.526 161.644C258.97 161.663 260.368 162.154 261.507 163.042C265.162 166.294 264.017 176.928 257.884 179.777C254.457 181.371 250.73 179.946 249.5 179.4C250.047 174.361 250.597 169.321 251.153 164.278Z" fill="#FFC871"/>
<path d="M260.141 166.88L254.164 166.737C254.164 166.737 260.323 170.385 255.341 175.406" stroke="#383333" stroke-width="0.75" stroke-linecap="round" stroke-linejoin="round"/>
<path d="M214.646 196.258C238.989 196.258 258.723 176.524 258.723 152.181C258.723 127.837 238.989 108.103 214.646 108.103C190.302 108.103 170.568 127.837 170.568 152.181C170.568 176.524 190.302 196.258 214.646 196.258Z" fill="#FFDB99"/>
<path d="M201.937 192.772C203.524 207.601 199.771 214.69 196.083 218.43C189.176 225.429 179.498 223.685 172.318 233.051C171.329 234.352 168.871 237.806 167.316 244.934C162.685 266.17 173.014 285.519 176.331 303.971C178.425 315.6 178.841 333.089 169.456 356.419C180.473 361.605 192.215 365.085 204.278 366.741C233.761 370.76 257.474 362.689 269.201 357.713C261.969 334.065 260.31 314.572 260.174 300.959C259.79 263.705 270.58 237.454 257.143 227.022C249.195 220.843 239.894 225.786 231.914 217.513C224.759 210.099 224.571 198.489 225.696 189.357C225.702 189.357 207.491 185.214 201.937 192.772Z" fill="#FFDB99"/>
<path d="M170.536 148.148C170.432 151.504 169.885 182.619 191.602 197.611C194.477 199.601 202.399 205.084 213.748 205.247C225.95 205.416 234.561 199.328 237.715 197.078C258.404 182.431 258.71 154.425 258.697 150.763C240.584 132.74 216.239 125.079 195.14 131.7L170.536 148.148Z" fill="#FFDB99"/>
<path d="M187.511 156.415C189.75 154.43 192.55 153.189 195.524 152.864C197.54 152.61 200.259 152.265 201.26 153.761C201.484 154.084 201.618 154.461 201.648 154.854C201.678 155.246 201.602 155.639 201.43 155.992C200.61 157.351 198.119 156.447 194.275 156.805C189.215 157.273 186.126 159.517 185.716 158.828C185.436 158.366 186.939 156.974 187.511 156.415Z" fill="#383333"/>
<path d="M240.844 155.29C238.54 153.381 235.703 152.232 232.72 151.999C230.704 151.81 227.972 151.556 227.016 153.078C226.805 153.41 226.684 153.791 226.667 154.184C226.65 154.577 226.737 154.967 226.919 155.316C227.784 156.649 230.242 155.667 234.073 155.901C239.146 156.2 242.314 158.353 242.697 157.644C243.01 157.137 241.494 155.81 240.844 155.29Z" fill="#383333"/>
<path d="M214.268 162.34C214.268 162.34 210.542 170.483 211.159 172.063C211.777 173.644 218.19 173.247 218.19 173.247" stroke="#383333" stroke-linecap="round" stroke-linejoin="round"/>
<path d="M187.845 178.135C190.956 178.122 193.471 176.542 193.463 174.606C193.455 172.67 190.926 171.111 187.816 171.124C184.705 171.137 182.19 172.717 182.198 174.653C182.206 176.589 184.734 178.148 187.845 178.135Z" fill="#FFC871"/>
<path d="M240.618 178.135C243.729 178.122 246.244 176.542 246.236 174.606C246.227 172.67 243.699 171.111 240.588 171.124C237.478 171.137 234.963 172.717 234.971 174.653C234.979 176.589 237.507 178.148 240.618 178.135Z" fill="#FFC871"/>
<path d="M202.164 203.159C202.164 203.159 215.244 207.985 225.579 203.159" stroke="#383333" stroke-linecap="round" stroke-linejoin="round"/>
<path d="M192.662 225.455C192.662 225.455 165.931 225.266 156.454 246.619C146.978 267.971 132.156 314.13 132.156 314.13L163.446 315.145C168.283 306.383 172.59 297.339 176.344 288.062C184.447 267.98 189.932 246.938 192.662 225.455Z" fill="#FFDB99"/>
<path d="M190.269 222.443C190.269 222.443 212.382 240.602 238.997 221.975C240.948 221.864 242.541 221.884 243.686 221.923C248.548 222.052 253.361 222.929 257.956 224.524C259.582 225.116 260.889 225.708 261.741 226.118C261.889 233.41 262.589 240.681 263.835 247.867C265.943 260.062 268.271 264.082 268.778 272.693C269.364 282.657 266.71 283.75 264.583 298.169C262.413 313.247 262.813 328.584 265.767 343.528C267.256 350.875 269.415 358.071 272.219 365.024C261.445 370.616 249.822 374.393 237.819 376.204C202.737 381.453 174.88 367.983 164.097 361.993C170.77 338.442 170.21 320.569 168.396 308.484C166.815 297.896 161.814 275.399 165.794 260.544C166.484 257.981 167.44 255.633 167.986 252.362C168.191 251.085 168.319 249.797 168.37 248.505C168.721 242.495 168.929 235.666 169.02 232.245C170.529 231.276 172.123 230.293 173.82 229.383C179.04 226.489 184.554 224.163 190.269 222.443Z" fill="#FF535C"/>
<path fill-rule="evenodd" clip-rule="evenodd" d="M198.899 167.966C198.352 168.533 197.648 168.924 196.877 169.092C196.107 169.259 195.304 169.193 194.57 168.904C193.837 168.615 193.206 168.115 192.756 167.467C192.307 166.819 192.06 166.052 192.046 165.264C192.033 164.476 192.253 163.701 192.68 163.038C193.106 162.375 193.72 161.853 194.443 161.539C195.166 161.224 195.966 161.131 196.742 161.272C197.518 161.412 198.235 161.779 198.802 162.327C199.56 163.063 199.995 164.07 200.014 165.126C200.032 166.183 199.631 167.204 198.899 167.966Z" fill="#383333"/>
<path fill-rule="evenodd" clip-rule="evenodd" d="M189.222 163.062C189.306 162.977 190.191 164.265 191.173 164.089C191.901 163.959 192.031 163.133 192.916 162.346C193.686 161.695 194.642 161.303 195.647 161.228C195.29 162.104 194.813 162.927 194.23 163.673C193.397 164.733 192.864 165.416 192.07 165.488C190.47 165.637 189.117 163.166 189.222 163.062Z" fill="#383333"/>
<path fill-rule="evenodd" clip-rule="evenodd" d="M236.434 167.797C235.92 168.395 235.24 168.827 234.48 169.039C233.721 169.251 232.915 169.233 232.166 168.986C231.416 168.74 230.757 168.278 230.271 167.657C229.784 167.036 229.493 166.284 229.434 165.498C229.375 164.711 229.55 163.925 229.938 163.238C230.326 162.551 230.909 161.995 231.613 161.64C232.317 161.284 233.111 161.145 233.894 161.241C234.677 161.337 235.414 161.663 236.011 162.177C236.807 162.87 237.298 163.848 237.378 164.9C237.457 165.952 237.118 166.993 236.434 167.797Z" fill="#383333"/>
<path fill-rule="evenodd" clip-rule="evenodd" d="M239.985 162.444C239.901 162.366 239.14 163.745 238.132 163.647C237.39 163.589 237.188 162.776 236.232 162.073C235.406 161.497 234.418 161.196 233.41 161.215C233.847 162.054 234.398 162.829 235.049 163.517C235.972 164.493 236.571 165.124 237.364 165.124C238.984 165.124 240.109 162.541 239.985 162.444Z" fill="#383333"/>
<path d="M199.511 213.546C199.208 213.491 198.896 213.523 198.611 213.638C198.325 213.753 198.078 213.947 197.898 214.196C193.586 220.212 189.781 222.528 186.965 223.477C186.236 223.725 185.131 224.063 184.649 225.019C183.127 228.076 189.475 233.929 191.043 235.315C191.266 235.509 191.538 235.639 191.83 235.692C195.329 236.342 218.763 240.31 226.216 235.614C234.275 230.534 241.774 221.955 241.774 221.955C241.774 221.955 233.455 220.544 230.112 214.222C229.948 213.908 229.688 213.656 229.369 213.501C229.051 213.347 228.691 213.298 228.343 213.364C225.087 213.98 221.796 214.393 218.489 214.599C212.144 214.998 205.773 214.644 199.511 213.546Z" fill="#FF535C"/>
<path d="M228.343 227.542H199.394C197.066 227.542 195.179 229.429 195.179 231.757V284.693C195.179 287.021 197.066 288.907 199.394 288.907H228.343C230.671 288.907 232.558 287.021 232.558 284.693V231.757C232.558 229.429 230.671 227.542 228.343 227.542Z" fill="#383333"/>
<path d="M186.861 266.13C180.539 269.22 162.328 278.397 147.303 290.195C145.645 291.496 137.515 298 133.333 308.471C132.305 311.041 131.7 313.375 132.344 315.893C133.71 321.245 139.993 324.777 145.43 324.998C149.137 325.174 152.383 323.808 156.981 320.699C166.971 313.922 171.94 306.624 179.55 297.285C182.9 293.181 188.005 287.151 194.815 280.088L186.861 266.13Z" fill="#FFDB99"/>
<path d="M182.718 268.205C186.99 265.328 191.571 262.939 196.376 261.083C203.628 258.423 209.781 256.927 212.252 257.955C214.724 258.983 204.356 263.418 204.356 263.418C204.356 263.418 212.603 259.789 214.724 260.817C216.844 261.844 206.529 267.405 206.529 267.405C206.529 267.405 213.325 264.635 214.028 266.105C214.73 267.574 205.319 272.342 205.319 272.342C205.319 272.342 210.32 270.326 210.886 271.613C211.452 272.901 198.386 281.532 190.971 282.254C183.557 282.976 179.374 270.976 182.718 268.205Z" fill="#FFDB99"/>
<path d="M247.257 263.08C253.026 267.106 269.604 278.976 282.625 292.966C283.386 293.786 290.807 301.922 293.617 313.174C294.256 315.23 294.272 317.43 293.663 319.496C291.848 324.875 284.921 328.133 279.113 327.671C275.822 327.411 272.902 325.87 268.362 321.636C259.536 313.376 255.803 305.402 249.67 294.95C246.996 290.397 242.866 283.633 237.24 275.607L247.257 263.08Z" fill="#FFDB99"/>
<path d="M251.035 265.74C247.258 262.23 243.097 259.156 238.632 256.576C231.875 252.83 226.028 250.404 223.426 251.041C220.824 251.679 230.385 257.656 230.385 257.656C230.385 257.656 222.795 252.797 220.538 253.506C218.281 254.215 227.621 261.272 227.621 261.272C227.621 261.272 221.332 257.493 220.408 258.846C219.485 260.199 228.05 266.345 228.05 266.345C228.05 266.345 223.426 263.587 222.672 264.771C221.917 265.955 233.488 276.478 240.701 278.351C247.914 280.225 253.917 268.992 251.035 265.74Z" fill="#FFDB99"/>
<path d="M209.885 123.4C209.885 123.4 206.724 137.43 193.469 141.462C180.214 145.494 187.615 162.405 165.937 163.218C165.937 163.218 163.186 132.76 183.407 115.335C186.496 112.675 197.566 103.57 213.865 103.732C227.933 103.869 237.637 110.835 240.675 113.085C262.97 129.566 261.682 159.979 261.487 163.042C261.487 163.042 248.076 160.967 244.688 148.551C241.299 136.135 237.11 135.335 227.92 131.947C218.73 128.558 212.785 130.496 209.885 123.4Z" fill="#383333"/>
<path d="M237.293 115.986C245.931 115.986 252.935 108.983 252.935 100.344C252.935 91.705 245.931 84.7018 237.293 84.7018C228.654 84.7018 221.65 91.705 221.65 100.344C221.65 108.983 228.654 115.986 237.293 115.986Z" fill="#383333"/>
<path d="M202.47 273.61C202.47 273.61 204.649 272.752 206.067 271.991" stroke="#383333" stroke-width="0.75" stroke-linecap="round" stroke-linejoin="round"/>
<path d="M202.47 268.934C204.03 268.459 205.552 267.868 207.023 267.165" stroke="#383333" stroke-width="0.75" stroke-linecap="round" stroke-linejoin="round"/>
<path d="M199.992 264.771C201.902 264.344 203.762 263.716 205.54 262.898" stroke="#383333" stroke-width="0.75" stroke-linecap="round" stroke-linejoin="round"/>
<path d="M227.387 265.877C228.497 266.667 229.65 267.394 230.841 268.056" stroke="#383333" stroke-width="0.75" stroke-linecap="round" stroke-linejoin="round"/>
<path d="M227.029 260.836C227.029 260.836 230.073 263.386 231.933 263.991" stroke="#383333" stroke-width="0.75" stroke-linecap="round" stroke-linejoin="round"/>
<path d="M228.486 256.42C228.486 256.42 232.024 259.158 234.041 259.841" stroke="#383333" stroke-width="0.75" stroke-linecap="round" stroke-linejoin="round"/>
<path d="M139.98 297.616C139.98 297.616 147.225 286.189 164.402 278.579" stroke="#383333" stroke-linecap="round" stroke-linejoin="round"/>
<path d="M268.577 279.542C268.577 279.542 285.78 294.768 291.926 307.919" stroke="#383333" stroke-linecap="round" stroke-linejoin="round"/>
<path d="M214.281 189.832C216.444 189.832 218.197 187.43 218.197 184.466C218.197 181.503 216.444 179.101 214.281 179.101C212.119 179.101 210.366 181.503 210.366 184.466C210.366 187.43 212.119 189.832 214.281 189.832Z" fill="white"/>
<path d="M211.816 192.141C212.564 192.528 213.394 192.73 214.236 192.73C215.078 192.73 215.907 192.528 216.655 192.141" stroke="#383333" stroke-width="0.75" stroke-linecap="round" stroke-linejoin="round"/>
<path d="M228.258 103.167C228.258 103.167 228.154 86.0741 243.738 90.0481" stroke="white" stroke-linecap="round" stroke-linejoin="round"/>
<path d="M243.738 94.2432C243.738 94.2432 249.435 101.872 240.193 106.497" stroke="white" stroke-linecap="round" stroke-linejoin="round"/>
<path d="M213.696 117.462C213.696 117.462 214.659 124.337 229.416 127.563C244.174 130.789 244.766 154.112 257.149 153.898" stroke="white" stroke-linecap="round" stroke-linejoin="round"/>
<path d="M243.849 128.747C243.849 128.747 249.221 148.012 257.819 146.496" stroke="white" stroke-linecap="round" stroke-linejoin="round"/>
<path d="M203.003 120.682C203.003 120.682 198.594 134.548 189.996 137.592C181.397 140.636 182.529 155.081 170.789 155.849" stroke="white" stroke-linecap="round" stroke-linejoin="round"/>
<path d="M182.204 135.68C182.204 135.68 181.397 146.802 171.459 148.955" stroke="white" stroke-linecap="round" stroke-linejoin="round"/>
<path d="M355.424 272.836C355.424 272.836 357.694 270.104 360.439 270.313C362.449 270.469 370.468 273.604 374.605 275.262C374.764 275.324 374.899 275.435 374.99 275.579C375.081 275.723 375.123 275.893 375.11 276.063C375.097 276.233 375.029 276.395 374.917 276.523C374.805 276.652 374.654 276.741 374.488 276.778C370.992 277.547 367.629 278.824 364.504 280.569L355.424 272.836Z" fill="#FF535C"/>
<path d="M350.007 291.418C350.007 291.418 350.449 294.937 352.875 296.231C354.657 297.187 363.106 298.833 367.483 299.672C367.65 299.702 367.822 299.679 367.975 299.605C368.128 299.531 368.253 299.41 368.333 299.26C368.412 299.11 368.442 298.939 368.418 298.771C368.394 298.603 368.317 298.447 368.198 298.325C365.659 295.797 363.509 292.906 361.818 289.746L350.007 291.418Z" fill="#FF535C"/>
<mask id="mask0_1_520" style="mask-type:luminance" maskUnits="userSpaceOnUse" x="319" y="267" width="48" height="26">
<path d="M362.793 291.984C356.94 293.48 348.42 293.285 341.33 291.06C329.324 287.262 322.612 277.968 319.926 273.584C319.853 273.464 319.805 273.331 319.787 273.192C319.768 273.053 319.779 272.911 319.818 272.777C319.857 272.642 319.924 272.517 320.014 272.41C320.104 272.302 320.216 272.215 320.342 272.153C324.96 269.903 335.62 265.649 347.782 268.901C354.982 270.82 362.247 275.243 366.397 279.659C366.175 281.84 365.75 283.996 365.128 286.098C364.526 288.125 363.744 290.095 362.793 291.984Z" fill="white"/>
</mask>
<g mask="url(#mask0_1_520)">
<path d="M362.793 291.984C356.94 293.48 348.42 293.285 341.33 291.06C329.324 287.262 322.612 277.968 319.926 273.584C319.853 273.464 319.805 273.331 319.787 273.192C319.768 273.053 319.779 272.911 319.818 272.777C319.857 272.642 319.924 272.517 320.014 272.41C320.104 272.302 320.216 272.215 320.342 272.153C324.96 269.903 335.62 265.649 347.782 268.901C354.982 270.82 362.247 275.243 366.397 279.659C366.175 281.84 365.75 283.996 365.128 286.098C364.526 288.125 363.744 290.095 362.793 291.984Z" fill="#FFB833"/>
<path d="M328.485 287.327C327.617 279.377 329.94 271.407 334.943 265.168L319.542 260.674L313.038 282.833L328.485 287.327Z" fill="#FF535C"/>
</g>
<path d="M363.769 292.719C364.169 292.822 364.592 292.778 364.962 292.595C365.332 292.413 365.624 292.103 365.785 291.724C366.422 290.38 366.97 288.996 367.424 287.581C368.083 285.548 368.549 283.457 368.816 281.337C368.881 280.93 368.799 280.513 368.585 280.161C368.37 279.81 368.037 279.546 367.645 279.418L367.431 279.353C366.975 279.243 366.495 279.319 366.095 279.562C365.695 279.806 365.408 280.199 365.298 280.654L362.468 290.397C362.319 290.84 362.352 291.324 362.559 291.744C362.767 292.163 363.131 292.483 363.574 292.634L363.769 292.719Z" fill="#FF535C"/>
<path d="M366.559 293.538C366.96 293.64 367.383 293.596 367.754 293.414C368.125 293.231 368.418 292.923 368.582 292.543C369.219 291.2 369.767 289.816 370.221 288.4C370.874 286.366 371.338 284.276 371.606 282.156C371.673 281.749 371.592 281.332 371.377 280.98C371.162 280.628 370.828 280.365 370.436 280.238L370.228 280.173C369.771 280.063 369.29 280.138 368.889 280.382C368.488 280.625 368.2 281.018 368.088 281.473L365.245 291.229C365.171 291.449 365.14 291.681 365.156 291.912C365.171 292.144 365.231 292.37 365.334 292.578C365.437 292.785 365.58 292.971 365.754 293.124C365.929 293.276 366.131 293.393 366.351 293.467L366.559 293.538Z" fill="#FF535C"/>
<path d="M343.119 286.208C346.783 286.208 349.753 283.238 349.753 279.574C349.753 275.91 346.783 272.94 343.119 272.94C339.455 272.94 336.485 275.91 336.485 279.574C336.485 283.238 339.455 286.208 343.119 286.208Z" fill="#FFF3E3"/>
<path d="M347.86 280.953C348.133 280.016 348.123 279.019 347.829 278.088C347.536 277.157 346.973 276.334 346.212 275.723C345.451 275.112 344.526 274.74 343.554 274.654C342.581 274.569 341.606 274.773 340.749 275.242C339.893 275.711 339.196 276.423 338.744 277.289C338.293 278.154 338.108 279.134 338.213 280.104C338.319 281.075 338.709 281.992 339.336 282.741C339.962 283.489 340.797 284.035 341.734 284.309C342.991 284.676 344.343 284.528 345.491 283.899C346.64 283.27 347.492 282.21 347.86 280.953Z" fill="#FF535C"/>
<path d="M372.179 284.543C372.178 284.515 372.186 284.487 372.201 284.463C372.216 284.438 372.238 284.419 372.263 284.407C372.972 284.106 373.731 283.943 374.501 283.925C375.449 283.913 376.388 284.124 377.239 284.543C377.27 284.557 377.295 284.58 377.311 284.61C377.326 284.64 377.332 284.674 377.326 284.707C377.32 284.74 377.303 284.77 377.277 284.792C377.252 284.814 377.22 284.828 377.187 284.829C376.936 284.856 376.688 284.904 376.445 284.973C376.138 285.06 375.841 285.182 375.561 285.337C375.533 285.353 375.51 285.377 375.497 285.407C375.484 285.436 375.481 285.469 375.489 285.501C375.496 285.532 375.513 285.561 375.538 285.582C375.563 285.602 375.594 285.615 375.626 285.616C376.471 285.68 377.286 285.96 377.992 286.429C378.698 286.899 379.272 287.541 379.658 288.296C380.097 289.269 380.196 290.362 379.938 291.398C379.931 291.422 379.919 291.445 379.902 291.463C379.884 291.481 379.863 291.495 379.84 291.503C379.816 291.511 379.791 291.514 379.766 291.51C379.741 291.507 379.718 291.497 379.697 291.483C379.41 291.269 379.079 291.12 378.728 291.047C378.141 290.952 377.54 291.024 376.992 291.255C376.016 291.548 374.976 291.548 374 291.255C373.967 291.243 373.931 291.243 373.898 291.255C373.865 291.266 373.837 291.289 373.819 291.32C373.801 291.35 373.794 291.385 373.8 291.42C373.806 291.455 373.824 291.486 373.85 291.509C374.29 291.941 374.85 292.229 375.457 292.335C375.485 292.341 375.511 292.355 375.531 292.375C375.552 292.395 375.566 292.421 375.572 292.449C375.579 292.478 375.576 292.507 375.566 292.534C375.556 292.561 375.538 292.585 375.515 292.602C375.106 292.921 374.631 293.146 374.125 293.261C373.619 293.376 373.094 293.379 372.587 293.268C372.08 293.158 371.603 292.937 371.191 292.622C370.779 292.306 370.441 291.904 370.202 291.444C370.189 291.421 370.182 291.395 370.182 291.369C370.182 291.343 370.189 291.317 370.202 291.294C370.637 290.592 371.005 289.849 371.301 289.077C371.852 287.627 372.149 286.094 372.179 284.543Z" fill="#FFB833"/>
<path d="M385.538 294.729C385.538 294.729 401.713 304.036 397.297 316.718C392.881 329.401 370.793 324.673 373.232 317.792C375.671 310.91 402.338 317.141 395.671 328.328C389.005 339.515 333.695 315.249 319.757 321.252C305.819 327.255 319.757 348.107 319.757 348.107" stroke="#383333" stroke-linecap="round" stroke-linejoin="round" stroke-dasharray="12 12"/>
</svg>
