<svg width="412" height="374" viewBox="0 0 412 374" fill="none" xmlns="http://www.w3.org/2000/svg">
<path fill-rule="evenodd" clip-rule="evenodd" d="M201.969 0.795856C231.167 0.0743829 256.344 18.5957 283.019 29.8659C309.679 41.13 341.663 46.0047 359.96 67.549C378.252 89.087 373.516 120.432 382.317 146.787C391.05 172.94 410.951 195.777 411.934 223.192C412.947 251.463 401.888 278.975 387.952 303.994C373.777 329.44 358.317 358.428 330.35 369.655C301.721 381.148 269.306 365.961 238.276 364.078C214.133 362.614 190.829 359.454 166.638 359.724C136.175 360.066 102.802 380.411 76.4757 365.89C51.0482 351.865 54.0967 315.28 40.8992 290.37C28.4392 266.852 -0.974791 248.632 0.427331 222.353C1.88464 195.04 41.0326 181.454 48.1249 154.944C55.9079 125.851 26.263 91.9844 42.2385 66.0662C57.096 41.962 95.7223 44.8819 122.78 33.8254C149.555 22.8842 172.818 1.51617 201.969 0.795856Z" fill="#F2F0FD"/>
<path d="M107.534 60.9471H107.02C106.631 60.9471 106.316 61.2621 106.316 61.6507V71.7864C106.316 72.175 106.631 72.4899 107.02 72.4899H107.534C107.923 72.4899 108.238 72.175 108.238 71.7864V61.6507C108.238 61.2621 107.923 60.9471 107.534 60.9471Z" fill="#FFB833"/>
<path d="M101.509 66.4645V66.9791C101.509 67.3676 101.824 67.6826 102.212 67.6826H112.348C112.737 67.6826 113.052 67.3676 113.052 66.9791V66.4645C113.052 66.076 112.737 65.761 112.348 65.761H102.212C101.824 65.761 101.509 66.076 101.509 66.4645Z" fill="#FFB833"/>
<path d="M196.366 295.23H195.851C195.462 295.23 195.148 295.545 195.148 295.933V306.069C195.148 306.457 195.462 306.772 195.851 306.772H196.366C196.754 306.772 197.069 306.457 197.069 306.069V295.933C197.069 295.545 196.754 295.23 196.366 295.23Z" fill="#FFB833"/>
<path d="M190.334 300.747V301.262C190.334 301.65 190.649 301.965 191.037 301.965H201.173C201.562 301.965 201.876 301.65 201.876 301.262V300.747C201.876 300.358 201.562 300.043 201.173 300.043H191.037C190.649 300.043 190.334 300.358 190.334 300.747Z" fill="#FFB833"/>
<path d="M293.984 237.906H293.033C292.645 237.906 292.33 238.221 292.33 238.61V251.351C292.33 251.74 292.645 252.055 293.033 252.055H293.984C294.373 252.055 294.688 251.74 294.688 251.351V238.61C294.688 238.221 294.373 237.906 293.984 237.906Z" fill="#FFB833"/>
<path d="M286.435 244.512V245.463C286.435 245.851 286.75 246.166 287.138 246.166H299.88C300.268 246.166 300.583 245.851 300.583 245.463V244.512C300.583 244.123 300.268 243.808 299.88 243.808H287.138C286.75 243.808 286.435 244.123 286.435 244.512Z" fill="#FFB833"/>
<path d="M138.098 211.043H318.627C323.606 211.043 327.642 207.006 327.642 202.027V67.6761C327.642 62.697 323.606 58.6607 318.627 58.6607H138.098C133.119 58.6607 129.083 62.697 129.083 67.6761V202.027C129.083 207.006 133.119 211.043 138.098 211.043Z" fill="#AAEEEA"/>
<path d="M312.23 74.5093C314.558 74.5093 316.445 72.6224 316.445 70.2947C316.445 67.9671 314.558 66.0802 312.23 66.0802C309.902 66.0802 308.016 67.9671 308.016 70.2947C308.016 72.6224 309.902 74.5093 312.23 74.5093Z" fill="#00CCC1"/>
<path d="M291.424 74.5093C293.752 74.5093 295.639 72.6224 295.639 70.2947C295.639 67.9671 293.752 66.0802 291.424 66.0802C289.097 66.0802 287.21 67.9671 287.21 70.2947C287.21 72.6224 289.097 74.5093 291.424 74.5093Z" fill="#00CCC1"/>
<path d="M270.619 74.5093C272.946 74.5093 274.833 72.6224 274.833 70.2947C274.833 67.9671 272.946 66.0802 270.619 66.0802C268.291 66.0802 266.404 67.9671 266.404 70.2947C266.404 72.6224 268.291 74.5093 270.619 74.5093Z" fill="#00CCC1"/>
<path d="M343.282 191.475C343.282 191.475 346.709 190.172 349.067 191.768C350.793 192.934 356.395 199.845 359.255 203.441C359.366 203.577 359.431 203.746 359.439 203.923C359.447 204.099 359.398 204.273 359.299 204.419C359.2 204.565 359.057 204.676 358.891 204.734C358.725 204.793 358.544 204.796 358.375 204.744C354.847 203.65 351.178 203.079 347.484 203.05L343.282 191.475Z" fill="#FF535C"/>
<path d="M328.906 205.415C328.906 205.415 327.512 208.802 329.03 211.206C330.137 212.964 336.847 218.775 340.384 221.745C340.518 221.85 340.682 221.911 340.852 221.918C341.022 221.926 341.19 221.88 341.334 221.788C341.477 221.696 341.588 221.561 341.651 221.403C341.714 221.245 341.727 221.071 341.686 220.905C340.697 217.346 340.238 213.661 340.325 209.968L328.906 205.415Z" fill="#FF535C"/>
<mask id="mask0_1_356" style="mask-type:luminance" maskUnits="userSpaceOnUse" x="310" y="172" width="40" height="41">
<path d="M340.097 212.456C334.065 210.795 326.522 206.301 321.291 200.659C312.458 191.123 311.168 179.352 310.999 174.043C310.993 173.899 311.018 173.754 311.072 173.62C311.125 173.485 311.207 173.364 311.311 173.263C311.415 173.162 311.539 173.084 311.675 173.035C311.811 172.985 311.955 172.965 312.1 172.975C317.402 173.307 329.127 174.929 338.39 184.049C343.869 189.449 348.161 197.129 349.607 203.206C348.294 205.053 346.811 206.774 345.178 208.346C343.609 209.864 341.909 211.239 340.097 212.456Z" fill="white"/>
</mask>
<g mask="url(#mask0_1_356)">
<path d="M340.097 212.456C334.065 210.795 326.522 206.301 321.291 200.659C312.458 191.123 311.168 179.352 310.999 174.043C310.993 173.899 311.018 173.754 311.072 173.62C311.125 173.485 311.207 173.364 311.311 173.263C311.415 173.162 311.539 173.084 311.675 173.035C311.811 172.985 311.955 172.965 312.1 172.975C317.402 173.307 329.127 174.929 338.39 184.049C343.869 189.449 348.161 197.129 349.607 203.206C348.294 205.053 346.811 206.774 345.178 208.346C343.609 209.864 341.909 211.239 340.097 212.456Z" fill="#FFB833"/>
<path d="M311.676 190.765C313.105 187.502 315.069 184.501 317.487 181.886C320.645 178.518 324.503 175.883 328.789 174.167L317.239 162.233L300.127 178.831L311.676 190.765Z" fill="#FF535C"/>
</g>
<path d="M340.586 213.603C340.891 213.899 341.293 214.077 341.719 214.103C342.144 214.13 342.565 214.003 342.905 213.746C345.973 211.59 348.682 208.963 350.93 205.962C351.195 205.63 351.333 205.214 351.32 204.789C351.307 204.364 351.143 203.958 350.858 203.643L350.695 203.48C350.521 203.311 350.314 203.179 350.088 203.091C349.862 203.003 349.62 202.961 349.377 202.968C349.135 202.975 348.896 203.03 348.675 203.13C348.454 203.23 348.255 203.374 348.09 203.552L340.546 210.867C340.186 211.188 339.967 211.64 339.939 212.122C339.911 212.605 340.076 213.079 340.397 213.44L340.586 213.603Z" fill="#FF535C"/>
<path d="M342.69 215.772C342.996 216.067 343.398 216.244 343.823 216.27C344.248 216.297 344.668 216.171 345.009 215.915C348.079 213.751 350.786 211.113 353.027 208.098C353.296 207.768 353.437 207.351 353.424 206.925C353.411 206.5 353.244 206.093 352.956 205.779L352.799 205.617C352.625 205.447 352.419 205.315 352.193 205.226C351.967 205.138 351.726 205.095 351.483 205.101C351.24 205.107 351.001 205.162 350.78 205.262C350.558 205.361 350.359 205.504 350.194 205.682L342.677 213.042C342.317 213.365 342.1 213.816 342.072 214.298C342.044 214.78 342.207 215.254 342.527 215.616L342.69 215.772Z" fill="#FF535C"/>
<path d="M328.776 198.119C332.56 198.119 335.628 195.051 335.628 191.266C335.628 187.482 332.56 184.413 328.776 184.413C324.991 184.413 321.923 187.482 321.923 191.266C321.923 195.051 324.991 198.119 328.776 198.119Z" fill="#FFF3E3"/>
<path d="M332.352 194.927C333.076 194.225 333.576 193.324 333.788 192.337C334 191.351 333.915 190.324 333.544 189.386C333.172 188.448 332.53 187.641 331.7 187.068C330.87 186.495 329.889 186.181 328.88 186.165C327.871 186.15 326.881 186.434 326.033 186.981C325.186 187.529 324.52 188.315 324.12 189.241C323.72 190.167 323.603 191.191 323.785 192.184C323.966 193.176 324.438 194.092 325.141 194.816C326.083 195.785 327.372 196.341 328.723 196.362C330.075 196.383 331.38 195.867 332.352 194.927Z" fill="#FF535C"/>
<path d="M352.317 210.567C352.333 210.542 352.355 210.522 352.382 210.51C352.408 210.497 352.438 210.492 352.467 210.496C353.349 210.592 354.199 210.88 354.959 211.339C355.718 211.798 356.368 212.417 356.864 213.153C356.886 213.181 356.897 213.216 356.897 213.252C356.896 213.287 356.883 213.322 356.86 213.349C356.838 213.376 356.806 213.395 356.771 213.402C356.737 213.409 356.7 213.404 356.669 213.388C356.429 213.281 356.181 213.195 355.926 213.134C355.606 213.058 355.278 213.017 354.949 213.01C354.916 213.01 354.883 213.021 354.856 213.042C354.83 213.062 354.81 213.09 354.801 213.122C354.791 213.154 354.792 213.188 354.804 213.22C354.815 213.251 354.836 213.278 354.864 213.297C355.591 213.784 356.18 214.451 356.573 215.233C356.967 216.014 357.152 216.884 357.112 217.759C357.022 218.853 356.562 219.885 355.809 220.683C355.791 220.703 355.769 220.718 355.744 220.726C355.719 220.735 355.692 220.737 355.666 220.733C355.64 220.728 355.615 220.717 355.595 220.7C355.574 220.684 355.558 220.662 355.548 220.638C355.402 220.283 355.18 219.965 354.897 219.706C354.42 219.322 353.844 219.081 353.236 219.009C352.213 218.761 351.285 218.22 350.565 217.452C350.541 217.429 350.509 217.414 350.476 217.41C350.442 217.405 350.408 217.412 350.378 217.429C350.349 217.446 350.326 217.472 350.312 217.503C350.299 217.535 350.296 217.569 350.304 217.602C350.382 217.878 350.499 218.141 350.65 218.384C350.824 218.677 351.044 218.941 351.301 219.166C351.324 219.185 351.341 219.211 351.349 219.239C351.358 219.268 351.358 219.299 351.35 219.328C351.342 219.356 351.325 219.382 351.303 219.402C351.28 219.422 351.253 219.435 351.223 219.439C350.692 219.518 350.151 219.479 349.637 219.325C349.123 219.17 348.649 218.905 348.25 218.546C347.85 218.188 347.535 217.746 347.326 217.252C347.117 216.758 347.02 216.223 347.041 215.687C347.041 215.66 347.049 215.634 347.062 215.611C347.076 215.588 347.096 215.57 347.119 215.557C347.869 215.144 348.58 214.665 349.243 214.124C350.463 213.122 351.502 211.919 352.317 210.567Z" fill="#FFB833"/>
<path d="M357.105 227.373C357.105 227.373 366.817 276.945 347.725 289.953C328.632 302.962 317.65 281.987 328.3 277.655C338.951 273.323 369.586 316.706 295.665 338.476" stroke="#383333" stroke-linecap="round" stroke-linejoin="round" stroke-dasharray="12 12"/>
<mask id="mask1_1_356" style="mask-type:luminance" maskUnits="userSpaceOnUse" x="200" y="70" width="60" height="60">
<path d="M230.31 129.233C246.586 129.233 259.779 116.04 259.779 99.7641C259.779 83.4886 246.586 70.2947 230.31 70.2947C214.035 70.2947 200.841 83.4886 200.841 99.7641C200.841 116.04 214.035 129.233 230.31 129.233Z" fill="white"/>
</mask>
<g mask="url(#mask1_1_356)">
<path d="M230.31 129.233C246.586 129.233 259.779 116.04 259.779 99.7641C259.779 83.4886 246.586 70.2947 230.31 70.2947C214.035 70.2947 200.841 83.4886 200.841 99.7641C200.841 116.04 214.035 129.233 230.31 129.233Z" fill="#FFF3E3"/>
<path d="M230.33 107.242C236.543 107.242 241.579 102.205 241.579 95.9925C241.579 89.7794 236.543 84.7428 230.33 84.7428C224.117 84.7428 219.08 89.7794 219.08 95.9925C219.08 102.205 224.117 107.242 230.33 107.242Z" fill="#00CCC1"/>
<path fill-rule="evenodd" clip-rule="evenodd" d="M213.224 131.35C213.035 131.35 212.848 131.311 212.675 131.234C212.502 131.158 212.346 131.046 212.219 130.907C212.092 130.767 211.995 130.602 211.934 130.423C211.874 130.243 211.852 130.054 211.869 129.865C213.061 116.44 218.272 106.747 223.36 104.741C225.475 103.945 227.712 103.522 229.971 103.49C232.371 103.602 234.73 104.147 236.935 105.099C241.944 107.333 247.207 116.661 248.745 129.657C248.768 129.847 248.75 130.041 248.693 130.224C248.636 130.408 248.542 130.577 248.415 130.721C248.289 130.866 248.133 130.982 247.959 131.062C247.784 131.143 247.595 131.185 247.403 131.188L213.224 131.35Z" fill="#00CCC1"/>
</g>
<path d="M284.767 136.197H177.143C172.315 136.197 168.401 140.111 168.401 144.939V154.918C168.401 159.746 172.315 163.66 177.143 163.66H284.767C289.595 163.66 293.509 159.746 293.509 154.918V144.939C293.509 140.111 289.595 136.197 284.767 136.197Z" fill="#FFF3E3"/>
<path d="M284.767 170.526H177.143C172.315 170.526 168.401 174.439 168.401 179.267V189.247C168.401 194.075 172.315 197.989 177.143 197.989H284.767C289.595 197.989 293.509 194.075 293.509 189.247V179.267C293.509 174.439 289.595 170.526 284.767 170.526Z" fill="#FFF3E3"/>
<path d="M195.493 155.498C198.374 155.498 200.71 153.162 200.71 150.28C200.71 147.398 198.374 145.062 195.493 145.062C192.611 145.062 190.275 147.398 190.275 150.28C190.275 153.162 192.611 155.498 195.493 155.498Z" fill="#00CCC1"/>
<path d="M219.139 155.498C222.02 155.498 224.356 153.162 224.356 150.28C224.356 147.398 222.02 145.062 219.139 145.062C216.257 145.062 213.921 147.398 213.921 150.28C213.921 153.162 216.257 155.498 219.139 155.498Z" fill="#00CCC1"/>
<path d="M242.778 155.498C245.66 155.498 247.996 153.162 247.996 150.28C247.996 147.398 245.66 145.062 242.778 145.062C239.896 145.062 237.56 147.398 237.56 150.28C237.56 153.162 239.896 155.498 242.778 155.498Z" fill="#00CCC1"/>
<path d="M266.424 155.498C269.305 155.498 271.641 153.162 271.641 150.28C271.641 147.398 269.305 145.062 266.424 145.062C263.542 145.062 261.206 147.398 261.206 150.28C261.206 153.162 263.542 155.498 266.424 155.498Z" fill="#00CCC1"/>
<path d="M195.493 189.475C198.374 189.475 200.71 187.139 200.71 184.257C200.71 181.375 198.374 179.039 195.493 179.039C192.611 179.039 190.275 181.375 190.275 184.257C190.275 187.139 192.611 189.475 195.493 189.475Z" fill="#00CCC1"/>
<path d="M219.139 189.475C222.02 189.475 224.356 187.139 224.356 184.257C224.356 181.375 222.02 179.039 219.139 179.039C216.257 179.039 213.921 181.375 213.921 184.257C213.921 187.139 216.257 189.475 219.139 189.475Z" fill="#00CCC1"/>
<path d="M242.778 189.475C245.66 189.475 247.996 187.139 247.996 184.257C247.996 181.375 245.66 179.039 242.778 179.039C239.896 179.039 237.56 181.375 237.56 184.257C237.56 187.139 239.896 189.475 242.778 189.475Z" fill="#00CCC1"/>
<path d="M104.303 180.205C108.049 180.772 138.345 185.019 149.354 169.308C159.164 155.315 150.716 129.696 144.026 109.379C143.283 107.125 142.612 105.262 142.13 103.953C141.042 101.249 138.365 95.797 132.809 93.5302C127.969 91.5239 123.337 92.8788 117.618 94.8851C97.0663 101.972 86.7742 105.522 81.4196 111.893C79.2179 114.499 72.4955 123.104 71.792 134.783C70.7106 152.729 83.6539 170.897 104.303 180.205Z" fill="#D89071"/>
<path d="M128.223 126.647C130.237 124.762 132.781 123.541 135.512 123.149C137.362 122.856 139.863 122.459 140.834 123.801C141.051 124.092 141.185 124.436 141.224 124.796C141.263 125.157 141.205 125.522 141.055 125.853C140.345 127.155 138.013 126.374 134.476 126.81C129.819 127.39 127.031 129.559 126.659 128.934C126.353 128.484 127.695 127.168 128.223 126.647Z" fill="#383333"/>
<path d="M133.349 150.623C136.154 150.011 138.119 148.099 137.738 146.352C137.357 144.606 134.775 143.685 131.97 144.297C129.165 144.908 127.2 146.82 127.581 148.567C127.962 150.314 130.544 151.234 133.349 150.623Z" fill="#D17352"/>
<path d="M106.225 136.724C105.386 135.973 104.402 135.401 103.332 135.046C102.263 134.691 101.133 134.559 100.011 134.66C98.6489 134.781 97.3628 135.338 96.3432 136.249C93.0862 139.597 94.9036 149.564 100.903 151.85C104.258 153.153 107.665 151.524 108.818 150.925C107.949 146.191 107.085 141.458 106.225 136.724Z" fill="#D89071"/>
<path d="M97.9522 140.659L103.6 140.118C103.6 140.118 98.0238 143.994 103.059 148.404" stroke="#383333" stroke-width="0.75" stroke-linecap="round" stroke-linejoin="round"/>
<path d="M147.576 122.061C147.576 122.061 149.452 129.54 153.354 132.542C157.256 135.545 157.471 140.848 151.543 142.346C145.615 143.844 144.814 141.766 144.814 141.766L147.576 122.061Z" fill="#D89071"/>
<path d="M107.866 165.959C108.424 173.819 108.087 181.717 106.863 189.501C104.837 201.799 83.9666 199.793 77.7523 218.775C71.5379 237.757 97.9457 287.263 87.3018 340.541C87.3018 340.541 129.923 359.191 183.201 340.541C183.201 340.541 167.717 219.205 161.972 208.45C156.226 197.696 140.352 195.956 135.466 189.501C130.581 183.046 133.082 160.742 133.082 160.742L107.866 165.959Z" fill="#D89071"/>
<path d="M136.391 202.21C141.446 200.314 149.758 198.08 158.728 200.477C167.939 202.933 171.013 208.463 193.219 234.278C204.293 247.137 217.464 261.995 217.464 261.995L225.568 279.075C224.926 279.967 224.143 280.748 223.249 281.387C210.67 290.318 176.29 268.555 157.06 244.31C150.527 236.063 141.668 222.397 136.391 202.21Z" fill="#D89071"/>
<path d="M248.406 205.382C244.029 211.942 236.648 222.566 226.493 235.014C210.306 254.856 200.118 263.357 202.723 272.053C204.45 277.779 211.309 282.221 217.23 282.547C240.68 283.85 260.34 221.387 262.606 214.02L248.406 205.382Z" fill="#D89071"/>
<path fill-rule="evenodd" clip-rule="evenodd" d="M139.746 137.91C139.225 138.451 138.554 138.826 137.82 138.986C137.085 139.146 136.32 139.084 135.62 138.809C134.921 138.534 134.319 138.057 133.891 137.44C133.462 136.822 133.227 136.091 133.214 135.34C133.201 134.588 133.412 133.85 133.819 133.218C134.226 132.586 134.811 132.089 135.501 131.791C136.191 131.492 136.954 131.404 137.693 131.539C138.432 131.674 139.115 132.026 139.655 132.549C140.375 133.25 140.788 134.206 140.805 135.211C140.823 136.215 140.442 137.185 139.746 137.91Z" fill="#383333"/>
<path fill-rule="evenodd" clip-rule="evenodd" d="M130.542 133.246C130.62 133.168 131.46 134.392 132.405 134.223C133.102 134.099 133.225 133.318 134.066 132.569C134.798 131.943 135.711 131.569 136.671 131.5C136.33 132.333 135.877 133.116 135.323 133.826C134.528 134.835 134.02 135.48 133.265 135.552C131.721 135.695 130.418 133.344 130.542 133.246Z" fill="#383333"/>
<path d="M105.945 186.368C105.945 186.368 107.619 191.546 99.6198 195.859C91.6206 200.171 84.0904 208.483 84.0904 208.483C84.0904 208.483 84.0904 242.114 80.7813 251.306C80.7813 251.306 92.2915 310.941 84.3053 340.547C84.3053 340.547 144.886 365.854 186.862 340.547C181.941 313.836 177.021 287.128 172.101 260.425C166.463 254.056 162.256 246.553 159.763 238.421C154.552 221.231 158.806 206.561 160.715 201.076C160.715 201.076 144.241 195.155 140.358 192.269C136.476 189.384 135.147 184.387 135.147 184.387C135.147 184.387 118.491 188.367 105.945 186.368Z" fill="#FFB833"/>
<path d="M246.784 209.564C246.784 209.564 247.579 198.49 249.911 194.712C252.243 190.934 257.128 191.585 257.128 191.585C257.128 191.585 267.551 180.043 269.335 179.932C271.12 179.821 264.124 193.136 264.124 193.136C264.124 193.136 266.899 194.693 266.788 196.914C266.678 199.135 269.231 199.467 269.01 202.021C268.788 204.574 270.032 204.907 269.629 207.349C269.225 209.792 265.968 216.13 261.271 218.234C256.575 220.338 246.784 209.564 246.784 209.564Z" fill="#D89071"/>
<path d="M106.225 136.724C106.225 136.724 120.145 133.858 121.207 116.336C122.269 98.813 128.151 94.0773 135.303 97.4907C135.414 97.7968 135.538 98.103 135.668 98.4157C137.248 101.892 139.844 104.808 143.114 106.78C143.114 106.78 146.944 90.3709 135.655 92.1753C132.535 90.8008 104.153 78.8541 83.5172 93.0221C60.3534 108.955 58.6011 149.896 69.7531 165.836C71.4272 168.226 76.443 174.414 77.7457 183.814C78.398 188.971 77.9405 194.208 76.4039 199.174C72.6583 212.775 61.4217 243.567 71.7203 249.475C86.9305 258.198 140.73 257.729 152.989 233.014C165.248 208.3 132.196 178.193 120.321 167.972C108.446 157.752 111.364 151.576 108.023 151.303C104.681 151.029 100.734 155.609 96.8383 148.404C92.9429 141.2 94.0112 137.591 97.3399 135.487C100.669 133.383 104.557 135.357 106.225 136.724Z" fill="#383333"/>
<path d="M208.84 270.502C208.84 270.502 207.101 261.122 210.794 253.599" stroke="#383333" stroke-linecap="round" stroke-linejoin="round"/>
<path d="M124.594 94.7939C124.594 94.7939 115.827 94.5724 112.772 104.786C109.716 115 112.609 125.872 97.9522 127.208" stroke="white" stroke-linecap="round" stroke-linejoin="round"/>
<path d="M107.28 158.507C107.28 158.507 107.723 173.151 126.594 189.475C145.465 205.799 151.934 223.55 144.833 233.985" stroke="white" stroke-linecap="round" stroke-linejoin="round"/>
<path d="M109.391 186.765C109.391 186.765 148.572 229.542 117.716 243.971" stroke="white" stroke-linecap="round" stroke-linejoin="round"/>
<path d="M103.6 111.001C103.6 111.001 101.287 118.772 88.4092 127.208C75.531 135.643 82.8658 153.596 93.7376 155.498" stroke="white" stroke-linecap="round" stroke-linejoin="round"/>
<path d="M84.1686 184.257C84.1686 184.257 89.7966 192.471 81.563 217.114C73.3293 241.756 84.3249 247.306 92.5781 246.427" stroke="white" stroke-linecap="round" stroke-linejoin="round"/>
<path d="M138.163 95.2108C138.163 95.2108 139.244 100.422 142.41 101.373" stroke="white" stroke-linecap="round" stroke-linejoin="round"/>
<path d="M71.7268 142.887C71.7268 142.887 65.988 112.076 96.9555 99.7641" stroke="white" stroke-linecap="round" stroke-linejoin="round"/>
<path d="M141.244 148.098C141.244 148.098 148.123 150.052 152.012 146.053C152.012 146.053 152.787 152.612 148.683 154.28C144.579 155.947 141.244 148.098 141.244 148.098Z" fill="white"/>
<path d="M147.152 156.729C147.152 156.729 149.569 157.27 150.898 155.524" stroke="#383333" stroke-width="0.75" stroke-linecap="round" stroke-linejoin="round"/>
</svg>
