<svg width="431" height="431" viewBox="0 0 431 431" fill="none" xmlns="http://www.w3.org/2000/svg">
<path fill-rule="evenodd" clip-rule="evenodd" d="M208.674 18.8165C234.238 18.1848 256.281 34.4006 279.635 44.2679C302.976 54.1298 330.979 58.3976 346.999 77.2601C363.014 96.117 358.867 123.56 366.573 146.634C374.219 169.532 391.642 189.526 392.503 213.528C393.39 238.28 383.707 262.368 371.506 284.272C359.096 306.551 345.561 331.93 321.074 341.76C296.01 351.821 267.63 338.525 240.462 336.877C219.324 335.595 198.922 332.828 177.742 333.065C151.071 333.364 121.852 351.177 98.8028 338.463C76.5406 326.184 79.2097 294.153 67.655 272.344C56.746 251.754 30.9935 235.802 32.2211 212.794C33.497 188.881 67.7718 176.986 73.9812 153.776C80.7954 128.305 54.8407 98.6538 68.8276 75.9619C81.8355 54.8582 115.654 57.4147 139.343 47.7345C162.785 38.1552 183.152 19.4471 208.674 18.8165Z" fill="#F2F0FD"/>
<path d="M212.756 156.393H212.592C204.378 156.461 197.97 161.879 195.485 164.359C195.336 164.507 195.219 164.684 195.143 164.88C195.066 165.075 195.03 165.284 195.038 165.494C195.047 165.703 195.098 165.909 195.19 166.098C195.281 166.287 195.411 166.454 195.571 166.59C195.859 166.834 196.228 166.961 196.605 166.947C196.982 166.933 197.34 166.778 197.609 166.513C199.794 164.359 205.522 159.467 212.618 159.407H212.756C217.701 159.407 222.458 161.776 226.904 166.452C227.174 166.736 227.542 166.906 227.933 166.925C228.324 166.944 228.707 166.812 229.003 166.556C229.157 166.423 229.282 166.26 229.371 166.077C229.459 165.895 229.51 165.696 229.52 165.493C229.53 165.29 229.498 165.087 229.427 164.896C229.356 164.706 229.247 164.532 229.106 164.385C224.066 159.088 218.553 156.393 212.756 156.393Z" fill="white"/>
<path d="M211.268 141.363C196.835 141.897 186.324 151.483 182.987 154.92C182.843 155.068 182.73 155.244 182.656 155.438C182.583 155.631 182.55 155.838 182.559 156.045C182.569 156.252 182.621 156.454 182.712 156.64C182.804 156.826 182.933 156.991 183.09 157.125C183.38 157.374 183.754 157.504 184.135 157.488C184.517 157.472 184.878 157.312 185.146 157.039C188.182 153.938 198.177 144.851 211.397 144.378C221.116 144.05 230.568 148.305 239.6 157.099C239.88 157.377 240.258 157.533 240.653 157.533C241.048 157.533 241.427 157.377 241.707 157.099C241.85 156.957 241.964 156.788 242.042 156.602C242.12 156.416 242.16 156.216 242.16 156.014C242.16 155.812 242.12 155.612 242.042 155.426C241.964 155.239 241.85 155.07 241.707 154.929C232.048 145.558 221.769 140.976 211.268 141.363Z" fill="white"/>
<path d="M220.385 179.191C220.554 177.536 220.207 175.87 219.392 174.421C218.577 172.972 217.335 171.811 215.834 171.098C214.334 170.384 212.65 170.153 211.014 170.437C209.377 170.721 207.868 171.505 206.695 172.681C205.521 173.858 204.74 175.37 204.459 177.009C204.178 178.648 204.41 180.334 205.124 181.835C205.838 183.337 206.999 184.58 208.447 185.394C209.896 186.208 211.56 186.554 213.212 186.382C215.05 186.191 216.767 185.371 218.073 184.061C219.379 182.752 220.196 181.032 220.385 179.191ZM207.415 179.027C207.275 177.986 207.464 176.927 207.957 176C208.449 175.072 209.22 174.323 210.16 173.857C211.1 173.391 212.162 173.232 213.198 173.402C214.233 173.573 215.188 174.064 215.93 174.807C216.672 175.549 217.162 176.506 217.332 177.543C217.502 178.579 217.344 179.643 216.878 180.585C216.413 181.526 215.665 182.298 214.738 182.791C213.812 183.284 212.755 183.474 211.715 183.334C210.627 183.185 209.617 182.684 208.84 181.906C208.063 181.128 207.563 180.117 207.415 179.027Z" fill="white"/>
<path d="M383.445 137.315H342.744C340.556 137.319 338.458 138.192 336.911 139.742C335.363 141.291 334.492 143.392 334.487 145.583V233.185C334.492 235.376 335.364 237.475 336.911 239.023C338.459 240.572 340.557 241.442 342.744 241.445H383.445C385.632 241.442 387.728 240.571 389.275 239.023C390.821 237.474 391.691 235.375 391.693 233.185V145.557C391.684 143.371 390.812 141.277 389.266 139.733C387.721 138.189 385.628 137.319 383.445 137.315Z" fill="#F2D64B"/>
<path d="M361.452 151.828H338.986V180.629H361.452V151.828Z" fill="#1D04BF"/>
<path d="M358.742 154.11H341.686V156.961H358.742V154.11Z" fill="white"/>
<path d="M350.889 159.855H341.686V177.115H350.889V159.855Z" fill="white"/>
<path d="M343.019 161.905H349.565" stroke="#B5B5B5" stroke-width="0.7" stroke-miterlimit="10"/>
<path d="M343.019 163.877H349.565" stroke="#B5B5B5" stroke-width="0.7" stroke-miterlimit="10"/>
<path d="M343.019 165.858H349.565" stroke="#B5B5B5" stroke-width="0.7" stroke-miterlimit="10"/>
<path d="M343.019 167.831H349.565" stroke="#B5B5B5" stroke-width="0.7" stroke-miterlimit="10"/>
<path d="M343.019 169.811H349.565" stroke="#B5B5B5" stroke-width="0.7" stroke-miterlimit="10"/>
<path d="M343.019 171.784H349.565" stroke="#B5B5B5" stroke-width="0.7" stroke-miterlimit="10"/>
<path d="M343.019 173.756H349.565" stroke="#B5B5B5" stroke-width="0.7" stroke-miterlimit="10"/>
<path d="M343.019 175.737H349.565" stroke="#B5B5B5" stroke-width="0.7" stroke-miterlimit="10"/>
<path d="M358.742 163.765H352.188V167.426H358.742V163.765Z" fill="white"/>
<path d="M352.781 164.609H358.148" stroke="#B5B5B5" stroke-width="0.7" stroke-miterlimit="10"/>
<path d="M352.781 166.582H358.148" stroke="#B5B5B5" stroke-width="0.7" stroke-miterlimit="10"/>
<path d="M358.742 170.871H352.188V174.532H358.742V170.871Z" fill="white"/>
<path d="M352.781 171.715H358.148" stroke="#B5B5B5" stroke-width="0.7" stroke-miterlimit="10"/>
<path d="M352.781 173.696H358.148" stroke="#B5B5B5" stroke-width="0.7" stroke-miterlimit="10"/>
<path d="M387.203 200.818H364.737V229.619H387.203V200.818Z" fill="#07038C"/>
<path d="M383.814 208.854H368.117V226.114H383.814V208.854Z" fill="white"/>
<path d="M383.814 203.195H368.117V206.27H383.814V203.195Z" fill="white"/>
<path d="M370.388 210.895H381.552" stroke="#B5B5B5" stroke-width="0.7" stroke-miterlimit="10"/>
<path d="M370.388 212.867H381.552" stroke="#B5B5B5" stroke-width="0.7" stroke-miterlimit="10"/>
<path d="M370.388 214.848H381.552" stroke="#B5B5B5" stroke-width="0.7" stroke-miterlimit="10"/>
<path d="M370.388 216.821H381.552" stroke="#B5B5B5" stroke-width="0.7" stroke-miterlimit="10"/>
<path d="M370.388 218.802H381.552" stroke="#B5B5B5" stroke-width="0.7" stroke-miterlimit="10"/>
<path d="M370.388 220.774H381.552" stroke="#B5B5B5" stroke-width="0.7" stroke-miterlimit="10"/>
<path d="M370.388 222.755H381.552" stroke="#B5B5B5" stroke-width="0.7" stroke-miterlimit="10"/>
<path d="M370.388 224.727H381.552" stroke="#B5B5B5" stroke-width="0.7" stroke-miterlimit="10"/>
<path d="M383.445 134.895H342.744C339.922 134.904 337.218 136.03 335.222 138.027C333.226 140.025 332.099 142.732 332.088 145.558V233.185C332.092 236.018 333.219 238.733 335.22 240.735C337.221 242.737 339.933 243.863 342.762 243.865H383.462C386.29 243.863 389.001 242.737 391.001 240.734C393.001 238.732 394.125 236.017 394.127 233.185V145.558C394.118 142.726 392.989 140.014 390.986 138.016C388.984 136.017 386.272 134.895 383.445 134.895ZM391.693 233.185C391.691 235.375 390.821 237.474 389.275 239.023C387.728 240.571 385.632 241.442 383.445 241.445H342.744C340.557 241.442 338.459 240.572 336.911 239.023C335.364 237.475 334.492 235.376 334.487 233.185V145.558C334.492 143.366 335.363 141.266 336.911 139.716C338.458 138.166 340.556 137.294 342.744 137.289H383.445C385.632 137.294 387.729 138.167 389.275 139.716C390.821 141.266 391.691 143.367 391.693 145.558V233.185Z" fill="#1D04BF"/>
<path d="M383.445 137.315H342.745C340.782 137.319 338.884 138.022 337.392 139.299C335.9 140.575 334.91 142.342 334.599 144.283H391.582C391.271 142.344 390.283 140.578 388.792 139.301C387.301 138.025 385.406 137.321 383.445 137.315Z" fill="#07038C"/>
<path d="M345.032 235.502H381.148" stroke="white" stroke-width="2.81" stroke-miterlimit="10" stroke-linecap="round"/>
<path d="M357.753 137.315C358.12 137.596 358.457 137.913 358.76 138.262C359.263 138.909 359.603 139.669 359.749 140.476C359.762 140.567 359.785 140.656 359.817 140.743C360.04 141.439 360.477 142.046 361.066 142.476C361.655 142.907 362.365 143.139 363.094 143.139C363.824 143.139 364.534 142.907 365.123 142.476C365.712 142.046 366.149 141.439 366.371 140.743C366.399 140.655 366.422 140.566 366.44 140.476C366.582 139.668 366.922 138.907 367.429 138.262C367.732 137.913 368.069 137.596 368.436 137.315H357.753Z" fill="#1D04BF"/>
<path d="M381.148 177.684H345.032V201.085H381.148V177.684Z" fill="#969BF2"/>
<path d="M363.094 177.684H345.032L363.094 193.876L381.148 177.684H363.094Z" fill="#858BF2"/>
<path d="M272.714 81.6672V118.772H286.828V139.632L307.669 118.772H341.42V81.6672H272.714Z" fill="white"/>
<path d="M331.503 87.8857H282.631V89.5042H331.503V87.8857Z" fill="#F2D64B"/>
<path d="M331.503 95.4133H282.631V97.0318H331.503V95.4133Z" fill="#F2D64B"/>
<path d="M331.503 102.932H282.631V104.551H331.503V102.932Z" fill="#F2D64B"/>
<path d="M331.503 110.46H282.631V112.078H331.503V110.46Z" fill="#F2D64B"/>
<path d="M116.931 100.771C137.075 100.771 153.4 112.76 153.4 127.557C153.4 140.64 140.619 151.518 123.735 153.86C122.596 154.453 121.554 155.217 120.647 156.125C119.211 157.633 118.325 159.855 118.927 161.844C119.718 164.29 122.367 165.514 124.707 166.564C125.309 166.831 125.997 167.245 125.988 167.891C125.958 168.14 125.849 168.373 125.677 168.555C125.505 168.738 125.28 168.861 125.034 168.907C124.538 168.975 124.033 168.934 123.554 168.786C118.6 167.581 113.663 165.651 109.965 162.129C107.36 159.676 105.647 156.424 105.096 152.887C90.7497 149.287 80.437 139.305 80.437 127.557C80.4714 112.829 96.7963 100.771 116.931 100.771Z" fill="white"/>
<path d="M129.747 114.5C125.67 112.381 119.477 113.096 116.931 116.394C114.394 113.096 108.193 112.381 104.124 114.5C102.224 115.482 100.668 117.022 99.6644 118.913C98.6608 120.805 98.2574 122.958 98.5079 125.085C98.9724 129.107 101.467 132.836 104.468 136.032C107.98 139.753 112.041 142.914 116.51 145.403L116.966 145.661L117.422 145.403C121.89 142.913 125.951 139.753 129.463 136.032C132.465 132.811 134.951 129.142 135.424 125.085C135.669 122.951 135.257 120.794 134.242 118.901C133.227 117.009 131.659 115.473 129.747 114.5Z" fill="#F2D64B"/>
<path d="M347.277 349.459H84.9442V354.48C84.8975 354.765 84.8975 355.056 84.9442 355.341V355.677H85.013C85.3485 356.823 86.6128 357.848 90.079 357.848H343.467C346.09 357.848 347.062 357.064 347.277 356.125H347.32V355.875C347.337 355.721 347.337 355.565 347.32 355.41L347.277 349.459Z" fill="#07038C"/>
<path d="M346.176 346.238L318.713 309.495H114.713L85.6152 345.988C85.6152 345.988 82.1748 351.259 90.0362 351.259H343.424C349.505 351.259 346.71 347.03 346.176 346.238Z" fill="#1D04BF"/>
<path d="M97.6652 355.101C97.6669 355.348 97.5952 355.59 97.4592 355.797C97.3232 356.003 97.129 356.165 96.9013 356.261C96.6735 356.357 96.4225 356.383 96.18 356.335C95.9375 356.288 95.7145 356.17 95.5392 355.995C95.364 355.821 95.2443 355.599 95.1955 355.356C95.1467 355.114 95.1709 354.862 95.265 354.633C95.3591 354.404 95.519 354.209 95.7243 354.071C95.9295 353.934 96.171 353.86 96.418 353.86C96.7473 353.86 97.0632 353.991 97.2969 354.223C97.5305 354.455 97.6629 354.771 97.6652 355.101Z" fill="white"/>
<path d="M103.143 355.101C103.145 355.348 103.073 355.59 102.937 355.797C102.801 356.003 102.607 356.165 102.38 356.261C102.152 356.357 101.901 356.383 101.658 356.335C101.416 356.288 101.193 356.17 101.018 355.995C100.842 355.821 100.723 355.599 100.674 355.356C100.625 355.114 100.649 354.862 100.743 354.633C100.837 354.404 100.997 354.209 101.203 354.071C101.408 353.934 101.649 353.86 101.896 353.86C102.226 353.86 102.542 353.991 102.775 354.223C103.009 354.455 103.141 354.771 103.143 355.101Z" fill="white"/>
<path d="M125.377 355.1C125.377 355.328 125.287 355.547 125.125 355.709C124.964 355.87 124.745 355.961 124.517 355.961H107.797C107.569 355.961 107.35 355.87 107.188 355.709C107.027 355.547 106.937 355.328 106.937 355.1C106.937 354.872 107.027 354.653 107.188 354.491C107.35 354.33 107.569 354.239 107.797 354.239H124.491C124.719 354.239 124.938 354.33 125.1 354.491C125.261 354.653 125.351 354.872 125.351 355.1H125.377Z" fill="white"/>
<path d="M125.825 312.742H309.639L321.216 330.39H110.945L125.825 312.742Z" fill="white"/>
<path d="M310.662 194.22H122.659C120.538 194.22 118.503 195.064 117.003 196.567C115.503 198.069 114.66 200.106 114.66 202.23V309.995H318.661V202.23C318.661 200.106 317.818 198.069 316.318 196.567C314.818 195.064 312.783 194.22 310.662 194.22Z" fill="#07038C"/>
<path d="M308.572 202.704H124.75V304.276H308.572V202.704Z" fill="#858BF2"/>
<g opacity="0.2">
<path d="M174.988 211.067H131.923V280.099H174.988V211.067Z" fill="white"/>
</g>
<g opacity="0.2">
<path d="M302.526 211.067H259.46V240.385H302.526V211.067Z" fill="white"/>
</g>
<g opacity="0.2">
<path d="M302.526 251.513H259.46V280.832H302.526V251.513Z" fill="white"/>
</g>
<path d="M308.572 290.047H124.75V304.233H308.572V290.047Z" fill="#F2D64B"/>
<path d="M213.874 335.446H182.325L177.767 345.247H213.874V335.446Z" fill="white"/>
<path d="M218.278 335.446H249.827L254.385 345.247H218.278V335.446Z" fill="white"/>
<path d="M250.213 231.273C250.555 230.962 250.794 230.554 250.899 230.103C251.004 229.653 250.97 229.181 250.801 228.751C250.632 228.32 250.337 227.951 249.954 227.692C249.571 227.434 249.119 227.298 248.657 227.302C248.483 227.301 248.31 227.321 248.141 227.363C244.124 220.758 238.108 215.608 230.968 212.661C223.828 209.715 215.936 209.126 208.438 210.98C200.941 212.834 194.229 217.034 189.279 222.97C184.33 228.906 181.399 236.268 180.915 243.986C180.308 243.986 179.726 244.227 179.297 244.657C178.868 245.086 178.627 245.669 178.627 246.277C178.627 246.884 178.868 247.467 179.297 247.897C179.726 248.326 180.308 248.568 180.915 248.568C181.249 253.887 182.747 259.068 185.303 263.743C187.859 268.418 191.41 272.473 195.705 275.621C199.999 278.769 204.933 280.933 210.156 281.959C215.379 282.986 220.763 282.85 225.928 281.561C231.092 280.272 235.911 277.862 240.042 274.501C244.172 271.14 247.515 266.911 249.832 262.113C252.149 257.314 253.385 252.065 253.451 246.735C253.516 241.406 252.411 236.127 250.213 231.273ZM186.729 228.086C189.189 223.984 192.445 220.418 196.305 217.598C200.166 214.778 204.552 212.762 209.204 211.67L212.377 210.938L210.021 213.195C206.838 216.235 204.146 221.308 202.383 227.552H202.211C201.673 227.552 201.152 227.742 200.74 228.089C200.327 228.435 200.05 228.916 199.957 229.447H185.869L186.729 228.086ZM185.284 230.765L185.525 230.265H199.949C200.016 230.646 200.179 231.003 200.421 231.304C200.663 231.605 200.977 231.84 201.334 231.988C200.5 236.28 200.051 240.638 199.992 245.01V245.872H183.288C183.212 245.481 183.035 245.117 182.776 244.815C182.517 244.513 182.184 244.283 181.809 244.149C182.06 239.502 183.235 234.951 185.267 230.765H185.284ZM185.404 262.038C183.288 257.795 182.055 253.165 181.783 248.43C182.159 248.297 182.493 248.068 182.752 247.766C183.012 247.464 183.188 247.099 183.263 246.707H199.983V247.569C200.038 252.235 200.548 256.885 201.506 261.452L201.738 262.538H185.628L185.404 262.038ZM209.204 280.883C204.592 279.807 200.24 277.824 196.401 275.049C192.562 272.273 189.312 268.761 186.841 264.717L185.981 263.356H201.867L202.039 264.028C203.819 270.815 206.554 276.086 209.952 279.367L212.36 281.641L209.204 280.883ZM216.755 281.856L215.689 281.65C210.528 280.633 205.875 274.225 203.157 264.493L202.847 263.356H214.889C214.921 263.866 215.124 264.35 215.464 264.731C215.804 265.112 216.262 265.368 216.764 265.457L216.755 281.856ZM216.755 260.953C216.341 261.027 215.956 261.214 215.642 261.494C215.328 261.774 215.097 262.135 214.975 262.538H202.632L202.469 261.84C201.41 257.163 200.834 252.389 200.749 247.594V246.69H216.704L216.755 260.953ZM216.755 245.863H200.783V245.002C200.851 240.694 201.312 236.401 202.159 232.177C202.694 232.178 203.212 231.992 203.623 231.651C204.035 231.309 204.314 230.834 204.413 230.308H216.721L216.755 245.863ZM216.755 229.438H204.456C204.392 229.09 204.248 228.761 204.037 228.477C203.825 228.193 203.55 227.962 203.234 227.802C205.961 218.207 210.597 211.911 215.689 210.903L216.755 210.697V229.438ZM248.657 231.884C248.951 231.891 249.243 231.838 249.517 231.729C251.392 235.891 252.441 240.379 252.605 244.942V245.863H235.919C235.843 245.442 235.65 245.051 235.362 244.734C235.075 244.417 234.704 244.188 234.293 244.072C234.196 239.794 233.715 235.533 232.857 231.342L232.624 230.265H246.463C246.609 230.734 246.9 231.144 247.294 231.436C247.689 231.727 248.166 231.884 248.657 231.884ZM225.107 211.67C229.688 212.744 234.011 214.715 237.828 217.469C241.645 220.223 244.881 223.705 247.349 227.716C247.068 227.911 246.835 228.167 246.666 228.466C246.498 228.764 246.399 229.097 246.377 229.438H232.435L232.263 228.767C230.543 221.962 227.679 216.433 224.29 213.195L221.933 210.938L225.107 211.67ZM217.555 210.697L218.622 210.903C223.782 211.928 228.513 218.431 231.222 228.31L231.532 229.438H217.555V210.697ZM217.555 230.265H231.721L231.876 230.963C232.819 235.246 233.352 239.61 233.467 243.994C232.969 244.039 232.499 244.246 232.129 244.583C231.759 244.921 231.51 245.37 231.42 245.863H217.555V230.265ZM217.555 246.69H231.455C231.545 247.183 231.794 247.632 232.163 247.97C232.533 248.308 233.003 248.514 233.502 248.559C233.372 253.027 232.81 257.472 231.824 261.831L231.661 262.529H219.336C219.215 262.126 218.984 261.764 218.67 261.484C218.355 261.204 217.969 261.017 217.555 260.944V246.69ZM217.555 281.856V265.492C218.058 265.402 218.515 265.147 218.855 264.766C219.195 264.385 219.398 263.9 219.43 263.39H231.472L231.162 264.527C228.444 274.26 223.765 280.668 218.63 281.684L217.555 281.856ZM247.427 264.717C244.96 268.757 241.717 272.266 237.886 275.041C234.054 277.816 229.711 279.802 225.107 280.883L221.933 281.615L224.29 279.367C227.687 276.12 230.422 270.815 232.203 264.028L232.375 263.356H248.261L247.427 264.717ZM252.587 247.612C252.412 252.628 251.163 257.548 248.923 262.038L248.683 262.538H232.564L232.796 261.452C233.688 257.183 234.189 252.842 234.293 248.481C234.704 248.366 235.075 248.136 235.362 247.819C235.65 247.503 235.843 247.111 235.919 246.69H252.605L252.587 247.612Z" fill="white"/>
<path d="M117.99 207.751V184.1H45.2505V221.204H83.035H103.875H117.99H133.953L117.99 207.751Z" fill="#F2D64B"/>
<path d="M65.256 202.652C65.256 203.714 64.9415 204.752 64.3523 205.634C63.7632 206.517 62.9258 207.205 61.9461 207.61C60.9665 208.016 59.8887 208.122 58.849 207.914C57.8093 207.707 56.8545 207.195 56.1055 206.443C55.3564 205.692 54.8468 204.735 54.641 203.694C54.4352 202.652 54.5425 201.573 54.9494 200.593C55.3563 199.612 56.0445 198.775 56.9268 198.186C57.8091 197.598 58.846 197.285 59.9061 197.286C60.6094 197.286 61.3058 197.425 61.9554 197.695C62.6051 197.965 63.1952 198.36 63.6921 198.859C64.189 199.357 64.5829 199.948 64.8512 200.599C65.1196 201.25 65.2571 201.948 65.256 202.652Z" fill="white"/>
<path d="M85.8212 202.652C85.8212 203.714 85.5067 204.752 84.9175 205.634C84.3284 206.517 83.491 207.205 82.5113 207.61C81.5317 208.016 80.4538 208.122 79.4142 207.914C78.3745 207.707 77.4197 207.195 76.6707 206.443C75.9216 205.692 75.412 204.735 75.2062 203.694C75.0004 202.652 75.1077 201.573 75.5146 200.593C75.9215 199.612 76.6096 198.775 77.492 198.186C78.3743 197.598 79.4112 197.285 80.4713 197.286C81.1746 197.286 81.871 197.425 82.5206 197.695C83.1703 197.965 83.7604 198.36 84.2573 198.859C84.7542 199.357 85.1481 199.948 85.4164 200.599C85.6848 201.25 85.8223 201.948 85.8212 202.652Z" fill="white"/>
<path d="M106.386 202.652C106.386 203.714 106.072 204.752 105.483 205.634C104.894 206.517 104.056 207.205 103.077 207.61C102.097 208.016 101.019 208.122 99.9794 207.914C98.9397 207.707 97.9849 207.195 97.2359 206.443C96.4868 205.692 95.9771 204.735 95.7713 203.694C95.5656 202.652 95.6729 201.573 96.0798 200.593C96.4867 199.612 97.1748 198.775 98.0572 198.186C98.9395 197.598 99.9763 197.285 101.037 197.286C101.74 197.286 102.436 197.425 103.086 197.695C103.735 197.965 104.326 198.36 104.822 198.859C105.319 199.357 105.713 199.948 105.982 200.599C106.25 201.25 106.388 201.948 106.386 202.652Z" fill="white"/>
</svg>
