<svg width="393" height="368" viewBox="0 0 393 368" fill="none" xmlns="http://www.w3.org/2000/svg">
<path fill-rule="evenodd" clip-rule="evenodd" d="M383.383 187.939C386.456 242.682 396.238 307.407 354.956 343.598C314.061 379.45 251.162 362.145 197.988 350.469C156.452 341.349 125.147 314.564 93.5216 286.194C57.5561 253.93 10.1208 226.015 5.69429 177.968C0.991042 126.916 31.9786 78.2762 71.3294 45.308C108.58 14.0994 158.377 7.70146 206.998 9.31565C255.198 10.9159 304.862 19.9091 338.708 54.1849C373.076 88.9893 380.645 139.163 383.383 187.939Z" fill="#F2F0FD"/>
<path d="M163.392 206.174H162.886C162.472 206.174 162.137 206.509 162.137 206.922V217.46C162.137 217.873 162.472 218.208 162.886 218.208H163.392C163.805 218.208 164.14 217.873 164.14 217.46V206.922C164.14 206.509 163.805 206.174 163.392 206.174Z" fill="#FFB833"/>
<path d="M157.125 211.941V212.447C157.125 212.861 157.46 213.196 157.873 213.196H168.411C168.824 213.196 169.16 212.861 169.16 212.447V211.941C169.16 211.528 168.824 211.193 168.411 211.193H157.873C157.46 211.193 157.125 211.528 157.125 211.941Z" fill="#FFB833"/>
<path d="M284.565 24.2993H284.059C283.645 24.2993 283.31 24.6345 283.31 25.048V35.5854C283.31 35.9989 283.645 36.3341 284.059 36.3341H284.565C284.978 36.3341 285.314 35.9989 285.314 35.5854V25.048C285.314 24.6345 284.978 24.2993 284.565 24.2993Z" fill="#FFB833"/>
<path d="M278.291 30.0602V30.5663C278.291 30.9798 278.626 31.315 279.04 31.315H289.577C289.991 31.315 290.326 30.9798 290.326 30.5663V30.0602C290.326 29.6467 289.991 29.3115 289.577 29.3115H279.04C278.626 29.3115 278.291 29.6467 278.291 30.0602Z" fill="#FFB833"/>
<path d="M163.627 21.9354H162.664C162.25 21.9354 161.915 22.2706 161.915 22.6841V35.939C161.915 36.3525 162.25 36.6877 162.664 36.6877H163.627C164.041 36.6877 164.376 36.3525 164.376 35.939V22.6841C164.376 22.2706 164.041 21.9354 163.627 21.9354Z" fill="#FFB833"/>
<path d="M155.766 28.8263V29.7899C155.766 30.2034 156.101 30.5386 156.515 30.5386H169.77C170.183 30.5386 170.518 30.2034 170.518 29.7899V28.8263C170.518 28.4128 170.183 28.0775 169.77 28.0775H156.515C156.101 28.0775 155.766 28.4128 155.766 28.8263Z" fill="#FFB833"/>
<path d="M252.26 134.755C252.26 134.755 242.554 182.104 265.286 182.347C288.017 182.589 290.804 152.384 288.898 138.145C286.991 123.906 252.26 134.755 252.26 134.755Z" fill="#383333"/>
<path d="M244.162 47.3568H87.1135C81.8145 47.3568 77.5189 51.6525 77.5189 56.9514V184.814C77.5189 190.113 81.8145 194.409 87.1135 194.409H244.162C249.461 194.409 253.757 190.113 253.757 184.814V56.9514C253.757 51.6525 249.461 47.3568 244.162 47.3568Z" fill="#AAEEEA"/>
<path d="M92.9437 62.2687C94.9155 62.2687 96.5139 60.6702 96.5139 58.6984C96.5139 56.7266 94.9155 55.1282 92.9437 55.1282C90.9719 55.1282 89.3735 56.7266 89.3735 58.6984C89.3735 60.6702 90.9719 62.2687 92.9437 62.2687Z" fill="#00CCC1"/>
<path d="M110.559 62.2687C112.531 62.2687 114.129 60.6702 114.129 58.6984C114.129 56.7266 112.531 55.1282 110.559 55.1282C108.587 55.1282 106.989 56.7266 106.989 58.6984C106.989 60.6702 108.587 62.2687 110.559 62.2687Z" fill="#00CCC1"/>
<path d="M128.175 62.2687C130.146 62.2687 131.745 60.6702 131.745 58.6984C131.745 56.7266 130.146 55.1282 128.175 55.1282C126.203 55.1282 124.604 56.7266 124.604 58.6984C124.604 60.6702 126.203 62.2687 128.175 62.2687Z" fill="#00CCC1"/>
<path d="M171.787 173.39C198.098 173.39 219.427 152.06 219.427 125.75C219.427 99.4386 198.098 78.1094 171.787 78.1094C145.476 78.1094 124.147 99.4386 124.147 125.75C124.147 152.06 145.476 173.39 171.787 173.39Z" fill="#FFF3E3"/>
<path d="M178.768 106.158C178.352 105.313 177.056 102.63 174.109 101.507C172.598 100.899 170.927 100.812 169.361 101.257C163.773 103.191 163.371 114.214 163.212 118.588C163.066 122.658 163.017 124.779 164.529 126.214C166.927 128.474 170.851 127.088 173.354 129.854C173.976 130.594 174.351 131.51 174.428 132.474C175.122 138.02 174.969 144.668 172.716 145.313C170.463 145.958 169.992 134.283 169.194 133.819C168.397 133.354 165.118 132.828 164.737 134.02C164.355 135.212 164.432 150.367 168.355 151.594C172.279 152.821 178.276 151.164 179.503 147.247C180.73 143.33 180.196 127.531 178.56 124.737C176.924 121.944 171.42 122.061 170.241 119.399C169.063 116.737 169.61 108.599 172.439 108.307C175.267 108.016 173.603 118.221 174.948 118.706C176.688 119.365 179.038 119.399 180.03 118.2C180.633 117.451 180.425 116.647 179.919 113.174C179.108 107.434 179.337 107.33 178.768 106.158Z" fill="#00CCC1"/>
<path d="M172.432 95.3852H171.142C170.12 95.3852 169.291 96.2139 169.291 97.2362V101.735C169.291 102.758 170.12 103.586 171.142 103.586H172.432C173.454 103.586 174.283 102.758 174.283 101.735V97.2362C174.283 96.2139 173.454 95.3852 172.432 95.3852Z" fill="#00CCC1"/>
<path d="M172.432 147.913H171.142C170.12 147.913 169.291 148.741 169.291 149.764V154.263C169.291 155.285 170.12 156.114 171.142 156.114H172.432C173.454 156.114 174.283 155.285 174.283 154.263V149.764C174.283 148.741 173.454 147.913 172.432 147.913Z" fill="#00CCC1"/>
<path d="M107.176 185.189C107.176 185.189 101.748 183.144 98.0252 185.66C95.2938 187.497 86.4341 198.43 81.9071 204.121C81.7271 204.337 81.6216 204.606 81.6066 204.886C81.5915 205.167 81.6676 205.445 81.8236 205.679C81.9795 205.913 82.207 206.09 82.4719 206.184C82.7368 206.279 83.0251 206.284 83.2936 206.201C87.3838 204.981 93.9766 203.428 100.521 203.525L107.176 185.189Z" fill="#FF535C"/>
<path d="M129.887 207.241C129.887 207.241 132.098 212.607 129.7 216.406C127.946 219.179 117.291 228.378 111.738 233.079C111.525 233.249 111.264 233.348 110.992 233.363C110.72 233.377 110.45 233.306 110.22 233.159C109.991 233.012 109.813 232.797 109.712 232.544C109.611 232.29 109.592 232.012 109.658 231.747C110.753 227.623 112.126 220.981 111.807 214.416L129.887 207.241Z" fill="#FF535C"/>
<mask id="mask0_1_141" style="mask-type:luminance" maskUnits="userSpaceOnUse" x="97" y="155" width="62" height="64">
<path d="M112.188 218.382C121.734 215.761 133.679 208.676 141.943 199.719C155.919 184.634 157.95 166.013 158.227 157.618C158.234 157.389 158.194 157.161 158.108 156.948C158.022 156.736 157.892 156.544 157.728 156.384C157.564 156.224 157.368 156.1 157.153 156.02C156.938 155.94 156.709 155.906 156.48 155.92C148.092 156.454 129.54 159.053 114.885 173.48C106.212 182.028 99.4672 194.173 97.1378 203.789C101.227 209.524 106.324 214.469 112.181 218.382H112.188Z" fill="white"/>
</mask>
<g mask="url(#mask0_1_141)">
<path d="M112.188 218.382C121.734 215.761 133.679 208.676 141.943 199.719C155.919 184.634 157.95 166.013 158.227 157.618C158.234 157.389 158.194 157.161 158.108 156.948C158.022 156.736 157.892 156.544 157.728 156.384C157.564 156.224 157.368 156.1 157.153 156.02C156.938 155.94 156.709 155.906 156.48 155.92C148.092 156.454 129.54 159.053 114.885 173.48C106.212 182.028 99.4672 194.173 97.1378 203.789C101.227 209.524 106.324 214.469 112.181 218.382H112.188Z" fill="#FFB833"/>
<path d="M157.146 184.066C151.945 172.074 142.202 162.634 130.053 157.812L148.327 138.97L175.364 165.23L157.146 184.066Z" fill="#FF535C"/>
</g>
<path d="M111.419 220.205C110.934 220.674 110.297 220.955 109.623 220.995C108.949 221.036 108.283 220.834 107.745 220.427C102.892 217.022 98.6095 212.868 95.0581 208.122C94.6358 207.596 94.415 206.938 94.4353 206.264C94.4557 205.59 94.7158 204.946 95.169 204.447L95.4186 204.191C95.9739 203.665 96.7153 203.381 97.4797 203.402C98.2441 203.423 98.969 203.747 99.4949 204.302L111.433 215.879C112.003 216.388 112.348 217.102 112.393 217.865C112.437 218.628 112.176 219.377 111.668 219.948L111.419 220.205Z" fill="#FF535C"/>
<path d="M108.091 223.623C107.606 224.092 106.97 224.372 106.296 224.414C105.623 224.456 104.956 224.257 104.417 223.851C99.5705 220.436 95.2897 216.281 91.7305 211.539C91.3078 211.014 91.0873 210.354 91.1089 209.68C91.1306 209.006 91.3929 208.362 91.8484 207.865L92.0979 207.609C92.6541 207.085 93.3951 206.802 94.159 206.823C94.9228 206.844 95.6474 207.166 96.1742 207.719L108.105 219.297C108.676 219.805 109.021 220.52 109.065 221.283C109.109 222.046 108.849 222.795 108.341 223.366L108.091 223.623Z" fill="#FF535C"/>
<path d="M130.109 195.705C136.097 195.705 140.951 190.851 140.951 184.863C140.951 178.875 136.097 174.021 130.109 174.021C124.121 174.021 119.266 178.875 119.266 184.863C119.266 190.851 124.121 195.705 130.109 195.705Z" fill="#FFF3E3"/>
<path d="M124.507 190.652C123.362 189.54 122.572 188.114 122.237 186.554C121.902 184.994 122.037 183.369 122.625 181.885C123.213 180.402 124.228 179.126 125.542 178.219C126.855 177.312 128.408 176.816 130.004 176.791C131.599 176.767 133.167 177.217 134.507 178.083C135.847 178.949 136.9 180.194 137.534 181.659C138.167 183.124 138.351 184.744 138.064 186.314C137.776 187.883 137.029 189.333 135.918 190.478C134.426 192.011 132.387 192.89 130.249 192.923C128.11 192.955 126.045 192.138 124.507 190.652Z" fill="#FF535C"/>
<path d="M92.8536 215.401C92.8324 215.36 92.799 215.326 92.758 215.305C92.717 215.284 92.6704 215.276 92.6248 215.283C91.376 215.421 90.1658 215.8 89.0615 216.399C87.7074 217.157 86.5508 218.223 85.6854 219.512C85.6559 219.556 85.6416 219.609 85.6446 219.663C85.6475 219.716 85.6676 219.767 85.7017 219.808C85.7359 219.85 85.7824 219.879 85.8344 219.891C85.8864 219.904 85.9411 219.9 85.9904 219.879C86.3721 219.716 86.7662 219.584 87.1689 219.484C87.6754 219.362 88.1939 219.296 88.7149 219.29C88.7691 219.287 88.8229 219.302 88.8675 219.333C88.9122 219.364 88.9452 219.409 88.9612 219.461C88.9771 219.513 88.9752 219.568 88.9557 219.619C88.9362 219.67 88.9002 219.713 88.8535 219.74C87.7021 220.51 86.769 221.564 86.1447 222.801C85.5204 224.037 85.2261 225.414 85.2902 226.798C85.4407 228.532 86.1738 230.164 87.37 231.429C87.4024 231.454 87.4407 231.471 87.4814 231.478C87.522 231.485 87.5638 231.482 87.603 231.469C87.6421 231.456 87.6774 231.433 87.7057 231.403C87.734 231.373 87.7544 231.337 87.7651 231.297C87.9962 230.738 88.3464 230.237 88.7911 229.827C89.5452 229.214 90.4597 228.832 91.4255 228.725C93.0422 228.329 94.5089 227.471 95.6474 226.257C95.6864 226.219 95.737 226.194 95.7913 226.187C95.8457 226.181 95.9007 226.192 95.948 226.219C95.9953 226.247 96.0322 226.289 96.053 226.34C96.0739 226.391 96.0775 226.447 96.0633 226.5C95.7819 227.464 95.2196 228.324 94.448 228.968C94.4106 228.998 94.3831 229.039 94.3691 229.085C94.3551 229.131 94.3551 229.181 94.3693 229.227C94.3834 229.273 94.411 229.314 94.4485 229.344C94.486 229.375 94.5317 229.393 94.5798 229.397C95.4156 229.51 96.2658 229.445 97.0747 229.206C97.8835 228.967 98.6327 228.56 99.2731 228.011C99.8909 227.433 100.381 226.733 100.712 225.954C101.042 225.176 101.206 224.337 101.193 223.491C101.194 223.447 101.181 223.404 101.158 223.368C101.135 223.331 101.101 223.301 101.062 223.283C97.6749 221.425 94.8387 218.706 92.8397 215.401H92.8536Z" fill="#FFB833"/>
<path d="M94.8432 239.429C94.8432 239.429 84.7148 281.578 104.625 292.643C124.535 303.707 135.981 285.87 124.875 282.188C113.769 278.507 81.8309 315.395 158.906 333.898" stroke="#383333" stroke-linecap="round" stroke-linejoin="round" stroke-dasharray="12 12"/>
<path d="M288.406 143.081C315.088 143.081 336.718 121.451 336.718 94.7682C336.718 68.0859 315.088 46.4556 288.406 46.4556C261.723 46.4556 240.093 68.0859 240.093 94.7682C240.093 121.451 261.723 143.081 288.406 143.081Z" fill="#FFB08D"/>
<path d="M309.952 136.932C309.952 136.932 308.357 150.998 313.016 161.341C317.675 171.684 336.864 173.896 340.808 191.893C344.753 209.889 334.056 235.186 331.38 260.739C328.704 286.292 337.668 320.886 337.668 320.886C325.343 325.83 312.277 328.68 299.012 329.316C278.561 330.196 258.22 325.884 239.885 316.782C239.344 292.109 238.845 259.332 238.831 219.824C238.831 196.946 238.831 171.67 253.126 164.662C259.462 161.549 274.977 161.286 277.688 157.792C280.399 154.298 279.643 129.812 279.643 129.812C279.643 129.812 304.309 123.774 309.952 136.932Z" fill="#FFB08D"/>
<path d="M330.125 119.129C325.446 126.962 319.19 133.737 311.754 139.025C298.291 148.523 274.097 157.681 257.819 147.122C255.515 145.599 253.442 143.752 251.663 141.639C237.07 125.368 238.873 101.042 240.239 90.8722C240.239 90.8722 305.564 42.1852 330.125 119.129Z" fill="#FFB08D"/>
<path d="M295.581 91.3366C293.219 89.5999 290.38 88.6318 287.449 88.5636C285.459 88.4874 282.769 88.3834 281.903 89.9501C281.709 90.2838 281.606 90.6629 281.606 91.0489C281.606 91.435 281.709 91.8141 281.903 92.1477C282.818 93.4095 285.175 92.3141 288.96 92.328C293.945 92.328 297.161 94.2899 297.501 93.5758C297.82 93.0351 296.205 91.8219 295.581 91.3366Z" fill="#383333"/>
<path d="M244.44 88.1477C247.091 86.8892 250.067 86.4801 252.96 86.9761C254.929 87.2881 257.584 87.704 258.124 89.3886C258.245 89.7548 258.267 90.1463 258.188 90.5237C258.109 90.901 257.931 91.2508 257.674 91.5377C256.537 92.5983 254.429 91.0663 250.741 90.3522C245.84 89.4163 242.318 90.6988 242.124 89.9363C241.972 89.3817 243.746 88.4874 244.44 88.1477Z" fill="#383333"/>
<path d="M267.157 99.4823C267.157 99.4823 262.783 107.108 263.248 108.703C263.712 110.297 270.014 110.491 270.014 110.491" stroke="#383333" stroke-linecap="round" stroke-linejoin="round"/>
<path d="M297.144 113.332C297.325 111.442 295.01 109.673 291.973 109.381C288.935 109.089 286.326 110.385 286.144 112.275C285.962 114.165 288.277 115.934 291.315 116.226C294.352 116.518 296.962 115.223 297.144 113.332Z" fill="#FF8C5F"/>
<path d="M254.011 114.118C254.193 112.227 251.878 110.458 248.84 110.166C245.803 109.874 243.193 111.17 243.011 113.06C242.83 114.951 245.145 116.72 248.182 117.012C251.22 117.304 253.829 116.008 254.011 114.118Z" fill="#FF8C5F"/>
<path d="M315.068 100.744C315.532 100.231 318.035 97.5204 321.89 97.5343C323.466 97.4815 325.016 97.9439 326.306 98.8515C330.465 102.235 329.772 113.874 323.228 117.306C319.574 119.226 315.456 117.867 314.063 117.306C314.396 111.792 314.731 106.272 315.068 100.744Z" fill="#FFB08D"/>
<path d="M325.065 104.113L318.534 104.266C318.534 104.266 325.467 107.926 320.274 113.666" stroke="#383333" stroke-width="0.75" stroke-linecap="round" stroke-linejoin="round"/>
<path d="M253.604 163.254C251.33 163.731 249.096 164.382 246.921 165.202C234.97 169.715 227.587 178.374 222.866 183.99C220.575 186.703 218.468 189.565 216.557 192.558C210.491 202.139 209.327 206.583 203.739 215.227C201.24 219.123 198.46 222.83 195.42 226.319C192.947 233.76 190.47 241.197 187.988 248.628C189.839 251.214 192.564 254.063 196.488 255.429C213.625 261.405 242.492 235.158 252.107 206.458C257.667 189.743 256.107 174.131 253.604 163.254Z" fill="#FF832F"/>
<path d="M269.431 133.944C268.633 134.412 267.737 134.689 266.813 134.754C265.89 134.819 264.964 134.67 264.107 134.318" stroke="#383333" stroke-width="0.75" stroke-linecap="round" stroke-linejoin="round"/>
<path fill-rule="evenodd" clip-rule="evenodd" d="M253.507 104.557C252.968 105.112 252.276 105.496 251.519 105.658C250.762 105.821 249.974 105.756 249.254 105.47C248.535 105.185 247.915 104.693 247.475 104.056C247.035 103.42 246.793 102.667 246.78 101.892C246.768 101.118 246.985 100.358 247.404 99.7071C247.824 99.0563 248.427 98.5444 249.137 98.236C249.847 97.9277 250.633 97.8367 251.395 97.9746C252.156 98.1126 252.86 98.4732 253.417 99.0109C254.164 99.7346 254.593 100.725 254.61 101.765C254.627 102.805 254.23 103.809 253.507 104.557Z" fill="#383333"/>
<path fill-rule="evenodd" clip-rule="evenodd" d="M243.996 99.7388C244.079 99.6556 244.946 100.924 245.93 100.751C246.623 100.619 246.769 99.8081 247.636 99.0386C248.393 98.3966 249.335 98.0108 250.325 97.9363C249.976 98.7959 249.509 99.6031 248.939 100.335C248.121 101.382 247.594 102.047 246.817 102.124C245.223 102.269 243.892 99.8428 243.996 99.7388Z" fill="#383333"/>
<path fill-rule="evenodd" clip-rule="evenodd" d="M288.634 105.957C288.127 106.544 287.458 106.967 286.711 107.173C285.963 107.38 285.172 107.36 284.435 107.117C283.699 106.874 283.052 106.418 282.574 105.807C282.097 105.197 281.811 104.458 281.753 103.685C281.695 102.912 281.867 102.139 282.248 101.463C282.629 100.788 283.202 100.241 283.893 99.8907C284.585 99.5405 285.365 99.403 286.135 99.4957C286.905 99.5883 287.63 99.9069 288.218 100.411C289.008 101.092 289.495 102.059 289.573 103.098C289.651 104.138 289.313 105.166 288.634 105.957Z" fill="#383333"/>
<path fill-rule="evenodd" clip-rule="evenodd" d="M292.121 100.695C292.038 100.626 291.29 101.964 290.298 101.881C289.605 101.819 289.369 101.021 288.433 100.335C287.623 99.7642 286.652 99.4656 285.66 99.4823C286.087 100.31 286.629 101.073 287.269 101.749C288.177 102.713 288.766 103.33 289.549 103.33C291.137 103.33 292.274 100.793 292.121 100.695Z" fill="#383333"/>
<path d="M271.671 160.398C271.671 160.398 272.509 173.778 290.25 176.447C307.99 179.116 316.711 166.215 316.711 166.215C316.711 166.215 335.429 174.256 339.935 187.276C344.441 200.295 332.122 250.126 333.176 269.564C334.229 289.003 341.682 321.995 341.682 321.995C341.682 321.995 280.052 348.387 236.308 316.095C236.308 316.095 227.621 225.786 233.999 197.002C240.377 168.218 243.705 166.284 249.022 164.28C254.339 162.277 271.671 160.398 271.671 160.398Z" fill="#FF832F"/>
<path d="M331.096 175.948C330.285 176.925 329.092 178.381 327.706 180.184C322.092 187.543 317.139 195.384 312.905 203.615C311.09 206.924 309.469 210.336 308.052 213.834C302.506 227.99 303.324 233.023 299.227 240.087C296.829 244.247 292.232 249.723 282.534 254.14L289.466 278.119C293.425 281.939 296.995 283.173 299.713 283.513C320.718 286.168 344.372 242.188 345.876 213.238C346.139 208.163 346.514 198.679 341.301 188.662C338.746 183.808 335.282 179.492 331.096 175.948Z" fill="#FF832F"/>
<path d="M245.882 182.603C238.894 202.666 218.276 258.216 199.995 256.205C195.732 255.734 188.841 251.824 186.276 245.606C183.399 238.631 186.921 231.047 189.354 226.271C200.786 203.719 220.405 178.437 228.536 168.19C232.382 174.931 238.539 180.051 245.868 182.603H245.882Z" fill="#FFB08D"/>
<path d="M255.372 141.59H213.985C210.156 141.59 207.053 144.694 207.053 148.523V232.316C207.053 236.145 210.156 239.248 213.985 239.248H255.372C259.201 239.248 262.305 236.145 262.305 232.316V148.523C262.305 144.694 259.201 141.59 255.372 141.59Z" fill="#FF535C"/>
<path d="M275.594 203.692C272.372 196.779 268.382 190.251 263.698 184.232C256.523 175.324 249.833 168.738 245.944 168.156C242.055 167.573 251.795 181.112 251.795 181.112C251.795 181.112 244.1 170.215 240.606 169.93C237.112 169.646 245.979 184.53 245.979 184.53C245.979 184.53 239.469 175.837 237.452 177.175C235.434 178.513 243.739 191.733 243.739 191.733C243.739 191.733 238.942 185.362 237.237 186.568C235.531 187.775 245.521 208.676 254.374 215.248C263.227 221.82 277.716 209.765 275.594 203.692Z" fill="#FFB08D"/>
<path d="M246.811 196.302C245.715 194.237 244.427 192.28 242.963 190.458" stroke="#383333" stroke-width="0.75" stroke-linecap="round" stroke-linejoin="round"/>
<path d="M250.346 190.395C250.346 190.395 249.251 187.733 245.736 184.156" stroke="#383333" stroke-width="0.75" stroke-linecap="round" stroke-linejoin="round"/>
<path d="M256.447 185.598C256.447 185.598 253.494 182.18 250.298 179.095" stroke="#383333" stroke-width="0.75" stroke-linecap="round" stroke-linejoin="round"/>
<path d="M272.475 196.537C286.437 214.312 324.385 264.635 312.101 279.824C309.231 283.381 301.771 287.311 294.735 286.064C286.832 284.642 282.076 277.142 279.178 272.199C265.528 249.023 254.104 216.926 249.611 203.782C257.866 204.204 265.993 201.62 272.489 196.51L272.475 196.537Z" fill="#FFB08D"/>
<path d="M264.107 58.4627C264.107 58.4627 262.721 70.7887 281.633 72.8754C300.544 74.962 307.317 101.375 315.11 99.4823C322.902 97.5897 326.472 96.1131 328.323 102.131C330.174 108.148 329.848 118.193 319.602 118.276C309.356 118.36 292.731 166.014 306.056 179.095C319.38 192.177 333.522 179.629 335.533 179.788C335.533 179.788 343.256 190.007 344.49 197.12C344.49 197.12 358.833 188.925 350.5 141.563C342.167 94.1997 345.543 22.6979 266.624 49.4366C266.624 49.4366 246.845 47.0033 240.1 60.2027C233.355 73.4022 240.758 86.7889 240.758 86.7889C240.758 86.7889 245.223 64.2236 264.107 58.4627Z" fill="#383333"/>
<path d="M279.151 151.837C279.151 151.837 291.768 150.734 299.387 146.034" stroke="#383333" stroke-linecap="round" stroke-linejoin="round"/>
<path d="M265.584 131.115C267.908 131.115 269.792 128.713 269.792 125.75C269.792 122.786 267.908 120.384 265.584 120.384C263.26 120.384 261.376 122.786 261.376 125.75C261.376 128.713 263.26 131.115 265.584 131.115Z" fill="white"/>
<path d="M314.229 201.092C314.229 201.092 306.423 209.806 305.959 219.512C305.649 225.385 303.605 231.035 300.087 235.748" stroke="#383333" stroke-linecap="round" stroke-linejoin="round"/>
<path d="M334.098 253.003C334.098 253.003 323.845 274.861 312.101 279.824" stroke="#383333" stroke-linecap="round" stroke-linejoin="round"/>
<path d="M251.197 26.5248L248.241 23.5689C246.779 22.107 244.409 22.107 242.947 23.5689L211.089 55.4271C209.627 56.8891 209.627 59.2594 211.089 60.7213L214.045 63.6772C215.507 65.1392 217.877 65.1392 219.339 63.6772L251.197 31.819C252.659 30.3571 252.659 27.9868 251.197 26.5248Z" fill="#00CCC1"/>
<path d="M199.06 37.8534L196.104 40.8093C194.642 42.2713 194.642 44.6416 196.104 46.1035L212.639 62.638C214.101 64.1 216.471 64.1 217.933 62.638L220.889 59.6821C222.351 58.2202 222.351 55.8499 220.889 54.3879L204.354 37.8534C202.892 36.3915 200.522 36.3915 199.06 37.8534Z" fill="#00CCC1"/>
<path d="M274.18 55.9531C274.18 55.9531 273.009 60.8544 288.406 64.7713C303.803 68.6881 298.582 98.1235 321.799 93.7075" stroke="white" stroke-linecap="round" stroke-linejoin="round"/>
<path d="M242.103 75.6761C242.103 75.6761 245.098 59.8908 261.376 55.9531" stroke="white" stroke-linecap="round" stroke-linejoin="round"/>
<path d="M295.186 60.6464C298.047 62.08 300.57 64.1069 302.587 66.5921C304.603 69.0773 306.067 71.9637 306.881 75.0591C309.48 85.4578 320.42 91.8912 334.132 84.7646" stroke="white" stroke-linecap="round" stroke-linejoin="round"/>
<path d="M318.534 128.426C318.534 128.426 303.456 173.66 318.534 174.527C333.612 175.393 344.018 169.674 345.959 181.459" stroke="white" stroke-linecap="round" stroke-linejoin="round"/>
<path d="M334.625 108.89C334.625 108.89 319.858 142.859 328.905 151.837C337.952 160.814 347.678 155.954 348.718 166.395" stroke="white" stroke-linecap="round" stroke-linejoin="round"/>
<g clip-path="url(#clip0_1_141)">
<path fill-rule="evenodd" clip-rule="evenodd" d="M126.706 187.135C126.706 186.072 129.125 185.209 132.11 185.209C135.094 185.209 137.513 186.072 137.513 187.135V188.905C137.513 189.968 135.094 190.831 132.11 190.831C129.125 190.831 126.706 189.968 126.706 188.905C126.706 188.315 126.706 187.725 126.706 187.135Z" fill="#FE9923"/>
<path fill-rule="evenodd" clip-rule="evenodd" d="M132.11 185.209C135.094 185.209 137.513 186.072 137.513 187.135C137.513 188.199 135.094 189.061 132.11 189.061C129.125 189.061 126.706 188.199 126.706 187.135C126.706 186.072 129.125 185.209 132.11 185.209Z" fill="#FECD3D"/>
<path fill-rule="evenodd" clip-rule="evenodd" d="M132.11 186.109C134.484 186.109 136.408 186.569 136.408 187.135C136.408 187.702 134.484 188.161 132.11 188.161C129.736 188.161 127.811 187.702 127.811 187.135C127.811 186.569 129.736 186.109 132.11 186.109Z" fill="#FEA832"/>
<path d="M129.375 189.754L129.836 189.755V190.652C129.678 190.626 129.525 190.597 129.375 190.566V189.754ZM136.052 189.28V190.222C136.219 190.158 136.373 190.091 136.514 190.02V189.279L136.052 189.28ZM131.044 190.793C131.196 190.804 131.35 190.813 131.506 190.818V189.962L131.044 189.962V190.793ZM127.705 190.02C127.847 190.091 128.001 190.158 128.167 190.222V189.279L127.705 189.28V190.02ZM132.713 190.818C132.87 190.813 133.023 190.803 133.175 190.793V189.962L132.713 189.962V190.818ZM134.383 190.652C134.541 190.626 134.696 190.597 134.845 190.566V189.755L134.383 189.754V190.652Z" fill="#C85929"/>
<path d="M124.541 189.275V189.848H125.114V190.257H124.541V190.831H124.132V190.257H123.558V189.848H124.132V189.275H124.541Z" fill="#FEA832"/>
<path d="M135.017 182.994V183.568H135.59V183.976H135.017V184.55H134.608V183.976H134.035V183.568H134.608V182.994H135.017Z" fill="#FEA832"/>
<path d="M124.816 179.589V180.163H125.389V180.571H124.816V181.145H124.407V180.571H123.834V180.163H124.407V179.589H124.816Z" fill="#FEA832"/>
<path fill-rule="evenodd" clip-rule="evenodd" d="M123.054 186.134C122.522 185.212 124.186 183.256 126.77 181.764C129.355 180.272 131.881 179.81 132.413 180.73C132.708 181.242 133.003 181.752 133.298 182.262C133.83 183.184 132.166 185.14 129.581 186.632C126.996 188.124 124.471 188.588 123.939 187.666C123.644 187.156 123.349 186.644 123.054 186.134Z" fill="#FE9923"/>
<path fill-rule="evenodd" clip-rule="evenodd" d="M126.77 181.764C129.355 180.272 131.881 179.81 132.413 180.73C132.945 181.652 131.281 183.608 128.696 185.1C126.112 186.592 123.586 187.055 123.054 186.134C122.522 185.212 124.186 183.256 126.77 181.764Z" fill="#FECD3D"/>
<path fill-rule="evenodd" clip-rule="evenodd" d="M127.22 182.543C129.276 181.357 131.173 180.792 131.456 181.283C131.74 181.774 130.302 183.133 128.246 184.321C126.19 185.507 124.294 186.072 124.011 185.581C123.727 185.091 125.164 183.731 127.22 182.543Z" fill="#FEA832"/>
<path d="M128.624 186.182L129.052 186.924C128.914 186.997 128.776 187.066 128.639 187.132L128.224 186.413L128.624 186.182ZM124.991 187.491L125.362 188.133C125.519 188.124 125.686 188.104 125.862 188.076L125.391 187.26L124.991 187.491ZM126.674 187.068L127.08 187.771C127.225 187.723 127.373 187.671 127.523 187.615L127.074 186.837L126.674 187.068ZM129.67 185.578L130.098 186.32C130.23 186.237 130.359 186.152 130.485 186.067L130.07 185.348L129.67 185.578ZM132.62 183.086L132.219 183.318L132.691 184.134C132.803 183.996 132.903 183.86 132.99 183.728L132.62 183.086ZM131.012 184.564L131.46 185.341C131.585 185.24 131.703 185.138 131.817 185.036L131.412 184.334L131.012 184.564Z" fill="#C85929"/>
</g>
<defs>
<clipPath id="clip0_1_141">
<rect width="14.5867" height="14.5867" fill="white" transform="translate(122.94 177.917)"/>
</clipPath>
</defs>
</svg>
