<svg width="457" height="431" viewBox="0 0 457 431" fill="none" xmlns="http://www.w3.org/2000/svg">
<path d="M343.493 362.805C333.4 369.704 298.36 382.645 283.982 384.102C212.761 391.449 122.476 327.334 82.2632 246.662C75.5718 233.548 71.0078 219.447 68.7423 204.887C62.8831 166.232 73.7066 118.421 98.7018 81.7484C108.954 66.692 122.228 47.8331 146.589 38.7984C195.663 20.5896 244.855 59.318 247.283 61.3035C281.378 89.0004 269.1 111.826 303.648 177.581C342.029 250.754 379.573 265.074 374.701 307.938C372.537 327.589 361.732 350.303 343.493 362.805Z" fill="#F2F0FD"/>
<path d="M269.349 158.343H268.811C268.429 158.343 268.12 158.653 268.12 159.035V169.174C268.12 169.556 268.429 169.866 268.811 169.866H269.349C269.731 169.866 270.041 169.556 270.041 169.174V159.035C270.041 158.653 269.731 158.343 269.349 158.343Z" fill="#FFB833"/>
<path d="M263.322 163.832V164.37C263.322 164.752 263.632 165.062 264.014 165.062H274.153C274.535 165.062 274.845 164.752 274.845 164.37V163.832C274.845 163.45 274.535 163.141 274.153 163.141H264.014C263.632 163.141 263.322 163.45 263.322 163.832Z" fill="#FFB833"/>
<path d="M300.593 319.773H300.055C299.672 319.773 299.363 320.083 299.363 320.465V330.604C299.363 330.986 299.672 331.296 300.055 331.296H300.593C300.975 331.296 301.284 330.986 301.284 330.604V320.465C301.284 320.083 300.975 319.773 300.593 319.773Z" fill="#FFB833"/>
<path d="M294.559 325.262V325.8C294.559 326.182 294.869 326.492 295.251 326.492H305.39C305.772 326.492 306.082 326.182 306.082 325.8V325.262C306.082 324.88 305.772 324.571 305.39 324.571H295.251C294.869 324.571 294.559 324.88 294.559 325.262Z" fill="#FFB833"/>
<path d="M145.484 148.313H144.517C144.135 148.313 143.825 148.623 143.825 149.005V161.744C143.825 162.126 144.135 162.436 144.517 162.436H145.484C145.866 162.436 146.176 162.126 146.176 161.744V149.005C146.176 148.623 145.866 148.313 145.484 148.313Z" fill="#FFB833"/>
<path d="M137.946 154.891V155.858C137.946 156.24 138.255 156.55 138.637 156.55H151.377C151.759 156.55 152.069 156.24 152.069 155.858V154.891C152.069 154.509 151.759 154.199 151.377 154.199H138.637C138.255 154.199 137.946 154.509 137.946 154.891Z" fill="#FFB833"/>
<path d="M259.78 126.242C260.286 125.736 263.047 123.078 267.044 123.328C267.626 123.366 269.951 123.507 271.527 124.961C275.633 128.714 274.211 140.736 267.223 143.9C263.316 145.668 259.127 144.009 257.712 143.375L259.78 126.242Z" fill="#D17352"/>
<path d="M269.932 130.335L263.188 130.098C263.188 130.098 270.131 134.312 264.418 139.948" stroke="#383333" stroke-width="0.75" stroke-linecap="round" stroke-linejoin="round"/>
<path d="M179.667 127.132C179.155 126.639 176.337 124.045 172.34 124.378C171.757 124.429 169.439 124.628 167.857 126.107C163.841 129.95 165.525 141.947 172.584 144.951C176.529 146.635 180.679 144.88 182.076 144.214C181.281 138.522 180.479 132.828 179.667 127.132Z" fill="#D17352"/>
<path d="M169.612 131.449L176.382 131.065C176.382 131.065 169.535 135.433 175.37 140.941" stroke="#383333" stroke-width="0.75" stroke-linecap="round" stroke-linejoin="round"/>
<path d="M219.519 164.095C245.508 164.095 266.576 143.027 266.576 117.038C266.576 91.0491 245.508 69.981 219.519 69.981C193.53 69.981 172.462 91.0491 172.462 117.038C172.462 143.027 193.53 164.095 219.519 164.095Z" fill="#D89071"/>
<path d="M232.732 152.899C231.752 162.039 232.002 174.509 239.778 182.919C247.643 191.418 255.79 187.748 263.373 194.051C277.676 205.906 266.576 233.608 265.865 273.472C265.571 293.28 267.805 313.046 272.513 332.289C261.933 338.874 250.288 343.57 238.1 346.168C201.188 353.963 170.918 339.539 160.51 333.96C165.414 317.668 168.096 300.788 168.484 283.778C169.477 237.662 152.677 210.441 167.12 195.895C177.707 185.238 192.612 193.173 201.976 180.095C209.566 169.501 208.573 148.71 208.573 148.71C208.573 148.71 219.532 141.601 232.732 152.899Z" fill="#D89071"/>
<path d="M265.461 128.074C265.461 128.074 256.245 175.342 219.589 174.24C182.934 173.139 173.474 136.362 172.532 114.508C172.532 114.508 232.239 70.8648 265.461 128.074Z" fill="#D89071"/>
<path d="M259.71 190.56C264.726 191.594 269.451 193.727 273.544 196.805C282.876 203.966 285.65 214.412 287.347 220.004C290.787 231.36 297.025 247.218 309.38 269.501L291.152 289.555C286.217 285.231 281.635 280.519 277.451 275.464C266.89 262.705 262.08 251.631 255.034 235.074C244.927 211.242 245.344 204.087 246.605 200.885C246.759 200.509 246.937 200.143 247.137 199.79C250.16 194.198 255.816 191.726 259.71 190.56Z" fill="#FFB833"/>
<path d="M188.384 188.748C182.575 188.959 173.384 190.176 165.468 196.273C157.333 202.531 156.565 209.301 145.196 244.15C139.534 261.508 132.578 281.741 132.578 281.741L161.4 292.411C164.392 287.236 168.356 279.999 172.545 271.109C176.234 263.282 181.839 251.394 185.284 239.142C188.179 228.83 191.408 211.671 188.384 188.748Z" fill="#D89071"/>
<path d="M218.315 130.565C218.315 130.565 214.69 138.93 215.356 140.531C216.022 142.132 222.536 141.588 222.536 141.588" stroke="#383333" stroke-linecap="round" stroke-linejoin="round"/>
<path d="M247.543 146.51C250.712 146.446 253.25 144.795 253.21 142.821C253.171 140.847 250.569 139.298 247.4 139.362C244.23 139.425 241.693 141.077 241.733 143.05C241.772 145.024 244.373 146.573 247.543 146.51Z" fill="#D17352"/>
<path d="M193.784 147.585C196.954 147.521 199.491 145.87 199.452 143.896C199.412 141.922 196.811 140.373 193.641 140.437C190.472 140.5 187.935 142.152 187.974 144.125C188.014 146.099 190.615 147.648 193.784 147.585Z" fill="#D17352"/>
<path d="M223.381 154.456C222.184 155.063 220.861 155.379 219.519 155.379C218.177 155.379 216.854 155.063 215.657 154.456" stroke="#383333" stroke-width="0.75" stroke-linecap="round" stroke-linejoin="round"/>
<path d="M197.217 184.873C197.217 184.873 205.249 198.515 222.536 196.959C239.823 195.402 243.973 186.41 243.973 186.41C243.973 186.41 266.832 190.528 273.82 197.055C280.808 203.581 272.539 241.018 269.932 264.057C267.325 287.095 278.822 334.069 278.822 334.069C278.822 334.069 209.252 373.062 157.41 334.069C157.41 334.069 163.815 305.247 166.717 285.994L138.932 259.849C138.932 259.849 151.889 204.683 160.529 196.376C169.17 188.069 197.217 184.873 197.217 184.873Z" fill="#FEC037"/>
<path d="M179.539 224.455C174.762 237.774 171.49 251.586 169.785 265.632C168.324 277.956 168.638 286.186 162.099 293.603C156.802 299.585 147.246 304.779 140.52 301.731C135.941 299.649 134.186 294.435 133.475 292.392C126.711 271.935 159.882 218.178 165.404 209.339C170.118 214.378 174.829 219.417 179.539 224.455Z" fill="#D89071"/>
<path d="M172.34 124.378C172.34 124.378 174.14 138.802 177.707 138.053C181.275 137.303 175.216 120.625 178.207 117.038C181.198 113.451 182.78 105.65 184.939 95.2035C189.928 71.0313 233.821 81.3241 236.947 81.9069C248.411 84.0397 251.614 88.3118 252.735 90.2333C254.374 93.0387 253.632 94.3901 255.393 100.206C258.096 109.173 260.651 108.59 262.041 114.662C264.251 124.327 259.479 133.063 262.233 134.376C262.598 134.538 263.008 134.567 263.393 134.459C268.075 133.409 272.75 111.017 265.692 94.8897C257.013 75.0344 230.407 64.2869 208.534 68.6295C204.647 69.3981 192.65 71.896 183.088 82.573C173.294 93.4806 170.489 108.84 172.34 124.378Z" fill="#383333"/>
<path d="M171.808 108.75C171.808 108.75 223.432 93.0194 269.074 108.75C269.074 108.75 270.457 75.5212 239.854 66.2148C209.252 56.9084 173.134 68.4309 171.808 108.75Z" fill="#FFB833"/>
<path d="M176.337 107.475C186.158 102.291 196.809 98.8619 207.811 97.3428C235.038 93.6279 256.527 102.915 265.525 107.475C261.281 110.4 256.637 112.695 251.736 114.29C240.963 117.768 236.851 115.187 218.834 115.622C200.816 116.058 195.776 118.857 186.655 114.732C182.799 112.967 179.302 110.507 176.337 107.475Z" fill="#FF832F"/>
<path d="M256.11 249.434C264.002 249.434 270.4 243.037 270.4 235.145C270.4 227.253 264.002 220.855 256.11 220.855C248.218 220.855 241.821 227.253 241.821 235.145C241.821 243.037 248.218 249.434 256.11 249.434Z" fill="#FF832F"/>
<path d="M189.211 121.598H211.135C212.069 121.598 212.965 121.969 213.626 122.63C214.286 123.291 214.658 124.187 214.658 125.121V134.427C214.658 136.975 213.645 139.419 211.844 141.221C210.042 143.023 207.598 144.035 205.05 144.035H195.763C194.438 144.033 193.127 143.77 191.904 143.262C190.68 142.753 189.569 142.009 188.634 141.071C187.698 140.133 186.956 139.02 186.451 137.796C185.946 136.571 185.686 135.259 185.688 133.934V125.121C185.688 124.187 186.059 123.291 186.72 122.63C187.38 121.969 188.276 121.598 189.211 121.598Z" fill="#383333"/>
<path d="M242.032 144.028H232.745C230.197 144.028 227.753 143.016 225.952 141.214C224.15 139.413 223.138 136.969 223.138 134.421V125.115C223.138 124.18 223.509 123.284 224.169 122.624C224.83 121.963 225.726 121.592 226.66 121.592H248.584C249.519 121.592 250.415 121.963 251.075 122.624C251.736 123.284 252.107 124.18 252.107 125.115V133.915C252.107 136.59 251.044 139.156 249.153 141.048C247.261 142.94 244.695 144.003 242.019 144.003L242.032 144.028Z" fill="#383333"/>
<path d="M189.576 124.429C189.296 124.429 189.027 124.541 188.829 124.739C188.63 124.937 188.519 125.206 188.519 125.486V132.897C188.519 135.105 189.396 137.223 190.958 138.784C192.519 140.346 194.637 141.223 196.845 141.223H204.102C205.68 141.226 207.221 140.743 208.515 139.839L196.429 124.468L189.576 124.429Z" fill="#6B6464"/>
<path d="M213.742 127.67H226.981V131.212H213.742V127.67Z" fill="#383333"/>
<path d="M227.032 124.429C226.752 124.429 226.483 124.541 226.285 124.739C226.086 124.937 225.975 125.206 225.975 125.486V133.441C225.977 135.496 226.794 137.467 228.246 138.921C229.699 140.375 231.67 141.194 233.725 141.197H240.982C242.87 141.199 244.701 140.552 246.17 139.366L234.436 124.429H227.032Z" fill="#6B6464"/>
<path d="M209.476 146.161C212.889 147.62 216.563 148.372 220.275 148.372C223.987 148.372 227.66 147.62 231.073 146.161C226.385 151.862 222.824 152.611 220.358 152.694C213.908 152.918 209.476 146.161 209.476 146.161Z" fill="white"/>
<path d="M205.87 171.858C205.87 171.858 219.167 176.585 232.63 171.858" stroke="#383333" stroke-linecap="round" stroke-linejoin="round"/>
<path d="M277.554 212.894C277.554 212.894 253.856 231.424 252.825 262.212C251.793 293.001 269.304 306.349 304.961 304.036C340.617 301.724 356.424 293.987 362.144 279.858C367.864 265.729 355.739 226.377 337.927 216.282C320.115 206.188 315.068 205.157 317.739 199.444C320.409 193.731 325.815 184.303 322.113 181.952C318.411 179.601 305.966 185.315 296.884 181.952C287.802 178.589 282.108 183.297 277.554 184.303C273 185.308 275.357 195.402 280.404 201.461C285.451 207.52 290.806 203.396 277.554 212.894Z" fill="#AAEEEA"/>
<path d="M315.932 230.706C315.471 229.765 314.011 226.786 310.757 225.537C309.079 224.867 307.225 224.77 305.486 225.262C299.28 227.408 298.838 239.654 298.658 244.541C298.492 249.063 298.44 251.42 300.119 252.995C302.783 255.513 307.164 253.969 309.925 257.043C310.614 257.865 311.028 258.882 311.109 259.951C311.91 266.106 311.711 273.498 309.188 274.215C306.664 274.932 306.171 261.962 305.281 261.444C304.391 260.925 300.759 260.342 300.33 261.668C299.901 262.994 299.99 279.819 304.346 281.19C308.701 282.561 315.369 280.71 316.733 276.354C318.097 271.999 317.47 254.462 315.676 251.375C313.883 248.288 307.753 248.409 306.479 245.45C305.204 242.491 305.774 233.46 308.913 233.102C312.051 232.743 310.194 244.118 311.705 244.682C313.627 245.418 316.24 245.482 317.341 244.118C318.014 243.286 317.783 242.402 317.22 238.533C316.31 232.122 316.56 232.006 315.932 230.706Z" fill="#00CCC1"/>
<path d="M309.239 218.748H307.113C306.168 218.748 305.403 219.514 305.403 220.458V226.146C305.403 227.09 306.168 227.856 307.113 227.856H309.239C310.184 227.856 310.949 227.09 310.949 226.146V220.458C310.949 219.514 310.184 218.748 309.239 218.748Z" fill="#00CCC1"/>
<path d="M309.239 277.078H307.113C306.168 277.078 305.403 277.844 305.403 278.788V284.476C305.403 285.42 306.168 286.186 307.113 286.186H309.239C310.184 286.186 310.949 285.42 310.949 284.476V278.788C310.949 277.844 310.184 277.078 309.239 277.078Z" fill="#00CCC1"/>
<path d="M316.4 303.101C316.4 303.101 313.069 302.39 312.179 301.436C311.289 300.482 307.696 290.503 305.166 291.156C302.636 291.809 306.101 301.5 306.101 301.5C306.101 301.5 301.169 289.849 298.972 290.266C296.775 290.682 300.458 301.795 300.458 301.795C300.458 301.795 296.359 291.457 294.277 291.989C292.196 292.52 294.988 302.153 294.988 302.153C294.988 302.153 291.606 294.467 289.999 294.781C288.391 295.095 290.473 304.587 292.317 306.489C294.162 308.392 295.404 304.53 295.404 304.53C295.404 304.53 300.573 309.16 300.631 304.171C300.631 304.171 306.338 309.16 306.517 304.35C306.536 304.35 316.573 309.282 316.4 303.101Z" fill="#D89071"/>
<path d="M305.902 300.994C305.902 300.994 306.306 303.652 306.76 304.453" stroke="#383333" stroke-width="0.75" stroke-linecap="round" stroke-linejoin="round"/>
<path d="M300.477 301.795C300.477 301.795 300.759 303.454 300.996 304.453" stroke="#383333" stroke-width="0.75" stroke-linecap="round" stroke-linejoin="round"/>
<path d="M295.007 302.153C295.123 303.049 295.358 303.926 295.706 304.76" stroke="#383333" stroke-width="0.75" stroke-linecap="round" stroke-linejoin="round"/>
<path d="M183.478 332.609L167.6 343.465C166.07 344.512 164.264 345.085 162.41 345.112C160.556 345.14 158.734 344.62 157.173 343.619L137.651 331.097C114.952 316.552 101.341 292.206 101.341 266.145V205.881C101.344 204.168 101.813 202.488 102.698 201.021C103.582 199.555 104.849 198.356 106.363 197.554C123.039 188.671 141.644 184.025 160.539 184.025C179.434 184.025 198.039 188.671 214.715 197.554C216.227 198.358 217.492 199.557 218.375 201.024C219.258 202.49 219.727 204.169 219.73 205.881V265.344C219.705 292.014 206.222 317.051 183.478 332.609Z" fill="#AAEEEA"/>
<path d="M183.478 332.609L167.6 343.465C166.07 344.512 164.264 345.085 162.41 345.112C160.556 345.14 158.734 344.62 157.173 343.619L137.651 331.097C114.952 316.552 101.341 292.206 101.341 266.145V205.881C101.344 204.168 101.813 202.488 102.698 201.021C103.582 199.555 104.849 198.356 106.363 197.554C123.039 188.671 141.644 184.025 160.539 184.025C179.434 184.025 198.039 188.671 214.715 197.554C216.227 198.358 217.492 199.557 218.375 201.024C219.258 202.49 219.727 204.169 219.73 205.881V265.344C219.705 292.014 206.222 317.051 183.478 332.609Z" fill="#00CCC1"/>
<path d="M162.272 339.059C161.622 339.06 160.986 338.873 160.44 338.521L140.892 325.992C119.903 312.542 107.375 290.176 107.375 266.145V205.881C107.374 205.265 107.541 204.66 107.858 204.132C108.175 203.604 108.631 203.172 109.175 202.883C124.992 194.5 142.615 190.102 160.517 190.073H161.292C178.928 190.23 196.269 194.624 211.852 202.883C212.396 203.171 212.851 203.602 213.168 204.129C213.485 204.656 213.652 205.259 213.652 205.874V265.344C213.652 289.946 201.092 313.221 180.058 327.607L164.187 338.463C163.624 338.851 162.956 339.059 162.272 339.059Z" fill="#AAEEEA"/>
<path d="M144.21 269.155C144.21 269.155 138.74 271.538 137.805 276.06C137.107 279.377 138.394 293.801 139.131 301.25C139.157 301.535 139.274 301.804 139.464 302.018C139.655 302.232 139.909 302.379 140.189 302.438C140.469 302.496 140.761 302.464 141.021 302.345C141.281 302.225 141.496 302.026 141.635 301.775C143.78 297.933 147.521 292.053 152.446 287.448L144.21 269.155Z" fill="#00CCC1"/>
<path d="M176.811 269.155C176.811 269.155 182.287 271.538 183.216 276.06C183.914 279.377 182.626 293.801 181.89 301.25C181.861 301.535 181.743 301.803 181.552 302.015C181.361 302.228 181.107 302.374 180.827 302.433C180.547 302.491 180.256 302.459 179.995 302.341C179.735 302.223 179.519 302.025 179.379 301.775C177.24 297.933 173.493 292.053 168.574 287.448L176.811 269.155Z" fill="#00CCC1"/>
<mask id="mask0_102_199" style="mask-type:luminance" maskUnits="userSpaceOnUse" x="141" y="211" width="40" height="81">
<path d="M171.719 290.074C176.888 281.292 180.609 267.483 180.321 254.962C179.84 233.826 167.998 218.588 162.188 212.183C162.029 212.009 161.835 211.87 161.619 211.775C161.403 211.68 161.169 211.631 160.933 211.631C160.697 211.631 160.463 211.68 160.247 211.775C160.031 211.87 159.837 212.009 159.678 212.183C153.862 218.588 142.019 233.8 141.539 254.962C141.257 267.483 144.972 281.299 150.147 290.074C153.774 290.742 157.456 291.07 161.144 291.054C164.691 291.039 168.23 290.711 171.719 290.074Z" fill="white"/>
</mask>
<g mask="url(#mask0_102_199)">
<path d="M171.719 290.074C176.888 281.292 180.609 267.483 180.321 254.962C179.84 233.826 167.998 218.588 162.188 212.183C162.029 212.009 161.835 211.87 161.619 211.775C161.403 211.68 161.169 211.631 160.933 211.631C160.697 211.631 160.463 211.68 160.247 211.775C160.031 211.87 159.837 212.009 159.678 212.183C153.862 218.588 142.019 233.8 141.539 254.962C141.257 267.483 144.972 281.299 150.147 290.074C153.774 290.742 157.456 291.07 161.144 291.054C164.691 291.039 168.23 290.711 171.719 290.074Z" fill="#FFF3E3"/>
<path d="M180.34 232.5C167.913 227.358 153.953 227.358 141.526 232.5V205.477H180.34V232.5Z" fill="#00CCC1"/>
</g>
<path d="M172.449 291.97C172.426 292.664 172.155 293.328 171.685 293.841C171.215 294.353 170.577 294.68 169.887 294.762C163.86 295.724 157.718 295.724 151.691 294.762C151.001 294.679 150.364 294.351 149.894 293.839C149.424 293.327 149.153 292.664 149.129 291.97V291.598C149.164 290.813 149.508 290.074 150.087 289.542C150.665 289.01 151.431 288.729 152.216 288.761H169.355C170.142 288.728 170.909 289.008 171.489 289.54C172.069 290.072 172.414 290.812 172.449 291.598V291.97Z" fill="#00CCC1"/>
<path d="M172.449 296.882C172.425 297.577 172.154 298.241 171.684 298.754C171.215 299.267 170.577 299.596 169.887 299.681C163.859 300.638 157.718 300.638 151.691 299.681C151 299.6 150.361 299.273 149.891 298.761C149.42 298.248 149.15 297.584 149.129 296.888V296.517C149.164 295.732 149.508 294.993 150.087 294.461C150.665 293.929 151.431 293.648 152.216 293.68H169.355C170.141 293.648 170.908 293.929 171.487 294.461C172.067 294.992 172.412 295.731 172.449 296.517V296.882Z" fill="#00CCC1"/>
<path d="M160.933 263.621C167.095 263.621 172.09 258.626 172.09 252.464C172.09 246.302 167.095 241.307 160.933 241.307C154.771 241.307 149.776 246.302 149.776 252.464C149.776 258.626 154.771 263.621 160.933 263.621Z" fill="#AAEEEA"/>
<path d="M160.933 260.771C159.286 260.771 157.676 260.283 156.307 259.368C154.938 258.453 153.871 257.153 153.24 255.631C152.61 254.11 152.445 252.435 152.767 250.82C153.088 249.205 153.881 247.722 155.045 246.557C156.21 245.393 157.693 244.6 159.309 244.278C160.924 243.957 162.598 244.122 164.119 244.752C165.641 245.382 166.941 246.45 167.856 247.819C168.771 249.188 169.259 250.798 169.259 252.445C169.259 254.653 168.382 256.771 166.821 258.332C165.259 259.894 163.141 260.771 160.933 260.771Z" fill="#00CCC1"/>
<path d="M155.297 301.724C155.251 301.711 155.202 301.711 155.157 301.724C155.111 301.738 155.071 301.765 155.04 301.801C154.218 302.798 153.596 303.944 153.209 305.176C152.74 306.705 152.639 308.322 152.914 309.897C152.925 309.951 152.952 309.999 152.992 310.036C153.033 310.073 153.084 310.096 153.138 310.102C153.193 310.108 153.248 310.096 153.295 310.068C153.342 310.041 153.379 309.998 153.401 309.948C153.765 309.055 154.303 308.243 154.983 307.559C155.022 307.522 155.072 307.498 155.125 307.491C155.179 307.483 155.233 307.493 155.281 307.519C155.329 307.544 155.367 307.584 155.39 307.633C155.414 307.682 155.421 307.737 155.412 307.79C155.122 309.18 155.193 310.622 155.618 311.977C156.043 313.333 156.808 314.557 157.839 315.533C159.198 316.705 160.914 317.383 162.707 317.455C162.75 317.457 162.793 317.448 162.832 317.429C162.87 317.41 162.904 317.382 162.928 317.347C162.953 317.312 162.969 317.271 162.974 317.228C162.979 317.186 162.973 317.142 162.957 317.102C162.726 316.523 162.625 315.9 162.662 315.277C162.78 314.286 163.18 313.35 163.815 312.581C164.727 311.13 165.197 309.445 165.167 307.732C165.167 307.675 165.186 307.621 165.221 307.576C165.256 307.532 165.305 307.5 165.36 307.486C165.415 307.472 165.473 307.477 165.525 307.499C165.576 307.522 165.62 307.561 165.647 307.61C166.13 308.524 166.33 309.561 166.223 310.589C166.218 310.638 166.228 310.689 166.251 310.733C166.274 310.777 166.309 310.814 166.353 310.839C166.396 310.863 166.446 310.874 166.496 310.871C166.546 310.867 166.593 310.85 166.633 310.819C167.342 310.309 167.93 309.649 168.355 308.887C168.78 308.124 169.033 307.277 169.094 306.406C169.155 305.535 169.023 304.661 168.709 303.846C168.394 303.032 167.904 302.296 167.274 301.692C167.243 301.66 167.204 301.638 167.161 301.626C167.118 301.615 167.073 301.616 167.03 301.628C163.199 302.693 159.153 302.717 155.309 301.699L155.297 301.724Z" fill="#00CCC1"/>
<path d="M285.374 205.368C285.374 205.368 284.913 208.468 294.111 208.36C303.308 208.251 317.213 205.759 317.072 201.794" stroke="#00CCC1" stroke-width="4" stroke-linecap="round" stroke-linejoin="round"/>
<g clip-path="url(#clip0_102_199)">
<path fill-rule="evenodd" clip-rule="evenodd" d="M158.396 253.398C158.396 252.743 159.886 252.212 161.724 252.212C163.562 252.212 165.052 252.743 165.052 253.398V254.488C165.052 255.143 163.562 255.674 161.724 255.674C159.886 255.674 158.396 255.143 158.396 254.488C158.396 254.125 158.396 253.761 158.396 253.398Z" fill="#FE9923"/>
<path fill-rule="evenodd" clip-rule="evenodd" d="M161.724 252.212C163.562 252.212 165.052 252.743 165.052 253.398C165.052 254.053 163.562 254.584 161.724 254.584C159.886 254.584 158.396 254.053 158.396 253.398C158.396 252.743 159.886 252.212 161.724 252.212Z" fill="#FECD3D"/>
<path fill-rule="evenodd" clip-rule="evenodd" d="M161.724 252.766C163.186 252.766 164.372 253.049 164.372 253.398C164.372 253.747 163.186 254.03 161.724 254.03C160.262 254.03 159.076 253.747 159.076 253.398C159.076 253.049 160.262 252.766 161.724 252.766Z" fill="#FEA832"/>
<path d="M160.039 255.011L160.324 255.012V255.564C160.226 255.548 160.132 255.53 160.039 255.511V255.011ZM164.152 254.719V255.299C164.255 255.26 164.35 255.218 164.437 255.175V254.718L164.152 254.719ZM161.067 255.651C161.161 255.658 161.256 255.663 161.352 255.666V255.139L161.067 255.139V255.651ZM159.011 255.175C159.098 255.218 159.193 255.26 159.296 255.299V254.718L159.011 254.719V255.175ZM162.096 255.666C162.192 255.663 162.287 255.657 162.38 255.651V255.139L162.096 255.139V255.666ZM163.124 255.564C163.222 255.548 163.317 255.53 163.408 255.511V255.012L163.124 255.011V255.564Z" fill="#C85929"/>
<path d="M157.062 254.716V255.069H157.415V255.321H157.062V255.674H156.81V255.321H156.457V255.069H156.81V254.716H157.062Z" fill="#FEA832"/>
<path d="M163.515 250.847V251.2H163.868V251.452H163.515V251.805H163.262V251.452H162.91V251.2H163.262V250.847H163.515Z" fill="#FEA832"/>
<path d="M157.232 248.75V249.103H157.584V249.355H157.232V249.708H156.979V249.355H156.626V249.103H156.979V248.75H157.232Z" fill="#FEA832"/>
<path fill-rule="evenodd" clip-rule="evenodd" d="M156.146 252.781C155.818 252.214 156.843 251.009 158.435 250.09C160.027 249.171 161.583 248.886 161.91 249.453C162.092 249.768 162.274 250.082 162.455 250.397C162.783 250.964 161.758 252.169 160.166 253.088C158.574 254.007 157.019 254.292 156.691 253.725C156.509 253.411 156.328 253.096 156.146 252.781Z" fill="#FE9923"/>
<path fill-rule="evenodd" clip-rule="evenodd" d="M158.435 250.09C160.027 249.171 161.583 248.886 161.91 249.453C162.238 250.02 161.213 251.226 159.621 252.144C158.03 253.063 156.474 253.348 156.146 252.781C155.818 252.214 156.843 251.009 158.435 250.09Z" fill="#FECD3D"/>
<path fill-rule="evenodd" clip-rule="evenodd" d="M158.712 250.57C159.979 249.839 161.147 249.491 161.321 249.793C161.496 250.095 160.61 250.933 159.344 251.664C158.078 252.395 156.91 252.743 156.735 252.441C156.561 252.139 157.446 251.301 158.712 250.57Z" fill="#FEA832"/>
<path d="M159.577 252.811L159.841 253.268C159.755 253.313 159.671 253.355 159.586 253.396L159.33 252.953L159.577 252.811ZM157.339 253.617L157.567 254.012C157.664 254.007 157.767 253.995 157.876 253.978L157.586 253.475L157.339 253.617ZM158.376 253.356L158.626 253.789C158.715 253.76 158.806 253.728 158.898 253.693L158.622 253.214L158.376 253.356ZM160.221 252.439L160.485 252.895C160.566 252.844 160.646 252.792 160.723 252.74L160.467 252.297L160.221 252.439ZM162.038 250.904L161.791 251.047L162.082 251.549C162.151 251.464 162.212 251.381 162.266 251.299L162.038 250.904ZM161.048 251.814L161.324 252.293C161.4 252.23 161.473 252.168 161.543 252.105L161.294 251.673L161.048 251.814Z" fill="#C85929"/>
</g>
<defs>
<clipPath id="clip0_102_199">
<rect width="8.98446" height="8.98446" fill="white" transform="translate(156.076 247.72)"/>
</clipPath>
</defs>
</svg>
